%TF.GenerationSoftware,KiCad,Pcbnew,5.1.6-c6e7f7d~87~ubuntu20.04.1*%
%TF.CreationDate,2020-10-29T23:15:31-04:00*%
%TF.ProjectId,waveshaper,77617665-7368-4617-9065-722e6b696361,rev?*%
%TF.SameCoordinates,Original*%
%TF.FileFunction,Legend,Bot*%
%TF.FilePolarity,Positive*%
%FSLAX46Y46*%
G04 Gerber Fmt 4.6, Leading zero omitted, Abs format (unit mm)*
G04 Created by KiCad (PCBNEW 5.1.6-c6e7f7d~87~ubuntu20.04.1) date 2020-10-29 23:15:31*
%MOMM*%
%LPD*%
G01*
G04 APERTURE LIST*
%ADD10C,0.150000*%
%ADD11C,0.120000*%
%ADD12C,0.010000*%
G04 APERTURE END LIST*
D10*
X145452380Y-110452380D02*
X144452380Y-110452380D01*
X145166666Y-110785714D01*
X144452380Y-111119047D01*
X145452380Y-111119047D01*
X145452380Y-111595238D02*
X144452380Y-111595238D01*
X144452380Y-111976190D02*
X145452380Y-112642857D01*
X144452380Y-112642857D02*
X145452380Y-111976190D01*
X145452380Y-107321428D02*
X144976190Y-106988095D01*
X145452380Y-106750000D02*
X144452380Y-106750000D01*
X144452380Y-107130952D01*
X144500000Y-107226190D01*
X144547619Y-107273809D01*
X144642857Y-107321428D01*
X144785714Y-107321428D01*
X144880952Y-107273809D01*
X144928571Y-107226190D01*
X144976190Y-107130952D01*
X144976190Y-106750000D01*
X145452380Y-107750000D02*
X144452380Y-107750000D01*
X145452380Y-108226190D02*
X144452380Y-108226190D01*
X144452380Y-108607142D01*
X144500000Y-108702380D01*
X144547619Y-108750000D01*
X144642857Y-108797619D01*
X144785714Y-108797619D01*
X144880952Y-108750000D01*
X144928571Y-108702380D01*
X144976190Y-108607142D01*
X144976190Y-108226190D01*
X139357142Y-115803571D02*
X138785714Y-115803571D01*
X138464285Y-115410714D02*
X138428571Y-115375000D01*
X138357142Y-115339285D01*
X138178571Y-115339285D01*
X138107142Y-115375000D01*
X138071428Y-115410714D01*
X138035714Y-115482142D01*
X138035714Y-115553571D01*
X138071428Y-115660714D01*
X138500000Y-116089285D01*
X138035714Y-116089285D01*
X136571428Y-115803571D02*
X136000000Y-115803571D01*
X135250000Y-116089285D02*
X135678571Y-116089285D01*
X135464285Y-116089285D02*
X135464285Y-115339285D01*
X135535714Y-115446428D01*
X135607142Y-115517857D01*
X135678571Y-115553571D01*
X133785714Y-115803571D02*
X133214285Y-115803571D01*
X132928571Y-115339285D02*
X132464285Y-115339285D01*
X132714285Y-115625000D01*
X132607142Y-115625000D01*
X132535714Y-115660714D01*
X132500000Y-115696428D01*
X132464285Y-115767857D01*
X132464285Y-115946428D01*
X132500000Y-116017857D01*
X132535714Y-116053571D01*
X132607142Y-116089285D01*
X132821428Y-116089285D01*
X132892857Y-116053571D01*
X132928571Y-116017857D01*
X130285714Y-115339285D02*
X130214285Y-115339285D01*
X130142857Y-115375000D01*
X130107142Y-115410714D01*
X130071428Y-115482142D01*
X130035714Y-115625000D01*
X130035714Y-115803571D01*
X130071428Y-115946428D01*
X130107142Y-116017857D01*
X130142857Y-116053571D01*
X130214285Y-116089285D01*
X130285714Y-116089285D01*
X130357142Y-116053571D01*
X130392857Y-116017857D01*
X130428571Y-115946428D01*
X130464285Y-115803571D01*
X130464285Y-115625000D01*
X130428571Y-115482142D01*
X130392857Y-115410714D01*
X130357142Y-115375000D01*
X130285714Y-115339285D01*
X128571428Y-115803571D02*
X128000000Y-115803571D01*
X128285714Y-116089285D02*
X128285714Y-115517857D01*
X127250000Y-116089285D02*
X127678571Y-116089285D01*
X127464285Y-116089285D02*
X127464285Y-115339285D01*
X127535714Y-115446428D01*
X127607142Y-115517857D01*
X127678571Y-115553571D01*
X125785714Y-115803571D02*
X125214285Y-115803571D01*
X125500000Y-116089285D02*
X125500000Y-115517857D01*
X124892857Y-115410714D02*
X124857142Y-115375000D01*
X124785714Y-115339285D01*
X124607142Y-115339285D01*
X124535714Y-115375000D01*
X124500000Y-115410714D01*
X124464285Y-115482142D01*
X124464285Y-115553571D01*
X124500000Y-115660714D01*
X124928571Y-116089285D01*
X124464285Y-116089285D01*
X123000000Y-115803571D02*
X122428571Y-115803571D01*
X122714285Y-116089285D02*
X122714285Y-115517857D01*
X122142857Y-115339285D02*
X121678571Y-115339285D01*
X121928571Y-115625000D01*
X121821428Y-115625000D01*
X121750000Y-115660714D01*
X121714285Y-115696428D01*
X121678571Y-115767857D01*
X121678571Y-115946428D01*
X121714285Y-116017857D01*
X121750000Y-116053571D01*
X121821428Y-116089285D01*
X122035714Y-116089285D01*
X122107142Y-116053571D01*
X122142857Y-116017857D01*
X129309524Y-152202380D02*
X129309524Y-151202380D01*
X129309524Y-151678571D02*
X128738095Y-151678571D01*
X128738095Y-152202380D02*
X128738095Y-151202380D01*
X128261905Y-152202380D02*
X128261905Y-151202380D01*
X127261905Y-151250000D02*
X127357143Y-151202380D01*
X127500000Y-151202380D01*
X127642857Y-151250000D01*
X127738095Y-151345238D01*
X127785714Y-151440476D01*
X127833333Y-151630952D01*
X127833333Y-151773809D01*
X127785714Y-151964285D01*
X127738095Y-152059523D01*
X127642857Y-152154761D01*
X127500000Y-152202380D01*
X127404762Y-152202380D01*
X127261905Y-152154761D01*
X127214285Y-152107142D01*
X127214285Y-151773809D01*
X127404762Y-151773809D01*
X126785714Y-152202380D02*
X126785714Y-151202380D01*
X126785714Y-151678571D02*
X126214285Y-151678571D01*
X126214285Y-152202380D02*
X126214285Y-151202380D01*
X129595238Y-154654761D02*
X129452381Y-154702380D01*
X129214286Y-154702380D01*
X129119048Y-154654761D01*
X129071429Y-154607142D01*
X129023810Y-154511904D01*
X129023810Y-154416666D01*
X129071429Y-154321428D01*
X129119048Y-154273809D01*
X129214286Y-154226190D01*
X129404762Y-154178571D01*
X129500000Y-154130952D01*
X129547619Y-154083333D01*
X129595238Y-153988095D01*
X129595238Y-153892857D01*
X129547619Y-153797619D01*
X129500000Y-153750000D01*
X129404762Y-153702380D01*
X129166667Y-153702380D01*
X129023810Y-153750000D01*
X128119048Y-154702380D02*
X128595238Y-154702380D01*
X128595238Y-153702380D01*
X127785714Y-154178571D02*
X127452381Y-154178571D01*
X127309524Y-154702380D02*
X127785714Y-154702380D01*
X127785714Y-153702380D01*
X127309524Y-153702380D01*
X126976191Y-153702380D02*
X126738095Y-154702380D01*
X126547619Y-153988095D01*
X126357143Y-154702380D01*
X126119048Y-153702380D01*
X128785714Y-156702380D02*
X128785714Y-155702380D01*
X128452380Y-156416666D01*
X128119047Y-155702380D01*
X128119047Y-156702380D01*
X127642857Y-156178571D02*
X127309523Y-156178571D01*
X127166666Y-156702380D02*
X127642857Y-156702380D01*
X127642857Y-155702380D01*
X127166666Y-155702380D01*
X126738095Y-156702380D02*
X126738095Y-155702380D01*
X126500000Y-155702380D01*
X126357142Y-155750000D01*
X126261904Y-155845238D01*
X126214285Y-155940476D01*
X126166666Y-156130952D01*
X126166666Y-156273809D01*
X126214285Y-156464285D01*
X126261904Y-156559523D01*
X126357142Y-156654761D01*
X126500000Y-156702380D01*
X126738095Y-156702380D01*
X130357143Y-146202380D02*
X130119048Y-147202380D01*
X129928572Y-146488095D01*
X129738096Y-147202380D01*
X129500000Y-146202380D01*
X129119048Y-147202380D02*
X129119048Y-146202380D01*
X128642857Y-147202380D02*
X128642857Y-146202380D01*
X128261905Y-146202380D01*
X128166667Y-146250000D01*
X128119048Y-146297619D01*
X128071429Y-146392857D01*
X128071429Y-146535714D01*
X128119048Y-146630952D01*
X128166667Y-146678571D01*
X128261905Y-146726190D01*
X128642857Y-146726190D01*
X127642857Y-146678571D02*
X127309524Y-146678571D01*
X127166667Y-147202380D02*
X127642857Y-147202380D01*
X127642857Y-146202380D01*
X127166667Y-146202380D01*
X126166667Y-147202380D02*
X126500000Y-146726190D01*
X126738096Y-147202380D02*
X126738096Y-146202380D01*
X126357143Y-146202380D01*
X126261905Y-146250000D01*
X126214286Y-146297619D01*
X126166667Y-146392857D01*
X126166667Y-146535714D01*
X126214286Y-146630952D01*
X126261905Y-146678571D01*
X126357143Y-146726190D01*
X126738096Y-146726190D01*
X128309523Y-144107142D02*
X128357142Y-144154761D01*
X128499999Y-144202380D01*
X128595238Y-144202380D01*
X128738095Y-144154761D01*
X128833333Y-144059523D01*
X128880952Y-143964285D01*
X128928571Y-143773809D01*
X128928571Y-143630952D01*
X128880952Y-143440476D01*
X128833333Y-143345238D01*
X128738095Y-143250000D01*
X128595238Y-143202380D01*
X128499999Y-143202380D01*
X128357142Y-143250000D01*
X128309523Y-143297619D01*
X127309523Y-144107142D02*
X127357142Y-144154761D01*
X127499999Y-144202380D01*
X127595238Y-144202380D01*
X127738095Y-144154761D01*
X127833333Y-144059523D01*
X127880952Y-143964285D01*
X127928571Y-143773809D01*
X127928571Y-143630952D01*
X127880952Y-143440476D01*
X127833333Y-143345238D01*
X127738095Y-143250000D01*
X127595238Y-143202380D01*
X127499999Y-143202380D01*
X127357142Y-143250000D01*
X127309523Y-143297619D01*
X126976190Y-143202380D02*
X126738095Y-144202380D01*
X126547619Y-143488095D01*
X126357142Y-144202380D01*
X126119047Y-143202380D01*
X159107142Y-51378571D02*
X158607142Y-52878571D01*
X158107142Y-51378571D01*
X157392857Y-52878571D02*
X157535714Y-52807142D01*
X157607142Y-52735714D01*
X157678571Y-52592857D01*
X157678571Y-52164285D01*
X157607142Y-52021428D01*
X157535714Y-51950000D01*
X157392857Y-51878571D01*
X157178571Y-51878571D01*
X157035714Y-51950000D01*
X156964285Y-52021428D01*
X156892857Y-52164285D01*
X156892857Y-52592857D01*
X156964285Y-52735714D01*
X157035714Y-52807142D01*
X157178571Y-52878571D01*
X157392857Y-52878571D01*
X156035714Y-52878571D02*
X156178571Y-52807142D01*
X156250000Y-52664285D01*
X156250000Y-51378571D01*
X155678571Y-51878571D02*
X155107142Y-51878571D01*
X155464285Y-51378571D02*
X155464285Y-52664285D01*
X155392857Y-52807142D01*
X155250000Y-52878571D01*
X155107142Y-52878571D01*
X153964285Y-52878571D02*
X153964285Y-52092857D01*
X154035714Y-51950000D01*
X154178571Y-51878571D01*
X154464285Y-51878571D01*
X154607142Y-51950000D01*
X153964285Y-52807142D02*
X154107142Y-52878571D01*
X154464285Y-52878571D01*
X154607142Y-52807142D01*
X154678571Y-52664285D01*
X154678571Y-52521428D01*
X154607142Y-52378571D01*
X154464285Y-52307142D01*
X154107142Y-52307142D01*
X153964285Y-52235714D01*
X152607142Y-51878571D02*
X152607142Y-53092857D01*
X152678571Y-53235714D01*
X152750000Y-53307142D01*
X152892857Y-53378571D01*
X153107142Y-53378571D01*
X153250000Y-53307142D01*
X152607142Y-52807142D02*
X152750000Y-52878571D01*
X153035714Y-52878571D01*
X153178571Y-52807142D01*
X153250000Y-52735714D01*
X153321428Y-52592857D01*
X153321428Y-52164285D01*
X153250000Y-52021428D01*
X153178571Y-51950000D01*
X153035714Y-51878571D01*
X152750000Y-51878571D01*
X152607142Y-51950000D01*
X151321428Y-52807142D02*
X151464285Y-52878571D01*
X151750000Y-52878571D01*
X151892857Y-52807142D01*
X151964285Y-52664285D01*
X151964285Y-52092857D01*
X151892857Y-51950000D01*
X151750000Y-51878571D01*
X151464285Y-51878571D01*
X151321428Y-51950000D01*
X151250000Y-52092857D01*
X151250000Y-52235714D01*
X151964285Y-52378571D01*
X148607142Y-52735714D02*
X148678571Y-52807142D01*
X148892857Y-52878571D01*
X149035714Y-52878571D01*
X149250000Y-52807142D01*
X149392857Y-52664285D01*
X149464285Y-52521428D01*
X149535714Y-52235714D01*
X149535714Y-52021428D01*
X149464285Y-51735714D01*
X149392857Y-51592857D01*
X149250000Y-51450000D01*
X149035714Y-51378571D01*
X148892857Y-51378571D01*
X148678571Y-51450000D01*
X148607142Y-51521428D01*
X147750000Y-52878571D02*
X147892857Y-52807142D01*
X147964285Y-52735714D01*
X148035714Y-52592857D01*
X148035714Y-52164285D01*
X147964285Y-52021428D01*
X147892857Y-51950000D01*
X147750000Y-51878571D01*
X147535714Y-51878571D01*
X147392857Y-51950000D01*
X147321428Y-52021428D01*
X147250000Y-52164285D01*
X147250000Y-52592857D01*
X147321428Y-52735714D01*
X147392857Y-52807142D01*
X147535714Y-52878571D01*
X147750000Y-52878571D01*
X146607142Y-51878571D02*
X146607142Y-52878571D01*
X146607142Y-52021428D02*
X146535714Y-51950000D01*
X146392857Y-51878571D01*
X146178571Y-51878571D01*
X146035714Y-51950000D01*
X145964285Y-52092857D01*
X145964285Y-52878571D01*
X145464285Y-51878571D02*
X144892857Y-51878571D01*
X145250000Y-51378571D02*
X145250000Y-52664285D01*
X145178571Y-52807142D01*
X145035714Y-52878571D01*
X144892857Y-52878571D01*
X144392857Y-52878571D02*
X144392857Y-51878571D01*
X144392857Y-52164285D02*
X144321428Y-52021428D01*
X144250000Y-51950000D01*
X144107142Y-51878571D01*
X143964285Y-51878571D01*
X143250000Y-52878571D02*
X143392857Y-52807142D01*
X143464285Y-52735714D01*
X143535714Y-52592857D01*
X143535714Y-52164285D01*
X143464285Y-52021428D01*
X143392857Y-51950000D01*
X143250000Y-51878571D01*
X143035714Y-51878571D01*
X142892857Y-51950000D01*
X142821428Y-52021428D01*
X142750000Y-52164285D01*
X142750000Y-52592857D01*
X142821428Y-52735714D01*
X142892857Y-52807142D01*
X143035714Y-52878571D01*
X143250000Y-52878571D01*
X141892857Y-52878571D02*
X142035714Y-52807142D01*
X142107142Y-52664285D01*
X142107142Y-51378571D01*
X141107142Y-52878571D02*
X141250000Y-52807142D01*
X141321428Y-52664285D01*
X141321428Y-51378571D01*
X139964285Y-52807142D02*
X140107142Y-52878571D01*
X140392857Y-52878571D01*
X140535714Y-52807142D01*
X140607142Y-52664285D01*
X140607142Y-52092857D01*
X140535714Y-51950000D01*
X140392857Y-51878571D01*
X140107142Y-51878571D01*
X139964285Y-51950000D01*
X139892857Y-52092857D01*
X139892857Y-52235714D01*
X140607142Y-52378571D01*
X138607142Y-52878571D02*
X138607142Y-51378571D01*
X138607142Y-52807142D02*
X138750000Y-52878571D01*
X139035714Y-52878571D01*
X139178571Y-52807142D01*
X139250000Y-52735714D01*
X139321428Y-52592857D01*
X139321428Y-52164285D01*
X139250000Y-52021428D01*
X139178571Y-51950000D01*
X139035714Y-51878571D01*
X138750000Y-51878571D01*
X138607142Y-51950000D01*
X158357142Y-54278571D02*
X158357142Y-55278571D01*
X158714285Y-53707142D02*
X159071428Y-54778571D01*
X158142857Y-54778571D01*
X157285714Y-53778571D02*
X157142857Y-53778571D01*
X157000000Y-53850000D01*
X156928571Y-53921428D01*
X156857142Y-54064285D01*
X156785714Y-54350000D01*
X156785714Y-54707142D01*
X156857142Y-54992857D01*
X156928571Y-55135714D01*
X157000000Y-55207142D01*
X157142857Y-55278571D01*
X157285714Y-55278571D01*
X157428571Y-55207142D01*
X157500000Y-55135714D01*
X157571428Y-54992857D01*
X157642857Y-54707142D01*
X157642857Y-54350000D01*
X157571428Y-54064285D01*
X157500000Y-53921428D01*
X157428571Y-53850000D01*
X157285714Y-53778571D01*
X155500000Y-54278571D02*
X155500000Y-55278571D01*
X155857142Y-53707142D02*
X156214285Y-54778571D01*
X155285714Y-54778571D01*
X154071428Y-53778571D02*
X154357142Y-53778571D01*
X154500000Y-53850000D01*
X154571428Y-53921428D01*
X154714285Y-54135714D01*
X154785714Y-54421428D01*
X154785714Y-54992857D01*
X154714285Y-55135714D01*
X154642857Y-55207142D01*
X154500000Y-55278571D01*
X154214285Y-55278571D01*
X154071428Y-55207142D01*
X154000000Y-55135714D01*
X153928571Y-54992857D01*
X153928571Y-54635714D01*
X154000000Y-54492857D01*
X154071428Y-54421428D01*
X154214285Y-54350000D01*
X154500000Y-54350000D01*
X154642857Y-54421428D01*
X154714285Y-54492857D01*
X154785714Y-54635714D01*
X152285714Y-53778571D02*
X151928571Y-55278571D01*
X151642857Y-54207142D01*
X151357142Y-55278571D01*
X151000000Y-53778571D01*
X149785714Y-55278571D02*
X149785714Y-54492857D01*
X149857142Y-54350000D01*
X150000000Y-54278571D01*
X150285714Y-54278571D01*
X150428571Y-54350000D01*
X149785714Y-55207142D02*
X149928571Y-55278571D01*
X150285714Y-55278571D01*
X150428571Y-55207142D01*
X150500000Y-55064285D01*
X150500000Y-54921428D01*
X150428571Y-54778571D01*
X150285714Y-54707142D01*
X149928571Y-54707142D01*
X149785714Y-54635714D01*
X149214285Y-54278571D02*
X148857142Y-55278571D01*
X148500000Y-54278571D01*
X147357142Y-55207142D02*
X147500000Y-55278571D01*
X147785714Y-55278571D01*
X147928571Y-55207142D01*
X148000000Y-55064285D01*
X148000000Y-54492857D01*
X147928571Y-54350000D01*
X147785714Y-54278571D01*
X147500000Y-54278571D01*
X147357142Y-54350000D01*
X147285714Y-54492857D01*
X147285714Y-54635714D01*
X148000000Y-54778571D01*
X145571428Y-55207142D02*
X145357142Y-55278571D01*
X145000000Y-55278571D01*
X144857142Y-55207142D01*
X144785714Y-55135714D01*
X144714285Y-54992857D01*
X144714285Y-54850000D01*
X144785714Y-54707142D01*
X144857142Y-54635714D01*
X145000000Y-54564285D01*
X145285714Y-54492857D01*
X145428571Y-54421428D01*
X145500000Y-54350000D01*
X145571428Y-54207142D01*
X145571428Y-54064285D01*
X145500000Y-53921428D01*
X145428571Y-53850000D01*
X145285714Y-53778571D01*
X144928571Y-53778571D01*
X144714285Y-53850000D01*
X144071428Y-55278571D02*
X144071428Y-53778571D01*
X143428571Y-55278571D02*
X143428571Y-54492857D01*
X143500000Y-54350000D01*
X143642857Y-54278571D01*
X143857142Y-54278571D01*
X144000000Y-54350000D01*
X144071428Y-54421428D01*
X142071428Y-55278571D02*
X142071428Y-54492857D01*
X142142857Y-54350000D01*
X142285714Y-54278571D01*
X142571428Y-54278571D01*
X142714285Y-54350000D01*
X142071428Y-55207142D02*
X142214285Y-55278571D01*
X142571428Y-55278571D01*
X142714285Y-55207142D01*
X142785714Y-55064285D01*
X142785714Y-54921428D01*
X142714285Y-54778571D01*
X142571428Y-54707142D01*
X142214285Y-54707142D01*
X142071428Y-54635714D01*
X141357142Y-54278571D02*
X141357142Y-55778571D01*
X141357142Y-54350000D02*
X141214285Y-54278571D01*
X140928571Y-54278571D01*
X140785714Y-54350000D01*
X140714285Y-54421428D01*
X140642857Y-54564285D01*
X140642857Y-54992857D01*
X140714285Y-55135714D01*
X140785714Y-55207142D01*
X140928571Y-55278571D01*
X141214285Y-55278571D01*
X141357142Y-55207142D01*
X139428571Y-55207142D02*
X139571428Y-55278571D01*
X139857142Y-55278571D01*
X140000000Y-55207142D01*
X140071428Y-55064285D01*
X140071428Y-54492857D01*
X140000000Y-54350000D01*
X139857142Y-54278571D01*
X139571428Y-54278571D01*
X139428571Y-54350000D01*
X139357142Y-54492857D01*
X139357142Y-54635714D01*
X140071428Y-54778571D01*
X138714285Y-55278571D02*
X138714285Y-54278571D01*
X138714285Y-54564285D02*
X138642857Y-54421428D01*
X138571428Y-54350000D01*
X138428571Y-54278571D01*
X138285714Y-54278571D01*
X161250000Y-56178571D02*
X160750000Y-57678571D01*
X160250000Y-56178571D01*
X158892857Y-57535714D02*
X158964285Y-57607142D01*
X159178571Y-57678571D01*
X159321428Y-57678571D01*
X159535714Y-57607142D01*
X159678571Y-57464285D01*
X159750000Y-57321428D01*
X159821428Y-57035714D01*
X159821428Y-56821428D01*
X159750000Y-56535714D01*
X159678571Y-56392857D01*
X159535714Y-56250000D01*
X159321428Y-56178571D01*
X159178571Y-56178571D01*
X158964285Y-56250000D01*
X158892857Y-56321428D01*
X158321428Y-57250000D02*
X157607142Y-57250000D01*
X158464285Y-57678571D02*
X157964285Y-56178571D01*
X157464285Y-57678571D01*
X155892857Y-56107142D02*
X157178571Y-58035714D01*
X155392857Y-56678571D02*
X155392857Y-58178571D01*
X155392857Y-56750000D02*
X155250000Y-56678571D01*
X154964285Y-56678571D01*
X154821428Y-56750000D01*
X154750000Y-56821428D01*
X154678571Y-56964285D01*
X154678571Y-57392857D01*
X154750000Y-57535714D01*
X154821428Y-57607142D01*
X154964285Y-57678571D01*
X155250000Y-57678571D01*
X155392857Y-57607142D01*
X153821428Y-57678571D02*
X153964285Y-57607142D01*
X154035714Y-57535714D01*
X154107142Y-57392857D01*
X154107142Y-56964285D01*
X154035714Y-56821428D01*
X153964285Y-56750000D01*
X153821428Y-56678571D01*
X153607142Y-56678571D01*
X153464285Y-56750000D01*
X153392857Y-56821428D01*
X153321428Y-56964285D01*
X153321428Y-57392857D01*
X153392857Y-57535714D01*
X153464285Y-57607142D01*
X153607142Y-57678571D01*
X153821428Y-57678571D01*
X152892857Y-56678571D02*
X152321428Y-56678571D01*
X152678571Y-56178571D02*
X152678571Y-57464285D01*
X152607142Y-57607142D01*
X152464285Y-57678571D01*
X152321428Y-57678571D01*
X150750000Y-56107142D02*
X152035714Y-58035714D01*
X150321428Y-57607142D02*
X150178571Y-57678571D01*
X149892857Y-57678571D01*
X149750000Y-57607142D01*
X149678571Y-57464285D01*
X149678571Y-57392857D01*
X149750000Y-57250000D01*
X149892857Y-57178571D01*
X150107142Y-57178571D01*
X150250000Y-57107142D01*
X150321428Y-56964285D01*
X150321428Y-56892857D01*
X150250000Y-56750000D01*
X150107142Y-56678571D01*
X149892857Y-56678571D01*
X149750000Y-56750000D01*
X149178571Y-56678571D02*
X148892857Y-57678571D01*
X148607142Y-56964285D01*
X148321428Y-57678571D01*
X148035714Y-56678571D01*
X147464285Y-57678571D02*
X147464285Y-56678571D01*
X147464285Y-56178571D02*
X147535714Y-56250000D01*
X147464285Y-56321428D01*
X147392857Y-56250000D01*
X147464285Y-56178571D01*
X147464285Y-56321428D01*
X146964285Y-56678571D02*
X146392857Y-56678571D01*
X146750000Y-56178571D02*
X146750000Y-57464285D01*
X146678571Y-57607142D01*
X146535714Y-57678571D01*
X146392857Y-57678571D01*
X145250000Y-57607142D02*
X145392857Y-57678571D01*
X145678571Y-57678571D01*
X145821428Y-57607142D01*
X145892857Y-57535714D01*
X145964285Y-57392857D01*
X145964285Y-56964285D01*
X145892857Y-56821428D01*
X145821428Y-56750000D01*
X145678571Y-56678571D01*
X145392857Y-56678571D01*
X145250000Y-56750000D01*
X144607142Y-57678571D02*
X144607142Y-56178571D01*
X143964285Y-57678571D02*
X143964285Y-56892857D01*
X144035714Y-56750000D01*
X144178571Y-56678571D01*
X144392857Y-56678571D01*
X144535714Y-56750000D01*
X144607142Y-56821428D01*
X142107142Y-57678571D02*
X142107142Y-56178571D01*
X142107142Y-56750000D02*
X141964285Y-56678571D01*
X141678571Y-56678571D01*
X141535714Y-56750000D01*
X141464285Y-56821428D01*
X141392857Y-56964285D01*
X141392857Y-57392857D01*
X141464285Y-57535714D01*
X141535714Y-57607142D01*
X141678571Y-57678571D01*
X141964285Y-57678571D01*
X142107142Y-57607142D01*
X140535714Y-57678571D02*
X140678571Y-57607142D01*
X140750000Y-57535714D01*
X140821428Y-57392857D01*
X140821428Y-56964285D01*
X140750000Y-56821428D01*
X140678571Y-56750000D01*
X140535714Y-56678571D01*
X140321428Y-56678571D01*
X140178571Y-56750000D01*
X140107142Y-56821428D01*
X140035714Y-56964285D01*
X140035714Y-57392857D01*
X140107142Y-57535714D01*
X140178571Y-57607142D01*
X140321428Y-57678571D01*
X140535714Y-57678571D01*
X138750000Y-57678571D02*
X138750000Y-56892857D01*
X138821428Y-56750000D01*
X138964285Y-56678571D01*
X139250000Y-56678571D01*
X139392857Y-56750000D01*
X138750000Y-57607142D02*
X138892857Y-57678571D01*
X139250000Y-57678571D01*
X139392857Y-57607142D01*
X139464285Y-57464285D01*
X139464285Y-57321428D01*
X139392857Y-57178571D01*
X139250000Y-57107142D01*
X138892857Y-57107142D01*
X138750000Y-57035714D01*
X138035714Y-57678571D02*
X138035714Y-56678571D01*
X138035714Y-56964285D02*
X137964285Y-56821428D01*
X137892857Y-56750000D01*
X137750000Y-56678571D01*
X137607142Y-56678571D01*
X136464285Y-57678571D02*
X136464285Y-56178571D01*
X136464285Y-57607142D02*
X136607142Y-57678571D01*
X136892857Y-57678571D01*
X137035714Y-57607142D01*
X137107142Y-57535714D01*
X137178571Y-57392857D01*
X137178571Y-56964285D01*
X137107142Y-56821428D01*
X137035714Y-56750000D01*
X136892857Y-56678571D01*
X136607142Y-56678571D01*
X136464285Y-56750000D01*
X154642857Y-60078571D02*
X155142857Y-59364285D01*
X155500000Y-60078571D02*
X155500000Y-58578571D01*
X154928571Y-58578571D01*
X154785714Y-58650000D01*
X154714285Y-58721428D01*
X154642857Y-58864285D01*
X154642857Y-59078571D01*
X154714285Y-59221428D01*
X154785714Y-59292857D01*
X154928571Y-59364285D01*
X155500000Y-59364285D01*
X154000000Y-60078571D02*
X154000000Y-59078571D01*
X154000000Y-58578571D02*
X154071428Y-58650000D01*
X154000000Y-58721428D01*
X153928571Y-58650000D01*
X154000000Y-58578571D01*
X154000000Y-58721428D01*
X152642857Y-60007142D02*
X152785714Y-60078571D01*
X153071428Y-60078571D01*
X153214285Y-60007142D01*
X153285714Y-59935714D01*
X153357142Y-59792857D01*
X153357142Y-59364285D01*
X153285714Y-59221428D01*
X153214285Y-59150000D01*
X153071428Y-59078571D01*
X152785714Y-59078571D01*
X152642857Y-59150000D01*
X152000000Y-60078571D02*
X152000000Y-58578571D01*
X151357142Y-60078571D02*
X151357142Y-59292857D01*
X151428571Y-59150000D01*
X151571428Y-59078571D01*
X151785714Y-59078571D01*
X151928571Y-59150000D01*
X152000000Y-59221428D01*
X149500000Y-60078571D02*
X149500000Y-58578571D01*
X149500000Y-59292857D02*
X148642857Y-59292857D01*
X148642857Y-60078571D02*
X148642857Y-58578571D01*
X147714285Y-60078571D02*
X147857142Y-60007142D01*
X147928571Y-59935714D01*
X148000000Y-59792857D01*
X148000000Y-59364285D01*
X147928571Y-59221428D01*
X147857142Y-59150000D01*
X147714285Y-59078571D01*
X147500000Y-59078571D01*
X147357142Y-59150000D01*
X147285714Y-59221428D01*
X147214285Y-59364285D01*
X147214285Y-59792857D01*
X147285714Y-59935714D01*
X147357142Y-60007142D01*
X147500000Y-60078571D01*
X147714285Y-60078571D01*
X146357142Y-60078571D02*
X146500000Y-60007142D01*
X146571428Y-59864285D01*
X146571428Y-58578571D01*
X145785714Y-60078571D02*
X145785714Y-59078571D01*
X145785714Y-59221428D02*
X145714285Y-59150000D01*
X145571428Y-59078571D01*
X145357142Y-59078571D01*
X145214285Y-59150000D01*
X145142857Y-59292857D01*
X145142857Y-60078571D01*
X145142857Y-59292857D02*
X145071428Y-59150000D01*
X144928571Y-59078571D01*
X144714285Y-59078571D01*
X144571428Y-59150000D01*
X144500000Y-59292857D01*
X144500000Y-60078571D01*
X143214285Y-60007142D02*
X143357142Y-60078571D01*
X143642857Y-60078571D01*
X143785714Y-60007142D01*
X143857142Y-59864285D01*
X143857142Y-59292857D01*
X143785714Y-59150000D01*
X143642857Y-59078571D01*
X143357142Y-59078571D01*
X143214285Y-59150000D01*
X143142857Y-59292857D01*
X143142857Y-59435714D01*
X143857142Y-59578571D01*
X142571428Y-60007142D02*
X142428571Y-60078571D01*
X142142857Y-60078571D01*
X142000000Y-60007142D01*
X141928571Y-59864285D01*
X141928571Y-59792857D01*
X142000000Y-59650000D01*
X142142857Y-59578571D01*
X142357142Y-59578571D01*
X142500000Y-59507142D01*
X142571428Y-59364285D01*
X142571428Y-59292857D01*
X142500000Y-59150000D01*
X142357142Y-59078571D01*
X142142857Y-59078571D01*
X142000000Y-59150000D01*
X153392857Y-60978571D02*
X153107142Y-60978571D01*
X152964285Y-61050000D01*
X152821428Y-61192857D01*
X152750000Y-61478571D01*
X152750000Y-61978571D01*
X152821428Y-62264285D01*
X152964285Y-62407142D01*
X153107142Y-62478571D01*
X153392857Y-62478571D01*
X153535714Y-62407142D01*
X153678571Y-62264285D01*
X153750000Y-61978571D01*
X153750000Y-61478571D01*
X153678571Y-61192857D01*
X153535714Y-61050000D01*
X153392857Y-60978571D01*
X151464285Y-62407142D02*
X151607142Y-62478571D01*
X151892857Y-62478571D01*
X152035714Y-62407142D01*
X152107142Y-62335714D01*
X152178571Y-62192857D01*
X152178571Y-61764285D01*
X152107142Y-61621428D01*
X152035714Y-61550000D01*
X151892857Y-61478571D01*
X151607142Y-61478571D01*
X151464285Y-61550000D01*
X151035714Y-61478571D02*
X150464285Y-61478571D01*
X150821428Y-60978571D02*
X150821428Y-62264285D01*
X150750000Y-62407142D01*
X150607142Y-62478571D01*
X150464285Y-62478571D01*
X148892857Y-61121428D02*
X148821428Y-61050000D01*
X148678571Y-60978571D01*
X148321428Y-60978571D01*
X148178571Y-61050000D01*
X148107142Y-61121428D01*
X148035714Y-61264285D01*
X148035714Y-61407142D01*
X148107142Y-61621428D01*
X148964285Y-62478571D01*
X148035714Y-62478571D01*
X147107142Y-60978571D02*
X146964285Y-60978571D01*
X146821428Y-61050000D01*
X146750000Y-61121428D01*
X146678571Y-61264285D01*
X146607142Y-61550000D01*
X146607142Y-61907142D01*
X146678571Y-62192857D01*
X146750000Y-62335714D01*
X146821428Y-62407142D01*
X146964285Y-62478571D01*
X147107142Y-62478571D01*
X147250000Y-62407142D01*
X147321428Y-62335714D01*
X147392857Y-62192857D01*
X147464285Y-61907142D01*
X147464285Y-61550000D01*
X147392857Y-61264285D01*
X147321428Y-61121428D01*
X147250000Y-61050000D01*
X147107142Y-60978571D01*
X146035714Y-61121428D02*
X145964285Y-61050000D01*
X145821428Y-60978571D01*
X145464285Y-60978571D01*
X145321428Y-61050000D01*
X145250000Y-61121428D01*
X145178571Y-61264285D01*
X145178571Y-61407142D01*
X145250000Y-61621428D01*
X146107142Y-62478571D01*
X145178571Y-62478571D01*
X144250000Y-60978571D02*
X144107142Y-60978571D01*
X143964285Y-61050000D01*
X143892857Y-61121428D01*
X143821428Y-61264285D01*
X143750000Y-61550000D01*
X143750000Y-61907142D01*
X143821428Y-62192857D01*
X143892857Y-62335714D01*
X143964285Y-62407142D01*
X144107142Y-62478571D01*
X144250000Y-62478571D01*
X144392857Y-62407142D01*
X144464285Y-62335714D01*
X144535714Y-62192857D01*
X144607142Y-61907142D01*
X144607142Y-61550000D01*
X144535714Y-61264285D01*
X144464285Y-61121428D01*
X144392857Y-61050000D01*
X144250000Y-60978571D01*
D11*
%TO.C,J13*%
X120400000Y-33170000D02*
X120400000Y-40550000D01*
X119900000Y-33170000D02*
X120380000Y-33170000D01*
X120400000Y-28670000D02*
X119890000Y-28670000D01*
X120400000Y-21300000D02*
X120400000Y-28650000D01*
X120400000Y-21300000D02*
X119900000Y-20800000D01*
X128150000Y-21300000D02*
X120400000Y-21300000D01*
X128150000Y-21300000D02*
X128700000Y-20750000D01*
X128150000Y-40550000D02*
X128150000Y-21300000D01*
X128150000Y-40550000D02*
X128700000Y-41100000D01*
X120400000Y-40550000D02*
X128150000Y-40550000D01*
X119850000Y-41100000D02*
X120400000Y-40550000D01*
X119850000Y-20750000D02*
X119850000Y-41100000D01*
X128700000Y-20750000D02*
X119850000Y-20750000D01*
X128700000Y-41100000D02*
X128700000Y-20750000D01*
X119850000Y-41100000D02*
X128700000Y-41100000D01*
X119595000Y-41350000D02*
X128945000Y-41350000D01*
X119595000Y-20490000D02*
X119595000Y-41350000D01*
X128945000Y-20490000D02*
X119595000Y-20490000D01*
X128945000Y-41350000D02*
X128945000Y-20490000D01*
%TO.C,J10*%
X123130000Y-103780000D02*
X122630000Y-104780000D01*
X122130000Y-103780000D02*
X123130000Y-103780000D01*
X122630000Y-104780000D02*
X122130000Y-103780000D01*
X132300000Y-106480000D02*
X132300000Y-105170000D01*
X132300000Y-106480000D02*
X132300000Y-106480000D01*
X141780000Y-106480000D02*
X132300000Y-106480000D01*
X141780000Y-112980000D02*
X141780000Y-106480000D01*
X118720000Y-112980000D02*
X141780000Y-112980000D01*
X118720000Y-106480000D02*
X118720000Y-112980000D01*
X128200000Y-106480000D02*
X118720000Y-106480000D01*
X128200000Y-105170000D02*
X128200000Y-106480000D01*
X143080000Y-105170000D02*
X117420000Y-105170000D01*
X143080000Y-114290000D02*
X143080000Y-105170000D01*
X117420000Y-114290000D02*
X143080000Y-114290000D01*
X117420000Y-105170000D02*
X117420000Y-114290000D01*
%TO.C,J11*%
X124030000Y-157630000D02*
X118010000Y-157630000D01*
X118010000Y-157630000D02*
X118010000Y-149790000D01*
X118010000Y-149790000D02*
X124030000Y-149790000D01*
X124030000Y-149790000D02*
X124030000Y-157630000D01*
X123000000Y-157920000D02*
X119000000Y-157920000D01*
X118010000Y-156250000D02*
X119010000Y-156250000D01*
X119010000Y-156250000D02*
X119010000Y-151170000D01*
X119010000Y-151170000D02*
X118010000Y-151170000D01*
X119010000Y-156250000D02*
X119540000Y-156000000D01*
X119540000Y-156000000D02*
X119540000Y-151420000D01*
X119540000Y-151420000D02*
X119010000Y-151170000D01*
X118010000Y-156000000D02*
X119010000Y-156000000D01*
X118010000Y-151420000D02*
X119010000Y-151420000D01*
X124030000Y-157050000D02*
X123430000Y-157050000D01*
X123430000Y-157050000D02*
X123430000Y-155450000D01*
X123430000Y-155450000D02*
X124030000Y-155450000D01*
X124030000Y-154510000D02*
X123430000Y-154510000D01*
X123430000Y-154510000D02*
X123430000Y-152910000D01*
X123430000Y-152910000D02*
X124030000Y-152910000D01*
X124030000Y-151970000D02*
X123430000Y-151970000D01*
X123430000Y-151970000D02*
X123430000Y-150370000D01*
X123430000Y-150370000D02*
X124030000Y-150370000D01*
%TO.C,J20*%
X124030000Y-148130000D02*
X118010000Y-148130000D01*
X118010000Y-148130000D02*
X118010000Y-142830000D01*
X118010000Y-142830000D02*
X124030000Y-142830000D01*
X124030000Y-142830000D02*
X124030000Y-148130000D01*
X123000000Y-148420000D02*
X119000000Y-148420000D01*
X118010000Y-146750000D02*
X119010000Y-146750000D01*
X119010000Y-146750000D02*
X119010000Y-144210000D01*
X119010000Y-144210000D02*
X118010000Y-144210000D01*
X119010000Y-146750000D02*
X119540000Y-146500000D01*
X119540000Y-146500000D02*
X119540000Y-144460000D01*
X119540000Y-144460000D02*
X119010000Y-144210000D01*
X118010000Y-146500000D02*
X119010000Y-146500000D01*
X118010000Y-144460000D02*
X119010000Y-144460000D01*
X124030000Y-147550000D02*
X123430000Y-147550000D01*
X123430000Y-147550000D02*
X123430000Y-145950000D01*
X123430000Y-145950000D02*
X124030000Y-145950000D01*
X124030000Y-145010000D02*
X123430000Y-145010000D01*
X123430000Y-145010000D02*
X123430000Y-143410000D01*
X123430000Y-143410000D02*
X124030000Y-143410000D01*
D12*
%TO.C,G\u002A\u002A\u002A*%
G36*
X124314588Y-62852281D02*
G01*
X124251480Y-62853088D01*
X124178115Y-62853844D01*
X124096935Y-62854535D01*
X124010383Y-62855145D01*
X123920902Y-62855659D01*
X123830934Y-62856063D01*
X123742922Y-62856342D01*
X123659310Y-62856480D01*
X123628788Y-62856492D01*
X123233500Y-62856500D01*
X123233500Y-63262900D01*
X124217750Y-63262900D01*
X124217750Y-67358650D01*
X123620850Y-67358650D01*
X123620850Y-63847338D01*
X123765313Y-63845631D01*
X123909775Y-63843925D01*
X123911487Y-63705757D01*
X123913198Y-63567589D01*
X123573097Y-63569232D01*
X123232995Y-63570875D01*
X123231660Y-65667962D01*
X123230325Y-67765050D01*
X124605100Y-67765050D01*
X124605100Y-62848078D01*
X124314588Y-62852281D01*
G37*
X124314588Y-62852281D02*
X124251480Y-62853088D01*
X124178115Y-62853844D01*
X124096935Y-62854535D01*
X124010383Y-62855145D01*
X123920902Y-62855659D01*
X123830934Y-62856063D01*
X123742922Y-62856342D01*
X123659310Y-62856480D01*
X123628788Y-62856492D01*
X123233500Y-62856500D01*
X123233500Y-63262900D01*
X124217750Y-63262900D01*
X124217750Y-67358650D01*
X123620850Y-67358650D01*
X123620850Y-63847338D01*
X123765313Y-63845631D01*
X123909775Y-63843925D01*
X123911487Y-63705757D01*
X123913198Y-63567589D01*
X123573097Y-63569232D01*
X123232995Y-63570875D01*
X123231660Y-65667962D01*
X123230325Y-67765050D01*
X124605100Y-67765050D01*
X124605100Y-62848078D01*
X124314588Y-62852281D01*
G36*
X125651263Y-62851709D02*
G01*
X124963875Y-62853325D01*
X124962280Y-65309187D01*
X124960684Y-67765050D01*
X126338650Y-67765050D01*
X126338650Y-63262900D01*
X125944950Y-63262900D01*
X125944950Y-67358650D01*
X125354400Y-67358650D01*
X125354400Y-63262900D01*
X125944950Y-63262900D01*
X126338650Y-63262900D01*
X126338650Y-62850093D01*
X125651263Y-62851709D01*
G37*
X125651263Y-62851709D02*
X124963875Y-62853325D01*
X124962280Y-65309187D01*
X124960684Y-67765050D01*
X126338650Y-67765050D01*
X126338650Y-63262900D01*
X125944950Y-63262900D01*
X125944950Y-67358650D01*
X125354400Y-67358650D01*
X125354400Y-63262900D01*
X125944950Y-63262900D01*
X126338650Y-63262900D01*
X126338650Y-62850093D01*
X125651263Y-62851709D01*
G36*
X127683272Y-65105987D02*
G01*
X127681675Y-67355475D01*
X127187963Y-67357101D01*
X126694250Y-67358727D01*
X126694250Y-67765050D01*
X128072200Y-67765050D01*
X128072200Y-62856500D01*
X127684868Y-62856500D01*
X127683272Y-65105987D01*
G37*
X127683272Y-65105987D02*
X127681675Y-67355475D01*
X127187963Y-67357101D01*
X126694250Y-67358727D01*
X126694250Y-67765050D01*
X128072200Y-67765050D01*
X128072200Y-62856500D01*
X127684868Y-62856500D01*
X127683272Y-65105987D01*
G36*
X128429380Y-65309187D02*
G01*
X128427784Y-67765050D01*
X128815150Y-67765050D01*
X128815150Y-67358650D01*
X129412050Y-67358650D01*
X129412050Y-67765050D01*
X129805767Y-67765050D01*
X129804171Y-65309187D01*
X129802842Y-63262900D01*
X129412050Y-63262900D01*
X129412050Y-67085725D01*
X129115188Y-67084075D01*
X128818325Y-67082425D01*
X128816728Y-65172662D01*
X128815130Y-63262900D01*
X129412050Y-63262900D01*
X129802842Y-63262900D01*
X129802575Y-62853325D01*
X128430975Y-62853325D01*
X128429380Y-65309187D01*
G37*
X128429380Y-65309187D02*
X128427784Y-67765050D01*
X128815150Y-67765050D01*
X128815150Y-67358650D01*
X129412050Y-67358650D01*
X129412050Y-67765050D01*
X129805767Y-67765050D01*
X129804171Y-65309187D01*
X129802842Y-63262900D01*
X129412050Y-63262900D01*
X129412050Y-67085725D01*
X129115188Y-67084075D01*
X128818325Y-67082425D01*
X128816728Y-65172662D01*
X128815130Y-63262900D01*
X129412050Y-63262900D01*
X129802842Y-63262900D01*
X129802575Y-62853325D01*
X128430975Y-62853325D01*
X128429380Y-65309187D01*
G36*
X130161350Y-67765050D02*
G01*
X130548700Y-67765050D01*
X130548700Y-63262900D01*
X131145600Y-63262900D01*
X131145600Y-67765050D01*
X131532950Y-67765050D01*
X131534491Y-65513975D01*
X131534607Y-65343382D01*
X131534721Y-65174999D01*
X131534834Y-65009333D01*
X131534943Y-64846892D01*
X131535049Y-64688185D01*
X131535152Y-64533718D01*
X131535252Y-64383999D01*
X131535347Y-64239538D01*
X131535438Y-64100841D01*
X131535525Y-63968417D01*
X131535606Y-63842774D01*
X131535682Y-63724418D01*
X131535753Y-63613860D01*
X131535817Y-63511605D01*
X131535875Y-63418163D01*
X131535927Y-63334041D01*
X131535971Y-63259748D01*
X131536009Y-63195790D01*
X131536039Y-63142676D01*
X131536060Y-63100914D01*
X131536074Y-63071012D01*
X131536078Y-63058112D01*
X131536125Y-62853325D01*
X130848738Y-62853098D01*
X130161350Y-62852872D01*
X130161350Y-67765050D01*
G37*
X130161350Y-67765050D02*
X130548700Y-67765050D01*
X130548700Y-63262900D01*
X131145600Y-63262900D01*
X131145600Y-67765050D01*
X131532950Y-67765050D01*
X131534491Y-65513975D01*
X131534607Y-65343382D01*
X131534721Y-65174999D01*
X131534834Y-65009333D01*
X131534943Y-64846892D01*
X131535049Y-64688185D01*
X131535152Y-64533718D01*
X131535252Y-64383999D01*
X131535347Y-64239538D01*
X131535438Y-64100841D01*
X131535525Y-63968417D01*
X131535606Y-63842774D01*
X131535682Y-63724418D01*
X131535753Y-63613860D01*
X131535817Y-63511605D01*
X131535875Y-63418163D01*
X131535927Y-63334041D01*
X131535971Y-63259748D01*
X131536009Y-63195790D01*
X131536039Y-63142676D01*
X131536060Y-63100914D01*
X131536074Y-63071012D01*
X131536078Y-63058112D01*
X131536125Y-62853325D01*
X130848738Y-62853098D01*
X130161350Y-62852872D01*
X130161350Y-67765050D01*
G36*
X131894900Y-67765050D02*
G01*
X132282250Y-67765050D01*
X132282250Y-67358650D01*
X132879150Y-67358650D01*
X132879150Y-67765050D01*
X133266500Y-67765050D01*
X133266628Y-67563437D01*
X133266640Y-67541822D01*
X133266654Y-67508014D01*
X133266671Y-67462520D01*
X133266691Y-67405845D01*
X133266714Y-67338496D01*
X133266738Y-67260980D01*
X133266766Y-67173804D01*
X133266795Y-67077474D01*
X133266826Y-66972497D01*
X133266859Y-66859379D01*
X133266894Y-66738627D01*
X133266930Y-66610748D01*
X133266968Y-66476247D01*
X133267007Y-66335632D01*
X133267047Y-66189410D01*
X133267088Y-66038086D01*
X133267130Y-65882168D01*
X133267173Y-65722162D01*
X133267216Y-65558575D01*
X133267260Y-65391913D01*
X133267304Y-65222682D01*
X133267333Y-65107575D01*
X133267805Y-63262900D01*
X132879150Y-63262900D01*
X132879150Y-67085725D01*
X132582288Y-67084075D01*
X132285425Y-67082425D01*
X132283828Y-65172662D01*
X132282230Y-63262900D01*
X132879150Y-63262900D01*
X133267805Y-63262900D01*
X133267910Y-62853325D01*
X132581405Y-62853098D01*
X131894900Y-62852872D01*
X131894900Y-67765050D01*
G37*
X131894900Y-67765050D02*
X132282250Y-67765050D01*
X132282250Y-67358650D01*
X132879150Y-67358650D01*
X132879150Y-67765050D01*
X133266500Y-67765050D01*
X133266628Y-67563437D01*
X133266640Y-67541822D01*
X133266654Y-67508014D01*
X133266671Y-67462520D01*
X133266691Y-67405845D01*
X133266714Y-67338496D01*
X133266738Y-67260980D01*
X133266766Y-67173804D01*
X133266795Y-67077474D01*
X133266826Y-66972497D01*
X133266859Y-66859379D01*
X133266894Y-66738627D01*
X133266930Y-66610748D01*
X133266968Y-66476247D01*
X133267007Y-66335632D01*
X133267047Y-66189410D01*
X133267088Y-66038086D01*
X133267130Y-65882168D01*
X133267173Y-65722162D01*
X133267216Y-65558575D01*
X133267260Y-65391913D01*
X133267304Y-65222682D01*
X133267333Y-65107575D01*
X133267805Y-63262900D01*
X132879150Y-63262900D01*
X132879150Y-67085725D01*
X132582288Y-67084075D01*
X132285425Y-67082425D01*
X132283828Y-65172662D01*
X132282230Y-63262900D01*
X132879150Y-63262900D01*
X133267805Y-63262900D01*
X133267910Y-62853325D01*
X132581405Y-62853098D01*
X131894900Y-62852872D01*
X131894900Y-67765050D01*
G36*
X123233500Y-68641350D02*
G01*
X123722450Y-68641350D01*
X123722450Y-73143500D01*
X124116150Y-73143500D01*
X124116150Y-68641350D01*
X124605100Y-68641350D01*
X124605100Y-68234950D01*
X123233500Y-68234950D01*
X123233500Y-68641350D01*
G37*
X123233500Y-68641350D02*
X123722450Y-68641350D01*
X123722450Y-73143500D01*
X124116150Y-73143500D01*
X124116150Y-68641350D01*
X124605100Y-68641350D01*
X124605100Y-68234950D01*
X123233500Y-68234950D01*
X123233500Y-68641350D01*
G36*
X126694250Y-69498522D02*
G01*
X127187963Y-69500148D01*
X127681675Y-69501775D01*
X127683274Y-71322637D01*
X127684872Y-73143500D01*
X128072200Y-73143500D01*
X128072200Y-68959181D01*
X127683773Y-68959181D01*
X127683703Y-69001195D01*
X127683458Y-69036245D01*
X127683048Y-69062800D01*
X127682481Y-69079330D01*
X127681961Y-69084220D01*
X127678623Y-69086165D01*
X127669632Y-69087789D01*
X127654095Y-69089117D01*
X127631114Y-69090172D01*
X127599796Y-69090979D01*
X127559244Y-69091561D01*
X127508563Y-69091942D01*
X127446859Y-69092147D01*
X127383425Y-69092200D01*
X127087950Y-69092200D01*
X127087950Y-68641224D01*
X127384813Y-68642874D01*
X127681675Y-68644525D01*
X127683349Y-68860382D01*
X127683658Y-68911733D01*
X127683773Y-68959181D01*
X128072200Y-68959181D01*
X128072200Y-68234950D01*
X126694250Y-68234950D01*
X126694250Y-69498522D01*
G37*
X126694250Y-69498522D02*
X127187963Y-69500148D01*
X127681675Y-69501775D01*
X127683274Y-71322637D01*
X127684872Y-73143500D01*
X128072200Y-73143500D01*
X128072200Y-68959181D01*
X127683773Y-68959181D01*
X127683703Y-69001195D01*
X127683458Y-69036245D01*
X127683048Y-69062800D01*
X127682481Y-69079330D01*
X127681961Y-69084220D01*
X127678623Y-69086165D01*
X127669632Y-69087789D01*
X127654095Y-69089117D01*
X127631114Y-69090172D01*
X127599796Y-69090979D01*
X127559244Y-69091561D01*
X127508563Y-69091942D01*
X127446859Y-69092147D01*
X127383425Y-69092200D01*
X127087950Y-69092200D01*
X127087950Y-68641224D01*
X127384813Y-68642874D01*
X127681675Y-68644525D01*
X127683349Y-68860382D01*
X127683658Y-68911733D01*
X127683773Y-68959181D01*
X128072200Y-68959181D01*
X128072200Y-68234950D01*
X126694250Y-68234950D01*
X126694250Y-69498522D01*
G36*
X128427800Y-68641350D02*
G01*
X128923100Y-68641350D01*
X128923100Y-73143500D01*
X129310450Y-73143500D01*
X129310450Y-68641350D01*
X129805750Y-68641350D01*
X129805750Y-68234950D01*
X128427800Y-68234950D01*
X128427800Y-68641350D01*
G37*
X128427800Y-68641350D02*
X128923100Y-68641350D01*
X128923100Y-73143500D01*
X129310450Y-73143500D01*
X129310450Y-68641350D01*
X129805750Y-68641350D01*
X129805750Y-68234950D01*
X128427800Y-68234950D01*
X128427800Y-68641350D01*
G36*
X125951300Y-72737100D02*
G01*
X125354400Y-72737100D01*
X125354400Y-68234950D01*
X124967050Y-68234950D01*
X124965510Y-70486025D01*
X124965394Y-70656617D01*
X124965280Y-70825000D01*
X124965167Y-70990666D01*
X124965058Y-71153107D01*
X124964952Y-71311814D01*
X124964849Y-71466281D01*
X124964749Y-71616000D01*
X124964654Y-71760461D01*
X124964563Y-71899158D01*
X124964476Y-72031582D01*
X124964395Y-72157225D01*
X124964319Y-72275581D01*
X124964248Y-72386139D01*
X124964184Y-72488394D01*
X124964126Y-72581836D01*
X124964074Y-72665958D01*
X124964030Y-72740251D01*
X124963992Y-72804209D01*
X124963962Y-72857323D01*
X124963941Y-72899085D01*
X124963927Y-72928987D01*
X124963923Y-72941887D01*
X124963875Y-73146675D01*
X125651263Y-73146901D01*
X126338650Y-73147127D01*
X126338650Y-68234950D01*
X125951300Y-68234950D01*
X125951300Y-72737100D01*
G37*
X125951300Y-72737100D02*
X125354400Y-72737100D01*
X125354400Y-68234950D01*
X124967050Y-68234950D01*
X124965510Y-70486025D01*
X124965394Y-70656617D01*
X124965280Y-70825000D01*
X124965167Y-70990666D01*
X124965058Y-71153107D01*
X124964952Y-71311814D01*
X124964849Y-71466281D01*
X124964749Y-71616000D01*
X124964654Y-71760461D01*
X124964563Y-71899158D01*
X124964476Y-72031582D01*
X124964395Y-72157225D01*
X124964319Y-72275581D01*
X124964248Y-72386139D01*
X124964184Y-72488394D01*
X124964126Y-72581836D01*
X124964074Y-72665958D01*
X124964030Y-72740251D01*
X124963992Y-72804209D01*
X124963962Y-72857323D01*
X124963941Y-72899085D01*
X124963927Y-72928987D01*
X124963923Y-72941887D01*
X124963875Y-73146675D01*
X125651263Y-73146901D01*
X126338650Y-73147127D01*
X126338650Y-68234950D01*
X125951300Y-68234950D01*
X125951300Y-72737100D01*
G36*
X131145600Y-72737100D02*
G01*
X130548700Y-72737100D01*
X130548700Y-68234950D01*
X130161350Y-68234950D01*
X130161350Y-73147095D01*
X130847627Y-73147095D01*
X130939853Y-73147064D01*
X131028459Y-73146975D01*
X131112623Y-73146831D01*
X131191527Y-73146637D01*
X131264351Y-73146396D01*
X131330275Y-73146112D01*
X131388480Y-73145790D01*
X131438145Y-73145434D01*
X131478453Y-73145047D01*
X131508581Y-73144634D01*
X131527712Y-73144199D01*
X131535026Y-73143745D01*
X131535075Y-73143710D01*
X131535154Y-73137187D01*
X131535220Y-73118398D01*
X131535275Y-73087776D01*
X131535318Y-73045754D01*
X131535349Y-72992765D01*
X131535369Y-72929243D01*
X131535377Y-72855622D01*
X131535375Y-72772333D01*
X131535361Y-72679812D01*
X131535337Y-72578492D01*
X131535302Y-72468804D01*
X131535256Y-72351184D01*
X131535201Y-72226065D01*
X131535135Y-72093879D01*
X131535059Y-71955060D01*
X131534974Y-71810042D01*
X131534879Y-71659258D01*
X131534774Y-71503141D01*
X131534660Y-71342124D01*
X131534537Y-71176642D01*
X131534405Y-71007127D01*
X131534265Y-70834012D01*
X131534141Y-70687637D01*
X131532035Y-68234950D01*
X131145600Y-68234950D01*
X131145600Y-72737100D01*
G37*
X131145600Y-72737100D02*
X130548700Y-72737100D01*
X130548700Y-68234950D01*
X130161350Y-68234950D01*
X130161350Y-73147095D01*
X130847627Y-73147095D01*
X130939853Y-73147064D01*
X131028459Y-73146975D01*
X131112623Y-73146831D01*
X131191527Y-73146637D01*
X131264351Y-73146396D01*
X131330275Y-73146112D01*
X131388480Y-73145790D01*
X131438145Y-73145434D01*
X131478453Y-73145047D01*
X131508581Y-73144634D01*
X131527712Y-73144199D01*
X131535026Y-73143745D01*
X131535075Y-73143710D01*
X131535154Y-73137187D01*
X131535220Y-73118398D01*
X131535275Y-73087776D01*
X131535318Y-73045754D01*
X131535349Y-72992765D01*
X131535369Y-72929243D01*
X131535377Y-72855622D01*
X131535375Y-72772333D01*
X131535361Y-72679812D01*
X131535337Y-72578492D01*
X131535302Y-72468804D01*
X131535256Y-72351184D01*
X131535201Y-72226065D01*
X131535135Y-72093879D01*
X131535059Y-71955060D01*
X131534974Y-71810042D01*
X131534879Y-71659258D01*
X131534774Y-71503141D01*
X131534660Y-71342124D01*
X131534537Y-71176642D01*
X131534405Y-71007127D01*
X131534265Y-70834012D01*
X131534141Y-70687637D01*
X131532035Y-68234950D01*
X131145600Y-68234950D01*
X131145600Y-72737100D01*
G36*
X131894900Y-73149850D02*
G01*
X132579642Y-73149850D01*
X132671836Y-73149811D01*
X132760458Y-73149699D01*
X132844681Y-73149519D01*
X132923680Y-73149275D01*
X132996630Y-73148972D01*
X133062705Y-73148617D01*
X133121080Y-73148213D01*
X133170930Y-73147766D01*
X133211428Y-73147281D01*
X133241750Y-73146764D01*
X133261071Y-73146218D01*
X133268563Y-73145649D01*
X133268617Y-73145616D01*
X133268921Y-73139033D01*
X133269218Y-73120182D01*
X133269510Y-73089499D01*
X133269794Y-73047417D01*
X133270070Y-72994368D01*
X133270338Y-72930787D01*
X133270597Y-72857108D01*
X133270845Y-72773763D01*
X133271082Y-72681186D01*
X133271308Y-72579811D01*
X133271522Y-72470070D01*
X133271722Y-72352399D01*
X133271909Y-72227230D01*
X133272081Y-72094997D01*
X133272238Y-71956133D01*
X133272378Y-71811072D01*
X133272502Y-71660247D01*
X133272608Y-71504092D01*
X133272696Y-71343040D01*
X133272765Y-71177526D01*
X133272814Y-71007981D01*
X133272843Y-70834841D01*
X133272850Y-70688166D01*
X133272850Y-68641350D01*
X132879150Y-68641350D01*
X132879150Y-72737100D01*
X132282250Y-72737100D01*
X132282250Y-68641350D01*
X132879150Y-68641350D01*
X133272850Y-68641350D01*
X133272850Y-68234950D01*
X131894900Y-68234950D01*
X131894900Y-73149850D01*
G37*
X131894900Y-73149850D02*
X132579642Y-73149850D01*
X132671836Y-73149811D01*
X132760458Y-73149699D01*
X132844681Y-73149519D01*
X132923680Y-73149275D01*
X132996630Y-73148972D01*
X133062705Y-73148617D01*
X133121080Y-73148213D01*
X133170930Y-73147766D01*
X133211428Y-73147281D01*
X133241750Y-73146764D01*
X133261071Y-73146218D01*
X133268563Y-73145649D01*
X133268617Y-73145616D01*
X133268921Y-73139033D01*
X133269218Y-73120182D01*
X133269510Y-73089499D01*
X133269794Y-73047417D01*
X133270070Y-72994368D01*
X133270338Y-72930787D01*
X133270597Y-72857108D01*
X133270845Y-72773763D01*
X133271082Y-72681186D01*
X133271308Y-72579811D01*
X133271522Y-72470070D01*
X133271722Y-72352399D01*
X133271909Y-72227230D01*
X133272081Y-72094997D01*
X133272238Y-71956133D01*
X133272378Y-71811072D01*
X133272502Y-71660247D01*
X133272608Y-71504092D01*
X133272696Y-71343040D01*
X133272765Y-71177526D01*
X133272814Y-71007981D01*
X133272843Y-70834841D01*
X133272850Y-70688166D01*
X133272850Y-68641350D01*
X132879150Y-68641350D01*
X132879150Y-72737100D01*
X132282250Y-72737100D01*
X132282250Y-68641350D01*
X132879150Y-68641350D01*
X133272850Y-68641350D01*
X133272850Y-68234950D01*
X131894900Y-68234950D01*
X131894900Y-73149850D01*
G36*
X128075009Y-59975735D02*
G01*
X127859371Y-59982774D01*
X127651091Y-59995337D01*
X127640400Y-59996151D01*
X127321626Y-60027031D01*
X127005426Y-60070289D01*
X126692096Y-60125818D01*
X126381928Y-60193510D01*
X126075218Y-60273257D01*
X125772259Y-60364950D01*
X125473346Y-60468480D01*
X125178773Y-60583741D01*
X124888834Y-60710622D01*
X124603823Y-60849017D01*
X124324035Y-60998816D01*
X124049763Y-61159912D01*
X123781301Y-61332196D01*
X123525600Y-61510716D01*
X123277604Y-61698759D01*
X123036079Y-61897428D01*
X122801714Y-62106041D01*
X122575199Y-62323919D01*
X122357223Y-62550380D01*
X122148476Y-62784742D01*
X121949645Y-63026326D01*
X121816140Y-63200161D01*
X121631124Y-63458787D01*
X121456770Y-63724146D01*
X121293239Y-63995861D01*
X121140694Y-64273556D01*
X120999296Y-64556854D01*
X120869206Y-64845380D01*
X120750587Y-65138756D01*
X120643601Y-65436608D01*
X120548409Y-65738557D01*
X120465173Y-66044229D01*
X120394055Y-66353246D01*
X120340945Y-66631575D01*
X120312958Y-66804235D01*
X120288963Y-66975168D01*
X120268561Y-67147803D01*
X120251352Y-67325570D01*
X120236937Y-67511896D01*
X120235069Y-67539625D01*
X120232958Y-67579936D01*
X120231165Y-67631142D01*
X120229689Y-67691464D01*
X120228531Y-67759124D01*
X120227690Y-67832341D01*
X120227167Y-67909338D01*
X120226961Y-67988334D01*
X120227074Y-68067552D01*
X120227504Y-68145212D01*
X120228252Y-68219534D01*
X120229319Y-68288741D01*
X120230704Y-68351053D01*
X120232407Y-68404691D01*
X120234429Y-68447876D01*
X120235009Y-68457200D01*
X120256361Y-68725334D01*
X120284324Y-68984351D01*
X120319188Y-69236148D01*
X120361243Y-69482622D01*
X120410779Y-69725671D01*
X120462045Y-69943241D01*
X120546259Y-70253427D01*
X120642154Y-70558673D01*
X120749638Y-70858811D01*
X120868622Y-71153671D01*
X120999016Y-71443085D01*
X121140729Y-71726882D01*
X121293671Y-72004895D01*
X121457753Y-72276954D01*
X121632883Y-72542889D01*
X121818972Y-72802532D01*
X122015930Y-73055714D01*
X122223666Y-73302265D01*
X122295554Y-73383239D01*
X122327512Y-73418069D01*
X122367042Y-73460027D01*
X122412613Y-73507566D01*
X122462690Y-73559144D01*
X122515738Y-73613214D01*
X122570224Y-73668232D01*
X122624614Y-73722654D01*
X122677374Y-73774935D01*
X122726969Y-73823529D01*
X122771866Y-73866893D01*
X122810531Y-73903481D01*
X122830275Y-73921698D01*
X123072836Y-74134082D01*
X123322174Y-74335786D01*
X123578032Y-74526703D01*
X123840154Y-74706729D01*
X124108283Y-74875757D01*
X124382164Y-75033681D01*
X124661538Y-75180395D01*
X124946149Y-75315794D01*
X125235742Y-75439772D01*
X125530059Y-75552223D01*
X125828844Y-75653041D01*
X126131840Y-75742120D01*
X126438790Y-75819355D01*
X126749438Y-75884638D01*
X127063528Y-75937866D01*
X127380802Y-75978931D01*
X127701004Y-76007728D01*
X127916625Y-76020087D01*
X127955981Y-76021469D01*
X128005474Y-76022637D01*
X128062849Y-76023583D01*
X128125849Y-76024301D01*
X128192219Y-76024782D01*
X128259705Y-76025020D01*
X128326049Y-76025006D01*
X128388997Y-76024734D01*
X128446292Y-76024196D01*
X128495681Y-76023385D01*
X128534906Y-76022293D01*
X128538925Y-76022138D01*
X128860722Y-76003071D01*
X129179955Y-75971720D01*
X129496341Y-75928190D01*
X129809596Y-75872587D01*
X130119438Y-75805016D01*
X130425584Y-75725583D01*
X130727751Y-75634392D01*
X131025655Y-75531550D01*
X131319013Y-75417162D01*
X131607543Y-75291333D01*
X131890962Y-75154168D01*
X132168985Y-75005773D01*
X132441331Y-74846253D01*
X132707715Y-74675714D01*
X132967856Y-74494261D01*
X133221470Y-74302000D01*
X133276025Y-74258532D01*
X133487418Y-74082109D01*
X133696302Y-73894938D01*
X133900677Y-73698964D01*
X134098541Y-73496129D01*
X134287893Y-73288375D01*
X134355801Y-73210175D01*
X134553678Y-72969527D01*
X134742429Y-72720284D01*
X134921698Y-72463034D01*
X135091129Y-72198365D01*
X135250368Y-71926867D01*
X135399059Y-71649127D01*
X135536847Y-71365734D01*
X135663377Y-71077277D01*
X135705038Y-70974975D01*
X135816951Y-70677599D01*
X135916713Y-70376886D01*
X136004313Y-70073211D01*
X136079739Y-69766952D01*
X136142978Y-69458484D01*
X136194020Y-69148185D01*
X136232850Y-68836431D01*
X136259459Y-68523599D01*
X136273833Y-68210065D01*
X136275257Y-68000000D01*
X136190525Y-68000000D01*
X136190420Y-68096293D01*
X136190053Y-68181638D01*
X136189342Y-68257786D01*
X136188208Y-68326488D01*
X136186571Y-68389495D01*
X136184351Y-68448557D01*
X136181468Y-68505424D01*
X136177841Y-68561849D01*
X136173391Y-68619581D01*
X136168037Y-68680371D01*
X136161699Y-68745971D01*
X136154298Y-68818131D01*
X136152188Y-68838200D01*
X136112733Y-69151784D01*
X136060918Y-69462810D01*
X135996887Y-69770937D01*
X135920786Y-70075827D01*
X135832758Y-70377138D01*
X135732949Y-70674531D01*
X135621503Y-70967665D01*
X135498565Y-71256201D01*
X135364278Y-71539799D01*
X135218789Y-71818118D01*
X135062242Y-72090819D01*
X134894781Y-72357562D01*
X134716550Y-72618007D01*
X134527696Y-72871813D01*
X134334278Y-73111595D01*
X134275300Y-73181174D01*
X134218385Y-73246716D01*
X134161728Y-73310173D01*
X134103524Y-73373500D01*
X134041968Y-73438647D01*
X133975256Y-73507568D01*
X133901582Y-73582215D01*
X133870129Y-73613744D01*
X133741722Y-73740062D01*
X133617782Y-73857562D01*
X133496037Y-73968192D01*
X133374215Y-74073898D01*
X133250044Y-74176628D01*
X133121255Y-74278330D01*
X132985573Y-74380950D01*
X132912960Y-74434290D01*
X132670788Y-74603233D01*
X132419703Y-74764170D01*
X132160879Y-74916523D01*
X131895489Y-75059718D01*
X131624710Y-75193179D01*
X131349715Y-75316331D01*
X131071679Y-75428598D01*
X130791777Y-75529404D01*
X130511182Y-75618175D01*
X130475675Y-75628524D01*
X130246154Y-75691549D01*
X130020120Y-75746941D01*
X129795439Y-75795055D01*
X129569972Y-75836244D01*
X129341585Y-75870863D01*
X129108141Y-75899267D01*
X128867502Y-75921810D01*
X128617534Y-75938847D01*
X128599250Y-75939864D01*
X128571293Y-75940894D01*
X128532221Y-75941600D01*
X128483615Y-75942002D01*
X128427056Y-75942121D01*
X128364126Y-75941975D01*
X128296404Y-75941584D01*
X128225472Y-75940970D01*
X128152911Y-75940150D01*
X128080302Y-75939146D01*
X128009224Y-75937976D01*
X127941260Y-75936661D01*
X127877990Y-75935221D01*
X127820995Y-75933675D01*
X127771856Y-75932043D01*
X127732154Y-75930346D01*
X127703900Y-75928635D01*
X127559442Y-75916665D01*
X127424159Y-75903570D01*
X127294545Y-75888923D01*
X127167097Y-75872300D01*
X127038308Y-75853277D01*
X126910150Y-75832359D01*
X126600510Y-75773295D01*
X126293869Y-75701975D01*
X125990608Y-75618569D01*
X125691105Y-75523249D01*
X125395737Y-75416185D01*
X125104884Y-75297547D01*
X124818923Y-75167506D01*
X124538234Y-75026233D01*
X124263194Y-74873898D01*
X123994181Y-74710672D01*
X123731575Y-74536725D01*
X123475753Y-74352227D01*
X123268425Y-74190866D01*
X123060283Y-74017043D01*
X122855548Y-73833804D01*
X122656369Y-73643227D01*
X122464898Y-73447393D01*
X122283285Y-73248381D01*
X122227831Y-73184632D01*
X122024860Y-72938812D01*
X121832363Y-72685875D01*
X121650468Y-72426036D01*
X121479306Y-72159510D01*
X121319009Y-71886511D01*
X121169705Y-71607255D01*
X121031527Y-71321957D01*
X120904604Y-71030832D01*
X120873646Y-70954666D01*
X120761364Y-70657325D01*
X120661208Y-70356408D01*
X120573252Y-70052227D01*
X120497572Y-69745092D01*
X120434244Y-69435316D01*
X120383342Y-69123210D01*
X120344942Y-68809086D01*
X120338183Y-68739775D01*
X120332207Y-68674465D01*
X120327107Y-68615676D01*
X120322815Y-68561664D01*
X120319263Y-68510687D01*
X120316382Y-68461004D01*
X120314106Y-68410873D01*
X120312366Y-68358551D01*
X120311093Y-68302296D01*
X120310221Y-68240367D01*
X120309681Y-68171022D01*
X120309405Y-68092518D01*
X120309326Y-68003113D01*
X120309325Y-68000000D01*
X120309400Y-67910211D01*
X120309668Y-67831379D01*
X120310199Y-67761763D01*
X120311059Y-67699620D01*
X120312317Y-67643208D01*
X120314041Y-67590785D01*
X120316299Y-67540610D01*
X120319159Y-67490940D01*
X120322688Y-67440033D01*
X120326955Y-67386147D01*
X120332028Y-67327541D01*
X120337974Y-67262471D01*
X120338183Y-67260225D01*
X120373729Y-66946587D01*
X120421716Y-66635048D01*
X120482001Y-66325996D01*
X120554441Y-66019818D01*
X120638891Y-65716902D01*
X120735209Y-65417635D01*
X120843252Y-65122406D01*
X120962876Y-64831601D01*
X121093939Y-64545608D01*
X121236296Y-64264815D01*
X121389804Y-63989610D01*
X121554321Y-63720379D01*
X121729703Y-63457511D01*
X121759306Y-63415300D01*
X121946191Y-63161644D01*
X122143354Y-62915341D01*
X122350514Y-62676690D01*
X122567389Y-62445990D01*
X122793696Y-62223539D01*
X123029154Y-62009637D01*
X123273481Y-61804582D01*
X123297000Y-61785687D01*
X123540568Y-61598764D01*
X123792808Y-61420822D01*
X124053058Y-61252232D01*
X124320652Y-61093367D01*
X124594925Y-60944601D01*
X124875213Y-60806305D01*
X125160851Y-60678853D01*
X125451175Y-60562617D01*
X125532200Y-60532502D01*
X125815528Y-60435024D01*
X126101701Y-60348738D01*
X126391467Y-60273486D01*
X126685573Y-60209108D01*
X126984766Y-60155447D01*
X127289791Y-60112344D01*
X127601396Y-60079641D01*
X127710250Y-60070767D01*
X127761370Y-60067595D01*
X127823408Y-60064898D01*
X127894593Y-60062679D01*
X127973153Y-60060935D01*
X128057315Y-60059667D01*
X128145309Y-60058876D01*
X128235361Y-60058561D01*
X128325700Y-60058722D01*
X128414553Y-60059359D01*
X128500149Y-60060473D01*
X128580716Y-60062062D01*
X128654480Y-60064128D01*
X128719671Y-60066670D01*
X128774517Y-60069689D01*
X128789750Y-60070767D01*
X129065546Y-60095598D01*
X129332838Y-60127842D01*
X129593686Y-60167858D01*
X129850144Y-60216002D01*
X130104271Y-60272631D01*
X130358124Y-60338104D01*
X130407319Y-60351805D01*
X130707127Y-60442852D01*
X131003427Y-60545948D01*
X131295696Y-60660819D01*
X131583407Y-60787187D01*
X131866037Y-60924778D01*
X132143060Y-61073317D01*
X132413952Y-61232527D01*
X132678188Y-61402134D01*
X132935244Y-61581861D01*
X133184595Y-61771434D01*
X133319628Y-61880928D01*
X133464563Y-62004537D01*
X133611129Y-62135990D01*
X133756920Y-62272948D01*
X133899530Y-62413072D01*
X134036553Y-62554023D01*
X134165583Y-62693463D01*
X134228569Y-62764425D01*
X134432443Y-63007239D01*
X134625992Y-63257244D01*
X134809065Y-63514096D01*
X134981512Y-63777449D01*
X135143183Y-64046959D01*
X135293927Y-64322283D01*
X135433592Y-64603076D01*
X135562030Y-64888995D01*
X135679088Y-65179694D01*
X135784617Y-65474830D01*
X135878466Y-65774058D01*
X135960485Y-66077035D01*
X136030522Y-66383415D01*
X136088428Y-66692856D01*
X136134051Y-67005012D01*
X136152188Y-67161800D01*
X136159879Y-67235953D01*
X136166486Y-67303091D01*
X136172088Y-67364965D01*
X136176765Y-67423324D01*
X136180599Y-67479920D01*
X136183668Y-67536504D01*
X136186053Y-67594826D01*
X136187834Y-67656638D01*
X136189091Y-67723689D01*
X136189904Y-67797731D01*
X136190353Y-67880515D01*
X136190519Y-67973791D01*
X136190525Y-68000000D01*
X136275257Y-68000000D01*
X136275961Y-67896206D01*
X136265831Y-67582399D01*
X136243431Y-67269019D01*
X136208748Y-66956445D01*
X136161771Y-66645052D01*
X136102488Y-66335217D01*
X136030887Y-66027317D01*
X135946955Y-65721728D01*
X135879244Y-65504450D01*
X135774074Y-65203487D01*
X135657255Y-64907463D01*
X135528952Y-64616663D01*
X135389335Y-64331376D01*
X135238571Y-64051888D01*
X135076826Y-63778485D01*
X134904269Y-63511455D01*
X134721068Y-63251084D01*
X134527389Y-62997661D01*
X134323401Y-62751470D01*
X134171538Y-62580275D01*
X134141783Y-62548295D01*
X134104406Y-62509116D01*
X134060971Y-62464307D01*
X134013046Y-62415433D01*
X133962197Y-62364061D01*
X133909992Y-62311757D01*
X133857996Y-62260090D01*
X133807778Y-62210624D01*
X133760903Y-62164928D01*
X133718938Y-62124568D01*
X133683451Y-62091110D01*
X133669725Y-62078462D01*
X133428953Y-61867276D01*
X133180816Y-61666321D01*
X132925604Y-61475760D01*
X132663605Y-61295753D01*
X132395110Y-61126464D01*
X132120406Y-60968054D01*
X131839784Y-60820685D01*
X131553531Y-60684520D01*
X131261939Y-60559720D01*
X130965295Y-60446447D01*
X130663889Y-60344863D01*
X130472500Y-60287174D01*
X130163603Y-60204847D01*
X129851890Y-60134900D01*
X129537412Y-60077345D01*
X129220225Y-60032191D01*
X128935800Y-60002451D01*
X128728403Y-59987578D01*
X128513293Y-59978156D01*
X128294240Y-59974202D01*
X128075009Y-59975735D01*
G37*
X128075009Y-59975735D02*
X127859371Y-59982774D01*
X127651091Y-59995337D01*
X127640400Y-59996151D01*
X127321626Y-60027031D01*
X127005426Y-60070289D01*
X126692096Y-60125818D01*
X126381928Y-60193510D01*
X126075218Y-60273257D01*
X125772259Y-60364950D01*
X125473346Y-60468480D01*
X125178773Y-60583741D01*
X124888834Y-60710622D01*
X124603823Y-60849017D01*
X124324035Y-60998816D01*
X124049763Y-61159912D01*
X123781301Y-61332196D01*
X123525600Y-61510716D01*
X123277604Y-61698759D01*
X123036079Y-61897428D01*
X122801714Y-62106041D01*
X122575199Y-62323919D01*
X122357223Y-62550380D01*
X122148476Y-62784742D01*
X121949645Y-63026326D01*
X121816140Y-63200161D01*
X121631124Y-63458787D01*
X121456770Y-63724146D01*
X121293239Y-63995861D01*
X121140694Y-64273556D01*
X120999296Y-64556854D01*
X120869206Y-64845380D01*
X120750587Y-65138756D01*
X120643601Y-65436608D01*
X120548409Y-65738557D01*
X120465173Y-66044229D01*
X120394055Y-66353246D01*
X120340945Y-66631575D01*
X120312958Y-66804235D01*
X120288963Y-66975168D01*
X120268561Y-67147803D01*
X120251352Y-67325570D01*
X120236937Y-67511896D01*
X120235069Y-67539625D01*
X120232958Y-67579936D01*
X120231165Y-67631142D01*
X120229689Y-67691464D01*
X120228531Y-67759124D01*
X120227690Y-67832341D01*
X120227167Y-67909338D01*
X120226961Y-67988334D01*
X120227074Y-68067552D01*
X120227504Y-68145212D01*
X120228252Y-68219534D01*
X120229319Y-68288741D01*
X120230704Y-68351053D01*
X120232407Y-68404691D01*
X120234429Y-68447876D01*
X120235009Y-68457200D01*
X120256361Y-68725334D01*
X120284324Y-68984351D01*
X120319188Y-69236148D01*
X120361243Y-69482622D01*
X120410779Y-69725671D01*
X120462045Y-69943241D01*
X120546259Y-70253427D01*
X120642154Y-70558673D01*
X120749638Y-70858811D01*
X120868622Y-71153671D01*
X120999016Y-71443085D01*
X121140729Y-71726882D01*
X121293671Y-72004895D01*
X121457753Y-72276954D01*
X121632883Y-72542889D01*
X121818972Y-72802532D01*
X122015930Y-73055714D01*
X122223666Y-73302265D01*
X122295554Y-73383239D01*
X122327512Y-73418069D01*
X122367042Y-73460027D01*
X122412613Y-73507566D01*
X122462690Y-73559144D01*
X122515738Y-73613214D01*
X122570224Y-73668232D01*
X122624614Y-73722654D01*
X122677374Y-73774935D01*
X122726969Y-73823529D01*
X122771866Y-73866893D01*
X122810531Y-73903481D01*
X122830275Y-73921698D01*
X123072836Y-74134082D01*
X123322174Y-74335786D01*
X123578032Y-74526703D01*
X123840154Y-74706729D01*
X124108283Y-74875757D01*
X124382164Y-75033681D01*
X124661538Y-75180395D01*
X124946149Y-75315794D01*
X125235742Y-75439772D01*
X125530059Y-75552223D01*
X125828844Y-75653041D01*
X126131840Y-75742120D01*
X126438790Y-75819355D01*
X126749438Y-75884638D01*
X127063528Y-75937866D01*
X127380802Y-75978931D01*
X127701004Y-76007728D01*
X127916625Y-76020087D01*
X127955981Y-76021469D01*
X128005474Y-76022637D01*
X128062849Y-76023583D01*
X128125849Y-76024301D01*
X128192219Y-76024782D01*
X128259705Y-76025020D01*
X128326049Y-76025006D01*
X128388997Y-76024734D01*
X128446292Y-76024196D01*
X128495681Y-76023385D01*
X128534906Y-76022293D01*
X128538925Y-76022138D01*
X128860722Y-76003071D01*
X129179955Y-75971720D01*
X129496341Y-75928190D01*
X129809596Y-75872587D01*
X130119438Y-75805016D01*
X130425584Y-75725583D01*
X130727751Y-75634392D01*
X131025655Y-75531550D01*
X131319013Y-75417162D01*
X131607543Y-75291333D01*
X131890962Y-75154168D01*
X132168985Y-75005773D01*
X132441331Y-74846253D01*
X132707715Y-74675714D01*
X132967856Y-74494261D01*
X133221470Y-74302000D01*
X133276025Y-74258532D01*
X133487418Y-74082109D01*
X133696302Y-73894938D01*
X133900677Y-73698964D01*
X134098541Y-73496129D01*
X134287893Y-73288375D01*
X134355801Y-73210175D01*
X134553678Y-72969527D01*
X134742429Y-72720284D01*
X134921698Y-72463034D01*
X135091129Y-72198365D01*
X135250368Y-71926867D01*
X135399059Y-71649127D01*
X135536847Y-71365734D01*
X135663377Y-71077277D01*
X135705038Y-70974975D01*
X135816951Y-70677599D01*
X135916713Y-70376886D01*
X136004313Y-70073211D01*
X136079739Y-69766952D01*
X136142978Y-69458484D01*
X136194020Y-69148185D01*
X136232850Y-68836431D01*
X136259459Y-68523599D01*
X136273833Y-68210065D01*
X136275257Y-68000000D01*
X136190525Y-68000000D01*
X136190420Y-68096293D01*
X136190053Y-68181638D01*
X136189342Y-68257786D01*
X136188208Y-68326488D01*
X136186571Y-68389495D01*
X136184351Y-68448557D01*
X136181468Y-68505424D01*
X136177841Y-68561849D01*
X136173391Y-68619581D01*
X136168037Y-68680371D01*
X136161699Y-68745971D01*
X136154298Y-68818131D01*
X136152188Y-68838200D01*
X136112733Y-69151784D01*
X136060918Y-69462810D01*
X135996887Y-69770937D01*
X135920786Y-70075827D01*
X135832758Y-70377138D01*
X135732949Y-70674531D01*
X135621503Y-70967665D01*
X135498565Y-71256201D01*
X135364278Y-71539799D01*
X135218789Y-71818118D01*
X135062242Y-72090819D01*
X134894781Y-72357562D01*
X134716550Y-72618007D01*
X134527696Y-72871813D01*
X134334278Y-73111595D01*
X134275300Y-73181174D01*
X134218385Y-73246716D01*
X134161728Y-73310173D01*
X134103524Y-73373500D01*
X134041968Y-73438647D01*
X133975256Y-73507568D01*
X133901582Y-73582215D01*
X133870129Y-73613744D01*
X133741722Y-73740062D01*
X133617782Y-73857562D01*
X133496037Y-73968192D01*
X133374215Y-74073898D01*
X133250044Y-74176628D01*
X133121255Y-74278330D01*
X132985573Y-74380950D01*
X132912960Y-74434290D01*
X132670788Y-74603233D01*
X132419703Y-74764170D01*
X132160879Y-74916523D01*
X131895489Y-75059718D01*
X131624710Y-75193179D01*
X131349715Y-75316331D01*
X131071679Y-75428598D01*
X130791777Y-75529404D01*
X130511182Y-75618175D01*
X130475675Y-75628524D01*
X130246154Y-75691549D01*
X130020120Y-75746941D01*
X129795439Y-75795055D01*
X129569972Y-75836244D01*
X129341585Y-75870863D01*
X129108141Y-75899267D01*
X128867502Y-75921810D01*
X128617534Y-75938847D01*
X128599250Y-75939864D01*
X128571293Y-75940894D01*
X128532221Y-75941600D01*
X128483615Y-75942002D01*
X128427056Y-75942121D01*
X128364126Y-75941975D01*
X128296404Y-75941584D01*
X128225472Y-75940970D01*
X128152911Y-75940150D01*
X128080302Y-75939146D01*
X128009224Y-75937976D01*
X127941260Y-75936661D01*
X127877990Y-75935221D01*
X127820995Y-75933675D01*
X127771856Y-75932043D01*
X127732154Y-75930346D01*
X127703900Y-75928635D01*
X127559442Y-75916665D01*
X127424159Y-75903570D01*
X127294545Y-75888923D01*
X127167097Y-75872300D01*
X127038308Y-75853277D01*
X126910150Y-75832359D01*
X126600510Y-75773295D01*
X126293869Y-75701975D01*
X125990608Y-75618569D01*
X125691105Y-75523249D01*
X125395737Y-75416185D01*
X125104884Y-75297547D01*
X124818923Y-75167506D01*
X124538234Y-75026233D01*
X124263194Y-74873898D01*
X123994181Y-74710672D01*
X123731575Y-74536725D01*
X123475753Y-74352227D01*
X123268425Y-74190866D01*
X123060283Y-74017043D01*
X122855548Y-73833804D01*
X122656369Y-73643227D01*
X122464898Y-73447393D01*
X122283285Y-73248381D01*
X122227831Y-73184632D01*
X122024860Y-72938812D01*
X121832363Y-72685875D01*
X121650468Y-72426036D01*
X121479306Y-72159510D01*
X121319009Y-71886511D01*
X121169705Y-71607255D01*
X121031527Y-71321957D01*
X120904604Y-71030832D01*
X120873646Y-70954666D01*
X120761364Y-70657325D01*
X120661208Y-70356408D01*
X120573252Y-70052227D01*
X120497572Y-69745092D01*
X120434244Y-69435316D01*
X120383342Y-69123210D01*
X120344942Y-68809086D01*
X120338183Y-68739775D01*
X120332207Y-68674465D01*
X120327107Y-68615676D01*
X120322815Y-68561664D01*
X120319263Y-68510687D01*
X120316382Y-68461004D01*
X120314106Y-68410873D01*
X120312366Y-68358551D01*
X120311093Y-68302296D01*
X120310221Y-68240367D01*
X120309681Y-68171022D01*
X120309405Y-68092518D01*
X120309326Y-68003113D01*
X120309325Y-68000000D01*
X120309400Y-67910211D01*
X120309668Y-67831379D01*
X120310199Y-67761763D01*
X120311059Y-67699620D01*
X120312317Y-67643208D01*
X120314041Y-67590785D01*
X120316299Y-67540610D01*
X120319159Y-67490940D01*
X120322688Y-67440033D01*
X120326955Y-67386147D01*
X120332028Y-67327541D01*
X120337974Y-67262471D01*
X120338183Y-67260225D01*
X120373729Y-66946587D01*
X120421716Y-66635048D01*
X120482001Y-66325996D01*
X120554441Y-66019818D01*
X120638891Y-65716902D01*
X120735209Y-65417635D01*
X120843252Y-65122406D01*
X120962876Y-64831601D01*
X121093939Y-64545608D01*
X121236296Y-64264815D01*
X121389804Y-63989610D01*
X121554321Y-63720379D01*
X121729703Y-63457511D01*
X121759306Y-63415300D01*
X121946191Y-63161644D01*
X122143354Y-62915341D01*
X122350514Y-62676690D01*
X122567389Y-62445990D01*
X122793696Y-62223539D01*
X123029154Y-62009637D01*
X123273481Y-61804582D01*
X123297000Y-61785687D01*
X123540568Y-61598764D01*
X123792808Y-61420822D01*
X124053058Y-61252232D01*
X124320652Y-61093367D01*
X124594925Y-60944601D01*
X124875213Y-60806305D01*
X125160851Y-60678853D01*
X125451175Y-60562617D01*
X125532200Y-60532502D01*
X125815528Y-60435024D01*
X126101701Y-60348738D01*
X126391467Y-60273486D01*
X126685573Y-60209108D01*
X126984766Y-60155447D01*
X127289791Y-60112344D01*
X127601396Y-60079641D01*
X127710250Y-60070767D01*
X127761370Y-60067595D01*
X127823408Y-60064898D01*
X127894593Y-60062679D01*
X127973153Y-60060935D01*
X128057315Y-60059667D01*
X128145309Y-60058876D01*
X128235361Y-60058561D01*
X128325700Y-60058722D01*
X128414553Y-60059359D01*
X128500149Y-60060473D01*
X128580716Y-60062062D01*
X128654480Y-60064128D01*
X128719671Y-60066670D01*
X128774517Y-60069689D01*
X128789750Y-60070767D01*
X129065546Y-60095598D01*
X129332838Y-60127842D01*
X129593686Y-60167858D01*
X129850144Y-60216002D01*
X130104271Y-60272631D01*
X130358124Y-60338104D01*
X130407319Y-60351805D01*
X130707127Y-60442852D01*
X131003427Y-60545948D01*
X131295696Y-60660819D01*
X131583407Y-60787187D01*
X131866037Y-60924778D01*
X132143060Y-61073317D01*
X132413952Y-61232527D01*
X132678188Y-61402134D01*
X132935244Y-61581861D01*
X133184595Y-61771434D01*
X133319628Y-61880928D01*
X133464563Y-62004537D01*
X133611129Y-62135990D01*
X133756920Y-62272948D01*
X133899530Y-62413072D01*
X134036553Y-62554023D01*
X134165583Y-62693463D01*
X134228569Y-62764425D01*
X134432443Y-63007239D01*
X134625992Y-63257244D01*
X134809065Y-63514096D01*
X134981512Y-63777449D01*
X135143183Y-64046959D01*
X135293927Y-64322283D01*
X135433592Y-64603076D01*
X135562030Y-64888995D01*
X135679088Y-65179694D01*
X135784617Y-65474830D01*
X135878466Y-65774058D01*
X135960485Y-66077035D01*
X136030522Y-66383415D01*
X136088428Y-66692856D01*
X136134051Y-67005012D01*
X136152188Y-67161800D01*
X136159879Y-67235953D01*
X136166486Y-67303091D01*
X136172088Y-67364965D01*
X136176765Y-67423324D01*
X136180599Y-67479920D01*
X136183668Y-67536504D01*
X136186053Y-67594826D01*
X136187834Y-67656638D01*
X136189091Y-67723689D01*
X136189904Y-67797731D01*
X136190353Y-67880515D01*
X136190519Y-67973791D01*
X136190525Y-68000000D01*
X136275257Y-68000000D01*
X136275961Y-67896206D01*
X136265831Y-67582399D01*
X136243431Y-67269019D01*
X136208748Y-66956445D01*
X136161771Y-66645052D01*
X136102488Y-66335217D01*
X136030887Y-66027317D01*
X135946955Y-65721728D01*
X135879244Y-65504450D01*
X135774074Y-65203487D01*
X135657255Y-64907463D01*
X135528952Y-64616663D01*
X135389335Y-64331376D01*
X135238571Y-64051888D01*
X135076826Y-63778485D01*
X134904269Y-63511455D01*
X134721068Y-63251084D01*
X134527389Y-62997661D01*
X134323401Y-62751470D01*
X134171538Y-62580275D01*
X134141783Y-62548295D01*
X134104406Y-62509116D01*
X134060971Y-62464307D01*
X134013046Y-62415433D01*
X133962197Y-62364061D01*
X133909992Y-62311757D01*
X133857996Y-62260090D01*
X133807778Y-62210624D01*
X133760903Y-62164928D01*
X133718938Y-62124568D01*
X133683451Y-62091110D01*
X133669725Y-62078462D01*
X133428953Y-61867276D01*
X133180816Y-61666321D01*
X132925604Y-61475760D01*
X132663605Y-61295753D01*
X132395110Y-61126464D01*
X132120406Y-60968054D01*
X131839784Y-60820685D01*
X131553531Y-60684520D01*
X131261939Y-60559720D01*
X130965295Y-60446447D01*
X130663889Y-60344863D01*
X130472500Y-60287174D01*
X130163603Y-60204847D01*
X129851890Y-60134900D01*
X129537412Y-60077345D01*
X129220225Y-60032191D01*
X128935800Y-60002451D01*
X128728403Y-59987578D01*
X128513293Y-59978156D01*
X128294240Y-59974202D01*
X128075009Y-59975735D01*
D11*
%TO.C,R25*%
X143330000Y-145380000D02*
X143330000Y-145710000D01*
X136790000Y-145380000D02*
X143330000Y-145380000D01*
X136790000Y-145710000D02*
X136790000Y-145380000D01*
X143330000Y-148120000D02*
X143330000Y-147790000D01*
X136790000Y-148120000D02*
X143330000Y-148120000D01*
X136790000Y-147790000D02*
X136790000Y-148120000D01*
%TO.C,R26*%
X136790000Y-154120000D02*
X136790000Y-153790000D01*
X143330000Y-154120000D02*
X136790000Y-154120000D01*
X143330000Y-153790000D02*
X143330000Y-154120000D01*
X136790000Y-151380000D02*
X136790000Y-151710000D01*
X143330000Y-151380000D02*
X136790000Y-151380000D01*
X143330000Y-151710000D02*
X143330000Y-151380000D01*
%TO.C,C14*%
X143445225Y-25225000D02*
X143445225Y-24725000D01*
X143195225Y-24975000D02*
X143695225Y-24975000D01*
X148601000Y-23784000D02*
X148601000Y-23216000D01*
X148561000Y-24018000D02*
X148561000Y-22982000D01*
X148521000Y-24177000D02*
X148521000Y-22823000D01*
X148481000Y-24305000D02*
X148481000Y-22695000D01*
X148441000Y-24415000D02*
X148441000Y-22585000D01*
X148401000Y-24511000D02*
X148401000Y-22489000D01*
X148361000Y-24598000D02*
X148361000Y-22402000D01*
X148321000Y-24678000D02*
X148321000Y-22322000D01*
X148281000Y-24751000D02*
X148281000Y-22249000D01*
X148241000Y-24819000D02*
X148241000Y-22181000D01*
X148201000Y-24883000D02*
X148201000Y-22117000D01*
X148161000Y-24943000D02*
X148161000Y-22057000D01*
X148121000Y-25000000D02*
X148121000Y-22000000D01*
X148081000Y-25054000D02*
X148081000Y-21946000D01*
X148041000Y-25105000D02*
X148041000Y-21895000D01*
X148001000Y-22460000D02*
X148001000Y-21847000D01*
X148001000Y-25153000D02*
X148001000Y-24540000D01*
X147961000Y-22460000D02*
X147961000Y-21801000D01*
X147961000Y-25199000D02*
X147961000Y-24540000D01*
X147921000Y-22460000D02*
X147921000Y-21757000D01*
X147921000Y-25243000D02*
X147921000Y-24540000D01*
X147881000Y-22460000D02*
X147881000Y-21715000D01*
X147881000Y-25285000D02*
X147881000Y-24540000D01*
X147841000Y-22460000D02*
X147841000Y-21674000D01*
X147841000Y-25326000D02*
X147841000Y-24540000D01*
X147801000Y-22460000D02*
X147801000Y-21636000D01*
X147801000Y-25364000D02*
X147801000Y-24540000D01*
X147761000Y-22460000D02*
X147761000Y-21599000D01*
X147761000Y-25401000D02*
X147761000Y-24540000D01*
X147721000Y-22460000D02*
X147721000Y-21563000D01*
X147721000Y-25437000D02*
X147721000Y-24540000D01*
X147681000Y-22460000D02*
X147681000Y-21529000D01*
X147681000Y-25471000D02*
X147681000Y-24540000D01*
X147641000Y-22460000D02*
X147641000Y-21496000D01*
X147641000Y-25504000D02*
X147641000Y-24540000D01*
X147601000Y-22460000D02*
X147601000Y-21465000D01*
X147601000Y-25535000D02*
X147601000Y-24540000D01*
X147561000Y-22460000D02*
X147561000Y-21435000D01*
X147561000Y-25565000D02*
X147561000Y-24540000D01*
X147521000Y-22460000D02*
X147521000Y-21405000D01*
X147521000Y-25595000D02*
X147521000Y-24540000D01*
X147481000Y-22460000D02*
X147481000Y-21378000D01*
X147481000Y-25622000D02*
X147481000Y-24540000D01*
X147441000Y-22460000D02*
X147441000Y-21351000D01*
X147441000Y-25649000D02*
X147441000Y-24540000D01*
X147401000Y-22460000D02*
X147401000Y-21325000D01*
X147401000Y-25675000D02*
X147401000Y-24540000D01*
X147361000Y-22460000D02*
X147361000Y-21300000D01*
X147361000Y-25700000D02*
X147361000Y-24540000D01*
X147321000Y-22460000D02*
X147321000Y-21276000D01*
X147321000Y-25724000D02*
X147321000Y-24540000D01*
X147281000Y-22460000D02*
X147281000Y-21253000D01*
X147281000Y-25747000D02*
X147281000Y-24540000D01*
X147241000Y-22460000D02*
X147241000Y-21232000D01*
X147241000Y-25768000D02*
X147241000Y-24540000D01*
X147201000Y-22460000D02*
X147201000Y-21210000D01*
X147201000Y-25790000D02*
X147201000Y-24540000D01*
X147161000Y-22460000D02*
X147161000Y-21190000D01*
X147161000Y-25810000D02*
X147161000Y-24540000D01*
X147121000Y-22460000D02*
X147121000Y-21171000D01*
X147121000Y-25829000D02*
X147121000Y-24540000D01*
X147081000Y-22460000D02*
X147081000Y-21152000D01*
X147081000Y-25848000D02*
X147081000Y-24540000D01*
X147041000Y-22460000D02*
X147041000Y-21135000D01*
X147041000Y-25865000D02*
X147041000Y-24540000D01*
X147001000Y-22460000D02*
X147001000Y-21118000D01*
X147001000Y-25882000D02*
X147001000Y-24540000D01*
X146961000Y-22460000D02*
X146961000Y-21102000D01*
X146961000Y-25898000D02*
X146961000Y-24540000D01*
X146921000Y-22460000D02*
X146921000Y-21086000D01*
X146921000Y-25914000D02*
X146921000Y-24540000D01*
X146881000Y-22460000D02*
X146881000Y-21072000D01*
X146881000Y-25928000D02*
X146881000Y-24540000D01*
X146841000Y-22460000D02*
X146841000Y-21058000D01*
X146841000Y-25942000D02*
X146841000Y-24540000D01*
X146801000Y-22460000D02*
X146801000Y-21045000D01*
X146801000Y-25955000D02*
X146801000Y-24540000D01*
X146761000Y-22460000D02*
X146761000Y-21032000D01*
X146761000Y-25968000D02*
X146761000Y-24540000D01*
X146721000Y-22460000D02*
X146721000Y-21020000D01*
X146721000Y-25980000D02*
X146721000Y-24540000D01*
X146680000Y-22460000D02*
X146680000Y-21009000D01*
X146680000Y-25991000D02*
X146680000Y-24540000D01*
X146640000Y-22460000D02*
X146640000Y-20999000D01*
X146640000Y-26001000D02*
X146640000Y-24540000D01*
X146600000Y-22460000D02*
X146600000Y-20989000D01*
X146600000Y-26011000D02*
X146600000Y-24540000D01*
X146560000Y-22460000D02*
X146560000Y-20980000D01*
X146560000Y-26020000D02*
X146560000Y-24540000D01*
X146520000Y-22460000D02*
X146520000Y-20972000D01*
X146520000Y-26028000D02*
X146520000Y-24540000D01*
X146480000Y-22460000D02*
X146480000Y-20964000D01*
X146480000Y-26036000D02*
X146480000Y-24540000D01*
X146440000Y-22460000D02*
X146440000Y-20957000D01*
X146440000Y-26043000D02*
X146440000Y-24540000D01*
X146400000Y-22460000D02*
X146400000Y-20950000D01*
X146400000Y-26050000D02*
X146400000Y-24540000D01*
X146360000Y-22460000D02*
X146360000Y-20944000D01*
X146360000Y-26056000D02*
X146360000Y-24540000D01*
X146320000Y-22460000D02*
X146320000Y-20939000D01*
X146320000Y-26061000D02*
X146320000Y-24540000D01*
X146280000Y-22460000D02*
X146280000Y-20935000D01*
X146280000Y-26065000D02*
X146280000Y-24540000D01*
X146240000Y-22460000D02*
X146240000Y-20931000D01*
X146240000Y-26069000D02*
X146240000Y-24540000D01*
X146200000Y-22460000D02*
X146200000Y-20927000D01*
X146200000Y-26073000D02*
X146200000Y-24540000D01*
X146160000Y-22460000D02*
X146160000Y-20924000D01*
X146160000Y-26076000D02*
X146160000Y-24540000D01*
X146120000Y-22460000D02*
X146120000Y-20922000D01*
X146120000Y-26078000D02*
X146120000Y-24540000D01*
X146080000Y-22460000D02*
X146080000Y-20921000D01*
X146080000Y-26079000D02*
X146080000Y-24540000D01*
X146040000Y-26080000D02*
X146040000Y-24540000D01*
X146040000Y-22460000D02*
X146040000Y-20920000D01*
X146000000Y-26080000D02*
X146000000Y-24540000D01*
X146000000Y-22460000D02*
X146000000Y-20920000D01*
X148620000Y-23500000D02*
G75*
G03*
X148620000Y-23500000I-2620000J0D01*
G01*
%TO.C,D2*%
X138130000Y-22030000D02*
X138130000Y-24970000D01*
X137890000Y-22030000D02*
X137890000Y-24970000D01*
X138010000Y-22030000D02*
X138010000Y-24970000D01*
X133470000Y-24970000D02*
X133470000Y-24840000D01*
X138910000Y-24970000D02*
X133470000Y-24970000D01*
X138910000Y-24840000D02*
X138910000Y-24970000D01*
X133470000Y-22030000D02*
X133470000Y-22160000D01*
X138910000Y-22030000D02*
X133470000Y-22030000D01*
X138910000Y-22160000D02*
X138910000Y-22030000D01*
%TO.C,C15*%
X148554775Y-30275000D02*
X148554775Y-30775000D01*
X148804775Y-30525000D02*
X148304775Y-30525000D01*
X143399000Y-31716000D02*
X143399000Y-32284000D01*
X143439000Y-31482000D02*
X143439000Y-32518000D01*
X143479000Y-31323000D02*
X143479000Y-32677000D01*
X143519000Y-31195000D02*
X143519000Y-32805000D01*
X143559000Y-31085000D02*
X143559000Y-32915000D01*
X143599000Y-30989000D02*
X143599000Y-33011000D01*
X143639000Y-30902000D02*
X143639000Y-33098000D01*
X143679000Y-30822000D02*
X143679000Y-33178000D01*
X143719000Y-30749000D02*
X143719000Y-33251000D01*
X143759000Y-30681000D02*
X143759000Y-33319000D01*
X143799000Y-30617000D02*
X143799000Y-33383000D01*
X143839000Y-30557000D02*
X143839000Y-33443000D01*
X143879000Y-30500000D02*
X143879000Y-33500000D01*
X143919000Y-30446000D02*
X143919000Y-33554000D01*
X143959000Y-30395000D02*
X143959000Y-33605000D01*
X143999000Y-33040000D02*
X143999000Y-33653000D01*
X143999000Y-30347000D02*
X143999000Y-30960000D01*
X144039000Y-33040000D02*
X144039000Y-33699000D01*
X144039000Y-30301000D02*
X144039000Y-30960000D01*
X144079000Y-33040000D02*
X144079000Y-33743000D01*
X144079000Y-30257000D02*
X144079000Y-30960000D01*
X144119000Y-33040000D02*
X144119000Y-33785000D01*
X144119000Y-30215000D02*
X144119000Y-30960000D01*
X144159000Y-33040000D02*
X144159000Y-33826000D01*
X144159000Y-30174000D02*
X144159000Y-30960000D01*
X144199000Y-33040000D02*
X144199000Y-33864000D01*
X144199000Y-30136000D02*
X144199000Y-30960000D01*
X144239000Y-33040000D02*
X144239000Y-33901000D01*
X144239000Y-30099000D02*
X144239000Y-30960000D01*
X144279000Y-33040000D02*
X144279000Y-33937000D01*
X144279000Y-30063000D02*
X144279000Y-30960000D01*
X144319000Y-33040000D02*
X144319000Y-33971000D01*
X144319000Y-30029000D02*
X144319000Y-30960000D01*
X144359000Y-33040000D02*
X144359000Y-34004000D01*
X144359000Y-29996000D02*
X144359000Y-30960000D01*
X144399000Y-33040000D02*
X144399000Y-34035000D01*
X144399000Y-29965000D02*
X144399000Y-30960000D01*
X144439000Y-33040000D02*
X144439000Y-34065000D01*
X144439000Y-29935000D02*
X144439000Y-30960000D01*
X144479000Y-33040000D02*
X144479000Y-34095000D01*
X144479000Y-29905000D02*
X144479000Y-30960000D01*
X144519000Y-33040000D02*
X144519000Y-34122000D01*
X144519000Y-29878000D02*
X144519000Y-30960000D01*
X144559000Y-33040000D02*
X144559000Y-34149000D01*
X144559000Y-29851000D02*
X144559000Y-30960000D01*
X144599000Y-33040000D02*
X144599000Y-34175000D01*
X144599000Y-29825000D02*
X144599000Y-30960000D01*
X144639000Y-33040000D02*
X144639000Y-34200000D01*
X144639000Y-29800000D02*
X144639000Y-30960000D01*
X144679000Y-33040000D02*
X144679000Y-34224000D01*
X144679000Y-29776000D02*
X144679000Y-30960000D01*
X144719000Y-33040000D02*
X144719000Y-34247000D01*
X144719000Y-29753000D02*
X144719000Y-30960000D01*
X144759000Y-33040000D02*
X144759000Y-34268000D01*
X144759000Y-29732000D02*
X144759000Y-30960000D01*
X144799000Y-33040000D02*
X144799000Y-34290000D01*
X144799000Y-29710000D02*
X144799000Y-30960000D01*
X144839000Y-33040000D02*
X144839000Y-34310000D01*
X144839000Y-29690000D02*
X144839000Y-30960000D01*
X144879000Y-33040000D02*
X144879000Y-34329000D01*
X144879000Y-29671000D02*
X144879000Y-30960000D01*
X144919000Y-33040000D02*
X144919000Y-34348000D01*
X144919000Y-29652000D02*
X144919000Y-30960000D01*
X144959000Y-33040000D02*
X144959000Y-34365000D01*
X144959000Y-29635000D02*
X144959000Y-30960000D01*
X144999000Y-33040000D02*
X144999000Y-34382000D01*
X144999000Y-29618000D02*
X144999000Y-30960000D01*
X145039000Y-33040000D02*
X145039000Y-34398000D01*
X145039000Y-29602000D02*
X145039000Y-30960000D01*
X145079000Y-33040000D02*
X145079000Y-34414000D01*
X145079000Y-29586000D02*
X145079000Y-30960000D01*
X145119000Y-33040000D02*
X145119000Y-34428000D01*
X145119000Y-29572000D02*
X145119000Y-30960000D01*
X145159000Y-33040000D02*
X145159000Y-34442000D01*
X145159000Y-29558000D02*
X145159000Y-30960000D01*
X145199000Y-33040000D02*
X145199000Y-34455000D01*
X145199000Y-29545000D02*
X145199000Y-30960000D01*
X145239000Y-33040000D02*
X145239000Y-34468000D01*
X145239000Y-29532000D02*
X145239000Y-30960000D01*
X145279000Y-33040000D02*
X145279000Y-34480000D01*
X145279000Y-29520000D02*
X145279000Y-30960000D01*
X145320000Y-33040000D02*
X145320000Y-34491000D01*
X145320000Y-29509000D02*
X145320000Y-30960000D01*
X145360000Y-33040000D02*
X145360000Y-34501000D01*
X145360000Y-29499000D02*
X145360000Y-30960000D01*
X145400000Y-33040000D02*
X145400000Y-34511000D01*
X145400000Y-29489000D02*
X145400000Y-30960000D01*
X145440000Y-33040000D02*
X145440000Y-34520000D01*
X145440000Y-29480000D02*
X145440000Y-30960000D01*
X145480000Y-33040000D02*
X145480000Y-34528000D01*
X145480000Y-29472000D02*
X145480000Y-30960000D01*
X145520000Y-33040000D02*
X145520000Y-34536000D01*
X145520000Y-29464000D02*
X145520000Y-30960000D01*
X145560000Y-33040000D02*
X145560000Y-34543000D01*
X145560000Y-29457000D02*
X145560000Y-30960000D01*
X145600000Y-33040000D02*
X145600000Y-34550000D01*
X145600000Y-29450000D02*
X145600000Y-30960000D01*
X145640000Y-33040000D02*
X145640000Y-34556000D01*
X145640000Y-29444000D02*
X145640000Y-30960000D01*
X145680000Y-33040000D02*
X145680000Y-34561000D01*
X145680000Y-29439000D02*
X145680000Y-30960000D01*
X145720000Y-33040000D02*
X145720000Y-34565000D01*
X145720000Y-29435000D02*
X145720000Y-30960000D01*
X145760000Y-33040000D02*
X145760000Y-34569000D01*
X145760000Y-29431000D02*
X145760000Y-30960000D01*
X145800000Y-33040000D02*
X145800000Y-34573000D01*
X145800000Y-29427000D02*
X145800000Y-30960000D01*
X145840000Y-33040000D02*
X145840000Y-34576000D01*
X145840000Y-29424000D02*
X145840000Y-30960000D01*
X145880000Y-33040000D02*
X145880000Y-34578000D01*
X145880000Y-29422000D02*
X145880000Y-30960000D01*
X145920000Y-33040000D02*
X145920000Y-34579000D01*
X145920000Y-29421000D02*
X145920000Y-30960000D01*
X145960000Y-29420000D02*
X145960000Y-30960000D01*
X145960000Y-33040000D02*
X145960000Y-34580000D01*
X146000000Y-29420000D02*
X146000000Y-30960000D01*
X146000000Y-33040000D02*
X146000000Y-34580000D01*
X148620000Y-32000000D02*
G75*
G03*
X148620000Y-32000000I-2620000J0D01*
G01*
%TO.C,D3*%
X134250000Y-33470000D02*
X134250000Y-30530000D01*
X134490000Y-33470000D02*
X134490000Y-30530000D01*
X134370000Y-33470000D02*
X134370000Y-30530000D01*
X138910000Y-30530000D02*
X138910000Y-30660000D01*
X133470000Y-30530000D02*
X138910000Y-30530000D01*
X133470000Y-30660000D02*
X133470000Y-30530000D01*
X138910000Y-33470000D02*
X138910000Y-33340000D01*
X133470000Y-33470000D02*
X138910000Y-33470000D01*
X133470000Y-33340000D02*
X133470000Y-33470000D01*
%TO.C,U5*%
X137170000Y-87810000D02*
X137170000Y-86560000D01*
X137170000Y-86560000D02*
X155070000Y-86560000D01*
X155070000Y-86560000D02*
X155070000Y-91060000D01*
X155070000Y-91060000D02*
X137170000Y-91060000D01*
X137170000Y-91060000D02*
X137170000Y-89810000D01*
X137110000Y-83560000D02*
X155130000Y-83560000D01*
X155130000Y-83560000D02*
X155130000Y-94060000D01*
X155130000Y-94060000D02*
X137110000Y-94060000D01*
X137110000Y-94060000D02*
X137110000Y-83560000D01*
X137170000Y-89810000D02*
G75*
G03*
X137170000Y-87810000I0J1000000D01*
G01*
%TO.C,U4*%
X138110000Y-134560000D02*
X138110000Y-124060000D01*
X156130000Y-134560000D02*
X138110000Y-134560000D01*
X156130000Y-124060000D02*
X156130000Y-134560000D01*
X138110000Y-124060000D02*
X156130000Y-124060000D01*
X138170000Y-131560000D02*
X138170000Y-130310000D01*
X156070000Y-131560000D02*
X138170000Y-131560000D01*
X156070000Y-127060000D02*
X156070000Y-131560000D01*
X138170000Y-127060000D02*
X156070000Y-127060000D01*
X138170000Y-128310000D02*
X138170000Y-127060000D01*
X138170000Y-130310000D02*
G75*
G03*
X138170000Y-128310000I0J1000000D01*
G01*
%TO.C,R14*%
X139630000Y-114920000D02*
X139960000Y-114920000D01*
X139630000Y-121460000D02*
X139630000Y-114920000D01*
X139960000Y-121460000D02*
X139630000Y-121460000D01*
X142370000Y-114920000D02*
X142040000Y-114920000D01*
X142370000Y-121460000D02*
X142370000Y-114920000D01*
X142040000Y-121460000D02*
X142370000Y-121460000D01*
%TO.C,R13*%
X145040000Y-80460000D02*
X145370000Y-80460000D01*
X145370000Y-80460000D02*
X145370000Y-73920000D01*
X145370000Y-73920000D02*
X145040000Y-73920000D01*
X142960000Y-80460000D02*
X142630000Y-80460000D01*
X142630000Y-80460000D02*
X142630000Y-73920000D01*
X142630000Y-73920000D02*
X142960000Y-73920000D01*
%TO.C,R12*%
X146460000Y-97040000D02*
X146130000Y-97040000D01*
X146130000Y-97040000D02*
X146130000Y-103580000D01*
X146130000Y-103580000D02*
X146460000Y-103580000D01*
X148540000Y-97040000D02*
X148870000Y-97040000D01*
X148870000Y-97040000D02*
X148870000Y-103580000D01*
X148870000Y-103580000D02*
X148540000Y-103580000D01*
%TO.C,R11*%
X150870000Y-144080000D02*
X150540000Y-144080000D01*
X150870000Y-137540000D02*
X150870000Y-144080000D01*
X150540000Y-137540000D02*
X150870000Y-137540000D01*
X148130000Y-144080000D02*
X148460000Y-144080000D01*
X148130000Y-137540000D02*
X148130000Y-144080000D01*
X148460000Y-137540000D02*
X148130000Y-137540000D01*
%TO.C,R10*%
X143130000Y-114920000D02*
X143460000Y-114920000D01*
X143130000Y-121460000D02*
X143130000Y-114920000D01*
X143460000Y-121460000D02*
X143130000Y-121460000D01*
X145870000Y-114920000D02*
X145540000Y-114920000D01*
X145870000Y-121460000D02*
X145870000Y-114920000D01*
X145540000Y-121460000D02*
X145870000Y-121460000D01*
%TO.C,R9*%
X139130000Y-73920000D02*
X139460000Y-73920000D01*
X139130000Y-80460000D02*
X139130000Y-73920000D01*
X139460000Y-80460000D02*
X139130000Y-80460000D01*
X141870000Y-73920000D02*
X141540000Y-73920000D01*
X141870000Y-80460000D02*
X141870000Y-73920000D01*
X141540000Y-80460000D02*
X141870000Y-80460000D01*
%TO.C,R8*%
X149960000Y-97040000D02*
X149630000Y-97040000D01*
X149630000Y-97040000D02*
X149630000Y-103580000D01*
X149630000Y-103580000D02*
X149960000Y-103580000D01*
X152040000Y-97040000D02*
X152370000Y-97040000D01*
X152370000Y-97040000D02*
X152370000Y-103580000D01*
X152370000Y-103580000D02*
X152040000Y-103580000D01*
%TO.C,J30*%
X171130000Y-56490000D02*
X173730000Y-56490000D01*
X171130000Y-56490000D02*
X171130000Y-43670000D01*
X171130000Y-43670000D02*
X176330000Y-43670000D01*
X176330000Y-53890000D02*
X176330000Y-43670000D01*
X173730000Y-53890000D02*
X176330000Y-53890000D01*
X173730000Y-56490000D02*
X173730000Y-53890000D01*
X176330000Y-56490000D02*
X176330000Y-55160000D01*
X175000000Y-56490000D02*
X176330000Y-56490000D01*
%TO.C,J15*%
X118670000Y-178000000D02*
X118670000Y-179330000D01*
X118670000Y-179330000D02*
X120000000Y-179330000D01*
X121270000Y-179330000D02*
X141650000Y-179330000D01*
X141650000Y-176670000D02*
X141650000Y-179330000D01*
X121270000Y-176670000D02*
X141650000Y-176670000D01*
X121270000Y-176670000D02*
X121270000Y-179330000D01*
%TO.C,D10*%
X170880000Y-146290000D02*
X173120000Y-146290000D01*
X170880000Y-146530000D02*
X173120000Y-146530000D01*
X170880000Y-146410000D02*
X173120000Y-146410000D01*
X172000000Y-150580000D02*
X172000000Y-149930000D01*
X172000000Y-145040000D02*
X172000000Y-145690000D01*
X170880000Y-149930000D02*
X170880000Y-145690000D01*
X173120000Y-149930000D02*
X170880000Y-149930000D01*
X173120000Y-145690000D02*
X173120000Y-149930000D01*
X170880000Y-145690000D02*
X173120000Y-145690000D01*
%TO.C,D9*%
X118880000Y-126290000D02*
X121120000Y-126290000D01*
X118880000Y-126530000D02*
X121120000Y-126530000D01*
X118880000Y-126410000D02*
X121120000Y-126410000D01*
X120000000Y-130580000D02*
X120000000Y-129930000D01*
X120000000Y-125040000D02*
X120000000Y-125690000D01*
X118880000Y-129930000D02*
X118880000Y-125690000D01*
X121120000Y-129930000D02*
X118880000Y-129930000D01*
X121120000Y-125690000D02*
X121120000Y-129930000D01*
X118880000Y-125690000D02*
X121120000Y-125690000D01*
%TO.C,D8*%
X170880000Y-106290000D02*
X173120000Y-106290000D01*
X170880000Y-106530000D02*
X173120000Y-106530000D01*
X170880000Y-106410000D02*
X173120000Y-106410000D01*
X172000000Y-110580000D02*
X172000000Y-109930000D01*
X172000000Y-105040000D02*
X172000000Y-105690000D01*
X170880000Y-109930000D02*
X170880000Y-105690000D01*
X173120000Y-109930000D02*
X170880000Y-109930000D01*
X173120000Y-105690000D02*
X173120000Y-109930000D01*
X170880000Y-105690000D02*
X173120000Y-105690000D01*
%TO.C,D7*%
X118880000Y-86290000D02*
X121120000Y-86290000D01*
X118880000Y-86530000D02*
X121120000Y-86530000D01*
X118880000Y-86410000D02*
X121120000Y-86410000D01*
X120000000Y-90580000D02*
X120000000Y-89930000D01*
X120000000Y-85040000D02*
X120000000Y-85690000D01*
X118880000Y-89930000D02*
X118880000Y-85690000D01*
X121120000Y-89930000D02*
X118880000Y-89930000D01*
X121120000Y-85690000D02*
X121120000Y-89930000D01*
X118880000Y-85690000D02*
X121120000Y-85690000D01*
%TO.C,D6*%
X170880000Y-66290000D02*
X173120000Y-66290000D01*
X170880000Y-66530000D02*
X173120000Y-66530000D01*
X170880000Y-66410000D02*
X173120000Y-66410000D01*
X172000000Y-70580000D02*
X172000000Y-69930000D01*
X172000000Y-65040000D02*
X172000000Y-65690000D01*
X170880000Y-69930000D02*
X170880000Y-65690000D01*
X173120000Y-69930000D02*
X170880000Y-69930000D01*
X173120000Y-65690000D02*
X173120000Y-69930000D01*
X170880000Y-65690000D02*
X173120000Y-65690000D01*
%TO.C,D5*%
X118880000Y-46290000D02*
X121120000Y-46290000D01*
X118880000Y-46530000D02*
X121120000Y-46530000D01*
X118880000Y-46410000D02*
X121120000Y-46410000D01*
X120000000Y-50580000D02*
X120000000Y-49930000D01*
X120000000Y-45040000D02*
X120000000Y-45690000D01*
X118880000Y-49930000D02*
X118880000Y-45690000D01*
X121120000Y-49930000D02*
X118880000Y-49930000D01*
X121120000Y-45690000D02*
X121120000Y-49930000D01*
X118880000Y-45690000D02*
X121120000Y-45690000D01*
%TO.C,D4*%
X170880000Y-26290000D02*
X173120000Y-26290000D01*
X170880000Y-26530000D02*
X173120000Y-26530000D01*
X170880000Y-26410000D02*
X173120000Y-26410000D01*
X172000000Y-30580000D02*
X172000000Y-29930000D01*
X172000000Y-25040000D02*
X172000000Y-25690000D01*
X170880000Y-29930000D02*
X170880000Y-25690000D01*
X173120000Y-29930000D02*
X170880000Y-29930000D01*
X173120000Y-25690000D02*
X173120000Y-29930000D01*
X170880000Y-25690000D02*
X173120000Y-25690000D01*
%TO.C,C17*%
X140420000Y-137621000D02*
X140420000Y-138879000D01*
X138580000Y-137621000D02*
X138580000Y-138879000D01*
%TO.C,C16*%
X139920000Y-97621000D02*
X139920000Y-98879000D01*
X138080000Y-97621000D02*
X138080000Y-98879000D01*
%TO.C,J13*%
D10*
X117757142Y-29919285D02*
X117757142Y-30455000D01*
X117792857Y-30562142D01*
X117864285Y-30633571D01*
X117971428Y-30669285D01*
X118042857Y-30669285D01*
X117007142Y-30669285D02*
X117435714Y-30669285D01*
X117221428Y-30669285D02*
X117221428Y-29919285D01*
X117292857Y-30026428D01*
X117364285Y-30097857D01*
X117435714Y-30133571D01*
X116757142Y-29919285D02*
X116292857Y-29919285D01*
X116542857Y-30205000D01*
X116435714Y-30205000D01*
X116364285Y-30240714D01*
X116328571Y-30276428D01*
X116292857Y-30347857D01*
X116292857Y-30526428D01*
X116328571Y-30597857D01*
X116364285Y-30633571D01*
X116435714Y-30669285D01*
X116650000Y-30669285D01*
X116721428Y-30633571D01*
X116757142Y-30597857D01*
X137571428Y-40952380D02*
X137904761Y-40476190D01*
X138142857Y-40952380D02*
X138142857Y-39952380D01*
X137761904Y-39952380D01*
X137666666Y-40000000D01*
X137619047Y-40047619D01*
X137571428Y-40142857D01*
X137571428Y-40285714D01*
X137619047Y-40380952D01*
X137666666Y-40428571D01*
X137761904Y-40476190D01*
X138142857Y-40476190D01*
X137142857Y-40428571D02*
X136809523Y-40428571D01*
X136666666Y-40952380D02*
X137142857Y-40952380D01*
X137142857Y-39952380D01*
X136666666Y-39952380D01*
X136238095Y-40952380D02*
X136238095Y-39952380D01*
X136000000Y-39952380D01*
X135857142Y-40000000D01*
X135761904Y-40095238D01*
X135714285Y-40190476D01*
X135666666Y-40380952D01*
X135666666Y-40523809D01*
X135714285Y-40714285D01*
X135761904Y-40809523D01*
X135857142Y-40904761D01*
X136000000Y-40952380D01*
X136238095Y-40952380D01*
X134523809Y-40904761D02*
X134380952Y-40952380D01*
X134142857Y-40952380D01*
X134047619Y-40904761D01*
X133999999Y-40857142D01*
X133952380Y-40761904D01*
X133952380Y-40666666D01*
X133999999Y-40571428D01*
X134047619Y-40523809D01*
X134142857Y-40476190D01*
X134333333Y-40428571D01*
X134428571Y-40380952D01*
X134476190Y-40333333D01*
X134523809Y-40238095D01*
X134523809Y-40142857D01*
X134476190Y-40047619D01*
X134428571Y-40000000D01*
X134333333Y-39952380D01*
X134095238Y-39952380D01*
X133952380Y-40000000D01*
X133666666Y-39952380D02*
X133095238Y-39952380D01*
X133380952Y-40952380D02*
X133380952Y-39952380D01*
X132190476Y-40952380D02*
X132523809Y-40476190D01*
X132761904Y-40952380D02*
X132761904Y-39952380D01*
X132380952Y-39952380D01*
X132285714Y-40000000D01*
X132238095Y-40047619D01*
X132190476Y-40142857D01*
X132190476Y-40285714D01*
X132238095Y-40380952D01*
X132285714Y-40428571D01*
X132380952Y-40476190D01*
X132761904Y-40476190D01*
X131761904Y-40952380D02*
X131761904Y-39952380D01*
X131285714Y-40952380D02*
X131285714Y-39952380D01*
X130904761Y-39952380D01*
X130809523Y-40000000D01*
X130761904Y-40047619D01*
X130714285Y-40142857D01*
X130714285Y-40285714D01*
X130761904Y-40380952D01*
X130809523Y-40428571D01*
X130904761Y-40476190D01*
X131285714Y-40476190D01*
X130285714Y-40428571D02*
X129952380Y-40428571D01*
X129809523Y-40952380D02*
X130285714Y-40952380D01*
X130285714Y-39952380D01*
X129809523Y-39952380D01*
X119011904Y-40821428D02*
X118250000Y-40821428D01*
X117250000Y-41202380D02*
X117821428Y-41202380D01*
X117535714Y-41202380D02*
X117535714Y-40202380D01*
X117630952Y-40345238D01*
X117726190Y-40440476D01*
X117821428Y-40488095D01*
X116869047Y-40297619D02*
X116821428Y-40250000D01*
X116726190Y-40202380D01*
X116488095Y-40202380D01*
X116392857Y-40250000D01*
X116345238Y-40297619D01*
X116297619Y-40392857D01*
X116297619Y-40488095D01*
X116345238Y-40630952D01*
X116916666Y-41202380D01*
X116297619Y-41202380D01*
X116011904Y-40202380D02*
X115678571Y-41202380D01*
X115345238Y-40202380D01*
X119261904Y-21571428D02*
X118500000Y-21571428D01*
X118880952Y-21952380D02*
X118880952Y-21190476D01*
X117500000Y-21952380D02*
X118071428Y-21952380D01*
X117785714Y-21952380D02*
X117785714Y-20952380D01*
X117880952Y-21095238D01*
X117976190Y-21190476D01*
X118071428Y-21238095D01*
X117119047Y-21047619D02*
X117071428Y-21000000D01*
X116976190Y-20952380D01*
X116738095Y-20952380D01*
X116642857Y-21000000D01*
X116595238Y-21047619D01*
X116547619Y-21142857D01*
X116547619Y-21238095D01*
X116595238Y-21380952D01*
X117166666Y-21952380D01*
X116547619Y-21952380D01*
X116261904Y-20952380D02*
X115928571Y-21952380D01*
X115595238Y-20952380D01*
%TO.C,J10*%
X115982380Y-108920476D02*
X116696666Y-108920476D01*
X116839523Y-108872857D01*
X116934761Y-108777619D01*
X116982380Y-108634761D01*
X116982380Y-108539523D01*
X116982380Y-109920476D02*
X116982380Y-109349047D01*
X116982380Y-109634761D02*
X115982380Y-109634761D01*
X116125238Y-109539523D01*
X116220476Y-109444285D01*
X116268095Y-109349047D01*
X115982380Y-110539523D02*
X115982380Y-110634761D01*
X116030000Y-110730000D01*
X116077619Y-110777619D01*
X116172857Y-110825238D01*
X116363333Y-110872857D01*
X116601428Y-110872857D01*
X116791904Y-110825238D01*
X116887142Y-110777619D01*
X116934761Y-110730000D01*
X116982380Y-110634761D01*
X116982380Y-110539523D01*
X116934761Y-110444285D01*
X116887142Y-110396666D01*
X116791904Y-110349047D01*
X116601428Y-110301428D01*
X116363333Y-110301428D01*
X116172857Y-110349047D01*
X116077619Y-110396666D01*
X116030000Y-110444285D01*
X115982380Y-110539523D01*
%TO.C,J11*%
X124709285Y-153102857D02*
X125245000Y-153102857D01*
X125352142Y-153067142D01*
X125423571Y-152995714D01*
X125459285Y-152888571D01*
X125459285Y-152817142D01*
X125459285Y-153852857D02*
X125459285Y-153424285D01*
X125459285Y-153638571D02*
X124709285Y-153638571D01*
X124816428Y-153567142D01*
X124887857Y-153495714D01*
X124923571Y-153424285D01*
X125459285Y-154567142D02*
X125459285Y-154138571D01*
X125459285Y-154352857D02*
X124709285Y-154352857D01*
X124816428Y-154281428D01*
X124887857Y-154210000D01*
X124923571Y-154138571D01*
X117303571Y-152464285D02*
X117339285Y-152571428D01*
X117339285Y-152750000D01*
X117303571Y-152821428D01*
X117267857Y-152857142D01*
X117196428Y-152892857D01*
X117125000Y-152892857D01*
X117053571Y-152857142D01*
X117017857Y-152821428D01*
X116982142Y-152750000D01*
X116946428Y-152607142D01*
X116910714Y-152535714D01*
X116875000Y-152500000D01*
X116803571Y-152464285D01*
X116732142Y-152464285D01*
X116660714Y-152500000D01*
X116625000Y-152535714D01*
X116589285Y-152607142D01*
X116589285Y-152785714D01*
X116625000Y-152892857D01*
X117339285Y-153571428D02*
X117339285Y-153214285D01*
X116589285Y-153214285D01*
X116946428Y-153821428D02*
X116946428Y-154071428D01*
X117339285Y-154178571D02*
X117339285Y-153821428D01*
X116589285Y-153821428D01*
X116589285Y-154178571D01*
X116589285Y-154428571D02*
X117339285Y-154607142D01*
X116803571Y-154750000D01*
X117339285Y-154892857D01*
X116589285Y-155071428D01*
%TO.C,J20*%
X124709285Y-144872857D02*
X125245000Y-144872857D01*
X125352142Y-144837142D01*
X125423571Y-144765714D01*
X125459285Y-144658571D01*
X125459285Y-144587142D01*
X124780714Y-145194285D02*
X124745000Y-145230000D01*
X124709285Y-145301428D01*
X124709285Y-145480000D01*
X124745000Y-145551428D01*
X124780714Y-145587142D01*
X124852142Y-145622857D01*
X124923571Y-145622857D01*
X125030714Y-145587142D01*
X125459285Y-145158571D01*
X125459285Y-145622857D01*
X124709285Y-146087142D02*
X124709285Y-146158571D01*
X124745000Y-146230000D01*
X124780714Y-146265714D01*
X124852142Y-146301428D01*
X124995000Y-146337142D01*
X125173571Y-146337142D01*
X125316428Y-146301428D01*
X125387857Y-146265714D01*
X125423571Y-146230000D01*
X125459285Y-146158571D01*
X125459285Y-146087142D01*
X125423571Y-146015714D01*
X125387857Y-145980000D01*
X125316428Y-145944285D01*
X125173571Y-145908571D01*
X124995000Y-145908571D01*
X124852142Y-145944285D01*
X124780714Y-145980000D01*
X124745000Y-146015714D01*
X124709285Y-146087142D01*
X117339285Y-144678571D02*
X117339285Y-144321428D01*
X116589285Y-144321428D01*
X116946428Y-144928571D02*
X116946428Y-145178571D01*
X117339285Y-145285714D02*
X117339285Y-144928571D01*
X116589285Y-144928571D01*
X116589285Y-145285714D01*
X116589285Y-145500000D02*
X117339285Y-145750000D01*
X116589285Y-146000000D01*
X116946428Y-146250000D02*
X116946428Y-146500000D01*
X117339285Y-146607142D02*
X117339285Y-146250000D01*
X116589285Y-146250000D01*
X116589285Y-146607142D01*
X117339285Y-147285714D02*
X117339285Y-146928571D01*
X116589285Y-146928571D01*
%TO.C,R25*%
X137732142Y-149589285D02*
X137982142Y-149232142D01*
X138160714Y-149589285D02*
X138160714Y-148839285D01*
X137875000Y-148839285D01*
X137803571Y-148875000D01*
X137767857Y-148910714D01*
X137732142Y-148982142D01*
X137732142Y-149089285D01*
X137767857Y-149160714D01*
X137803571Y-149196428D01*
X137875000Y-149232142D01*
X138160714Y-149232142D01*
X137446428Y-148910714D02*
X137410714Y-148875000D01*
X137339285Y-148839285D01*
X137160714Y-148839285D01*
X137089285Y-148875000D01*
X137053571Y-148910714D01*
X137017857Y-148982142D01*
X137017857Y-149053571D01*
X137053571Y-149160714D01*
X137482142Y-149589285D01*
X137017857Y-149589285D01*
X136339285Y-148839285D02*
X136696428Y-148839285D01*
X136732142Y-149196428D01*
X136696428Y-149160714D01*
X136625000Y-149125000D01*
X136446428Y-149125000D01*
X136375000Y-149160714D01*
X136339285Y-149196428D01*
X136303571Y-149267857D01*
X136303571Y-149446428D01*
X136339285Y-149517857D01*
X136375000Y-149553571D01*
X136446428Y-149589285D01*
X136625000Y-149589285D01*
X136696428Y-149553571D01*
X136732142Y-149517857D01*
X144053571Y-149589285D02*
X144482142Y-149589285D01*
X144267857Y-149589285D02*
X144267857Y-148839285D01*
X144339285Y-148946428D01*
X144410714Y-149017857D01*
X144482142Y-149053571D01*
X143589285Y-148839285D02*
X143517857Y-148839285D01*
X143446428Y-148875000D01*
X143410714Y-148910714D01*
X143375000Y-148982142D01*
X143339285Y-149125000D01*
X143339285Y-149303571D01*
X143375000Y-149446428D01*
X143410714Y-149517857D01*
X143446428Y-149553571D01*
X143517857Y-149589285D01*
X143589285Y-149589285D01*
X143660714Y-149553571D01*
X143696428Y-149517857D01*
X143732142Y-149446428D01*
X143767857Y-149303571D01*
X143767857Y-149125000D01*
X143732142Y-148982142D01*
X143696428Y-148910714D01*
X143660714Y-148875000D01*
X143589285Y-148839285D01*
X142875000Y-148839285D02*
X142803571Y-148839285D01*
X142732142Y-148875000D01*
X142696428Y-148910714D01*
X142660714Y-148982142D01*
X142625000Y-149125000D01*
X142625000Y-149303571D01*
X142660714Y-149446428D01*
X142696428Y-149517857D01*
X142732142Y-149553571D01*
X142803571Y-149589285D01*
X142875000Y-149589285D01*
X142946428Y-149553571D01*
X142982142Y-149517857D01*
X143017857Y-149446428D01*
X143053571Y-149303571D01*
X143053571Y-149125000D01*
X143017857Y-148982142D01*
X142982142Y-148910714D01*
X142946428Y-148875000D01*
X142875000Y-148839285D01*
X142303571Y-149589285D02*
X142303571Y-148839285D01*
X142232142Y-149303571D02*
X142017857Y-149589285D01*
X142017857Y-149089285D02*
X142303571Y-149375000D01*
%TO.C,R26*%
X143352142Y-150589285D02*
X143602142Y-150232142D01*
X143780714Y-150589285D02*
X143780714Y-149839285D01*
X143495000Y-149839285D01*
X143423571Y-149875000D01*
X143387857Y-149910714D01*
X143352142Y-149982142D01*
X143352142Y-150089285D01*
X143387857Y-150160714D01*
X143423571Y-150196428D01*
X143495000Y-150232142D01*
X143780714Y-150232142D01*
X143066428Y-149910714D02*
X143030714Y-149875000D01*
X142959285Y-149839285D01*
X142780714Y-149839285D01*
X142709285Y-149875000D01*
X142673571Y-149910714D01*
X142637857Y-149982142D01*
X142637857Y-150053571D01*
X142673571Y-150160714D01*
X143102142Y-150589285D01*
X142637857Y-150589285D01*
X141995000Y-149839285D02*
X142137857Y-149839285D01*
X142209285Y-149875000D01*
X142245000Y-149910714D01*
X142316428Y-150017857D01*
X142352142Y-150160714D01*
X142352142Y-150446428D01*
X142316428Y-150517857D01*
X142280714Y-150553571D01*
X142209285Y-150589285D01*
X142066428Y-150589285D01*
X141995000Y-150553571D01*
X141959285Y-150517857D01*
X141923571Y-150446428D01*
X141923571Y-150267857D01*
X141959285Y-150196428D01*
X141995000Y-150160714D01*
X142066428Y-150125000D01*
X142209285Y-150125000D01*
X142280714Y-150160714D01*
X142316428Y-150196428D01*
X142352142Y-150267857D01*
X137745000Y-150089285D02*
X137745000Y-150589285D01*
X137923571Y-149803571D02*
X138102142Y-150339285D01*
X137637857Y-150339285D01*
X137423571Y-149839285D02*
X136923571Y-149839285D01*
X137245000Y-150589285D01*
X136495000Y-149839285D02*
X136423571Y-149839285D01*
X136352142Y-149875000D01*
X136316428Y-149910714D01*
X136280714Y-149982142D01*
X136245000Y-150125000D01*
X136245000Y-150303571D01*
X136280714Y-150446428D01*
X136316428Y-150517857D01*
X136352142Y-150553571D01*
X136423571Y-150589285D01*
X136495000Y-150589285D01*
X136566428Y-150553571D01*
X136602142Y-150517857D01*
X136637857Y-150446428D01*
X136673571Y-150303571D01*
X136673571Y-150125000D01*
X136637857Y-149982142D01*
X136602142Y-149910714D01*
X136566428Y-149875000D01*
X136495000Y-149839285D01*
X135923571Y-150589285D02*
X135923571Y-149839285D01*
X135852142Y-150303571D02*
X135637857Y-150589285D01*
X135637857Y-150089285D02*
X135923571Y-150375000D01*
%TO.C,C14*%
X144482142Y-27267857D02*
X144517857Y-27303571D01*
X144625000Y-27339285D01*
X144696428Y-27339285D01*
X144803571Y-27303571D01*
X144875000Y-27232142D01*
X144910714Y-27160714D01*
X144946428Y-27017857D01*
X144946428Y-26910714D01*
X144910714Y-26767857D01*
X144875000Y-26696428D01*
X144803571Y-26625000D01*
X144696428Y-26589285D01*
X144625000Y-26589285D01*
X144517857Y-26625000D01*
X144482142Y-26660714D01*
X143767857Y-27339285D02*
X144196428Y-27339285D01*
X143982142Y-27339285D02*
X143982142Y-26589285D01*
X144053571Y-26696428D01*
X144125000Y-26767857D01*
X144196428Y-26803571D01*
X143125000Y-26839285D02*
X143125000Y-27339285D01*
X143303571Y-26553571D02*
X143482142Y-27089285D01*
X143017857Y-27089285D01*
X148803571Y-27339285D02*
X149232142Y-27339285D01*
X149017857Y-27339285D02*
X149017857Y-26589285D01*
X149089285Y-26696428D01*
X149160714Y-26767857D01*
X149232142Y-26803571D01*
X148339285Y-26589285D02*
X148267857Y-26589285D01*
X148196428Y-26625000D01*
X148160714Y-26660714D01*
X148125000Y-26732142D01*
X148089285Y-26875000D01*
X148089285Y-27053571D01*
X148125000Y-27196428D01*
X148160714Y-27267857D01*
X148196428Y-27303571D01*
X148267857Y-27339285D01*
X148339285Y-27339285D01*
X148410714Y-27303571D01*
X148446428Y-27267857D01*
X148482142Y-27196428D01*
X148517857Y-27053571D01*
X148517857Y-26875000D01*
X148482142Y-26732142D01*
X148446428Y-26660714D01*
X148410714Y-26625000D01*
X148339285Y-26589285D01*
X147446428Y-26839285D02*
X147446428Y-27339285D01*
X147767857Y-26839285D02*
X147767857Y-27232142D01*
X147732142Y-27303571D01*
X147660714Y-27339285D01*
X147553571Y-27339285D01*
X147482142Y-27303571D01*
X147446428Y-27267857D01*
X146839285Y-26946428D02*
X147089285Y-26946428D01*
X147089285Y-27339285D02*
X147089285Y-26589285D01*
X146732142Y-26589285D01*
%TO.C,D2*%
X140553571Y-21339285D02*
X140553571Y-20589285D01*
X140375000Y-20589285D01*
X140267857Y-20625000D01*
X140196428Y-20696428D01*
X140160714Y-20767857D01*
X140125000Y-20910714D01*
X140125000Y-21017857D01*
X140160714Y-21160714D01*
X140196428Y-21232142D01*
X140267857Y-21303571D01*
X140375000Y-21339285D01*
X140553571Y-21339285D01*
X139839285Y-20660714D02*
X139803571Y-20625000D01*
X139732142Y-20589285D01*
X139553571Y-20589285D01*
X139482142Y-20625000D01*
X139446428Y-20660714D01*
X139410714Y-20732142D01*
X139410714Y-20803571D01*
X139446428Y-20910714D01*
X139875000Y-21339285D01*
X139410714Y-21339285D01*
X140196428Y-26339285D02*
X140196428Y-25589285D01*
X139767857Y-26339285D02*
X140089285Y-25910714D01*
X139767857Y-25589285D02*
X140196428Y-26017857D01*
X134107142Y-21339285D02*
X134535714Y-21339285D01*
X134321428Y-21339285D02*
X134321428Y-20589285D01*
X134392857Y-20696428D01*
X134464285Y-20767857D01*
X134535714Y-20803571D01*
X133785714Y-21339285D02*
X133785714Y-20589285D01*
X133357142Y-21339285D01*
X133357142Y-20589285D01*
X132642857Y-20589285D02*
X133000000Y-20589285D01*
X133035714Y-20946428D01*
X133000000Y-20910714D01*
X132928571Y-20875000D01*
X132750000Y-20875000D01*
X132678571Y-20910714D01*
X132642857Y-20946428D01*
X132607142Y-21017857D01*
X132607142Y-21196428D01*
X132642857Y-21267857D01*
X132678571Y-21303571D01*
X132750000Y-21339285D01*
X132928571Y-21339285D01*
X133000000Y-21303571D01*
X133035714Y-21267857D01*
X132178571Y-20910714D02*
X132250000Y-20875000D01*
X132285714Y-20839285D01*
X132321428Y-20767857D01*
X132321428Y-20732142D01*
X132285714Y-20660714D01*
X132250000Y-20625000D01*
X132178571Y-20589285D01*
X132035714Y-20589285D01*
X131964285Y-20625000D01*
X131928571Y-20660714D01*
X131892857Y-20732142D01*
X131892857Y-20767857D01*
X131928571Y-20839285D01*
X131964285Y-20875000D01*
X132035714Y-20910714D01*
X132178571Y-20910714D01*
X132250000Y-20946428D01*
X132285714Y-20982142D01*
X132321428Y-21053571D01*
X132321428Y-21196428D01*
X132285714Y-21267857D01*
X132250000Y-21303571D01*
X132178571Y-21339285D01*
X132035714Y-21339285D01*
X131964285Y-21303571D01*
X131928571Y-21267857D01*
X131892857Y-21196428D01*
X131892857Y-21053571D01*
X131928571Y-20982142D01*
X131964285Y-20946428D01*
X132035714Y-20910714D01*
X131178571Y-21339285D02*
X131607142Y-21339285D01*
X131392857Y-21339285D02*
X131392857Y-20589285D01*
X131464285Y-20696428D01*
X131535714Y-20767857D01*
X131607142Y-20803571D01*
X130928571Y-20589285D02*
X130428571Y-20589285D01*
X130750000Y-21339285D01*
%TO.C,C15*%
X148482142Y-28767857D02*
X148517857Y-28803571D01*
X148625000Y-28839285D01*
X148696428Y-28839285D01*
X148803571Y-28803571D01*
X148875000Y-28732142D01*
X148910714Y-28660714D01*
X148946428Y-28517857D01*
X148946428Y-28410714D01*
X148910714Y-28267857D01*
X148875000Y-28196428D01*
X148803571Y-28125000D01*
X148696428Y-28089285D01*
X148625000Y-28089285D01*
X148517857Y-28125000D01*
X148482142Y-28160714D01*
X147767857Y-28839285D02*
X148196428Y-28839285D01*
X147982142Y-28839285D02*
X147982142Y-28089285D01*
X148053571Y-28196428D01*
X148125000Y-28267857D01*
X148196428Y-28303571D01*
X147089285Y-28089285D02*
X147446428Y-28089285D01*
X147482142Y-28446428D01*
X147446428Y-28410714D01*
X147375000Y-28375000D01*
X147196428Y-28375000D01*
X147125000Y-28410714D01*
X147089285Y-28446428D01*
X147053571Y-28517857D01*
X147053571Y-28696428D01*
X147089285Y-28767857D01*
X147125000Y-28803571D01*
X147196428Y-28839285D01*
X147375000Y-28839285D01*
X147446428Y-28803571D01*
X147482142Y-28767857D01*
X144803571Y-28839285D02*
X145232142Y-28839285D01*
X145017857Y-28839285D02*
X145017857Y-28089285D01*
X145089285Y-28196428D01*
X145160714Y-28267857D01*
X145232142Y-28303571D01*
X144339285Y-28089285D02*
X144267857Y-28089285D01*
X144196428Y-28125000D01*
X144160714Y-28160714D01*
X144125000Y-28232142D01*
X144089285Y-28375000D01*
X144089285Y-28553571D01*
X144125000Y-28696428D01*
X144160714Y-28767857D01*
X144196428Y-28803571D01*
X144267857Y-28839285D01*
X144339285Y-28839285D01*
X144410714Y-28803571D01*
X144446428Y-28767857D01*
X144482142Y-28696428D01*
X144517857Y-28553571D01*
X144517857Y-28375000D01*
X144482142Y-28232142D01*
X144446428Y-28160714D01*
X144410714Y-28125000D01*
X144339285Y-28089285D01*
X143446428Y-28339285D02*
X143446428Y-28839285D01*
X143767857Y-28339285D02*
X143767857Y-28732142D01*
X143732142Y-28803571D01*
X143660714Y-28839285D01*
X143553571Y-28839285D01*
X143482142Y-28803571D01*
X143446428Y-28767857D01*
X142839285Y-28446428D02*
X143089285Y-28446428D01*
X143089285Y-28839285D02*
X143089285Y-28089285D01*
X142732142Y-28089285D01*
%TO.C,D3*%
X132933571Y-34839285D02*
X132933571Y-34089285D01*
X132755000Y-34089285D01*
X132647857Y-34125000D01*
X132576428Y-34196428D01*
X132540714Y-34267857D01*
X132505000Y-34410714D01*
X132505000Y-34517857D01*
X132540714Y-34660714D01*
X132576428Y-34732142D01*
X132647857Y-34803571D01*
X132755000Y-34839285D01*
X132933571Y-34839285D01*
X132255000Y-34089285D02*
X131790714Y-34089285D01*
X132040714Y-34375000D01*
X131933571Y-34375000D01*
X131862142Y-34410714D01*
X131826428Y-34446428D01*
X131790714Y-34517857D01*
X131790714Y-34696428D01*
X131826428Y-34767857D01*
X131862142Y-34803571D01*
X131933571Y-34839285D01*
X132147857Y-34839285D01*
X132219285Y-34803571D01*
X132255000Y-34767857D01*
X132576428Y-29839285D02*
X132576428Y-29089285D01*
X132147857Y-29839285D02*
X132469285Y-29410714D01*
X132147857Y-29089285D02*
X132576428Y-29517857D01*
X141487142Y-34839285D02*
X141915714Y-34839285D01*
X141701428Y-34839285D02*
X141701428Y-34089285D01*
X141772857Y-34196428D01*
X141844285Y-34267857D01*
X141915714Y-34303571D01*
X141165714Y-34839285D02*
X141165714Y-34089285D01*
X140737142Y-34839285D01*
X140737142Y-34089285D01*
X140022857Y-34089285D02*
X140380000Y-34089285D01*
X140415714Y-34446428D01*
X140380000Y-34410714D01*
X140308571Y-34375000D01*
X140130000Y-34375000D01*
X140058571Y-34410714D01*
X140022857Y-34446428D01*
X139987142Y-34517857D01*
X139987142Y-34696428D01*
X140022857Y-34767857D01*
X140058571Y-34803571D01*
X140130000Y-34839285D01*
X140308571Y-34839285D01*
X140380000Y-34803571D01*
X140415714Y-34767857D01*
X139558571Y-34410714D02*
X139630000Y-34375000D01*
X139665714Y-34339285D01*
X139701428Y-34267857D01*
X139701428Y-34232142D01*
X139665714Y-34160714D01*
X139630000Y-34125000D01*
X139558571Y-34089285D01*
X139415714Y-34089285D01*
X139344285Y-34125000D01*
X139308571Y-34160714D01*
X139272857Y-34232142D01*
X139272857Y-34267857D01*
X139308571Y-34339285D01*
X139344285Y-34375000D01*
X139415714Y-34410714D01*
X139558571Y-34410714D01*
X139630000Y-34446428D01*
X139665714Y-34482142D01*
X139701428Y-34553571D01*
X139701428Y-34696428D01*
X139665714Y-34767857D01*
X139630000Y-34803571D01*
X139558571Y-34839285D01*
X139415714Y-34839285D01*
X139344285Y-34803571D01*
X139308571Y-34767857D01*
X139272857Y-34696428D01*
X139272857Y-34553571D01*
X139308571Y-34482142D01*
X139344285Y-34446428D01*
X139415714Y-34410714D01*
X138558571Y-34839285D02*
X138987142Y-34839285D01*
X138772857Y-34839285D02*
X138772857Y-34089285D01*
X138844285Y-34196428D01*
X138915714Y-34267857D01*
X138987142Y-34303571D01*
X138308571Y-34089285D02*
X137808571Y-34089285D01*
X138130000Y-34839285D01*
%TO.C,U5*%
X135759285Y-88238571D02*
X136366428Y-88238571D01*
X136437857Y-88274285D01*
X136473571Y-88310000D01*
X136509285Y-88381428D01*
X136509285Y-88524285D01*
X136473571Y-88595714D01*
X136437857Y-88631428D01*
X136366428Y-88667142D01*
X135759285Y-88667142D01*
X135759285Y-89381428D02*
X135759285Y-89024285D01*
X136116428Y-88988571D01*
X136080714Y-89024285D01*
X136045000Y-89095714D01*
X136045000Y-89274285D01*
X136080714Y-89345714D01*
X136116428Y-89381428D01*
X136187857Y-89417142D01*
X136366428Y-89417142D01*
X136437857Y-89381428D01*
X136473571Y-89345714D01*
X136509285Y-89274285D01*
X136509285Y-89095714D01*
X136473571Y-89024285D01*
X136437857Y-88988571D01*
X155839285Y-88071428D02*
X156339285Y-88071428D01*
X155553571Y-87892857D02*
X156089285Y-87714285D01*
X156089285Y-88178571D01*
X155589285Y-88607142D02*
X155589285Y-88678571D01*
X155625000Y-88750000D01*
X155660714Y-88785714D01*
X155732142Y-88821428D01*
X155875000Y-88857142D01*
X156053571Y-88857142D01*
X156196428Y-88821428D01*
X156267857Y-88785714D01*
X156303571Y-88750000D01*
X156339285Y-88678571D01*
X156339285Y-88607142D01*
X156303571Y-88535714D01*
X156267857Y-88500000D01*
X156196428Y-88464285D01*
X156053571Y-88428571D01*
X155875000Y-88428571D01*
X155732142Y-88464285D01*
X155660714Y-88500000D01*
X155625000Y-88535714D01*
X155589285Y-88607142D01*
X155589285Y-89500000D02*
X155589285Y-89357142D01*
X155625000Y-89285714D01*
X155660714Y-89250000D01*
X155767857Y-89178571D01*
X155910714Y-89142857D01*
X156196428Y-89142857D01*
X156267857Y-89178571D01*
X156303571Y-89214285D01*
X156339285Y-89285714D01*
X156339285Y-89428571D01*
X156303571Y-89500000D01*
X156267857Y-89535714D01*
X156196428Y-89571428D01*
X156017857Y-89571428D01*
X155946428Y-89535714D01*
X155910714Y-89500000D01*
X155875000Y-89428571D01*
X155875000Y-89285714D01*
X155910714Y-89214285D01*
X155946428Y-89178571D01*
X156017857Y-89142857D01*
X155589285Y-90214285D02*
X155589285Y-90071428D01*
X155625000Y-90000000D01*
X155660714Y-89964285D01*
X155767857Y-89892857D01*
X155910714Y-89857142D01*
X156196428Y-89857142D01*
X156267857Y-89892857D01*
X156303571Y-89928571D01*
X156339285Y-90000000D01*
X156339285Y-90142857D01*
X156303571Y-90214285D01*
X156267857Y-90250000D01*
X156196428Y-90285714D01*
X156017857Y-90285714D01*
X155946428Y-90250000D01*
X155910714Y-90214285D01*
X155875000Y-90142857D01*
X155875000Y-90000000D01*
X155910714Y-89928571D01*
X155946428Y-89892857D01*
X156017857Y-89857142D01*
%TO.C,U4*%
X136759285Y-128738571D02*
X137366428Y-128738571D01*
X137437857Y-128774285D01*
X137473571Y-128810000D01*
X137509285Y-128881428D01*
X137509285Y-129024285D01*
X137473571Y-129095714D01*
X137437857Y-129131428D01*
X137366428Y-129167142D01*
X136759285Y-129167142D01*
X137009285Y-129845714D02*
X137509285Y-129845714D01*
X136723571Y-129667142D02*
X137259285Y-129488571D01*
X137259285Y-129952857D01*
X156839285Y-128571428D02*
X157339285Y-128571428D01*
X156553571Y-128392857D02*
X157089285Y-128214285D01*
X157089285Y-128678571D01*
X156589285Y-129107142D02*
X156589285Y-129178571D01*
X156625000Y-129250000D01*
X156660714Y-129285714D01*
X156732142Y-129321428D01*
X156875000Y-129357142D01*
X157053571Y-129357142D01*
X157196428Y-129321428D01*
X157267857Y-129285714D01*
X157303571Y-129250000D01*
X157339285Y-129178571D01*
X157339285Y-129107142D01*
X157303571Y-129035714D01*
X157267857Y-129000000D01*
X157196428Y-128964285D01*
X157053571Y-128928571D01*
X156875000Y-128928571D01*
X156732142Y-128964285D01*
X156660714Y-129000000D01*
X156625000Y-129035714D01*
X156589285Y-129107142D01*
X156589285Y-130000000D02*
X156589285Y-129857142D01*
X156625000Y-129785714D01*
X156660714Y-129750000D01*
X156767857Y-129678571D01*
X156910714Y-129642857D01*
X157196428Y-129642857D01*
X157267857Y-129678571D01*
X157303571Y-129714285D01*
X157339285Y-129785714D01*
X157339285Y-129928571D01*
X157303571Y-130000000D01*
X157267857Y-130035714D01*
X157196428Y-130071428D01*
X157017857Y-130071428D01*
X156946428Y-130035714D01*
X156910714Y-130000000D01*
X156875000Y-129928571D01*
X156875000Y-129785714D01*
X156910714Y-129714285D01*
X156946428Y-129678571D01*
X157017857Y-129642857D01*
X156589285Y-130714285D02*
X156589285Y-130571428D01*
X156625000Y-130500000D01*
X156660714Y-130464285D01*
X156767857Y-130392857D01*
X156910714Y-130357142D01*
X157196428Y-130357142D01*
X157267857Y-130392857D01*
X157303571Y-130428571D01*
X157339285Y-130500000D01*
X157339285Y-130642857D01*
X157303571Y-130714285D01*
X157267857Y-130750000D01*
X157196428Y-130785714D01*
X157017857Y-130785714D01*
X156946428Y-130750000D01*
X156910714Y-130714285D01*
X156875000Y-130642857D01*
X156875000Y-130500000D01*
X156910714Y-130428571D01*
X156946428Y-130392857D01*
X157017857Y-130357142D01*
%TO.C,R14*%
X143839285Y-120517857D02*
X143482142Y-120267857D01*
X143839285Y-120089285D02*
X143089285Y-120089285D01*
X143089285Y-120375000D01*
X143125000Y-120446428D01*
X143160714Y-120482142D01*
X143232142Y-120517857D01*
X143339285Y-120517857D01*
X143410714Y-120482142D01*
X143446428Y-120446428D01*
X143482142Y-120375000D01*
X143482142Y-120089285D01*
X143839285Y-121232142D02*
X143839285Y-120803571D01*
X143839285Y-121017857D02*
X143089285Y-121017857D01*
X143196428Y-120946428D01*
X143267857Y-120875000D01*
X143303571Y-120803571D01*
X143339285Y-121875000D02*
X143839285Y-121875000D01*
X143053571Y-121696428D02*
X143589285Y-121517857D01*
X143589285Y-121982142D01*
X143839285Y-114553571D02*
X143839285Y-114125000D01*
X143839285Y-114339285D02*
X143089285Y-114339285D01*
X143196428Y-114267857D01*
X143267857Y-114196428D01*
X143303571Y-114125000D01*
X143089285Y-115017857D02*
X143089285Y-115089285D01*
X143125000Y-115160714D01*
X143160714Y-115196428D01*
X143232142Y-115232142D01*
X143375000Y-115267857D01*
X143553571Y-115267857D01*
X143696428Y-115232142D01*
X143767857Y-115196428D01*
X143803571Y-115160714D01*
X143839285Y-115089285D01*
X143839285Y-115017857D01*
X143803571Y-114946428D01*
X143767857Y-114910714D01*
X143696428Y-114875000D01*
X143553571Y-114839285D01*
X143375000Y-114839285D01*
X143232142Y-114875000D01*
X143160714Y-114910714D01*
X143125000Y-114946428D01*
X143089285Y-115017857D01*
X143839285Y-115589285D02*
X143089285Y-115589285D01*
X143553571Y-115660714D02*
X143839285Y-115875000D01*
X143339285Y-115875000D02*
X143625000Y-115589285D01*
%TO.C,R13*%
X146839285Y-79517857D02*
X146482142Y-79267857D01*
X146839285Y-79089285D02*
X146089285Y-79089285D01*
X146089285Y-79375000D01*
X146125000Y-79446428D01*
X146160714Y-79482142D01*
X146232142Y-79517857D01*
X146339285Y-79517857D01*
X146410714Y-79482142D01*
X146446428Y-79446428D01*
X146482142Y-79375000D01*
X146482142Y-79089285D01*
X146839285Y-80232142D02*
X146839285Y-79803571D01*
X146839285Y-80017857D02*
X146089285Y-80017857D01*
X146196428Y-79946428D01*
X146267857Y-79875000D01*
X146303571Y-79803571D01*
X146089285Y-80482142D02*
X146089285Y-80946428D01*
X146375000Y-80696428D01*
X146375000Y-80803571D01*
X146410714Y-80875000D01*
X146446428Y-80910714D01*
X146517857Y-80946428D01*
X146696428Y-80946428D01*
X146767857Y-80910714D01*
X146803571Y-80875000D01*
X146839285Y-80803571D01*
X146839285Y-80589285D01*
X146803571Y-80517857D01*
X146767857Y-80482142D01*
X146839285Y-73553571D02*
X146839285Y-73125000D01*
X146839285Y-73339285D02*
X146089285Y-73339285D01*
X146196428Y-73267857D01*
X146267857Y-73196428D01*
X146303571Y-73125000D01*
X146089285Y-74017857D02*
X146089285Y-74089285D01*
X146125000Y-74160714D01*
X146160714Y-74196428D01*
X146232142Y-74232142D01*
X146375000Y-74267857D01*
X146553571Y-74267857D01*
X146696428Y-74232142D01*
X146767857Y-74196428D01*
X146803571Y-74160714D01*
X146839285Y-74089285D01*
X146839285Y-74017857D01*
X146803571Y-73946428D01*
X146767857Y-73910714D01*
X146696428Y-73875000D01*
X146553571Y-73839285D01*
X146375000Y-73839285D01*
X146232142Y-73875000D01*
X146160714Y-73910714D01*
X146125000Y-73946428D01*
X146089285Y-74017857D01*
X146839285Y-74589285D02*
X146089285Y-74589285D01*
X146553571Y-74660714D02*
X146839285Y-74875000D01*
X146339285Y-74875000D02*
X146625000Y-74589285D01*
%TO.C,R12*%
X145339285Y-97017857D02*
X144982142Y-96767857D01*
X145339285Y-96589285D02*
X144589285Y-96589285D01*
X144589285Y-96875000D01*
X144625000Y-96946428D01*
X144660714Y-96982142D01*
X144732142Y-97017857D01*
X144839285Y-97017857D01*
X144910714Y-96982142D01*
X144946428Y-96946428D01*
X144982142Y-96875000D01*
X144982142Y-96589285D01*
X145339285Y-97732142D02*
X145339285Y-97303571D01*
X145339285Y-97517857D02*
X144589285Y-97517857D01*
X144696428Y-97446428D01*
X144767857Y-97375000D01*
X144803571Y-97303571D01*
X144660714Y-98017857D02*
X144625000Y-98053571D01*
X144589285Y-98125000D01*
X144589285Y-98303571D01*
X144625000Y-98375000D01*
X144660714Y-98410714D01*
X144732142Y-98446428D01*
X144803571Y-98446428D01*
X144910714Y-98410714D01*
X145339285Y-97982142D01*
X145339285Y-98446428D01*
X145339285Y-103053571D02*
X145339285Y-102625000D01*
X145339285Y-102839285D02*
X144589285Y-102839285D01*
X144696428Y-102767857D01*
X144767857Y-102696428D01*
X144803571Y-102625000D01*
X144589285Y-103517857D02*
X144589285Y-103589285D01*
X144625000Y-103660714D01*
X144660714Y-103696428D01*
X144732142Y-103732142D01*
X144875000Y-103767857D01*
X145053571Y-103767857D01*
X145196428Y-103732142D01*
X145267857Y-103696428D01*
X145303571Y-103660714D01*
X145339285Y-103589285D01*
X145339285Y-103517857D01*
X145303571Y-103446428D01*
X145267857Y-103410714D01*
X145196428Y-103375000D01*
X145053571Y-103339285D01*
X144875000Y-103339285D01*
X144732142Y-103375000D01*
X144660714Y-103410714D01*
X144625000Y-103446428D01*
X144589285Y-103517857D01*
X145339285Y-104089285D02*
X144589285Y-104089285D01*
X145053571Y-104160714D02*
X145339285Y-104375000D01*
X144839285Y-104375000D02*
X145125000Y-104089285D01*
%TO.C,R11*%
X147339285Y-137517857D02*
X146982142Y-137267857D01*
X147339285Y-137089285D02*
X146589285Y-137089285D01*
X146589285Y-137375000D01*
X146625000Y-137446428D01*
X146660714Y-137482142D01*
X146732142Y-137517857D01*
X146839285Y-137517857D01*
X146910714Y-137482142D01*
X146946428Y-137446428D01*
X146982142Y-137375000D01*
X146982142Y-137089285D01*
X147339285Y-138232142D02*
X147339285Y-137803571D01*
X147339285Y-138017857D02*
X146589285Y-138017857D01*
X146696428Y-137946428D01*
X146767857Y-137875000D01*
X146803571Y-137803571D01*
X147339285Y-138946428D02*
X147339285Y-138517857D01*
X147339285Y-138732142D02*
X146589285Y-138732142D01*
X146696428Y-138660714D01*
X146767857Y-138589285D01*
X146803571Y-138517857D01*
X147339285Y-143553571D02*
X147339285Y-143125000D01*
X147339285Y-143339285D02*
X146589285Y-143339285D01*
X146696428Y-143267857D01*
X146767857Y-143196428D01*
X146803571Y-143125000D01*
X146589285Y-144017857D02*
X146589285Y-144089285D01*
X146625000Y-144160714D01*
X146660714Y-144196428D01*
X146732142Y-144232142D01*
X146875000Y-144267857D01*
X147053571Y-144267857D01*
X147196428Y-144232142D01*
X147267857Y-144196428D01*
X147303571Y-144160714D01*
X147339285Y-144089285D01*
X147339285Y-144017857D01*
X147303571Y-143946428D01*
X147267857Y-143910714D01*
X147196428Y-143875000D01*
X147053571Y-143839285D01*
X146875000Y-143839285D01*
X146732142Y-143875000D01*
X146660714Y-143910714D01*
X146625000Y-143946428D01*
X146589285Y-144017857D01*
X147339285Y-144589285D02*
X146589285Y-144589285D01*
X147053571Y-144660714D02*
X147339285Y-144875000D01*
X146839285Y-144875000D02*
X147125000Y-144589285D01*
%TO.C,R10*%
X147339285Y-120517857D02*
X146982142Y-120267857D01*
X147339285Y-120089285D02*
X146589285Y-120089285D01*
X146589285Y-120375000D01*
X146625000Y-120446428D01*
X146660714Y-120482142D01*
X146732142Y-120517857D01*
X146839285Y-120517857D01*
X146910714Y-120482142D01*
X146946428Y-120446428D01*
X146982142Y-120375000D01*
X146982142Y-120089285D01*
X147339285Y-121232142D02*
X147339285Y-120803571D01*
X147339285Y-121017857D02*
X146589285Y-121017857D01*
X146696428Y-120946428D01*
X146767857Y-120875000D01*
X146803571Y-120803571D01*
X146589285Y-121696428D02*
X146589285Y-121767857D01*
X146625000Y-121839285D01*
X146660714Y-121875000D01*
X146732142Y-121910714D01*
X146875000Y-121946428D01*
X147053571Y-121946428D01*
X147196428Y-121910714D01*
X147267857Y-121875000D01*
X147303571Y-121839285D01*
X147339285Y-121767857D01*
X147339285Y-121696428D01*
X147303571Y-121625000D01*
X147267857Y-121589285D01*
X147196428Y-121553571D01*
X147053571Y-121517857D01*
X146875000Y-121517857D01*
X146732142Y-121553571D01*
X146660714Y-121589285D01*
X146625000Y-121625000D01*
X146589285Y-121696428D01*
X147339285Y-114553571D02*
X147339285Y-114125000D01*
X147339285Y-114339285D02*
X146589285Y-114339285D01*
X146696428Y-114267857D01*
X146767857Y-114196428D01*
X146803571Y-114125000D01*
X146589285Y-115017857D02*
X146589285Y-115089285D01*
X146625000Y-115160714D01*
X146660714Y-115196428D01*
X146732142Y-115232142D01*
X146875000Y-115267857D01*
X147053571Y-115267857D01*
X147196428Y-115232142D01*
X147267857Y-115196428D01*
X147303571Y-115160714D01*
X147339285Y-115089285D01*
X147339285Y-115017857D01*
X147303571Y-114946428D01*
X147267857Y-114910714D01*
X147196428Y-114875000D01*
X147053571Y-114839285D01*
X146875000Y-114839285D01*
X146732142Y-114875000D01*
X146660714Y-114910714D01*
X146625000Y-114946428D01*
X146589285Y-115017857D01*
X147339285Y-115589285D02*
X146589285Y-115589285D01*
X147053571Y-115660714D02*
X147339285Y-115875000D01*
X146839285Y-115875000D02*
X147125000Y-115589285D01*
%TO.C,R9*%
X143339285Y-79875000D02*
X142982142Y-79625000D01*
X143339285Y-79446428D02*
X142589285Y-79446428D01*
X142589285Y-79732142D01*
X142625000Y-79803571D01*
X142660714Y-79839285D01*
X142732142Y-79875000D01*
X142839285Y-79875000D01*
X142910714Y-79839285D01*
X142946428Y-79803571D01*
X142982142Y-79732142D01*
X142982142Y-79446428D01*
X143339285Y-80232142D02*
X143339285Y-80375000D01*
X143303571Y-80446428D01*
X143267857Y-80482142D01*
X143160714Y-80553571D01*
X143017857Y-80589285D01*
X142732142Y-80589285D01*
X142660714Y-80553571D01*
X142625000Y-80517857D01*
X142589285Y-80446428D01*
X142589285Y-80303571D01*
X142625000Y-80232142D01*
X142660714Y-80196428D01*
X142732142Y-80160714D01*
X142910714Y-80160714D01*
X142982142Y-80196428D01*
X143017857Y-80232142D01*
X143053571Y-80303571D01*
X143053571Y-80446428D01*
X143017857Y-80517857D01*
X142982142Y-80553571D01*
X142910714Y-80589285D01*
X143339285Y-73553571D02*
X143339285Y-73125000D01*
X143339285Y-73339285D02*
X142589285Y-73339285D01*
X142696428Y-73267857D01*
X142767857Y-73196428D01*
X142803571Y-73125000D01*
X142589285Y-74017857D02*
X142589285Y-74089285D01*
X142625000Y-74160714D01*
X142660714Y-74196428D01*
X142732142Y-74232142D01*
X142875000Y-74267857D01*
X143053571Y-74267857D01*
X143196428Y-74232142D01*
X143267857Y-74196428D01*
X143303571Y-74160714D01*
X143339285Y-74089285D01*
X143339285Y-74017857D01*
X143303571Y-73946428D01*
X143267857Y-73910714D01*
X143196428Y-73875000D01*
X143053571Y-73839285D01*
X142875000Y-73839285D01*
X142732142Y-73875000D01*
X142660714Y-73910714D01*
X142625000Y-73946428D01*
X142589285Y-74017857D01*
X143339285Y-74589285D02*
X142589285Y-74589285D01*
X143053571Y-74660714D02*
X143339285Y-74875000D01*
X142839285Y-74875000D02*
X143125000Y-74589285D01*
%TO.C,R8*%
X148839285Y-97375000D02*
X148482142Y-97125000D01*
X148839285Y-96946428D02*
X148089285Y-96946428D01*
X148089285Y-97232142D01*
X148125000Y-97303571D01*
X148160714Y-97339285D01*
X148232142Y-97375000D01*
X148339285Y-97375000D01*
X148410714Y-97339285D01*
X148446428Y-97303571D01*
X148482142Y-97232142D01*
X148482142Y-96946428D01*
X148410714Y-97803571D02*
X148375000Y-97732142D01*
X148339285Y-97696428D01*
X148267857Y-97660714D01*
X148232142Y-97660714D01*
X148160714Y-97696428D01*
X148125000Y-97732142D01*
X148089285Y-97803571D01*
X148089285Y-97946428D01*
X148125000Y-98017857D01*
X148160714Y-98053571D01*
X148232142Y-98089285D01*
X148267857Y-98089285D01*
X148339285Y-98053571D01*
X148375000Y-98017857D01*
X148410714Y-97946428D01*
X148410714Y-97803571D01*
X148446428Y-97732142D01*
X148482142Y-97696428D01*
X148553571Y-97660714D01*
X148696428Y-97660714D01*
X148767857Y-97696428D01*
X148803571Y-97732142D01*
X148839285Y-97803571D01*
X148839285Y-97946428D01*
X148803571Y-98017857D01*
X148767857Y-98053571D01*
X148696428Y-98089285D01*
X148553571Y-98089285D01*
X148482142Y-98053571D01*
X148446428Y-98017857D01*
X148410714Y-97946428D01*
X148839285Y-103053571D02*
X148839285Y-102625000D01*
X148839285Y-102839285D02*
X148089285Y-102839285D01*
X148196428Y-102767857D01*
X148267857Y-102696428D01*
X148303571Y-102625000D01*
X148089285Y-103517857D02*
X148089285Y-103589285D01*
X148125000Y-103660714D01*
X148160714Y-103696428D01*
X148232142Y-103732142D01*
X148375000Y-103767857D01*
X148553571Y-103767857D01*
X148696428Y-103732142D01*
X148767857Y-103696428D01*
X148803571Y-103660714D01*
X148839285Y-103589285D01*
X148839285Y-103517857D01*
X148803571Y-103446428D01*
X148767857Y-103410714D01*
X148696428Y-103375000D01*
X148553571Y-103339285D01*
X148375000Y-103339285D01*
X148232142Y-103375000D01*
X148160714Y-103410714D01*
X148125000Y-103446428D01*
X148089285Y-103517857D01*
X148839285Y-104089285D02*
X148089285Y-104089285D01*
X148553571Y-104160714D02*
X148839285Y-104375000D01*
X148339285Y-104375000D02*
X148625000Y-104089285D01*
%TO.C,J30*%
X174539523Y-57382380D02*
X174539523Y-58096666D01*
X174587142Y-58239523D01*
X174682380Y-58334761D01*
X174825238Y-58382380D01*
X174920476Y-58382380D01*
X174158571Y-57382380D02*
X173539523Y-57382380D01*
X173872857Y-57763333D01*
X173730000Y-57763333D01*
X173634761Y-57810952D01*
X173587142Y-57858571D01*
X173539523Y-57953809D01*
X173539523Y-58191904D01*
X173587142Y-58287142D01*
X173634761Y-58334761D01*
X173730000Y-58382380D01*
X174015714Y-58382380D01*
X174110952Y-58334761D01*
X174158571Y-58287142D01*
X172920476Y-57382380D02*
X172825238Y-57382380D01*
X172730000Y-57430000D01*
X172682380Y-57477619D01*
X172634761Y-57572857D01*
X172587142Y-57763333D01*
X172587142Y-58001428D01*
X172634761Y-58191904D01*
X172682380Y-58287142D01*
X172730000Y-58334761D01*
X172825238Y-58382380D01*
X172920476Y-58382380D01*
X173015714Y-58334761D01*
X173063333Y-58287142D01*
X173110952Y-58191904D01*
X173158571Y-58001428D01*
X173158571Y-57763333D01*
X173110952Y-57572857D01*
X173063333Y-57477619D01*
X173015714Y-57430000D01*
X172920476Y-57382380D01*
%TO.C,J15*%
X116682380Y-177190476D02*
X117396666Y-177190476D01*
X117539523Y-177142857D01*
X117634761Y-177047619D01*
X117682380Y-176904761D01*
X117682380Y-176809523D01*
X117682380Y-178190476D02*
X117682380Y-177619047D01*
X117682380Y-177904761D02*
X116682380Y-177904761D01*
X116825238Y-177809523D01*
X116920476Y-177714285D01*
X116968095Y-177619047D01*
X116682380Y-179095238D02*
X116682380Y-178619047D01*
X117158571Y-178571428D01*
X117110952Y-178619047D01*
X117063333Y-178714285D01*
X117063333Y-178952380D01*
X117110952Y-179047619D01*
X117158571Y-179095238D01*
X117253809Y-179142857D01*
X117491904Y-179142857D01*
X117587142Y-179095238D01*
X117634761Y-179047619D01*
X117682380Y-178952380D01*
X117682380Y-178714285D01*
X117634761Y-178619047D01*
X117587142Y-178571428D01*
%TO.C,D10*%
X170339285Y-143089285D02*
X169589285Y-143089285D01*
X169589285Y-143267857D01*
X169625000Y-143375000D01*
X169696428Y-143446428D01*
X169767857Y-143482142D01*
X169910714Y-143517857D01*
X170017857Y-143517857D01*
X170160714Y-143482142D01*
X170232142Y-143446428D01*
X170303571Y-143375000D01*
X170339285Y-143267857D01*
X170339285Y-143089285D01*
X170339285Y-144232142D02*
X170339285Y-143803571D01*
X170339285Y-144017857D02*
X169589285Y-144017857D01*
X169696428Y-143946428D01*
X169767857Y-143875000D01*
X169803571Y-143803571D01*
X169589285Y-144696428D02*
X169589285Y-144767857D01*
X169625000Y-144839285D01*
X169660714Y-144875000D01*
X169732142Y-144910714D01*
X169875000Y-144946428D01*
X170053571Y-144946428D01*
X170196428Y-144910714D01*
X170267857Y-144875000D01*
X170303571Y-144839285D01*
X170339285Y-144767857D01*
X170339285Y-144696428D01*
X170303571Y-144625000D01*
X170267857Y-144589285D01*
X170196428Y-144553571D01*
X170053571Y-144517857D01*
X169875000Y-144517857D01*
X169732142Y-144553571D01*
X169660714Y-144589285D01*
X169625000Y-144625000D01*
X169589285Y-144696428D01*
X174339285Y-143803571D02*
X173589285Y-143803571D01*
X174339285Y-144232142D02*
X173910714Y-143910714D01*
X173589285Y-144232142D02*
X174017857Y-143803571D01*
X170339285Y-149892857D02*
X170339285Y-149464285D01*
X170339285Y-149678571D02*
X169589285Y-149678571D01*
X169696428Y-149607142D01*
X169767857Y-149535714D01*
X169803571Y-149464285D01*
X170339285Y-150214285D02*
X169589285Y-150214285D01*
X170339285Y-150642857D01*
X169589285Y-150642857D01*
X169839285Y-151321428D02*
X170339285Y-151321428D01*
X169553571Y-151142857D02*
X170089285Y-150964285D01*
X170089285Y-151428571D01*
X170339285Y-152107142D02*
X170339285Y-151678571D01*
X170339285Y-151892857D02*
X169589285Y-151892857D01*
X169696428Y-151821428D01*
X169767857Y-151750000D01*
X169803571Y-151678571D01*
X169839285Y-152750000D02*
X170339285Y-152750000D01*
X169553571Y-152571428D02*
X170089285Y-152392857D01*
X170089285Y-152857142D01*
X169910714Y-153250000D02*
X169875000Y-153178571D01*
X169839285Y-153142857D01*
X169767857Y-153107142D01*
X169732142Y-153107142D01*
X169660714Y-153142857D01*
X169625000Y-153178571D01*
X169589285Y-153250000D01*
X169589285Y-153392857D01*
X169625000Y-153464285D01*
X169660714Y-153500000D01*
X169732142Y-153535714D01*
X169767857Y-153535714D01*
X169839285Y-153500000D01*
X169875000Y-153464285D01*
X169910714Y-153392857D01*
X169910714Y-153250000D01*
X169946428Y-153178571D01*
X169982142Y-153142857D01*
X170053571Y-153107142D01*
X170196428Y-153107142D01*
X170267857Y-153142857D01*
X170303571Y-153178571D01*
X170339285Y-153250000D01*
X170339285Y-153392857D01*
X170303571Y-153464285D01*
X170267857Y-153500000D01*
X170196428Y-153535714D01*
X170053571Y-153535714D01*
X169982142Y-153500000D01*
X169946428Y-153464285D01*
X169910714Y-153392857D01*
%TO.C,D9*%
X118339285Y-123446428D02*
X117589285Y-123446428D01*
X117589285Y-123625000D01*
X117625000Y-123732142D01*
X117696428Y-123803571D01*
X117767857Y-123839285D01*
X117910714Y-123875000D01*
X118017857Y-123875000D01*
X118160714Y-123839285D01*
X118232142Y-123803571D01*
X118303571Y-123732142D01*
X118339285Y-123625000D01*
X118339285Y-123446428D01*
X118339285Y-124232142D02*
X118339285Y-124375000D01*
X118303571Y-124446428D01*
X118267857Y-124482142D01*
X118160714Y-124553571D01*
X118017857Y-124589285D01*
X117732142Y-124589285D01*
X117660714Y-124553571D01*
X117625000Y-124517857D01*
X117589285Y-124446428D01*
X117589285Y-124303571D01*
X117625000Y-124232142D01*
X117660714Y-124196428D01*
X117732142Y-124160714D01*
X117910714Y-124160714D01*
X117982142Y-124196428D01*
X118017857Y-124232142D01*
X118053571Y-124303571D01*
X118053571Y-124446428D01*
X118017857Y-124517857D01*
X117982142Y-124553571D01*
X117910714Y-124589285D01*
X122339285Y-123803571D02*
X121589285Y-123803571D01*
X122339285Y-124232142D02*
X121910714Y-123910714D01*
X121589285Y-124232142D02*
X122017857Y-123803571D01*
X118339285Y-129892857D02*
X118339285Y-129464285D01*
X118339285Y-129678571D02*
X117589285Y-129678571D01*
X117696428Y-129607142D01*
X117767857Y-129535714D01*
X117803571Y-129464285D01*
X118339285Y-130214285D02*
X117589285Y-130214285D01*
X118339285Y-130642857D01*
X117589285Y-130642857D01*
X117839285Y-131321428D02*
X118339285Y-131321428D01*
X117553571Y-131142857D02*
X118089285Y-130964285D01*
X118089285Y-131428571D01*
X118339285Y-132107142D02*
X118339285Y-131678571D01*
X118339285Y-131892857D02*
X117589285Y-131892857D01*
X117696428Y-131821428D01*
X117767857Y-131750000D01*
X117803571Y-131678571D01*
X117839285Y-132750000D02*
X118339285Y-132750000D01*
X117553571Y-132571428D02*
X118089285Y-132392857D01*
X118089285Y-132857142D01*
X117910714Y-133250000D02*
X117875000Y-133178571D01*
X117839285Y-133142857D01*
X117767857Y-133107142D01*
X117732142Y-133107142D01*
X117660714Y-133142857D01*
X117625000Y-133178571D01*
X117589285Y-133250000D01*
X117589285Y-133392857D01*
X117625000Y-133464285D01*
X117660714Y-133500000D01*
X117732142Y-133535714D01*
X117767857Y-133535714D01*
X117839285Y-133500000D01*
X117875000Y-133464285D01*
X117910714Y-133392857D01*
X117910714Y-133250000D01*
X117946428Y-133178571D01*
X117982142Y-133142857D01*
X118053571Y-133107142D01*
X118196428Y-133107142D01*
X118267857Y-133142857D01*
X118303571Y-133178571D01*
X118339285Y-133250000D01*
X118339285Y-133392857D01*
X118303571Y-133464285D01*
X118267857Y-133500000D01*
X118196428Y-133535714D01*
X118053571Y-133535714D01*
X117982142Y-133500000D01*
X117946428Y-133464285D01*
X117910714Y-133392857D01*
%TO.C,D8*%
X170339285Y-103446428D02*
X169589285Y-103446428D01*
X169589285Y-103625000D01*
X169625000Y-103732142D01*
X169696428Y-103803571D01*
X169767857Y-103839285D01*
X169910714Y-103875000D01*
X170017857Y-103875000D01*
X170160714Y-103839285D01*
X170232142Y-103803571D01*
X170303571Y-103732142D01*
X170339285Y-103625000D01*
X170339285Y-103446428D01*
X169910714Y-104303571D02*
X169875000Y-104232142D01*
X169839285Y-104196428D01*
X169767857Y-104160714D01*
X169732142Y-104160714D01*
X169660714Y-104196428D01*
X169625000Y-104232142D01*
X169589285Y-104303571D01*
X169589285Y-104446428D01*
X169625000Y-104517857D01*
X169660714Y-104553571D01*
X169732142Y-104589285D01*
X169767857Y-104589285D01*
X169839285Y-104553571D01*
X169875000Y-104517857D01*
X169910714Y-104446428D01*
X169910714Y-104303571D01*
X169946428Y-104232142D01*
X169982142Y-104196428D01*
X170053571Y-104160714D01*
X170196428Y-104160714D01*
X170267857Y-104196428D01*
X170303571Y-104232142D01*
X170339285Y-104303571D01*
X170339285Y-104446428D01*
X170303571Y-104517857D01*
X170267857Y-104553571D01*
X170196428Y-104589285D01*
X170053571Y-104589285D01*
X169982142Y-104553571D01*
X169946428Y-104517857D01*
X169910714Y-104446428D01*
X174339285Y-103803571D02*
X173589285Y-103803571D01*
X174339285Y-104232142D02*
X173910714Y-103910714D01*
X173589285Y-104232142D02*
X174017857Y-103803571D01*
X170339285Y-109892857D02*
X170339285Y-109464285D01*
X170339285Y-109678571D02*
X169589285Y-109678571D01*
X169696428Y-109607142D01*
X169767857Y-109535714D01*
X169803571Y-109464285D01*
X170339285Y-110214285D02*
X169589285Y-110214285D01*
X170339285Y-110642857D01*
X169589285Y-110642857D01*
X169839285Y-111321428D02*
X170339285Y-111321428D01*
X169553571Y-111142857D02*
X170089285Y-110964285D01*
X170089285Y-111428571D01*
X170339285Y-112107142D02*
X170339285Y-111678571D01*
X170339285Y-111892857D02*
X169589285Y-111892857D01*
X169696428Y-111821428D01*
X169767857Y-111750000D01*
X169803571Y-111678571D01*
X169839285Y-112750000D02*
X170339285Y-112750000D01*
X169553571Y-112571428D02*
X170089285Y-112392857D01*
X170089285Y-112857142D01*
X169910714Y-113250000D02*
X169875000Y-113178571D01*
X169839285Y-113142857D01*
X169767857Y-113107142D01*
X169732142Y-113107142D01*
X169660714Y-113142857D01*
X169625000Y-113178571D01*
X169589285Y-113250000D01*
X169589285Y-113392857D01*
X169625000Y-113464285D01*
X169660714Y-113500000D01*
X169732142Y-113535714D01*
X169767857Y-113535714D01*
X169839285Y-113500000D01*
X169875000Y-113464285D01*
X169910714Y-113392857D01*
X169910714Y-113250000D01*
X169946428Y-113178571D01*
X169982142Y-113142857D01*
X170053571Y-113107142D01*
X170196428Y-113107142D01*
X170267857Y-113142857D01*
X170303571Y-113178571D01*
X170339285Y-113250000D01*
X170339285Y-113392857D01*
X170303571Y-113464285D01*
X170267857Y-113500000D01*
X170196428Y-113535714D01*
X170053571Y-113535714D01*
X169982142Y-113500000D01*
X169946428Y-113464285D01*
X169910714Y-113392857D01*
%TO.C,D7*%
X118339285Y-83446428D02*
X117589285Y-83446428D01*
X117589285Y-83625000D01*
X117625000Y-83732142D01*
X117696428Y-83803571D01*
X117767857Y-83839285D01*
X117910714Y-83875000D01*
X118017857Y-83875000D01*
X118160714Y-83839285D01*
X118232142Y-83803571D01*
X118303571Y-83732142D01*
X118339285Y-83625000D01*
X118339285Y-83446428D01*
X117589285Y-84125000D02*
X117589285Y-84625000D01*
X118339285Y-84303571D01*
X122339285Y-83803571D02*
X121589285Y-83803571D01*
X122339285Y-84232142D02*
X121910714Y-83910714D01*
X121589285Y-84232142D02*
X122017857Y-83803571D01*
X118339285Y-89892857D02*
X118339285Y-89464285D01*
X118339285Y-89678571D02*
X117589285Y-89678571D01*
X117696428Y-89607142D01*
X117767857Y-89535714D01*
X117803571Y-89464285D01*
X118339285Y-90214285D02*
X117589285Y-90214285D01*
X118339285Y-90642857D01*
X117589285Y-90642857D01*
X117839285Y-91321428D02*
X118339285Y-91321428D01*
X117553571Y-91142857D02*
X118089285Y-90964285D01*
X118089285Y-91428571D01*
X118339285Y-92107142D02*
X118339285Y-91678571D01*
X118339285Y-91892857D02*
X117589285Y-91892857D01*
X117696428Y-91821428D01*
X117767857Y-91750000D01*
X117803571Y-91678571D01*
X117839285Y-92750000D02*
X118339285Y-92750000D01*
X117553571Y-92571428D02*
X118089285Y-92392857D01*
X118089285Y-92857142D01*
X117910714Y-93250000D02*
X117875000Y-93178571D01*
X117839285Y-93142857D01*
X117767857Y-93107142D01*
X117732142Y-93107142D01*
X117660714Y-93142857D01*
X117625000Y-93178571D01*
X117589285Y-93250000D01*
X117589285Y-93392857D01*
X117625000Y-93464285D01*
X117660714Y-93500000D01*
X117732142Y-93535714D01*
X117767857Y-93535714D01*
X117839285Y-93500000D01*
X117875000Y-93464285D01*
X117910714Y-93392857D01*
X117910714Y-93250000D01*
X117946428Y-93178571D01*
X117982142Y-93142857D01*
X118053571Y-93107142D01*
X118196428Y-93107142D01*
X118267857Y-93142857D01*
X118303571Y-93178571D01*
X118339285Y-93250000D01*
X118339285Y-93392857D01*
X118303571Y-93464285D01*
X118267857Y-93500000D01*
X118196428Y-93535714D01*
X118053571Y-93535714D01*
X117982142Y-93500000D01*
X117946428Y-93464285D01*
X117910714Y-93392857D01*
%TO.C,D6*%
X170339285Y-63446428D02*
X169589285Y-63446428D01*
X169589285Y-63625000D01*
X169625000Y-63732142D01*
X169696428Y-63803571D01*
X169767857Y-63839285D01*
X169910714Y-63875000D01*
X170017857Y-63875000D01*
X170160714Y-63839285D01*
X170232142Y-63803571D01*
X170303571Y-63732142D01*
X170339285Y-63625000D01*
X170339285Y-63446428D01*
X169589285Y-64517857D02*
X169589285Y-64375000D01*
X169625000Y-64303571D01*
X169660714Y-64267857D01*
X169767857Y-64196428D01*
X169910714Y-64160714D01*
X170196428Y-64160714D01*
X170267857Y-64196428D01*
X170303571Y-64232142D01*
X170339285Y-64303571D01*
X170339285Y-64446428D01*
X170303571Y-64517857D01*
X170267857Y-64553571D01*
X170196428Y-64589285D01*
X170017857Y-64589285D01*
X169946428Y-64553571D01*
X169910714Y-64517857D01*
X169875000Y-64446428D01*
X169875000Y-64303571D01*
X169910714Y-64232142D01*
X169946428Y-64196428D01*
X170017857Y-64160714D01*
X174339285Y-63803571D02*
X173589285Y-63803571D01*
X174339285Y-64232142D02*
X173910714Y-63910714D01*
X173589285Y-64232142D02*
X174017857Y-63803571D01*
X170339285Y-69892857D02*
X170339285Y-69464285D01*
X170339285Y-69678571D02*
X169589285Y-69678571D01*
X169696428Y-69607142D01*
X169767857Y-69535714D01*
X169803571Y-69464285D01*
X170339285Y-70214285D02*
X169589285Y-70214285D01*
X170339285Y-70642857D01*
X169589285Y-70642857D01*
X169839285Y-71321428D02*
X170339285Y-71321428D01*
X169553571Y-71142857D02*
X170089285Y-70964285D01*
X170089285Y-71428571D01*
X170339285Y-72107142D02*
X170339285Y-71678571D01*
X170339285Y-71892857D02*
X169589285Y-71892857D01*
X169696428Y-71821428D01*
X169767857Y-71750000D01*
X169803571Y-71678571D01*
X169839285Y-72750000D02*
X170339285Y-72750000D01*
X169553571Y-72571428D02*
X170089285Y-72392857D01*
X170089285Y-72857142D01*
X169910714Y-73250000D02*
X169875000Y-73178571D01*
X169839285Y-73142857D01*
X169767857Y-73107142D01*
X169732142Y-73107142D01*
X169660714Y-73142857D01*
X169625000Y-73178571D01*
X169589285Y-73250000D01*
X169589285Y-73392857D01*
X169625000Y-73464285D01*
X169660714Y-73500000D01*
X169732142Y-73535714D01*
X169767857Y-73535714D01*
X169839285Y-73500000D01*
X169875000Y-73464285D01*
X169910714Y-73392857D01*
X169910714Y-73250000D01*
X169946428Y-73178571D01*
X169982142Y-73142857D01*
X170053571Y-73107142D01*
X170196428Y-73107142D01*
X170267857Y-73142857D01*
X170303571Y-73178571D01*
X170339285Y-73250000D01*
X170339285Y-73392857D01*
X170303571Y-73464285D01*
X170267857Y-73500000D01*
X170196428Y-73535714D01*
X170053571Y-73535714D01*
X169982142Y-73500000D01*
X169946428Y-73464285D01*
X169910714Y-73392857D01*
%TO.C,D5*%
X118339285Y-43446428D02*
X117589285Y-43446428D01*
X117589285Y-43625000D01*
X117625000Y-43732142D01*
X117696428Y-43803571D01*
X117767857Y-43839285D01*
X117910714Y-43875000D01*
X118017857Y-43875000D01*
X118160714Y-43839285D01*
X118232142Y-43803571D01*
X118303571Y-43732142D01*
X118339285Y-43625000D01*
X118339285Y-43446428D01*
X117589285Y-44553571D02*
X117589285Y-44196428D01*
X117946428Y-44160714D01*
X117910714Y-44196428D01*
X117875000Y-44267857D01*
X117875000Y-44446428D01*
X117910714Y-44517857D01*
X117946428Y-44553571D01*
X118017857Y-44589285D01*
X118196428Y-44589285D01*
X118267857Y-44553571D01*
X118303571Y-44517857D01*
X118339285Y-44446428D01*
X118339285Y-44267857D01*
X118303571Y-44196428D01*
X118267857Y-44160714D01*
X122339285Y-43803571D02*
X121589285Y-43803571D01*
X122339285Y-44232142D02*
X121910714Y-43910714D01*
X121589285Y-44232142D02*
X122017857Y-43803571D01*
X118339285Y-49892857D02*
X118339285Y-49464285D01*
X118339285Y-49678571D02*
X117589285Y-49678571D01*
X117696428Y-49607142D01*
X117767857Y-49535714D01*
X117803571Y-49464285D01*
X118339285Y-50214285D02*
X117589285Y-50214285D01*
X118339285Y-50642857D01*
X117589285Y-50642857D01*
X117839285Y-51321428D02*
X118339285Y-51321428D01*
X117553571Y-51142857D02*
X118089285Y-50964285D01*
X118089285Y-51428571D01*
X118339285Y-52107142D02*
X118339285Y-51678571D01*
X118339285Y-51892857D02*
X117589285Y-51892857D01*
X117696428Y-51821428D01*
X117767857Y-51750000D01*
X117803571Y-51678571D01*
X117839285Y-52750000D02*
X118339285Y-52750000D01*
X117553571Y-52571428D02*
X118089285Y-52392857D01*
X118089285Y-52857142D01*
X117910714Y-53250000D02*
X117875000Y-53178571D01*
X117839285Y-53142857D01*
X117767857Y-53107142D01*
X117732142Y-53107142D01*
X117660714Y-53142857D01*
X117625000Y-53178571D01*
X117589285Y-53250000D01*
X117589285Y-53392857D01*
X117625000Y-53464285D01*
X117660714Y-53500000D01*
X117732142Y-53535714D01*
X117767857Y-53535714D01*
X117839285Y-53500000D01*
X117875000Y-53464285D01*
X117910714Y-53392857D01*
X117910714Y-53250000D01*
X117946428Y-53178571D01*
X117982142Y-53142857D01*
X118053571Y-53107142D01*
X118196428Y-53107142D01*
X118267857Y-53142857D01*
X118303571Y-53178571D01*
X118339285Y-53250000D01*
X118339285Y-53392857D01*
X118303571Y-53464285D01*
X118267857Y-53500000D01*
X118196428Y-53535714D01*
X118053571Y-53535714D01*
X117982142Y-53500000D01*
X117946428Y-53464285D01*
X117910714Y-53392857D01*
%TO.C,D4*%
X170339285Y-23446428D02*
X169589285Y-23446428D01*
X169589285Y-23625000D01*
X169625000Y-23732142D01*
X169696428Y-23803571D01*
X169767857Y-23839285D01*
X169910714Y-23875000D01*
X170017857Y-23875000D01*
X170160714Y-23839285D01*
X170232142Y-23803571D01*
X170303571Y-23732142D01*
X170339285Y-23625000D01*
X170339285Y-23446428D01*
X169839285Y-24517857D02*
X170339285Y-24517857D01*
X169553571Y-24339285D02*
X170089285Y-24160714D01*
X170089285Y-24625000D01*
X174339285Y-23803571D02*
X173589285Y-23803571D01*
X174339285Y-24232142D02*
X173910714Y-23910714D01*
X173589285Y-24232142D02*
X174017857Y-23803571D01*
X170339285Y-29892857D02*
X170339285Y-29464285D01*
X170339285Y-29678571D02*
X169589285Y-29678571D01*
X169696428Y-29607142D01*
X169767857Y-29535714D01*
X169803571Y-29464285D01*
X170339285Y-30214285D02*
X169589285Y-30214285D01*
X170339285Y-30642857D01*
X169589285Y-30642857D01*
X169839285Y-31321428D02*
X170339285Y-31321428D01*
X169553571Y-31142857D02*
X170089285Y-30964285D01*
X170089285Y-31428571D01*
X170339285Y-32107142D02*
X170339285Y-31678571D01*
X170339285Y-31892857D02*
X169589285Y-31892857D01*
X169696428Y-31821428D01*
X169767857Y-31750000D01*
X169803571Y-31678571D01*
X169839285Y-32750000D02*
X170339285Y-32750000D01*
X169553571Y-32571428D02*
X170089285Y-32392857D01*
X170089285Y-32857142D01*
X169910714Y-33250000D02*
X169875000Y-33178571D01*
X169839285Y-33142857D01*
X169767857Y-33107142D01*
X169732142Y-33107142D01*
X169660714Y-33142857D01*
X169625000Y-33178571D01*
X169589285Y-33250000D01*
X169589285Y-33392857D01*
X169625000Y-33464285D01*
X169660714Y-33500000D01*
X169732142Y-33535714D01*
X169767857Y-33535714D01*
X169839285Y-33500000D01*
X169875000Y-33464285D01*
X169910714Y-33392857D01*
X169910714Y-33250000D01*
X169946428Y-33178571D01*
X169982142Y-33142857D01*
X170053571Y-33107142D01*
X170196428Y-33107142D01*
X170267857Y-33142857D01*
X170303571Y-33178571D01*
X170339285Y-33250000D01*
X170339285Y-33392857D01*
X170303571Y-33464285D01*
X170267857Y-33500000D01*
X170196428Y-33535714D01*
X170053571Y-33535714D01*
X169982142Y-33500000D01*
X169946428Y-33464285D01*
X169910714Y-33392857D01*
%TO.C,C17*%
X137767857Y-136017857D02*
X137803571Y-135982142D01*
X137839285Y-135875000D01*
X137839285Y-135803571D01*
X137803571Y-135696428D01*
X137732142Y-135625000D01*
X137660714Y-135589285D01*
X137517857Y-135553571D01*
X137410714Y-135553571D01*
X137267857Y-135589285D01*
X137196428Y-135625000D01*
X137125000Y-135696428D01*
X137089285Y-135803571D01*
X137089285Y-135875000D01*
X137125000Y-135982142D01*
X137160714Y-136017857D01*
X137839285Y-136732142D02*
X137839285Y-136303571D01*
X137839285Y-136517857D02*
X137089285Y-136517857D01*
X137196428Y-136446428D01*
X137267857Y-136375000D01*
X137303571Y-136303571D01*
X137089285Y-136982142D02*
X137089285Y-137482142D01*
X137839285Y-137160714D01*
X137089285Y-138767857D02*
X137089285Y-138839285D01*
X137125000Y-138910714D01*
X137160714Y-138946428D01*
X137232142Y-138982142D01*
X137375000Y-139017857D01*
X137553571Y-139017857D01*
X137696428Y-138982142D01*
X137767857Y-138946428D01*
X137803571Y-138910714D01*
X137839285Y-138839285D01*
X137839285Y-138767857D01*
X137803571Y-138696428D01*
X137767857Y-138660714D01*
X137696428Y-138625000D01*
X137553571Y-138589285D01*
X137375000Y-138589285D01*
X137232142Y-138625000D01*
X137160714Y-138660714D01*
X137125000Y-138696428D01*
X137089285Y-138767857D01*
X137767857Y-139339285D02*
X137803571Y-139375000D01*
X137839285Y-139339285D01*
X137803571Y-139303571D01*
X137767857Y-139339285D01*
X137839285Y-139339285D01*
X137839285Y-140089285D02*
X137839285Y-139660714D01*
X137839285Y-139875000D02*
X137089285Y-139875000D01*
X137196428Y-139803571D01*
X137267857Y-139732142D01*
X137303571Y-139660714D01*
X137339285Y-140732142D02*
X137839285Y-140732142D01*
X137339285Y-140410714D02*
X137732142Y-140410714D01*
X137803571Y-140446428D01*
X137839285Y-140517857D01*
X137839285Y-140625000D01*
X137803571Y-140696428D01*
X137767857Y-140732142D01*
X137446428Y-141339285D02*
X137446428Y-141089285D01*
X137839285Y-141089285D02*
X137089285Y-141089285D01*
X137089285Y-141446428D01*
%TO.C,C16*%
X137267857Y-96017857D02*
X137303571Y-95982142D01*
X137339285Y-95875000D01*
X137339285Y-95803571D01*
X137303571Y-95696428D01*
X137232142Y-95625000D01*
X137160714Y-95589285D01*
X137017857Y-95553571D01*
X136910714Y-95553571D01*
X136767857Y-95589285D01*
X136696428Y-95625000D01*
X136625000Y-95696428D01*
X136589285Y-95803571D01*
X136589285Y-95875000D01*
X136625000Y-95982142D01*
X136660714Y-96017857D01*
X137339285Y-96732142D02*
X137339285Y-96303571D01*
X137339285Y-96517857D02*
X136589285Y-96517857D01*
X136696428Y-96446428D01*
X136767857Y-96375000D01*
X136803571Y-96303571D01*
X136589285Y-97375000D02*
X136589285Y-97232142D01*
X136625000Y-97160714D01*
X136660714Y-97125000D01*
X136767857Y-97053571D01*
X136910714Y-97017857D01*
X137196428Y-97017857D01*
X137267857Y-97053571D01*
X137303571Y-97089285D01*
X137339285Y-97160714D01*
X137339285Y-97303571D01*
X137303571Y-97375000D01*
X137267857Y-97410714D01*
X137196428Y-97446428D01*
X137017857Y-97446428D01*
X136946428Y-97410714D01*
X136910714Y-97375000D01*
X136875000Y-97303571D01*
X136875000Y-97160714D01*
X136910714Y-97089285D01*
X136946428Y-97053571D01*
X137017857Y-97017857D01*
X136589285Y-98767857D02*
X136589285Y-98839285D01*
X136625000Y-98910714D01*
X136660714Y-98946428D01*
X136732142Y-98982142D01*
X136875000Y-99017857D01*
X137053571Y-99017857D01*
X137196428Y-98982142D01*
X137267857Y-98946428D01*
X137303571Y-98910714D01*
X137339285Y-98839285D01*
X137339285Y-98767857D01*
X137303571Y-98696428D01*
X137267857Y-98660714D01*
X137196428Y-98625000D01*
X137053571Y-98589285D01*
X136875000Y-98589285D01*
X136732142Y-98625000D01*
X136660714Y-98660714D01*
X136625000Y-98696428D01*
X136589285Y-98767857D01*
X137267857Y-99339285D02*
X137303571Y-99375000D01*
X137339285Y-99339285D01*
X137303571Y-99303571D01*
X137267857Y-99339285D01*
X137339285Y-99339285D01*
X137339285Y-100089285D02*
X137339285Y-99660714D01*
X137339285Y-99875000D02*
X136589285Y-99875000D01*
X136696428Y-99803571D01*
X136767857Y-99732142D01*
X136803571Y-99660714D01*
X136839285Y-100732142D02*
X137339285Y-100732142D01*
X136839285Y-100410714D02*
X137232142Y-100410714D01*
X137303571Y-100446428D01*
X137339285Y-100517857D01*
X137339285Y-100625000D01*
X137303571Y-100696428D01*
X137267857Y-100732142D01*
X136946428Y-101339285D02*
X136946428Y-101089285D01*
X137339285Y-101089285D02*
X136589285Y-101089285D01*
X136589285Y-101446428D01*
%TD*%
M02*
