%TF.GenerationSoftware,KiCad,Pcbnew,5.1.6-c6e7f7d~87~ubuntu20.04.1*%
%TF.CreationDate,2020-10-29T23:15:31-04:00*%
%TF.ProjectId,waveshaper,77617665-7368-4617-9065-722e6b696361,rev?*%
%TF.SameCoordinates,Original*%
%TF.FileFunction,Legend,Top*%
%TF.FilePolarity,Positive*%
%FSLAX46Y46*%
G04 Gerber Fmt 4.6, Leading zero omitted, Abs format (unit mm)*
G04 Created by KiCad (PCBNEW 5.1.6-c6e7f7d~87~ubuntu20.04.1) date 2020-10-29 23:15:31*
%MOMM*%
%LPD*%
G01*
G04 APERTURE LIST*
%ADD10C,0.120000*%
%ADD11C,0.150000*%
G04 APERTURE END LIST*
D10*
%TO.C,RV8*%
X135970000Y-170870000D02*
X135970000Y-161130000D01*
X124380000Y-170870000D02*
X124380000Y-169380000D01*
X132910000Y-170870000D02*
X135970000Y-170870000D01*
X124380000Y-161120000D02*
X129100000Y-161120000D01*
X132910000Y-161130000D02*
X135970000Y-161130000D01*
X124380000Y-170870000D02*
X129100000Y-170870000D01*
X124380000Y-162310000D02*
X124380000Y-161130000D01*
X124380000Y-165210000D02*
X124380000Y-164680000D01*
X124380000Y-167660000D02*
X124380000Y-166830000D01*
%TO.C,RV7*%
X156030000Y-144130000D02*
X156030000Y-153870000D01*
X167620000Y-144130000D02*
X167620000Y-145620000D01*
X159090000Y-144130000D02*
X156030000Y-144130000D01*
X167620000Y-153880000D02*
X162900000Y-153880000D01*
X159090000Y-153870000D02*
X156030000Y-153870000D01*
X167620000Y-144130000D02*
X162900000Y-144130000D01*
X167620000Y-152690000D02*
X167620000Y-153870000D01*
X167620000Y-149790000D02*
X167620000Y-150320000D01*
X167620000Y-147340000D02*
X167620000Y-148170000D01*
%TO.C,RV6*%
X135970000Y-133870000D02*
X135970000Y-124130000D01*
X124380000Y-133870000D02*
X124380000Y-132380000D01*
X132910000Y-133870000D02*
X135970000Y-133870000D01*
X124380000Y-124120000D02*
X129100000Y-124120000D01*
X132910000Y-124130000D02*
X135970000Y-124130000D01*
X124380000Y-133870000D02*
X129100000Y-133870000D01*
X124380000Y-125310000D02*
X124380000Y-124130000D01*
X124380000Y-128210000D02*
X124380000Y-127680000D01*
X124380000Y-130660000D02*
X124380000Y-129830000D01*
%TO.C,RV5*%
X156030000Y-104130000D02*
X156030000Y-113870000D01*
X167620000Y-104130000D02*
X167620000Y-105620000D01*
X159090000Y-104130000D02*
X156030000Y-104130000D01*
X167620000Y-113880000D02*
X162900000Y-113880000D01*
X159090000Y-113870000D02*
X156030000Y-113870000D01*
X167620000Y-104130000D02*
X162900000Y-104130000D01*
X167620000Y-112690000D02*
X167620000Y-113870000D01*
X167620000Y-109790000D02*
X167620000Y-110320000D01*
X167620000Y-107340000D02*
X167620000Y-108170000D01*
%TO.C,RV4*%
X135970000Y-93870000D02*
X135970000Y-84130000D01*
X124380000Y-93870000D02*
X124380000Y-92380000D01*
X132910000Y-93870000D02*
X135970000Y-93870000D01*
X124380000Y-84120000D02*
X129100000Y-84120000D01*
X132910000Y-84130000D02*
X135970000Y-84130000D01*
X124380000Y-93870000D02*
X129100000Y-93870000D01*
X124380000Y-85310000D02*
X124380000Y-84130000D01*
X124380000Y-88210000D02*
X124380000Y-87680000D01*
X124380000Y-90660000D02*
X124380000Y-89830000D01*
%TO.C,RV3*%
X156030000Y-64130000D02*
X156030000Y-73870000D01*
X167620000Y-64130000D02*
X167620000Y-65620000D01*
X159090000Y-64130000D02*
X156030000Y-64130000D01*
X167620000Y-73880000D02*
X162900000Y-73880000D01*
X159090000Y-73870000D02*
X156030000Y-73870000D01*
X167620000Y-64130000D02*
X162900000Y-64130000D01*
X167620000Y-72690000D02*
X167620000Y-73870000D01*
X167620000Y-69790000D02*
X167620000Y-70320000D01*
X167620000Y-67340000D02*
X167620000Y-68170000D01*
%TO.C,RV2*%
X135970000Y-53870000D02*
X135970000Y-44130000D01*
X124380000Y-53870000D02*
X124380000Y-52380000D01*
X132910000Y-53870000D02*
X135970000Y-53870000D01*
X124380000Y-44120000D02*
X129100000Y-44120000D01*
X132910000Y-44130000D02*
X135970000Y-44130000D01*
X124380000Y-53870000D02*
X129100000Y-53870000D01*
X124380000Y-45310000D02*
X124380000Y-44130000D01*
X124380000Y-48210000D02*
X124380000Y-47680000D01*
X124380000Y-50660000D02*
X124380000Y-49830000D01*
%TO.C,RV1*%
X156030000Y-24130000D02*
X156030000Y-33870000D01*
X167620000Y-24130000D02*
X167620000Y-25620000D01*
X159090000Y-24130000D02*
X156030000Y-24130000D01*
X167620000Y-33880000D02*
X162900000Y-33880000D01*
X159090000Y-33870000D02*
X156030000Y-33870000D01*
X167620000Y-24130000D02*
X162900000Y-24130000D01*
X167620000Y-32690000D02*
X167620000Y-33870000D01*
X167620000Y-29790000D02*
X167620000Y-30320000D01*
X167620000Y-27340000D02*
X167620000Y-28170000D01*
%TO.C,SW1*%
X94650000Y-162580000D02*
X94660000Y-162580000D01*
X94650000Y-169430000D02*
X94650000Y-162580000D01*
X107340000Y-169430000D02*
X94650000Y-169430000D01*
X107350000Y-162570000D02*
X107350000Y-169430000D01*
X94650000Y-162570000D02*
X107350000Y-162570000D01*
%TO.C,REF\u002A\u002A*%
D11*
X148666666Y-105502380D02*
X148333333Y-105026190D01*
X148095238Y-105502380D02*
X148095238Y-104502380D01*
X148476190Y-104502380D01*
X148571428Y-104550000D01*
X148619047Y-104597619D01*
X148666666Y-104692857D01*
X148666666Y-104835714D01*
X148619047Y-104930952D01*
X148571428Y-104978571D01*
X148476190Y-105026190D01*
X148095238Y-105026190D01*
X149095238Y-104978571D02*
X149428571Y-104978571D01*
X149571428Y-105502380D02*
X149095238Y-105502380D01*
X149095238Y-104502380D01*
X149571428Y-104502380D01*
X150333333Y-104978571D02*
X150000000Y-104978571D01*
X150000000Y-105502380D02*
X150000000Y-104502380D01*
X150476190Y-104502380D01*
X151000000Y-104502380D02*
X151000000Y-104740476D01*
X150761904Y-104645238D02*
X151000000Y-104740476D01*
X151238095Y-104645238D01*
X150857142Y-104930952D02*
X151000000Y-104740476D01*
X151142857Y-104930952D01*
X151761904Y-104502380D02*
X151761904Y-104740476D01*
X151523809Y-104645238D02*
X151761904Y-104740476D01*
X152000000Y-104645238D01*
X151619047Y-104930952D02*
X151761904Y-104740476D01*
X151904761Y-104930952D01*
%TO.C,RV8*%
X129503571Y-159039285D02*
X129253571Y-158682142D01*
X129075000Y-159039285D02*
X129075000Y-158289285D01*
X129360714Y-158289285D01*
X129432142Y-158325000D01*
X129467857Y-158360714D01*
X129503571Y-158432142D01*
X129503571Y-158539285D01*
X129467857Y-158610714D01*
X129432142Y-158646428D01*
X129360714Y-158682142D01*
X129075000Y-158682142D01*
X129717857Y-158289285D02*
X129967857Y-159039285D01*
X130217857Y-158289285D01*
X130575000Y-158610714D02*
X130503571Y-158575000D01*
X130467857Y-158539285D01*
X130432142Y-158467857D01*
X130432142Y-158432142D01*
X130467857Y-158360714D01*
X130503571Y-158325000D01*
X130575000Y-158289285D01*
X130717857Y-158289285D01*
X130789285Y-158325000D01*
X130825000Y-158360714D01*
X130860714Y-158432142D01*
X130860714Y-158467857D01*
X130825000Y-158539285D01*
X130789285Y-158575000D01*
X130717857Y-158610714D01*
X130575000Y-158610714D01*
X130503571Y-158646428D01*
X130467857Y-158682142D01*
X130432142Y-158753571D01*
X130432142Y-158896428D01*
X130467857Y-158967857D01*
X130503571Y-159003571D01*
X130575000Y-159039285D01*
X130717857Y-159039285D01*
X130789285Y-159003571D01*
X130825000Y-158967857D01*
X130860714Y-158896428D01*
X130860714Y-158753571D01*
X130825000Y-158682142D01*
X130789285Y-158646428D01*
X130717857Y-158610714D01*
X129928571Y-173839285D02*
X129571428Y-173839285D01*
X129571428Y-173089285D01*
X130178571Y-173446428D02*
X130428571Y-173446428D01*
X130535714Y-173839285D02*
X130178571Y-173839285D01*
X130178571Y-173089285D01*
X130535714Y-173089285D01*
X130750000Y-173089285D02*
X131000000Y-173839285D01*
X131250000Y-173089285D01*
X131500000Y-173446428D02*
X131750000Y-173446428D01*
X131857142Y-173839285D02*
X131500000Y-173839285D01*
X131500000Y-173089285D01*
X131857142Y-173089285D01*
X132535714Y-173839285D02*
X132178571Y-173839285D01*
X132178571Y-173089285D01*
%TO.C,RV7*%
X161603571Y-156639285D02*
X161353571Y-156282142D01*
X161175000Y-156639285D02*
X161175000Y-155889285D01*
X161460714Y-155889285D01*
X161532142Y-155925000D01*
X161567857Y-155960714D01*
X161603571Y-156032142D01*
X161603571Y-156139285D01*
X161567857Y-156210714D01*
X161532142Y-156246428D01*
X161460714Y-156282142D01*
X161175000Y-156282142D01*
X161817857Y-155889285D02*
X162067857Y-156639285D01*
X162317857Y-155889285D01*
X162496428Y-155889285D02*
X162996428Y-155889285D01*
X162675000Y-156639285D01*
X159017857Y-141553571D02*
X159589285Y-141553571D01*
X159875000Y-141089285D02*
X160339285Y-141089285D01*
X160089285Y-141375000D01*
X160196428Y-141375000D01*
X160267857Y-141410714D01*
X160303571Y-141446428D01*
X160339285Y-141517857D01*
X160339285Y-141696428D01*
X160303571Y-141767857D01*
X160267857Y-141803571D01*
X160196428Y-141839285D01*
X159982142Y-141839285D01*
X159910714Y-141803571D01*
X159875000Y-141767857D01*
X161375000Y-141089285D02*
X161517857Y-141089285D01*
X161589285Y-141125000D01*
X161660714Y-141196428D01*
X161696428Y-141339285D01*
X161696428Y-141589285D01*
X161660714Y-141732142D01*
X161589285Y-141803571D01*
X161517857Y-141839285D01*
X161375000Y-141839285D01*
X161303571Y-141803571D01*
X161232142Y-141732142D01*
X161196428Y-141589285D01*
X161196428Y-141339285D01*
X161232142Y-141196428D01*
X161303571Y-141125000D01*
X161375000Y-141089285D01*
X162446428Y-141767857D02*
X162410714Y-141803571D01*
X162303571Y-141839285D01*
X162232142Y-141839285D01*
X162125000Y-141803571D01*
X162053571Y-141732142D01*
X162017857Y-141660714D01*
X161982142Y-141517857D01*
X161982142Y-141410714D01*
X162017857Y-141267857D01*
X162053571Y-141196428D01*
X162125000Y-141125000D01*
X162232142Y-141089285D01*
X162303571Y-141089285D01*
X162410714Y-141125000D01*
X162446428Y-141160714D01*
X162660714Y-141089285D02*
X163089285Y-141089285D01*
X162875000Y-141839285D02*
X162875000Y-141089285D01*
%TO.C,RV6*%
X129503571Y-122039285D02*
X129253571Y-121682142D01*
X129075000Y-122039285D02*
X129075000Y-121289285D01*
X129360714Y-121289285D01*
X129432142Y-121325000D01*
X129467857Y-121360714D01*
X129503571Y-121432142D01*
X129503571Y-121539285D01*
X129467857Y-121610714D01*
X129432142Y-121646428D01*
X129360714Y-121682142D01*
X129075000Y-121682142D01*
X129717857Y-121289285D02*
X129967857Y-122039285D01*
X130217857Y-121289285D01*
X130789285Y-121289285D02*
X130646428Y-121289285D01*
X130575000Y-121325000D01*
X130539285Y-121360714D01*
X130467857Y-121467857D01*
X130432142Y-121610714D01*
X130432142Y-121896428D01*
X130467857Y-121967857D01*
X130503571Y-122003571D01*
X130575000Y-122039285D01*
X130717857Y-122039285D01*
X130789285Y-122003571D01*
X130825000Y-121967857D01*
X130860714Y-121896428D01*
X130860714Y-121717857D01*
X130825000Y-121646428D01*
X130789285Y-121610714D01*
X130717857Y-121575000D01*
X130575000Y-121575000D01*
X130503571Y-121610714D01*
X130467857Y-121646428D01*
X130432142Y-121717857D01*
X129017857Y-136553571D02*
X129589285Y-136553571D01*
X129910714Y-136160714D02*
X129946428Y-136125000D01*
X130017857Y-136089285D01*
X130196428Y-136089285D01*
X130267857Y-136125000D01*
X130303571Y-136160714D01*
X130339285Y-136232142D01*
X130339285Y-136303571D01*
X130303571Y-136410714D01*
X129875000Y-136839285D01*
X130339285Y-136839285D01*
X131375000Y-136089285D02*
X131517857Y-136089285D01*
X131589285Y-136125000D01*
X131660714Y-136196428D01*
X131696428Y-136339285D01*
X131696428Y-136589285D01*
X131660714Y-136732142D01*
X131589285Y-136803571D01*
X131517857Y-136839285D01*
X131375000Y-136839285D01*
X131303571Y-136803571D01*
X131232142Y-136732142D01*
X131196428Y-136589285D01*
X131196428Y-136339285D01*
X131232142Y-136196428D01*
X131303571Y-136125000D01*
X131375000Y-136089285D01*
X132446428Y-136767857D02*
X132410714Y-136803571D01*
X132303571Y-136839285D01*
X132232142Y-136839285D01*
X132125000Y-136803571D01*
X132053571Y-136732142D01*
X132017857Y-136660714D01*
X131982142Y-136517857D01*
X131982142Y-136410714D01*
X132017857Y-136267857D01*
X132053571Y-136196428D01*
X132125000Y-136125000D01*
X132232142Y-136089285D01*
X132303571Y-136089285D01*
X132410714Y-136125000D01*
X132446428Y-136160714D01*
X132660714Y-136089285D02*
X133089285Y-136089285D01*
X132875000Y-136839285D02*
X132875000Y-136089285D01*
%TO.C,RV5*%
X161603571Y-116639285D02*
X161353571Y-116282142D01*
X161175000Y-116639285D02*
X161175000Y-115889285D01*
X161460714Y-115889285D01*
X161532142Y-115925000D01*
X161567857Y-115960714D01*
X161603571Y-116032142D01*
X161603571Y-116139285D01*
X161567857Y-116210714D01*
X161532142Y-116246428D01*
X161460714Y-116282142D01*
X161175000Y-116282142D01*
X161817857Y-115889285D02*
X162067857Y-116639285D01*
X162317857Y-115889285D01*
X162925000Y-115889285D02*
X162567857Y-115889285D01*
X162532142Y-116246428D01*
X162567857Y-116210714D01*
X162639285Y-116175000D01*
X162817857Y-116175000D01*
X162889285Y-116210714D01*
X162925000Y-116246428D01*
X162960714Y-116317857D01*
X162960714Y-116496428D01*
X162925000Y-116567857D01*
X162889285Y-116603571D01*
X162817857Y-116639285D01*
X162639285Y-116639285D01*
X162567857Y-116603571D01*
X162532142Y-116567857D01*
X159017857Y-101553571D02*
X159589285Y-101553571D01*
X160339285Y-101839285D02*
X159910714Y-101839285D01*
X160125000Y-101839285D02*
X160125000Y-101089285D01*
X160053571Y-101196428D01*
X159982142Y-101267857D01*
X159910714Y-101303571D01*
X161375000Y-101089285D02*
X161517857Y-101089285D01*
X161589285Y-101125000D01*
X161660714Y-101196428D01*
X161696428Y-101339285D01*
X161696428Y-101589285D01*
X161660714Y-101732142D01*
X161589285Y-101803571D01*
X161517857Y-101839285D01*
X161375000Y-101839285D01*
X161303571Y-101803571D01*
X161232142Y-101732142D01*
X161196428Y-101589285D01*
X161196428Y-101339285D01*
X161232142Y-101196428D01*
X161303571Y-101125000D01*
X161375000Y-101089285D01*
X162446428Y-101767857D02*
X162410714Y-101803571D01*
X162303571Y-101839285D01*
X162232142Y-101839285D01*
X162125000Y-101803571D01*
X162053571Y-101732142D01*
X162017857Y-101660714D01*
X161982142Y-101517857D01*
X161982142Y-101410714D01*
X162017857Y-101267857D01*
X162053571Y-101196428D01*
X162125000Y-101125000D01*
X162232142Y-101089285D01*
X162303571Y-101089285D01*
X162410714Y-101125000D01*
X162446428Y-101160714D01*
X162660714Y-101089285D02*
X163089285Y-101089285D01*
X162875000Y-101839285D02*
X162875000Y-101089285D01*
%TO.C,RV4*%
X129503571Y-82039285D02*
X129253571Y-81682142D01*
X129075000Y-82039285D02*
X129075000Y-81289285D01*
X129360714Y-81289285D01*
X129432142Y-81325000D01*
X129467857Y-81360714D01*
X129503571Y-81432142D01*
X129503571Y-81539285D01*
X129467857Y-81610714D01*
X129432142Y-81646428D01*
X129360714Y-81682142D01*
X129075000Y-81682142D01*
X129717857Y-81289285D02*
X129967857Y-82039285D01*
X130217857Y-81289285D01*
X130789285Y-81539285D02*
X130789285Y-82039285D01*
X130610714Y-81253571D02*
X130432142Y-81789285D01*
X130896428Y-81789285D01*
X129625000Y-96089285D02*
X129696428Y-96089285D01*
X129767857Y-96125000D01*
X129803571Y-96160714D01*
X129839285Y-96232142D01*
X129875000Y-96375000D01*
X129875000Y-96553571D01*
X129839285Y-96696428D01*
X129803571Y-96767857D01*
X129767857Y-96803571D01*
X129696428Y-96839285D01*
X129625000Y-96839285D01*
X129553571Y-96803571D01*
X129517857Y-96767857D01*
X129482142Y-96696428D01*
X129446428Y-96553571D01*
X129446428Y-96375000D01*
X129482142Y-96232142D01*
X129517857Y-96160714D01*
X129553571Y-96125000D01*
X129625000Y-96089285D01*
X130910714Y-96089285D02*
X131053571Y-96089285D01*
X131125000Y-96125000D01*
X131196428Y-96196428D01*
X131232142Y-96339285D01*
X131232142Y-96589285D01*
X131196428Y-96732142D01*
X131125000Y-96803571D01*
X131053571Y-96839285D01*
X130910714Y-96839285D01*
X130839285Y-96803571D01*
X130767857Y-96732142D01*
X130732142Y-96589285D01*
X130732142Y-96339285D01*
X130767857Y-96196428D01*
X130839285Y-96125000D01*
X130910714Y-96089285D01*
X131982142Y-96767857D02*
X131946428Y-96803571D01*
X131839285Y-96839285D01*
X131767857Y-96839285D01*
X131660714Y-96803571D01*
X131589285Y-96732142D01*
X131553571Y-96660714D01*
X131517857Y-96517857D01*
X131517857Y-96410714D01*
X131553571Y-96267857D01*
X131589285Y-96196428D01*
X131660714Y-96125000D01*
X131767857Y-96089285D01*
X131839285Y-96089285D01*
X131946428Y-96125000D01*
X131982142Y-96160714D01*
X132196428Y-96089285D02*
X132625000Y-96089285D01*
X132410714Y-96839285D02*
X132410714Y-96089285D01*
%TO.C,RV3*%
X161603571Y-76639285D02*
X161353571Y-76282142D01*
X161175000Y-76639285D02*
X161175000Y-75889285D01*
X161460714Y-75889285D01*
X161532142Y-75925000D01*
X161567857Y-75960714D01*
X161603571Y-76032142D01*
X161603571Y-76139285D01*
X161567857Y-76210714D01*
X161532142Y-76246428D01*
X161460714Y-76282142D01*
X161175000Y-76282142D01*
X161817857Y-75889285D02*
X162067857Y-76639285D01*
X162317857Y-75889285D01*
X162496428Y-75889285D02*
X162960714Y-75889285D01*
X162710714Y-76175000D01*
X162817857Y-76175000D01*
X162889285Y-76210714D01*
X162925000Y-76246428D01*
X162960714Y-76317857D01*
X162960714Y-76496428D01*
X162925000Y-76567857D01*
X162889285Y-76603571D01*
X162817857Y-76639285D01*
X162603571Y-76639285D01*
X162532142Y-76603571D01*
X162496428Y-76567857D01*
X159017857Y-61553571D02*
X159589285Y-61553571D01*
X159303571Y-61839285D02*
X159303571Y-61267857D01*
X160339285Y-61839285D02*
X159910714Y-61839285D01*
X160125000Y-61839285D02*
X160125000Y-61089285D01*
X160053571Y-61196428D01*
X159982142Y-61267857D01*
X159910714Y-61303571D01*
X161375000Y-61089285D02*
X161517857Y-61089285D01*
X161589285Y-61125000D01*
X161660714Y-61196428D01*
X161696428Y-61339285D01*
X161696428Y-61589285D01*
X161660714Y-61732142D01*
X161589285Y-61803571D01*
X161517857Y-61839285D01*
X161375000Y-61839285D01*
X161303571Y-61803571D01*
X161232142Y-61732142D01*
X161196428Y-61589285D01*
X161196428Y-61339285D01*
X161232142Y-61196428D01*
X161303571Y-61125000D01*
X161375000Y-61089285D01*
X162446428Y-61767857D02*
X162410714Y-61803571D01*
X162303571Y-61839285D01*
X162232142Y-61839285D01*
X162125000Y-61803571D01*
X162053571Y-61732142D01*
X162017857Y-61660714D01*
X161982142Y-61517857D01*
X161982142Y-61410714D01*
X162017857Y-61267857D01*
X162053571Y-61196428D01*
X162125000Y-61125000D01*
X162232142Y-61089285D01*
X162303571Y-61089285D01*
X162410714Y-61125000D01*
X162446428Y-61160714D01*
X162660714Y-61089285D02*
X163089285Y-61089285D01*
X162875000Y-61839285D02*
X162875000Y-61089285D01*
%TO.C,RV2*%
X129503571Y-42039285D02*
X129253571Y-41682142D01*
X129075000Y-42039285D02*
X129075000Y-41289285D01*
X129360714Y-41289285D01*
X129432142Y-41325000D01*
X129467857Y-41360714D01*
X129503571Y-41432142D01*
X129503571Y-41539285D01*
X129467857Y-41610714D01*
X129432142Y-41646428D01*
X129360714Y-41682142D01*
X129075000Y-41682142D01*
X129717857Y-41289285D02*
X129967857Y-42039285D01*
X130217857Y-41289285D01*
X130432142Y-41360714D02*
X130467857Y-41325000D01*
X130539285Y-41289285D01*
X130717857Y-41289285D01*
X130789285Y-41325000D01*
X130825000Y-41360714D01*
X130860714Y-41432142D01*
X130860714Y-41503571D01*
X130825000Y-41610714D01*
X130396428Y-42039285D01*
X130860714Y-42039285D01*
X129017857Y-56553571D02*
X129589285Y-56553571D01*
X129303571Y-56839285D02*
X129303571Y-56267857D01*
X129910714Y-56160714D02*
X129946428Y-56125000D01*
X130017857Y-56089285D01*
X130196428Y-56089285D01*
X130267857Y-56125000D01*
X130303571Y-56160714D01*
X130339285Y-56232142D01*
X130339285Y-56303571D01*
X130303571Y-56410714D01*
X129875000Y-56839285D01*
X130339285Y-56839285D01*
X131375000Y-56089285D02*
X131517857Y-56089285D01*
X131589285Y-56125000D01*
X131660714Y-56196428D01*
X131696428Y-56339285D01*
X131696428Y-56589285D01*
X131660714Y-56732142D01*
X131589285Y-56803571D01*
X131517857Y-56839285D01*
X131375000Y-56839285D01*
X131303571Y-56803571D01*
X131232142Y-56732142D01*
X131196428Y-56589285D01*
X131196428Y-56339285D01*
X131232142Y-56196428D01*
X131303571Y-56125000D01*
X131375000Y-56089285D01*
X132446428Y-56767857D02*
X132410714Y-56803571D01*
X132303571Y-56839285D01*
X132232142Y-56839285D01*
X132125000Y-56803571D01*
X132053571Y-56732142D01*
X132017857Y-56660714D01*
X131982142Y-56517857D01*
X131982142Y-56410714D01*
X132017857Y-56267857D01*
X132053571Y-56196428D01*
X132125000Y-56125000D01*
X132232142Y-56089285D01*
X132303571Y-56089285D01*
X132410714Y-56125000D01*
X132446428Y-56160714D01*
X132660714Y-56089285D02*
X133089285Y-56089285D01*
X132875000Y-56839285D02*
X132875000Y-56089285D01*
%TO.C,RV1*%
X161603571Y-36639285D02*
X161353571Y-36282142D01*
X161175000Y-36639285D02*
X161175000Y-35889285D01*
X161460714Y-35889285D01*
X161532142Y-35925000D01*
X161567857Y-35960714D01*
X161603571Y-36032142D01*
X161603571Y-36139285D01*
X161567857Y-36210714D01*
X161532142Y-36246428D01*
X161460714Y-36282142D01*
X161175000Y-36282142D01*
X161817857Y-35889285D02*
X162067857Y-36639285D01*
X162317857Y-35889285D01*
X162960714Y-36639285D02*
X162532142Y-36639285D01*
X162746428Y-36639285D02*
X162746428Y-35889285D01*
X162675000Y-35996428D01*
X162603571Y-36067857D01*
X162532142Y-36103571D01*
X159017857Y-21553571D02*
X159589285Y-21553571D01*
X159303571Y-21839285D02*
X159303571Y-21267857D01*
X159875000Y-21089285D02*
X160339285Y-21089285D01*
X160089285Y-21375000D01*
X160196428Y-21375000D01*
X160267857Y-21410714D01*
X160303571Y-21446428D01*
X160339285Y-21517857D01*
X160339285Y-21696428D01*
X160303571Y-21767857D01*
X160267857Y-21803571D01*
X160196428Y-21839285D01*
X159982142Y-21839285D01*
X159910714Y-21803571D01*
X159875000Y-21767857D01*
X161375000Y-21089285D02*
X161517857Y-21089285D01*
X161589285Y-21125000D01*
X161660714Y-21196428D01*
X161696428Y-21339285D01*
X161696428Y-21589285D01*
X161660714Y-21732142D01*
X161589285Y-21803571D01*
X161517857Y-21839285D01*
X161375000Y-21839285D01*
X161303571Y-21803571D01*
X161232142Y-21732142D01*
X161196428Y-21589285D01*
X161196428Y-21339285D01*
X161232142Y-21196428D01*
X161303571Y-21125000D01*
X161375000Y-21089285D01*
X162446428Y-21767857D02*
X162410714Y-21803571D01*
X162303571Y-21839285D01*
X162232142Y-21839285D01*
X162125000Y-21803571D01*
X162053571Y-21732142D01*
X162017857Y-21660714D01*
X161982142Y-21517857D01*
X161982142Y-21410714D01*
X162017857Y-21267857D01*
X162053571Y-21196428D01*
X162125000Y-21125000D01*
X162232142Y-21089285D01*
X162303571Y-21089285D01*
X162410714Y-21125000D01*
X162446428Y-21160714D01*
X162660714Y-21089285D02*
X163089285Y-21089285D01*
X162875000Y-21839285D02*
X162875000Y-21089285D01*
%TO.C,SW1*%
X93404761Y-167333333D02*
X93452380Y-167190476D01*
X93452380Y-166952380D01*
X93404761Y-166857142D01*
X93357142Y-166809523D01*
X93261904Y-166761904D01*
X93166666Y-166761904D01*
X93071428Y-166809523D01*
X93023809Y-166857142D01*
X92976190Y-166952380D01*
X92928571Y-167142857D01*
X92880952Y-167238095D01*
X92833333Y-167285714D01*
X92738095Y-167333333D01*
X92642857Y-167333333D01*
X92547619Y-167285714D01*
X92500000Y-167238095D01*
X92452380Y-167142857D01*
X92452380Y-166904761D01*
X92500000Y-166761904D01*
X92452380Y-166428571D02*
X93452380Y-166190476D01*
X92738095Y-166000000D01*
X93452380Y-165809523D01*
X92452380Y-165571428D01*
X93452380Y-164666666D02*
X93452380Y-165238095D01*
X93452380Y-164952380D02*
X92452380Y-164952380D01*
X92595238Y-165047619D01*
X92690476Y-165142857D01*
X92738095Y-165238095D01*
%TD*%
M02*
