%TF.GenerationSoftware,KiCad,Pcbnew,5.1.6-c6e7f7d~87~ubuntu20.04.1*%
%TF.CreationDate,2020-10-30T00:46:53-04:00*%
%TF.ProjectId,waveshaper-panel,77617665-7368-4617-9065-722d70616e65,rev?*%
%TF.SameCoordinates,Original*%
%TF.FileFunction,Legend,Bot*%
%TF.FilePolarity,Positive*%
%FSLAX46Y46*%
G04 Gerber Fmt 4.6, Leading zero omitted, Abs format (unit mm)*
G04 Created by KiCad (PCBNEW 5.1.6-c6e7f7d~87~ubuntu20.04.1) date 2020-10-30 00:46:53*
%MOMM*%
%LPD*%
G01*
G04 APERTURE LIST*
%ADD10C,0.150000*%
G04 APERTURE END LIST*
D10*
X104619047Y-176152380D02*
X104619047Y-176866666D01*
X104666666Y-177009523D01*
X104761904Y-177104761D01*
X104904761Y-177152380D01*
X105000000Y-177152380D01*
X103666666Y-177152380D02*
X104142857Y-177152380D01*
X104142857Y-176152380D01*
X102761904Y-177057142D02*
X102809523Y-177104761D01*
X102952380Y-177152380D01*
X103047619Y-177152380D01*
X103190476Y-177104761D01*
X103285714Y-177009523D01*
X103333333Y-176914285D01*
X103380952Y-176723809D01*
X103380952Y-176580952D01*
X103333333Y-176390476D01*
X103285714Y-176295238D01*
X103190476Y-176200000D01*
X103047619Y-176152380D01*
X102952380Y-176152380D01*
X102809523Y-176200000D01*
X102761904Y-176247619D01*
X102047619Y-176152380D02*
X102047619Y-176866666D01*
X102095238Y-177009523D01*
X102190476Y-177104761D01*
X102333333Y-177152380D01*
X102428571Y-177152380D01*
X101095238Y-177152380D02*
X101571428Y-177152380D01*
X101571428Y-176152380D01*
X100190476Y-177057142D02*
X100238095Y-177104761D01*
X100380952Y-177152380D01*
X100476190Y-177152380D01*
X100619047Y-177104761D01*
X100714285Y-177009523D01*
X100761904Y-176914285D01*
X100809523Y-176723809D01*
X100809523Y-176580952D01*
X100761904Y-176390476D01*
X100714285Y-176295238D01*
X100619047Y-176200000D01*
X100476190Y-176152380D01*
X100380952Y-176152380D01*
X100238095Y-176200000D01*
X100190476Y-176247619D01*
X99476190Y-176152380D02*
X99476190Y-176866666D01*
X99523809Y-177009523D01*
X99619047Y-177104761D01*
X99761904Y-177152380D01*
X99857142Y-177152380D01*
X98523809Y-177152380D02*
X99000000Y-177152380D01*
X99000000Y-176152380D01*
X97619047Y-177057142D02*
X97666666Y-177104761D01*
X97809523Y-177152380D01*
X97904761Y-177152380D01*
X98047619Y-177104761D01*
X98142857Y-177009523D01*
X98190476Y-176914285D01*
X98238095Y-176723809D01*
X98238095Y-176580952D01*
X98190476Y-176390476D01*
X98142857Y-176295238D01*
X98047619Y-176200000D01*
X97904761Y-176152380D01*
X97809523Y-176152380D01*
X97666666Y-176200000D01*
X97619047Y-176247619D01*
X96904761Y-176152380D02*
X96904761Y-176866666D01*
X96952380Y-177009523D01*
X97047619Y-177104761D01*
X97190476Y-177152380D01*
X97285714Y-177152380D01*
X95952380Y-177152380D02*
X96428571Y-177152380D01*
X96428571Y-176152380D01*
X95047619Y-177057142D02*
X95095238Y-177104761D01*
X95238095Y-177152380D01*
X95333333Y-177152380D01*
X95476190Y-177104761D01*
X95571428Y-177009523D01*
X95619047Y-176914285D01*
X95666666Y-176723809D01*
X95666666Y-176580952D01*
X95619047Y-176390476D01*
X95571428Y-176295238D01*
X95476190Y-176200000D01*
X95333333Y-176152380D01*
X95238095Y-176152380D01*
X95095238Y-176200000D01*
X95047619Y-176247619D01*
X105880952Y-180452380D02*
X105880952Y-179452380D01*
X105500000Y-179452380D01*
X105404761Y-179500000D01*
X105357142Y-179547619D01*
X105309523Y-179642857D01*
X105309523Y-179785714D01*
X105357142Y-179880952D01*
X105404761Y-179928571D01*
X105500000Y-179976190D01*
X105880952Y-179976190D01*
X104452380Y-180452380D02*
X104452380Y-179928571D01*
X104500000Y-179833333D01*
X104595238Y-179785714D01*
X104785714Y-179785714D01*
X104880952Y-179833333D01*
X104452380Y-180404761D02*
X104547619Y-180452380D01*
X104785714Y-180452380D01*
X104880952Y-180404761D01*
X104928571Y-180309523D01*
X104928571Y-180214285D01*
X104880952Y-180119047D01*
X104785714Y-180071428D01*
X104547619Y-180071428D01*
X104452380Y-180023809D01*
X103976190Y-179785714D02*
X103976190Y-180452380D01*
X103976190Y-179880952D02*
X103928571Y-179833333D01*
X103833333Y-179785714D01*
X103690476Y-179785714D01*
X103595238Y-179833333D01*
X103547619Y-179928571D01*
X103547619Y-180452380D01*
X102690476Y-180404761D02*
X102785714Y-180452380D01*
X102976190Y-180452380D01*
X103071428Y-180404761D01*
X103119047Y-180309523D01*
X103119047Y-179928571D01*
X103071428Y-179833333D01*
X102976190Y-179785714D01*
X102785714Y-179785714D01*
X102690476Y-179833333D01*
X102642857Y-179928571D01*
X102642857Y-180023809D01*
X103119047Y-180119047D01*
X102071428Y-180452380D02*
X102166666Y-180404761D01*
X102214285Y-180309523D01*
X102214285Y-179452380D01*
X100500000Y-180452380D02*
X100500000Y-179452380D01*
X100500000Y-180404761D02*
X100595238Y-180452380D01*
X100785714Y-180452380D01*
X100880952Y-180404761D01*
X100928571Y-180357142D01*
X100976190Y-180261904D01*
X100976190Y-179976190D01*
X100928571Y-179880952D01*
X100880952Y-179833333D01*
X100785714Y-179785714D01*
X100595238Y-179785714D01*
X100500000Y-179833333D01*
X99642857Y-180404761D02*
X99738095Y-180452380D01*
X99928571Y-180452380D01*
X100023809Y-180404761D01*
X100071428Y-180309523D01*
X100071428Y-179928571D01*
X100023809Y-179833333D01*
X99928571Y-179785714D01*
X99738095Y-179785714D01*
X99642857Y-179833333D01*
X99595238Y-179928571D01*
X99595238Y-180023809D01*
X100071428Y-180119047D01*
X99214285Y-180404761D02*
X99119047Y-180452380D01*
X98928571Y-180452380D01*
X98833333Y-180404761D01*
X98785714Y-180309523D01*
X98785714Y-180261904D01*
X98833333Y-180166666D01*
X98928571Y-180119047D01*
X99071428Y-180119047D01*
X99166666Y-180071428D01*
X99214285Y-179976190D01*
X99214285Y-179928571D01*
X99166666Y-179833333D01*
X99071428Y-179785714D01*
X98928571Y-179785714D01*
X98833333Y-179833333D01*
X98357142Y-180452380D02*
X98357142Y-179785714D01*
X98357142Y-179452380D02*
X98404761Y-179500000D01*
X98357142Y-179547619D01*
X98309523Y-179500000D01*
X98357142Y-179452380D01*
X98357142Y-179547619D01*
X97452380Y-179785714D02*
X97452380Y-180595238D01*
X97500000Y-180690476D01*
X97547619Y-180738095D01*
X97642857Y-180785714D01*
X97785714Y-180785714D01*
X97880952Y-180738095D01*
X97452380Y-180404761D02*
X97547619Y-180452380D01*
X97738095Y-180452380D01*
X97833333Y-180404761D01*
X97880952Y-180357142D01*
X97928571Y-180261904D01*
X97928571Y-179976190D01*
X97880952Y-179880952D01*
X97833333Y-179833333D01*
X97738095Y-179785714D01*
X97547619Y-179785714D01*
X97452380Y-179833333D01*
X96976190Y-179785714D02*
X96976190Y-180452380D01*
X96976190Y-179880952D02*
X96928571Y-179833333D01*
X96833333Y-179785714D01*
X96690476Y-179785714D01*
X96595238Y-179833333D01*
X96547619Y-179928571D01*
X96547619Y-180452380D01*
X95309523Y-180452380D02*
X95309523Y-179452380D01*
X95309523Y-179833333D02*
X95214285Y-179785714D01*
X95023809Y-179785714D01*
X94928571Y-179833333D01*
X94880952Y-179880952D01*
X94833333Y-179976190D01*
X94833333Y-180261904D01*
X94880952Y-180357142D01*
X94928571Y-180404761D01*
X95023809Y-180452380D01*
X95214285Y-180452380D01*
X95309523Y-180404761D01*
X94500000Y-179785714D02*
X94261904Y-180452380D01*
X94023809Y-179785714D02*
X94261904Y-180452380D01*
X94357142Y-180690476D01*
X94404761Y-180738095D01*
X94500000Y-180785714D01*
X103928571Y-182102380D02*
X104261904Y-181626190D01*
X104500000Y-182102380D02*
X104500000Y-181102380D01*
X104119047Y-181102380D01*
X104023809Y-181150000D01*
X103976190Y-181197619D01*
X103928571Y-181292857D01*
X103928571Y-181435714D01*
X103976190Y-181530952D01*
X104023809Y-181578571D01*
X104119047Y-181626190D01*
X104500000Y-181626190D01*
X103500000Y-182102380D02*
X103500000Y-181435714D01*
X103500000Y-181102380D02*
X103547619Y-181150000D01*
X103500000Y-181197619D01*
X103452380Y-181150000D01*
X103500000Y-181102380D01*
X103500000Y-181197619D01*
X102595238Y-182054761D02*
X102690476Y-182102380D01*
X102880952Y-182102380D01*
X102976190Y-182054761D01*
X103023809Y-182007142D01*
X103071428Y-181911904D01*
X103071428Y-181626190D01*
X103023809Y-181530952D01*
X102976190Y-181483333D01*
X102880952Y-181435714D01*
X102690476Y-181435714D01*
X102595238Y-181483333D01*
X102166666Y-182102380D02*
X102166666Y-181102380D01*
X101738095Y-182102380D02*
X101738095Y-181578571D01*
X101785714Y-181483333D01*
X101880952Y-181435714D01*
X102023809Y-181435714D01*
X102119047Y-181483333D01*
X102166666Y-181530952D01*
X100500000Y-182102380D02*
X100500000Y-181102380D01*
X100500000Y-181578571D02*
X99928571Y-181578571D01*
X99928571Y-182102380D02*
X99928571Y-181102380D01*
X99309523Y-182102380D02*
X99404761Y-182054761D01*
X99452380Y-182007142D01*
X99500000Y-181911904D01*
X99500000Y-181626190D01*
X99452380Y-181530952D01*
X99404761Y-181483333D01*
X99309523Y-181435714D01*
X99166666Y-181435714D01*
X99071428Y-181483333D01*
X99023809Y-181530952D01*
X98976190Y-181626190D01*
X98976190Y-181911904D01*
X99023809Y-182007142D01*
X99071428Y-182054761D01*
X99166666Y-182102380D01*
X99309523Y-182102380D01*
X98404761Y-182102380D02*
X98500000Y-182054761D01*
X98547619Y-181959523D01*
X98547619Y-181102380D01*
X98023809Y-182102380D02*
X98023809Y-181435714D01*
X98023809Y-181530952D02*
X97976190Y-181483333D01*
X97880952Y-181435714D01*
X97738095Y-181435714D01*
X97642857Y-181483333D01*
X97595238Y-181578571D01*
X97595238Y-182102380D01*
X97595238Y-181578571D02*
X97547619Y-181483333D01*
X97452380Y-181435714D01*
X97309523Y-181435714D01*
X97214285Y-181483333D01*
X97166666Y-181578571D01*
X97166666Y-182102380D01*
X96309523Y-182054761D02*
X96404761Y-182102380D01*
X96595238Y-182102380D01*
X96690476Y-182054761D01*
X96738095Y-181959523D01*
X96738095Y-181578571D01*
X96690476Y-181483333D01*
X96595238Y-181435714D01*
X96404761Y-181435714D01*
X96309523Y-181483333D01*
X96261904Y-181578571D01*
X96261904Y-181673809D01*
X96738095Y-181769047D01*
X95880952Y-182054761D02*
X95785714Y-182102380D01*
X95595238Y-182102380D01*
X95500000Y-182054761D01*
X95452380Y-181959523D01*
X95452380Y-181911904D01*
X95500000Y-181816666D01*
X95595238Y-181769047D01*
X95738095Y-181769047D01*
X95833333Y-181721428D01*
X95880952Y-181626190D01*
X95880952Y-181578571D01*
X95833333Y-181483333D01*
X95738095Y-181435714D01*
X95595238Y-181435714D01*
X95500000Y-181483333D01*
X103095238Y-182752380D02*
X102904761Y-182752380D01*
X102809523Y-182800000D01*
X102714285Y-182895238D01*
X102666666Y-183085714D01*
X102666666Y-183419047D01*
X102714285Y-183609523D01*
X102809523Y-183704761D01*
X102904761Y-183752380D01*
X103095238Y-183752380D01*
X103190476Y-183704761D01*
X103285714Y-183609523D01*
X103333333Y-183419047D01*
X103333333Y-183085714D01*
X103285714Y-182895238D01*
X103190476Y-182800000D01*
X103095238Y-182752380D01*
X101809523Y-183704761D02*
X101904761Y-183752380D01*
X102095238Y-183752380D01*
X102190476Y-183704761D01*
X102238095Y-183657142D01*
X102285714Y-183561904D01*
X102285714Y-183276190D01*
X102238095Y-183180952D01*
X102190476Y-183133333D01*
X102095238Y-183085714D01*
X101904761Y-183085714D01*
X101809523Y-183133333D01*
X101523809Y-183085714D02*
X101142857Y-183085714D01*
X101380952Y-182752380D02*
X101380952Y-183609523D01*
X101333333Y-183704761D01*
X101238095Y-183752380D01*
X101142857Y-183752380D01*
X100095238Y-182847619D02*
X100047619Y-182800000D01*
X99952380Y-182752380D01*
X99714285Y-182752380D01*
X99619047Y-182800000D01*
X99571428Y-182847619D01*
X99523809Y-182942857D01*
X99523809Y-183038095D01*
X99571428Y-183180952D01*
X100142857Y-183752380D01*
X99523809Y-183752380D01*
X98904761Y-182752380D02*
X98809523Y-182752380D01*
X98714285Y-182800000D01*
X98666666Y-182847619D01*
X98619047Y-182942857D01*
X98571428Y-183133333D01*
X98571428Y-183371428D01*
X98619047Y-183561904D01*
X98666666Y-183657142D01*
X98714285Y-183704761D01*
X98809523Y-183752380D01*
X98904761Y-183752380D01*
X99000000Y-183704761D01*
X99047619Y-183657142D01*
X99095238Y-183561904D01*
X99142857Y-183371428D01*
X99142857Y-183133333D01*
X99095238Y-182942857D01*
X99047619Y-182847619D01*
X99000000Y-182800000D01*
X98904761Y-182752380D01*
X98190476Y-182847619D02*
X98142857Y-182800000D01*
X98047619Y-182752380D01*
X97809523Y-182752380D01*
X97714285Y-182800000D01*
X97666666Y-182847619D01*
X97619047Y-182942857D01*
X97619047Y-183038095D01*
X97666666Y-183180952D01*
X98238095Y-183752380D01*
X97619047Y-183752380D01*
X97000000Y-182752380D02*
X96904761Y-182752380D01*
X96809523Y-182800000D01*
X96761904Y-182847619D01*
X96714285Y-182942857D01*
X96666666Y-183133333D01*
X96666666Y-183371428D01*
X96714285Y-183561904D01*
X96761904Y-183657142D01*
X96809523Y-183704761D01*
X96904761Y-183752380D01*
X97000000Y-183752380D01*
X97095238Y-183704761D01*
X97142857Y-183657142D01*
X97190476Y-183561904D01*
X97238095Y-183371428D01*
X97238095Y-183133333D01*
X97190476Y-182942857D01*
X97142857Y-182847619D01*
X97095238Y-182800000D01*
X97000000Y-182752380D01*
M02*
