M48
; DRILL file {KiCad 5.1.6-c6e7f7d~87~ubuntu20.04.1} date Fri Oct 30 00:46:55 2020
; FORMAT={-:-/ absolute / inch / decimal}
; #@! TF.CreationDate,2020-10-30T00:46:55-04:00
; #@! TF.GenerationSoftware,Kicad,Pcbnew,5.1.6-c6e7f7d~87~ubuntu20.04.1
; #@! TF.FileFunction,Plated,1,2,PTH
FMAT,2
INCH
T1C0.1260
T2C0.2756
T3C0.3937
%
G90
G05
T2
X5.1181Y-5.6299
X5.1181Y-2.4803
X3.937Y-4.8425
X3.937Y-6.2992
X5.1181Y-4.0551
X3.937Y-3.2677
X2.7559Y-6.2992
X5.1181Y-0.9055
X3.937Y-1.6929
T3
X2.7559Y-1.6929
X2.7559Y-2.4803
X5.1181Y-6.8898
X2.7559Y-5.6299
X2.7559Y-4.8425
X2.7559Y-6.8898
X2.7559Y-4.0551
X2.7559Y-3.2677
X2.7559Y-0.9055
T1
G00X5.7874Y-0.1181
M15
G01X5.6772Y-0.1181
M16
G05
G00X2.0866Y-7.7559
M15
G01X2.1969Y-7.7559
M16
G05
G00X5.7874Y-7.7559
M15
G01X5.6772Y-7.7559
M16
G05
G00X2.0866Y-0.1181
M15
G01X2.1969Y-0.1181
M16
G05
T0
M30
