%TF.GenerationSoftware,KiCad,Pcbnew,5.1.10-88a1d61d58~90~ubuntu20.04.1*%
%TF.CreationDate,2021-09-18T21:51:51-04:00*%
%TF.ProjectId,waveshaper,77617665-7368-4617-9065-722e6b696361,rev?*%
%TF.SameCoordinates,Original*%
%TF.FileFunction,Legend,Top*%
%TF.FilePolarity,Positive*%
%FSLAX46Y46*%
G04 Gerber Fmt 4.6, Leading zero omitted, Abs format (unit mm)*
G04 Created by KiCad (PCBNEW 5.1.10-88a1d61d58~90~ubuntu20.04.1) date 2021-09-18 21:51:51*
%MOMM*%
%LPD*%
G01*
G04 APERTURE LIST*
%ADD10C,0.120000*%
%ADD11C,0.150000*%
G04 APERTURE END LIST*
D10*
%TO.C,RV8*%
X156030000Y-144130000D02*
X156030000Y-153870000D01*
X167620000Y-144130000D02*
X167620000Y-145620000D01*
X159090000Y-144130000D02*
X156030000Y-144130000D01*
X167620000Y-153880000D02*
X162900000Y-153880000D01*
X159090000Y-153870000D02*
X156030000Y-153870000D01*
X167620000Y-144130000D02*
X162900000Y-144130000D01*
X167620000Y-152690000D02*
X167620000Y-153870000D01*
X167620000Y-149790000D02*
X167620000Y-150320000D01*
X167620000Y-147340000D02*
X167620000Y-148170000D01*
%TO.C,RV4*%
X156030000Y-64130000D02*
X156030000Y-73870000D01*
X167620000Y-64130000D02*
X167620000Y-65620000D01*
X159090000Y-64130000D02*
X156030000Y-64130000D01*
X167620000Y-73880000D02*
X162900000Y-73880000D01*
X159090000Y-73870000D02*
X156030000Y-73870000D01*
X167620000Y-64130000D02*
X162900000Y-64130000D01*
X167620000Y-72690000D02*
X167620000Y-73870000D01*
X167620000Y-69790000D02*
X167620000Y-70320000D01*
X167620000Y-67340000D02*
X167620000Y-68170000D01*
%TO.C,RV6*%
X156030000Y-104130000D02*
X156030000Y-113870000D01*
X167620000Y-104130000D02*
X167620000Y-105620000D01*
X159090000Y-104130000D02*
X156030000Y-104130000D01*
X167620000Y-113880000D02*
X162900000Y-113880000D01*
X159090000Y-113870000D02*
X156030000Y-113870000D01*
X167620000Y-104130000D02*
X162900000Y-104130000D01*
X167620000Y-112690000D02*
X167620000Y-113870000D01*
X167620000Y-109790000D02*
X167620000Y-110320000D01*
X167620000Y-107340000D02*
X167620000Y-108170000D01*
%TO.C,RV7*%
X135970000Y-133870000D02*
X135970000Y-124130000D01*
X124380000Y-133870000D02*
X124380000Y-132380000D01*
X132910000Y-133870000D02*
X135970000Y-133870000D01*
X124380000Y-124120000D02*
X129100000Y-124120000D01*
X132910000Y-124130000D02*
X135970000Y-124130000D01*
X124380000Y-133870000D02*
X129100000Y-133870000D01*
X124380000Y-125310000D02*
X124380000Y-124130000D01*
X124380000Y-128210000D02*
X124380000Y-127680000D01*
X124380000Y-130660000D02*
X124380000Y-129830000D01*
%TO.C,RV3*%
X135970000Y-170870000D02*
X135970000Y-161130000D01*
X124380000Y-170870000D02*
X124380000Y-169380000D01*
X132910000Y-170870000D02*
X135970000Y-170870000D01*
X124380000Y-161120000D02*
X129100000Y-161120000D01*
X132910000Y-161130000D02*
X135970000Y-161130000D01*
X124380000Y-170870000D02*
X129100000Y-170870000D01*
X124380000Y-162310000D02*
X124380000Y-161130000D01*
X124380000Y-165210000D02*
X124380000Y-164680000D01*
X124380000Y-167660000D02*
X124380000Y-166830000D01*
%TO.C,RV2*%
X135970000Y-53870000D02*
X135970000Y-44130000D01*
X124380000Y-53870000D02*
X124380000Y-52380000D01*
X132910000Y-53870000D02*
X135970000Y-53870000D01*
X124380000Y-44120000D02*
X129100000Y-44120000D01*
X132910000Y-44130000D02*
X135970000Y-44130000D01*
X124380000Y-53870000D02*
X129100000Y-53870000D01*
X124380000Y-45310000D02*
X124380000Y-44130000D01*
X124380000Y-48210000D02*
X124380000Y-47680000D01*
X124380000Y-50660000D02*
X124380000Y-49830000D01*
%TO.C,RV5*%
X135970000Y-93870000D02*
X135970000Y-84130000D01*
X124380000Y-93870000D02*
X124380000Y-92380000D01*
X132910000Y-93870000D02*
X135970000Y-93870000D01*
X124380000Y-84120000D02*
X129100000Y-84120000D01*
X132910000Y-84130000D02*
X135970000Y-84130000D01*
X124380000Y-93870000D02*
X129100000Y-93870000D01*
X124380000Y-85310000D02*
X124380000Y-84130000D01*
X124380000Y-88210000D02*
X124380000Y-87680000D01*
X124380000Y-90660000D02*
X124380000Y-89830000D01*
%TO.C,RV1*%
X156030000Y-24130000D02*
X156030000Y-33870000D01*
X167620000Y-24130000D02*
X167620000Y-25620000D01*
X159090000Y-24130000D02*
X156030000Y-24130000D01*
X167620000Y-33880000D02*
X162900000Y-33880000D01*
X159090000Y-33870000D02*
X156030000Y-33870000D01*
X167620000Y-24130000D02*
X162900000Y-24130000D01*
X167620000Y-32690000D02*
X167620000Y-33870000D01*
X167620000Y-29790000D02*
X167620000Y-30320000D01*
X167620000Y-27340000D02*
X167620000Y-28170000D01*
%TO.C,SW1*%
X94650000Y-162570000D02*
X107350000Y-162570000D01*
X107350000Y-162570000D02*
X107350000Y-169430000D01*
X107340000Y-169430000D02*
X94650000Y-169430000D01*
X94650000Y-169430000D02*
X94650000Y-162580000D01*
X94650000Y-162580000D02*
X94660000Y-162580000D01*
%TO.C,RV8*%
D11*
X161603571Y-156639285D02*
X161353571Y-156282142D01*
X161175000Y-156639285D02*
X161175000Y-155889285D01*
X161460714Y-155889285D01*
X161532142Y-155925000D01*
X161567857Y-155960714D01*
X161603571Y-156032142D01*
X161603571Y-156139285D01*
X161567857Y-156210714D01*
X161532142Y-156246428D01*
X161460714Y-156282142D01*
X161175000Y-156282142D01*
X161817857Y-155889285D02*
X162067857Y-156639285D01*
X162317857Y-155889285D01*
X162675000Y-156210714D02*
X162603571Y-156175000D01*
X162567857Y-156139285D01*
X162532142Y-156067857D01*
X162532142Y-156032142D01*
X162567857Y-155960714D01*
X162603571Y-155925000D01*
X162675000Y-155889285D01*
X162817857Y-155889285D01*
X162889285Y-155925000D01*
X162925000Y-155960714D01*
X162960714Y-156032142D01*
X162960714Y-156067857D01*
X162925000Y-156139285D01*
X162889285Y-156175000D01*
X162817857Y-156210714D01*
X162675000Y-156210714D01*
X162603571Y-156246428D01*
X162567857Y-156282142D01*
X162532142Y-156353571D01*
X162532142Y-156496428D01*
X162567857Y-156567857D01*
X162603571Y-156603571D01*
X162675000Y-156639285D01*
X162817857Y-156639285D01*
X162889285Y-156603571D01*
X162925000Y-156567857D01*
X162960714Y-156496428D01*
X162960714Y-156353571D01*
X162925000Y-156282142D01*
X162889285Y-156246428D01*
X162817857Y-156210714D01*
X155678571Y-156446428D02*
X155785714Y-156482142D01*
X155821428Y-156517857D01*
X155857142Y-156589285D01*
X155857142Y-156696428D01*
X155821428Y-156767857D01*
X155785714Y-156803571D01*
X155714285Y-156839285D01*
X155428571Y-156839285D01*
X155428571Y-156089285D01*
X155678571Y-156089285D01*
X155750000Y-156125000D01*
X155785714Y-156160714D01*
X155821428Y-156232142D01*
X155821428Y-156303571D01*
X155785714Y-156375000D01*
X155750000Y-156410714D01*
X155678571Y-156446428D01*
X155428571Y-156446428D01*
X156571428Y-156839285D02*
X156142857Y-156839285D01*
X156357142Y-156839285D02*
X156357142Y-156089285D01*
X156285714Y-156196428D01*
X156214285Y-156267857D01*
X156142857Y-156303571D01*
X157035714Y-156089285D02*
X157107142Y-156089285D01*
X157178571Y-156125000D01*
X157214285Y-156160714D01*
X157250000Y-156232142D01*
X157285714Y-156375000D01*
X157285714Y-156553571D01*
X157250000Y-156696428D01*
X157214285Y-156767857D01*
X157178571Y-156803571D01*
X157107142Y-156839285D01*
X157035714Y-156839285D01*
X156964285Y-156803571D01*
X156928571Y-156767857D01*
X156892857Y-156696428D01*
X156857142Y-156553571D01*
X156857142Y-156375000D01*
X156892857Y-156232142D01*
X156928571Y-156160714D01*
X156964285Y-156125000D01*
X157035714Y-156089285D01*
X157750000Y-156089285D02*
X157821428Y-156089285D01*
X157892857Y-156125000D01*
X157928571Y-156160714D01*
X157964285Y-156232142D01*
X158000000Y-156375000D01*
X158000000Y-156553571D01*
X157964285Y-156696428D01*
X157928571Y-156767857D01*
X157892857Y-156803571D01*
X157821428Y-156839285D01*
X157750000Y-156839285D01*
X157678571Y-156803571D01*
X157642857Y-156767857D01*
X157607142Y-156696428D01*
X157571428Y-156553571D01*
X157571428Y-156375000D01*
X157607142Y-156232142D01*
X157642857Y-156160714D01*
X157678571Y-156125000D01*
X157750000Y-156089285D01*
X158321428Y-156839285D02*
X158321428Y-156089285D01*
X158392857Y-156553571D02*
X158607142Y-156839285D01*
X158607142Y-156339285D02*
X158321428Y-156625000D01*
%TO.C,RV4*%
X161603571Y-76639285D02*
X161353571Y-76282142D01*
X161175000Y-76639285D02*
X161175000Y-75889285D01*
X161460714Y-75889285D01*
X161532142Y-75925000D01*
X161567857Y-75960714D01*
X161603571Y-76032142D01*
X161603571Y-76139285D01*
X161567857Y-76210714D01*
X161532142Y-76246428D01*
X161460714Y-76282142D01*
X161175000Y-76282142D01*
X161817857Y-75889285D02*
X162067857Y-76639285D01*
X162317857Y-75889285D01*
X162889285Y-76139285D02*
X162889285Y-76639285D01*
X162710714Y-75853571D02*
X162532142Y-76389285D01*
X162996428Y-76389285D01*
X155678571Y-76446428D02*
X155785714Y-76482142D01*
X155821428Y-76517857D01*
X155857142Y-76589285D01*
X155857142Y-76696428D01*
X155821428Y-76767857D01*
X155785714Y-76803571D01*
X155714285Y-76839285D01*
X155428571Y-76839285D01*
X155428571Y-76089285D01*
X155678571Y-76089285D01*
X155750000Y-76125000D01*
X155785714Y-76160714D01*
X155821428Y-76232142D01*
X155821428Y-76303571D01*
X155785714Y-76375000D01*
X155750000Y-76410714D01*
X155678571Y-76446428D01*
X155428571Y-76446428D01*
X156571428Y-76839285D02*
X156142857Y-76839285D01*
X156357142Y-76839285D02*
X156357142Y-76089285D01*
X156285714Y-76196428D01*
X156214285Y-76267857D01*
X156142857Y-76303571D01*
X157035714Y-76089285D02*
X157107142Y-76089285D01*
X157178571Y-76125000D01*
X157214285Y-76160714D01*
X157250000Y-76232142D01*
X157285714Y-76375000D01*
X157285714Y-76553571D01*
X157250000Y-76696428D01*
X157214285Y-76767857D01*
X157178571Y-76803571D01*
X157107142Y-76839285D01*
X157035714Y-76839285D01*
X156964285Y-76803571D01*
X156928571Y-76767857D01*
X156892857Y-76696428D01*
X156857142Y-76553571D01*
X156857142Y-76375000D01*
X156892857Y-76232142D01*
X156928571Y-76160714D01*
X156964285Y-76125000D01*
X157035714Y-76089285D01*
X157750000Y-76089285D02*
X157821428Y-76089285D01*
X157892857Y-76125000D01*
X157928571Y-76160714D01*
X157964285Y-76232142D01*
X158000000Y-76375000D01*
X158000000Y-76553571D01*
X157964285Y-76696428D01*
X157928571Y-76767857D01*
X157892857Y-76803571D01*
X157821428Y-76839285D01*
X157750000Y-76839285D01*
X157678571Y-76803571D01*
X157642857Y-76767857D01*
X157607142Y-76696428D01*
X157571428Y-76553571D01*
X157571428Y-76375000D01*
X157607142Y-76232142D01*
X157642857Y-76160714D01*
X157678571Y-76125000D01*
X157750000Y-76089285D01*
X158321428Y-76839285D02*
X158321428Y-76089285D01*
X158392857Y-76553571D02*
X158607142Y-76839285D01*
X158607142Y-76339285D02*
X158321428Y-76625000D01*
%TO.C,RV6*%
X161603571Y-116639285D02*
X161353571Y-116282142D01*
X161175000Y-116639285D02*
X161175000Y-115889285D01*
X161460714Y-115889285D01*
X161532142Y-115925000D01*
X161567857Y-115960714D01*
X161603571Y-116032142D01*
X161603571Y-116139285D01*
X161567857Y-116210714D01*
X161532142Y-116246428D01*
X161460714Y-116282142D01*
X161175000Y-116282142D01*
X161817857Y-115889285D02*
X162067857Y-116639285D01*
X162317857Y-115889285D01*
X162889285Y-115889285D02*
X162746428Y-115889285D01*
X162675000Y-115925000D01*
X162639285Y-115960714D01*
X162567857Y-116067857D01*
X162532142Y-116210714D01*
X162532142Y-116496428D01*
X162567857Y-116567857D01*
X162603571Y-116603571D01*
X162675000Y-116639285D01*
X162817857Y-116639285D01*
X162889285Y-116603571D01*
X162925000Y-116567857D01*
X162960714Y-116496428D01*
X162960714Y-116317857D01*
X162925000Y-116246428D01*
X162889285Y-116210714D01*
X162817857Y-116175000D01*
X162675000Y-116175000D01*
X162603571Y-116210714D01*
X162567857Y-116246428D01*
X162532142Y-116317857D01*
X155678571Y-116446428D02*
X155785714Y-116482142D01*
X155821428Y-116517857D01*
X155857142Y-116589285D01*
X155857142Y-116696428D01*
X155821428Y-116767857D01*
X155785714Y-116803571D01*
X155714285Y-116839285D01*
X155428571Y-116839285D01*
X155428571Y-116089285D01*
X155678571Y-116089285D01*
X155750000Y-116125000D01*
X155785714Y-116160714D01*
X155821428Y-116232142D01*
X155821428Y-116303571D01*
X155785714Y-116375000D01*
X155750000Y-116410714D01*
X155678571Y-116446428D01*
X155428571Y-116446428D01*
X156571428Y-116839285D02*
X156142857Y-116839285D01*
X156357142Y-116839285D02*
X156357142Y-116089285D01*
X156285714Y-116196428D01*
X156214285Y-116267857D01*
X156142857Y-116303571D01*
X157035714Y-116089285D02*
X157107142Y-116089285D01*
X157178571Y-116125000D01*
X157214285Y-116160714D01*
X157250000Y-116232142D01*
X157285714Y-116375000D01*
X157285714Y-116553571D01*
X157250000Y-116696428D01*
X157214285Y-116767857D01*
X157178571Y-116803571D01*
X157107142Y-116839285D01*
X157035714Y-116839285D01*
X156964285Y-116803571D01*
X156928571Y-116767857D01*
X156892857Y-116696428D01*
X156857142Y-116553571D01*
X156857142Y-116375000D01*
X156892857Y-116232142D01*
X156928571Y-116160714D01*
X156964285Y-116125000D01*
X157035714Y-116089285D01*
X157750000Y-116089285D02*
X157821428Y-116089285D01*
X157892857Y-116125000D01*
X157928571Y-116160714D01*
X157964285Y-116232142D01*
X158000000Y-116375000D01*
X158000000Y-116553571D01*
X157964285Y-116696428D01*
X157928571Y-116767857D01*
X157892857Y-116803571D01*
X157821428Y-116839285D01*
X157750000Y-116839285D01*
X157678571Y-116803571D01*
X157642857Y-116767857D01*
X157607142Y-116696428D01*
X157571428Y-116553571D01*
X157571428Y-116375000D01*
X157607142Y-116232142D01*
X157642857Y-116160714D01*
X157678571Y-116125000D01*
X157750000Y-116089285D01*
X158321428Y-116839285D02*
X158321428Y-116089285D01*
X158392857Y-116553571D02*
X158607142Y-116839285D01*
X158607142Y-116339285D02*
X158321428Y-116625000D01*
%TO.C,RV7*%
X129503571Y-122039285D02*
X129253571Y-121682142D01*
X129075000Y-122039285D02*
X129075000Y-121289285D01*
X129360714Y-121289285D01*
X129432142Y-121325000D01*
X129467857Y-121360714D01*
X129503571Y-121432142D01*
X129503571Y-121539285D01*
X129467857Y-121610714D01*
X129432142Y-121646428D01*
X129360714Y-121682142D01*
X129075000Y-121682142D01*
X129717857Y-121289285D02*
X129967857Y-122039285D01*
X130217857Y-121289285D01*
X130396428Y-121289285D02*
X130896428Y-121289285D01*
X130575000Y-122039285D01*
X133678571Y-121446428D02*
X133785714Y-121482142D01*
X133821428Y-121517857D01*
X133857142Y-121589285D01*
X133857142Y-121696428D01*
X133821428Y-121767857D01*
X133785714Y-121803571D01*
X133714285Y-121839285D01*
X133428571Y-121839285D01*
X133428571Y-121089285D01*
X133678571Y-121089285D01*
X133750000Y-121125000D01*
X133785714Y-121160714D01*
X133821428Y-121232142D01*
X133821428Y-121303571D01*
X133785714Y-121375000D01*
X133750000Y-121410714D01*
X133678571Y-121446428D01*
X133428571Y-121446428D01*
X134571428Y-121839285D02*
X134142857Y-121839285D01*
X134357142Y-121839285D02*
X134357142Y-121089285D01*
X134285714Y-121196428D01*
X134214285Y-121267857D01*
X134142857Y-121303571D01*
X135035714Y-121089285D02*
X135107142Y-121089285D01*
X135178571Y-121125000D01*
X135214285Y-121160714D01*
X135250000Y-121232142D01*
X135285714Y-121375000D01*
X135285714Y-121553571D01*
X135250000Y-121696428D01*
X135214285Y-121767857D01*
X135178571Y-121803571D01*
X135107142Y-121839285D01*
X135035714Y-121839285D01*
X134964285Y-121803571D01*
X134928571Y-121767857D01*
X134892857Y-121696428D01*
X134857142Y-121553571D01*
X134857142Y-121375000D01*
X134892857Y-121232142D01*
X134928571Y-121160714D01*
X134964285Y-121125000D01*
X135035714Y-121089285D01*
X135750000Y-121089285D02*
X135821428Y-121089285D01*
X135892857Y-121125000D01*
X135928571Y-121160714D01*
X135964285Y-121232142D01*
X136000000Y-121375000D01*
X136000000Y-121553571D01*
X135964285Y-121696428D01*
X135928571Y-121767857D01*
X135892857Y-121803571D01*
X135821428Y-121839285D01*
X135750000Y-121839285D01*
X135678571Y-121803571D01*
X135642857Y-121767857D01*
X135607142Y-121696428D01*
X135571428Y-121553571D01*
X135571428Y-121375000D01*
X135607142Y-121232142D01*
X135642857Y-121160714D01*
X135678571Y-121125000D01*
X135750000Y-121089285D01*
X136321428Y-121839285D02*
X136321428Y-121089285D01*
X136392857Y-121553571D02*
X136607142Y-121839285D01*
X136607142Y-121339285D02*
X136321428Y-121625000D01*
%TO.C,RV3*%
X129503571Y-159039285D02*
X129253571Y-158682142D01*
X129075000Y-159039285D02*
X129075000Y-158289285D01*
X129360714Y-158289285D01*
X129432142Y-158325000D01*
X129467857Y-158360714D01*
X129503571Y-158432142D01*
X129503571Y-158539285D01*
X129467857Y-158610714D01*
X129432142Y-158646428D01*
X129360714Y-158682142D01*
X129075000Y-158682142D01*
X129717857Y-158289285D02*
X129967857Y-159039285D01*
X130217857Y-158289285D01*
X130396428Y-158289285D02*
X130860714Y-158289285D01*
X130610714Y-158575000D01*
X130717857Y-158575000D01*
X130789285Y-158610714D01*
X130825000Y-158646428D01*
X130860714Y-158717857D01*
X130860714Y-158896428D01*
X130825000Y-158967857D01*
X130789285Y-159003571D01*
X130717857Y-159039285D01*
X130503571Y-159039285D01*
X130432142Y-159003571D01*
X130396428Y-158967857D01*
X133446428Y-158625000D02*
X133803571Y-158625000D01*
X133375000Y-158839285D02*
X133625000Y-158089285D01*
X133875000Y-158839285D01*
X134517857Y-158839285D02*
X134089285Y-158839285D01*
X134303571Y-158839285D02*
X134303571Y-158089285D01*
X134232142Y-158196428D01*
X134160714Y-158267857D01*
X134089285Y-158303571D01*
X134982142Y-158089285D02*
X135053571Y-158089285D01*
X135125000Y-158125000D01*
X135160714Y-158160714D01*
X135196428Y-158232142D01*
X135232142Y-158375000D01*
X135232142Y-158553571D01*
X135196428Y-158696428D01*
X135160714Y-158767857D01*
X135125000Y-158803571D01*
X135053571Y-158839285D01*
X134982142Y-158839285D01*
X134910714Y-158803571D01*
X134875000Y-158767857D01*
X134839285Y-158696428D01*
X134803571Y-158553571D01*
X134803571Y-158375000D01*
X134839285Y-158232142D01*
X134875000Y-158160714D01*
X134910714Y-158125000D01*
X134982142Y-158089285D01*
X135696428Y-158089285D02*
X135767857Y-158089285D01*
X135839285Y-158125000D01*
X135875000Y-158160714D01*
X135910714Y-158232142D01*
X135946428Y-158375000D01*
X135946428Y-158553571D01*
X135910714Y-158696428D01*
X135875000Y-158767857D01*
X135839285Y-158803571D01*
X135767857Y-158839285D01*
X135696428Y-158839285D01*
X135625000Y-158803571D01*
X135589285Y-158767857D01*
X135553571Y-158696428D01*
X135517857Y-158553571D01*
X135517857Y-158375000D01*
X135553571Y-158232142D01*
X135589285Y-158160714D01*
X135625000Y-158125000D01*
X135696428Y-158089285D01*
X136267857Y-158839285D02*
X136267857Y-158089285D01*
X136339285Y-158553571D02*
X136553571Y-158839285D01*
X136553571Y-158339285D02*
X136267857Y-158625000D01*
%TO.C,RV2*%
X129503571Y-42039285D02*
X129253571Y-41682142D01*
X129075000Y-42039285D02*
X129075000Y-41289285D01*
X129360714Y-41289285D01*
X129432142Y-41325000D01*
X129467857Y-41360714D01*
X129503571Y-41432142D01*
X129503571Y-41539285D01*
X129467857Y-41610714D01*
X129432142Y-41646428D01*
X129360714Y-41682142D01*
X129075000Y-41682142D01*
X129717857Y-41289285D02*
X129967857Y-42039285D01*
X130217857Y-41289285D01*
X130432142Y-41360714D02*
X130467857Y-41325000D01*
X130539285Y-41289285D01*
X130717857Y-41289285D01*
X130789285Y-41325000D01*
X130825000Y-41360714D01*
X130860714Y-41432142D01*
X130860714Y-41503571D01*
X130825000Y-41610714D01*
X130396428Y-42039285D01*
X130860714Y-42039285D01*
X133678571Y-41446428D02*
X133785714Y-41482142D01*
X133821428Y-41517857D01*
X133857142Y-41589285D01*
X133857142Y-41696428D01*
X133821428Y-41767857D01*
X133785714Y-41803571D01*
X133714285Y-41839285D01*
X133428571Y-41839285D01*
X133428571Y-41089285D01*
X133678571Y-41089285D01*
X133750000Y-41125000D01*
X133785714Y-41160714D01*
X133821428Y-41232142D01*
X133821428Y-41303571D01*
X133785714Y-41375000D01*
X133750000Y-41410714D01*
X133678571Y-41446428D01*
X133428571Y-41446428D01*
X134571428Y-41839285D02*
X134142857Y-41839285D01*
X134357142Y-41839285D02*
X134357142Y-41089285D01*
X134285714Y-41196428D01*
X134214285Y-41267857D01*
X134142857Y-41303571D01*
X135035714Y-41089285D02*
X135107142Y-41089285D01*
X135178571Y-41125000D01*
X135214285Y-41160714D01*
X135250000Y-41232142D01*
X135285714Y-41375000D01*
X135285714Y-41553571D01*
X135250000Y-41696428D01*
X135214285Y-41767857D01*
X135178571Y-41803571D01*
X135107142Y-41839285D01*
X135035714Y-41839285D01*
X134964285Y-41803571D01*
X134928571Y-41767857D01*
X134892857Y-41696428D01*
X134857142Y-41553571D01*
X134857142Y-41375000D01*
X134892857Y-41232142D01*
X134928571Y-41160714D01*
X134964285Y-41125000D01*
X135035714Y-41089285D01*
X135750000Y-41089285D02*
X135821428Y-41089285D01*
X135892857Y-41125000D01*
X135928571Y-41160714D01*
X135964285Y-41232142D01*
X136000000Y-41375000D01*
X136000000Y-41553571D01*
X135964285Y-41696428D01*
X135928571Y-41767857D01*
X135892857Y-41803571D01*
X135821428Y-41839285D01*
X135750000Y-41839285D01*
X135678571Y-41803571D01*
X135642857Y-41767857D01*
X135607142Y-41696428D01*
X135571428Y-41553571D01*
X135571428Y-41375000D01*
X135607142Y-41232142D01*
X135642857Y-41160714D01*
X135678571Y-41125000D01*
X135750000Y-41089285D01*
X136321428Y-41839285D02*
X136321428Y-41089285D01*
X136392857Y-41553571D02*
X136607142Y-41839285D01*
X136607142Y-41339285D02*
X136321428Y-41625000D01*
%TO.C,RV5*%
X129503571Y-82039285D02*
X129253571Y-81682142D01*
X129075000Y-82039285D02*
X129075000Y-81289285D01*
X129360714Y-81289285D01*
X129432142Y-81325000D01*
X129467857Y-81360714D01*
X129503571Y-81432142D01*
X129503571Y-81539285D01*
X129467857Y-81610714D01*
X129432142Y-81646428D01*
X129360714Y-81682142D01*
X129075000Y-81682142D01*
X129717857Y-81289285D02*
X129967857Y-82039285D01*
X130217857Y-81289285D01*
X130825000Y-81289285D02*
X130467857Y-81289285D01*
X130432142Y-81646428D01*
X130467857Y-81610714D01*
X130539285Y-81575000D01*
X130717857Y-81575000D01*
X130789285Y-81610714D01*
X130825000Y-81646428D01*
X130860714Y-81717857D01*
X130860714Y-81896428D01*
X130825000Y-81967857D01*
X130789285Y-82003571D01*
X130717857Y-82039285D01*
X130539285Y-82039285D01*
X130467857Y-82003571D01*
X130432142Y-81967857D01*
X133678571Y-81446428D02*
X133785714Y-81482142D01*
X133821428Y-81517857D01*
X133857142Y-81589285D01*
X133857142Y-81696428D01*
X133821428Y-81767857D01*
X133785714Y-81803571D01*
X133714285Y-81839285D01*
X133428571Y-81839285D01*
X133428571Y-81089285D01*
X133678571Y-81089285D01*
X133750000Y-81125000D01*
X133785714Y-81160714D01*
X133821428Y-81232142D01*
X133821428Y-81303571D01*
X133785714Y-81375000D01*
X133750000Y-81410714D01*
X133678571Y-81446428D01*
X133428571Y-81446428D01*
X134571428Y-81839285D02*
X134142857Y-81839285D01*
X134357142Y-81839285D02*
X134357142Y-81089285D01*
X134285714Y-81196428D01*
X134214285Y-81267857D01*
X134142857Y-81303571D01*
X135035714Y-81089285D02*
X135107142Y-81089285D01*
X135178571Y-81125000D01*
X135214285Y-81160714D01*
X135250000Y-81232142D01*
X135285714Y-81375000D01*
X135285714Y-81553571D01*
X135250000Y-81696428D01*
X135214285Y-81767857D01*
X135178571Y-81803571D01*
X135107142Y-81839285D01*
X135035714Y-81839285D01*
X134964285Y-81803571D01*
X134928571Y-81767857D01*
X134892857Y-81696428D01*
X134857142Y-81553571D01*
X134857142Y-81375000D01*
X134892857Y-81232142D01*
X134928571Y-81160714D01*
X134964285Y-81125000D01*
X135035714Y-81089285D01*
X135750000Y-81089285D02*
X135821428Y-81089285D01*
X135892857Y-81125000D01*
X135928571Y-81160714D01*
X135964285Y-81232142D01*
X136000000Y-81375000D01*
X136000000Y-81553571D01*
X135964285Y-81696428D01*
X135928571Y-81767857D01*
X135892857Y-81803571D01*
X135821428Y-81839285D01*
X135750000Y-81839285D01*
X135678571Y-81803571D01*
X135642857Y-81767857D01*
X135607142Y-81696428D01*
X135571428Y-81553571D01*
X135571428Y-81375000D01*
X135607142Y-81232142D01*
X135642857Y-81160714D01*
X135678571Y-81125000D01*
X135750000Y-81089285D01*
X136321428Y-81839285D02*
X136321428Y-81089285D01*
X136392857Y-81553571D02*
X136607142Y-81839285D01*
X136607142Y-81339285D02*
X136321428Y-81625000D01*
%TO.C,RV1*%
X161603571Y-36639285D02*
X161353571Y-36282142D01*
X161175000Y-36639285D02*
X161175000Y-35889285D01*
X161460714Y-35889285D01*
X161532142Y-35925000D01*
X161567857Y-35960714D01*
X161603571Y-36032142D01*
X161603571Y-36139285D01*
X161567857Y-36210714D01*
X161532142Y-36246428D01*
X161460714Y-36282142D01*
X161175000Y-36282142D01*
X161817857Y-35889285D02*
X162067857Y-36639285D01*
X162317857Y-35889285D01*
X162960714Y-36639285D02*
X162532142Y-36639285D01*
X162746428Y-36639285D02*
X162746428Y-35889285D01*
X162675000Y-35996428D01*
X162603571Y-36067857D01*
X162532142Y-36103571D01*
X155678571Y-36446428D02*
X155785714Y-36482142D01*
X155821428Y-36517857D01*
X155857142Y-36589285D01*
X155857142Y-36696428D01*
X155821428Y-36767857D01*
X155785714Y-36803571D01*
X155714285Y-36839285D01*
X155428571Y-36839285D01*
X155428571Y-36089285D01*
X155678571Y-36089285D01*
X155750000Y-36125000D01*
X155785714Y-36160714D01*
X155821428Y-36232142D01*
X155821428Y-36303571D01*
X155785714Y-36375000D01*
X155750000Y-36410714D01*
X155678571Y-36446428D01*
X155428571Y-36446428D01*
X156571428Y-36839285D02*
X156142857Y-36839285D01*
X156357142Y-36839285D02*
X156357142Y-36089285D01*
X156285714Y-36196428D01*
X156214285Y-36267857D01*
X156142857Y-36303571D01*
X157035714Y-36089285D02*
X157107142Y-36089285D01*
X157178571Y-36125000D01*
X157214285Y-36160714D01*
X157250000Y-36232142D01*
X157285714Y-36375000D01*
X157285714Y-36553571D01*
X157250000Y-36696428D01*
X157214285Y-36767857D01*
X157178571Y-36803571D01*
X157107142Y-36839285D01*
X157035714Y-36839285D01*
X156964285Y-36803571D01*
X156928571Y-36767857D01*
X156892857Y-36696428D01*
X156857142Y-36553571D01*
X156857142Y-36375000D01*
X156892857Y-36232142D01*
X156928571Y-36160714D01*
X156964285Y-36125000D01*
X157035714Y-36089285D01*
X157750000Y-36089285D02*
X157821428Y-36089285D01*
X157892857Y-36125000D01*
X157928571Y-36160714D01*
X157964285Y-36232142D01*
X158000000Y-36375000D01*
X158000000Y-36553571D01*
X157964285Y-36696428D01*
X157928571Y-36767857D01*
X157892857Y-36803571D01*
X157821428Y-36839285D01*
X157750000Y-36839285D01*
X157678571Y-36803571D01*
X157642857Y-36767857D01*
X157607142Y-36696428D01*
X157571428Y-36553571D01*
X157571428Y-36375000D01*
X157607142Y-36232142D01*
X157642857Y-36160714D01*
X157678571Y-36125000D01*
X157750000Y-36089285D01*
X158321428Y-36839285D02*
X158321428Y-36089285D01*
X158392857Y-36553571D02*
X158607142Y-36839285D01*
X158607142Y-36339285D02*
X158321428Y-36625000D01*
%TO.C,SW1*%
X93404761Y-167333333D02*
X93452380Y-167190476D01*
X93452380Y-166952380D01*
X93404761Y-166857142D01*
X93357142Y-166809523D01*
X93261904Y-166761904D01*
X93166666Y-166761904D01*
X93071428Y-166809523D01*
X93023809Y-166857142D01*
X92976190Y-166952380D01*
X92928571Y-167142857D01*
X92880952Y-167238095D01*
X92833333Y-167285714D01*
X92738095Y-167333333D01*
X92642857Y-167333333D01*
X92547619Y-167285714D01*
X92500000Y-167238095D01*
X92452380Y-167142857D01*
X92452380Y-166904761D01*
X92500000Y-166761904D01*
X92452380Y-166428571D02*
X93452380Y-166190476D01*
X92738095Y-166000000D01*
X93452380Y-165809523D01*
X92452380Y-165571428D01*
X93452380Y-164666666D02*
X93452380Y-165238095D01*
X93452380Y-164952380D02*
X92452380Y-164952380D01*
X92595238Y-165047619D01*
X92690476Y-165142857D01*
X92738095Y-165238095D01*
%TD*%
M02*
