%TF.GenerationSoftware,KiCad,Pcbnew,5.1.10-88a1d61d58~90~ubuntu20.04.1*%
%TF.CreationDate,2021-08-12T10:43:18-04:00*%
%TF.ProjectId,waveshaper,77617665-7368-4617-9065-722e6b696361,rev?*%
%TF.SameCoordinates,Original*%
%TF.FileFunction,Soldermask,Top*%
%TF.FilePolarity,Negative*%
%FSLAX46Y46*%
G04 Gerber Fmt 4.6, Leading zero omitted, Abs format (unit mm)*
G04 Created by KiCad (PCBNEW 5.1.10-88a1d61d58~90~ubuntu20.04.1) date 2021-08-12 10:43:18*
%MOMM*%
%LPD*%
G01*
G04 APERTURE LIST*
%ADD10C,1.600000*%
%ADD11O,1.600000X1.600000*%
%ADD12O,1.700000X1.700000*%
%ADD13R,1.700000X1.700000*%
%ADD14C,3.240000*%
%ADD15C,1.800000*%
%ADD16R,1.800000X1.800000*%
%ADD17O,2.200000X2.200000*%
%ADD18R,2.200000X2.200000*%
%ADD19C,3.100000*%
%ADD20R,1.600000X1.600000*%
%ADD21O,2.200000X1.740000*%
%ADD22O,1.600000X2.400000*%
%ADD23R,1.600000X2.400000*%
%ADD24O,1.727200X1.727200*%
%ADD25R,1.727200X1.727200*%
%ADD26C,1.700000*%
G04 APERTURE END LIST*
D10*
%TO.C,R3*%
X151000000Y-121750000D03*
D11*
X151000000Y-111590000D03*
%TD*%
D10*
%TO.C,R4*%
X149500000Y-137000000D03*
D11*
X149500000Y-147160000D03*
%TD*%
D10*
%TO.C,R5*%
X147500000Y-96500000D03*
D11*
X147500000Y-106660000D03*
%TD*%
D12*
%TO.C,J9*%
X140320000Y-178000000D03*
X137780000Y-178000000D03*
X135240000Y-178000000D03*
X132700000Y-178000000D03*
X130160000Y-178000000D03*
X127620000Y-178000000D03*
X125080000Y-178000000D03*
X122540000Y-178000000D03*
D13*
X120000000Y-178000000D03*
%TD*%
D14*
%TO.C,RV6*%
X161000000Y-113800000D03*
X161000000Y-104200000D03*
D15*
X168500000Y-106500000D03*
X168500000Y-109000000D03*
D16*
X168500000Y-111500000D03*
%TD*%
D10*
%TO.C,R2*%
X140500000Y-81000000D03*
D11*
X140500000Y-70840000D03*
%TD*%
D17*
%TO.C,D3*%
X140000000Y-32000000D03*
D18*
X132380000Y-32000000D03*
%TD*%
D14*
%TO.C,RV7*%
X131000000Y-124200000D03*
X131000000Y-133800000D03*
D15*
X123500000Y-131500000D03*
X123500000Y-129000000D03*
D16*
X123500000Y-126500000D03*
%TD*%
D12*
%TO.C,J13*%
X172460000Y-45000000D03*
X175000000Y-45000000D03*
X172460000Y-47540000D03*
X175000000Y-47540000D03*
X172460000Y-50080000D03*
X175000000Y-50080000D03*
X172460000Y-52620000D03*
X175000000Y-52620000D03*
X172460000Y-55160000D03*
D13*
X175000000Y-55160000D03*
%TD*%
D14*
%TO.C,RV2*%
X131000000Y-161200000D03*
X131000000Y-170800000D03*
D15*
X123500000Y-168500000D03*
X123500000Y-166000000D03*
D16*
X123500000Y-163500000D03*
%TD*%
D19*
%TO.C,SW1*%
X105700000Y-166000000D03*
X96300000Y-166000000D03*
X101000000Y-166000000D03*
%TD*%
D14*
%TO.C,RV4*%
X161000000Y-73800000D03*
X161000000Y-64200000D03*
D15*
X168500000Y-66500000D03*
X168500000Y-69000000D03*
D16*
X168500000Y-71500000D03*
%TD*%
D10*
%TO.C,C2*%
X145000000Y-32000000D03*
D20*
X147000000Y-32000000D03*
%TD*%
D14*
%TO.C,RV3*%
X131000000Y-44200000D03*
X131000000Y-53800000D03*
D15*
X123500000Y-51500000D03*
X123500000Y-49000000D03*
D16*
X123500000Y-46500000D03*
%TD*%
D21*
%TO.C,J8*%
X121000000Y-144210000D03*
G36*
G01*
X121850001Y-147620000D02*
X120149999Y-147620000D01*
G75*
G02*
X119900000Y-147370001I0J249999D01*
G01*
X119900000Y-146129999D01*
G75*
G02*
X120149999Y-145880000I249999J0D01*
G01*
X121850001Y-145880000D01*
G75*
G02*
X122100000Y-146129999I0J-249999D01*
G01*
X122100000Y-147370001D01*
G75*
G02*
X121850001Y-147620000I-249999J0D01*
G01*
G37*
%TD*%
D14*
%TO.C,RV1*%
X161000000Y-33800000D03*
X161000000Y-24200000D03*
D15*
X168500000Y-26500000D03*
X168500000Y-29000000D03*
D16*
X168500000Y-31500000D03*
%TD*%
D14*
%TO.C,RV5*%
X131000000Y-84200000D03*
X131000000Y-93800000D03*
D15*
X123500000Y-91500000D03*
X123500000Y-89000000D03*
D16*
X123500000Y-86500000D03*
%TD*%
D22*
%TO.C,U2*%
X139500000Y-133120000D03*
X154740000Y-125500000D03*
X142040000Y-133120000D03*
X152200000Y-125500000D03*
X144580000Y-133120000D03*
X149660000Y-125500000D03*
X147120000Y-133120000D03*
X147120000Y-125500000D03*
X149660000Y-133120000D03*
X144580000Y-125500000D03*
X152200000Y-133120000D03*
X142040000Y-125500000D03*
X154740000Y-133120000D03*
D23*
X139500000Y-125500000D03*
%TD*%
D22*
%TO.C,U1*%
X138500000Y-92620000D03*
X153740000Y-85000000D03*
X141040000Y-92620000D03*
X151200000Y-85000000D03*
X143580000Y-92620000D03*
X148660000Y-85000000D03*
X146120000Y-92620000D03*
X146120000Y-85000000D03*
X148660000Y-92620000D03*
X143580000Y-85000000D03*
X151200000Y-92620000D03*
X141040000Y-85000000D03*
X153740000Y-92620000D03*
D23*
X138500000Y-85000000D03*
%TD*%
D17*
%TO.C,D2*%
X132380000Y-23500000D03*
D18*
X140000000Y-23500000D03*
%TD*%
D10*
%TO.C,R6*%
X144000000Y-81000000D03*
D11*
X144000000Y-70840000D03*
%TD*%
D10*
%TO.C,R8*%
X136250000Y-146750000D03*
D11*
X146410000Y-146750000D03*
%TD*%
D10*
%TO.C,R9*%
X146410000Y-152750000D03*
D11*
X136250000Y-152750000D03*
%TD*%
D21*
%TO.C,J11*%
X121000000Y-151170000D03*
X121000000Y-153710000D03*
G36*
G01*
X121850001Y-157120000D02*
X120149999Y-157120000D01*
G75*
G02*
X119900000Y-156870001I0J249999D01*
G01*
X119900000Y-155629999D01*
G75*
G02*
X120149999Y-155380000I249999J0D01*
G01*
X121850001Y-155380000D01*
G75*
G02*
X122100000Y-155629999I0J-249999D01*
G01*
X122100000Y-156870001D01*
G75*
G02*
X121850001Y-157120000I-249999J0D01*
G01*
G37*
%TD*%
D10*
%TO.C,R7*%
X147500000Y-121750000D03*
D11*
X147500000Y-111590000D03*
%TD*%
D10*
%TO.C,R1*%
X151000000Y-96500000D03*
D11*
X151000000Y-106660000D03*
%TD*%
D24*
%TO.C,J5*%
X125540000Y-25840000D03*
X123000000Y-25840000D03*
X125540000Y-28380000D03*
X123000000Y-28380000D03*
X125540000Y-30920000D03*
X123000000Y-30920000D03*
X125540000Y-33460000D03*
X123000000Y-33460000D03*
X125540000Y-36000000D03*
D25*
X123000000Y-36000000D03*
%TD*%
D11*
%TO.C,D9*%
X172000000Y-151620000D03*
D20*
X172000000Y-144000000D03*
%TD*%
D11*
%TO.C,D8*%
X120000000Y-131620000D03*
D20*
X120000000Y-124000000D03*
%TD*%
D11*
%TO.C,D7*%
X172000000Y-111620000D03*
D20*
X172000000Y-104000000D03*
%TD*%
D11*
%TO.C,D6*%
X120000000Y-91620000D03*
D20*
X120000000Y-84000000D03*
%TD*%
D11*
%TO.C,D5*%
X172000000Y-71620000D03*
D20*
X172000000Y-64000000D03*
%TD*%
D14*
%TO.C,RV8*%
X161000000Y-153800000D03*
X161000000Y-144200000D03*
D15*
X168500000Y-146500000D03*
X168500000Y-149000000D03*
D16*
X168500000Y-151500000D03*
%TD*%
D10*
%TO.C,C1*%
X147000000Y-23500000D03*
D20*
X145000000Y-23500000D03*
%TD*%
D26*
%TO.C,J1*%
X137870000Y-111000000D03*
X135330000Y-111000000D03*
X132790000Y-111000000D03*
X130250000Y-111000000D03*
X127710000Y-111000000D03*
X125170000Y-111000000D03*
X122630000Y-111000000D03*
X137870000Y-108460000D03*
X135330000Y-108460000D03*
X132790000Y-108460000D03*
X130250000Y-108460000D03*
X127710000Y-108460000D03*
X125170000Y-108460000D03*
G36*
G01*
X122030000Y-107610000D02*
X123230000Y-107610000D01*
G75*
G02*
X123480000Y-107860000I0J-250000D01*
G01*
X123480000Y-109060000D01*
G75*
G02*
X123230000Y-109310000I-250000J0D01*
G01*
X122030000Y-109310000D01*
G75*
G02*
X121780000Y-109060000I0J250000D01*
G01*
X121780000Y-107860000D01*
G75*
G02*
X122030000Y-107610000I250000J0D01*
G01*
G37*
%TD*%
D11*
%TO.C,D4*%
X120000000Y-51620000D03*
D20*
X120000000Y-44000000D03*
%TD*%
D11*
%TO.C,D1*%
X172000000Y-31620000D03*
D20*
X172000000Y-24000000D03*
%TD*%
D10*
%TO.C,C4*%
X139500000Y-139500000D03*
X139500000Y-137000000D03*
%TD*%
%TO.C,C3*%
X139000000Y-99500000D03*
X139000000Y-97000000D03*
%TD*%
M02*
