M48
; DRILL file {KiCad 5.1.10-88a1d61d58~90~ubuntu20.04.1} date Sat Aug  7 13:53:39 2021
; FORMAT={-:-/ absolute / inch / decimal}
; #@! TF.CreationDate,2021-08-07T13:53:39-04:00
; #@! TF.GenerationSoftware,Kicad,Pcbnew,5.1.10-88a1d61d58~90~ubuntu20.04.1
; #@! TF.FileFunction,Plated,1,2,PTH
FMAT,2
INCH
T1C0.0315
T2C0.0394
T3C0.0400
T4C0.0433
T5C0.0472
T6C0.0709
T7C0.0827
%
G90
G05
T1
X4.7244Y-1.7323
X4.7244Y-2.0323
X4.7244Y-3.3071
X4.7244Y-3.6071
X4.7244Y-4.8819
X4.7244Y-5.1819
X5.3642Y-5.7776
X5.3642Y-6.0138
X5.4528Y-3.3465
X5.4528Y-3.6465
X5.4724Y-3.8189
X5.4724Y-3.9173
X5.4921Y-4.9409
X5.4921Y-5.2409
X5.4921Y-5.3937
X5.4921Y-5.4921
X5.5315Y-2.789
X5.5315Y-3.189
X5.5528Y-3.3465
X5.5528Y-3.6465
X5.5921Y-4.9409
X5.5921Y-5.2409
X5.6528Y-3.3465
X5.6528Y-3.6465
X5.6693Y-2.789
X5.6693Y-3.189
X5.6921Y-4.9409
X5.6921Y-5.2409
X5.7087Y-0.9252
X5.7087Y-1.2598
X5.7528Y-3.3465
X5.7528Y-3.6465
X5.7642Y-5.7776
X5.7642Y-6.0138
X5.7874Y-0.9252
X5.7874Y-1.2598
X5.7921Y-4.9409
X5.7921Y-5.2409
X5.8071Y-3.7992
X5.8071Y-4.1992
X5.8071Y-4.3933
X5.8071Y-4.7933
X5.8528Y-3.3465
X5.8528Y-3.6465
X5.8858Y-5.3937
X5.8858Y-5.7937
X5.8921Y-4.9409
X5.8921Y-5.2409
X5.9449Y-3.7992
X5.9449Y-4.1992
X5.9449Y-4.3933
X5.9449Y-4.7933
X5.9528Y-3.3465
X5.9528Y-3.6465
X5.9921Y-4.9409
X5.9921Y-5.2409
X6.0528Y-3.3465
X6.0528Y-3.6465
X6.0921Y-4.9409
X6.0921Y-5.2409
X6.7717Y-0.9449
X6.7717Y-1.2449
X6.7717Y-2.5197
X6.7717Y-2.8197
X6.7717Y-4.0945
X6.7717Y-4.3945
X6.7717Y-5.6693
X6.7717Y-5.9693
T2
X4.7244Y-7.0079
X4.8244Y-7.0079
X4.828Y-4.2701
X4.828Y-4.3701
X4.8622Y-1.8307
X4.8622Y-1.9291
X4.8622Y-2.0276
X4.8622Y-3.4055
X4.8622Y-3.5039
X4.8622Y-3.6024
X4.8622Y-4.9803
X4.8622Y-5.0787
X4.8622Y-5.1772
X4.8622Y-6.437
X4.8622Y-6.5354
X4.8622Y-6.6339
X4.9244Y-7.0079
X4.928Y-4.2701
X4.928Y-4.3701
X5.0244Y-7.0079
X5.028Y-4.2701
X5.028Y-4.3701
X5.1244Y-7.0079
X5.128Y-4.2701
X5.128Y-4.3701
X5.2244Y-7.0079
X5.228Y-4.2701
X5.228Y-4.3701
X5.3244Y-7.0079
X5.328Y-4.2701
X5.328Y-4.3701
X5.4244Y-7.0079
X5.428Y-4.2701
X5.428Y-4.3701
X5.5244Y-7.0079
X6.6339Y-1.0433
X6.6339Y-1.1417
X6.6339Y-1.2402
X6.6339Y-2.6181
X6.6339Y-2.7165
X6.6339Y-2.815
X6.6339Y-4.1929
X6.6339Y-4.2913
X6.6339Y-4.3898
X6.6339Y-5.7677
X6.6339Y-5.8661
X6.6339Y-5.9646
X6.7898Y-1.7717
X6.7898Y-1.8717
X6.7898Y-1.9717
X6.7898Y-2.0717
X6.7898Y-2.1717
X6.8898Y-1.7717
X6.8898Y-1.8717
X6.8898Y-1.9717
X6.8898Y-2.0717
X6.8898Y-2.1717
T3
X4.8425Y-1.0173
X4.8425Y-1.1173
X4.8425Y-1.2173
X4.8425Y-1.3173
X4.8425Y-1.4173
X4.9425Y-1.0173
X4.9425Y-1.1173
X4.9425Y-1.2173
X4.9425Y-1.3173
X4.9425Y-1.4173
T4
X5.2118Y-0.9252
X5.2118Y-1.2598
X5.5118Y-0.9252
X5.5118Y-1.2598
T5
X4.7638Y-5.6776
X4.7638Y-5.7776
X4.7638Y-5.9516
X4.7638Y-6.0516
X4.7638Y-6.1516
T6
X5.1575Y-1.7402
X5.1575Y-2.1181
X5.1575Y-3.315
X5.1575Y-3.6929
X5.1575Y-4.8898
X5.1575Y-5.2677
X5.1575Y-6.3465
X5.1575Y-6.7244
X6.3386Y-0.9528
X6.3386Y-1.3307
X6.3386Y-2.5276
X6.3386Y-2.9055
X6.3386Y-4.1024
X6.3386Y-4.4803
X6.3386Y-5.6772
X6.3386Y-6.0551
T7
X3.7913Y-6.5354
X3.9764Y-6.5354
X4.1614Y-6.5354
T0
M30
