M48
; DRILL file {KiCad 5.1.6-c6e7f7d~87~ubuntu20.04.1} date Thu Oct 29 23:20:06 2020
; FORMAT={-:-/ absolute / inch / decimal}
; #@! TF.CreationDate,2020-10-29T23:20:06-04:00
; #@! TF.GenerationSoftware,Kicad,Pcbnew,5.1.6-c6e7f7d~87~ubuntu20.04.1
; #@! TF.FileFunction,Plated,1,2,PTH
FMAT,2
INCH
T1C0.0394
T2C0.0472
T3C0.1063
%
G90
G05
T1
X9.0551Y-7.0079
X9.1551Y-7.0079
X9.2551Y-7.0079
X9.3551Y-7.0079
X9.4551Y-7.0079
X9.5551Y-7.0079
X9.6551Y-7.0079
X9.7551Y-7.0079
X9.8551Y-7.0079
T2
X9.4079Y-7.3327
X9.5079Y-7.3327
T3
X8.0551Y-5.7677
X8.1205Y-6.0528
X8.2874Y-5.6142
X8.4055Y-6.1181
X8.5591Y-5.8858
X8.0551Y-4.9803
X8.1205Y-5.2654
X8.2874Y-4.8268
X8.4055Y-5.3307
X8.5591Y-5.0984
X8.0551Y-1.8307
X8.1205Y-2.1157
X8.2874Y-1.6772
X8.4055Y-2.1811
X8.5591Y-1.9488
X10.4173Y-7.0276
X10.4827Y-7.3126
X10.6496Y-6.874
X10.7677Y-7.378
X10.9213Y-7.1457
X8.0551Y-3.4055
X8.1205Y-3.6906
X8.2874Y-3.252
X8.4055Y-3.7559
X8.5591Y-3.5236
X8.0551Y-7.0276
X8.1205Y-7.3126
X8.2874Y-6.874
X8.4055Y-7.378
X8.5591Y-7.1457
X8.0551Y-2.6181
X8.1205Y-2.9031
X8.2874Y-2.4646
X8.4055Y-2.9685
X8.5591Y-2.7362
X8.0551Y-4.1929
X8.1205Y-4.478
X8.2874Y-4.0394
X8.4055Y-4.5433
X8.5591Y-4.311
X8.0551Y-1.0433
X8.1205Y-1.3283
X8.2874Y-0.8898
X8.4055Y-1.3937
X8.5591Y-1.1614
T0
M30
