%TF.GenerationSoftware,KiCad,Pcbnew,5.1.10-88a1d61d58~90~ubuntu20.04.1*%
%TF.CreationDate,2021-09-21T22:42:19-04:00*%
%TF.ProjectId,waveshaper,77617665-7368-4617-9065-722e6b696361,rev?*%
%TF.SameCoordinates,Original*%
%TF.FileFunction,Legend,Bot*%
%TF.FilePolarity,Positive*%
%FSLAX46Y46*%
G04 Gerber Fmt 4.6, Leading zero omitted, Abs format (unit mm)*
G04 Created by KiCad (PCBNEW 5.1.10-88a1d61d58~90~ubuntu20.04.1) date 2021-09-21 22:42:19*
%MOMM*%
%LPD*%
G01*
G04 APERTURE LIST*
%ADD10C,0.150000*%
%ADD11C,0.120000*%
%ADD12C,0.100000*%
%ADD13C,0.010000*%
G04 APERTURE END LIST*
D10*
X171427904Y-57771428D02*
X170666000Y-57771428D01*
X171046952Y-58152380D02*
X171046952Y-57390476D01*
X169666000Y-58152380D02*
X170237428Y-58152380D01*
X169951714Y-58152380D02*
X169951714Y-57152380D01*
X170046952Y-57295238D01*
X170142190Y-57390476D01*
X170237428Y-57438095D01*
X169285047Y-57247619D02*
X169237428Y-57200000D01*
X169142190Y-57152380D01*
X168904095Y-57152380D01*
X168808857Y-57200000D01*
X168761238Y-57247619D01*
X168713619Y-57342857D01*
X168713619Y-57438095D01*
X168761238Y-57580952D01*
X169332666Y-58152380D01*
X168713619Y-58152380D01*
X168427904Y-57152380D02*
X168094571Y-58152380D01*
X167761238Y-57152380D01*
X171427904Y-42531428D02*
X170666000Y-42531428D01*
X169666000Y-42912380D02*
X170237428Y-42912380D01*
X169951714Y-42912380D02*
X169951714Y-41912380D01*
X170046952Y-42055238D01*
X170142190Y-42150476D01*
X170237428Y-42198095D01*
X169285047Y-42007619D02*
X169237428Y-41960000D01*
X169142190Y-41912380D01*
X168904095Y-41912380D01*
X168808857Y-41960000D01*
X168761238Y-42007619D01*
X168713619Y-42102857D01*
X168713619Y-42198095D01*
X168761238Y-42340952D01*
X169332666Y-42912380D01*
X168713619Y-42912380D01*
X168427904Y-41912380D02*
X168094571Y-42912380D01*
X167761238Y-41912380D01*
D11*
X172666285Y-77929428D02*
X171916285Y-77929428D01*
X172666285Y-78186571D02*
X172273428Y-78186571D01*
X172202000Y-78158000D01*
X172166285Y-78100857D01*
X172166285Y-78015142D01*
X172202000Y-77958000D01*
X172237714Y-77929428D01*
X172166285Y-78386571D02*
X172166285Y-78615142D01*
X171916285Y-78472285D02*
X172559142Y-78472285D01*
X172630571Y-78500857D01*
X172666285Y-78558000D01*
X172666285Y-78615142D01*
X172166285Y-78729428D02*
X172166285Y-78958000D01*
X171916285Y-78815142D02*
X172559142Y-78815142D01*
X172630571Y-78843714D01*
X172666285Y-78900857D01*
X172666285Y-78958000D01*
X172166285Y-79158000D02*
X172916285Y-79158000D01*
X172202000Y-79158000D02*
X172166285Y-79215142D01*
X172166285Y-79329428D01*
X172202000Y-79386571D01*
X172237714Y-79415142D01*
X172309142Y-79443714D01*
X172523428Y-79443714D01*
X172594857Y-79415142D01*
X172630571Y-79386571D01*
X172666285Y-79329428D01*
X172666285Y-79215142D01*
X172630571Y-79158000D01*
X172630571Y-79672285D02*
X172666285Y-79729428D01*
X172666285Y-79843714D01*
X172630571Y-79900857D01*
X172559142Y-79929428D01*
X172523428Y-79929428D01*
X172452000Y-79900857D01*
X172416285Y-79843714D01*
X172416285Y-79758000D01*
X172380571Y-79700857D01*
X172309142Y-79672285D01*
X172273428Y-79672285D01*
X172202000Y-79700857D01*
X172166285Y-79758000D01*
X172166285Y-79843714D01*
X172202000Y-79900857D01*
X172594857Y-80186571D02*
X172630571Y-80215142D01*
X172666285Y-80186571D01*
X172630571Y-80158000D01*
X172594857Y-80186571D01*
X172666285Y-80186571D01*
X172202000Y-80186571D02*
X172237714Y-80215142D01*
X172273428Y-80186571D01*
X172237714Y-80158000D01*
X172202000Y-80186571D01*
X172273428Y-80186571D01*
X171880571Y-80900857D02*
X172844857Y-80386571D01*
X171880571Y-81529428D02*
X172844857Y-81015142D01*
X172166285Y-81986571D02*
X172773428Y-81986571D01*
X172844857Y-81958000D01*
X172880571Y-81929428D01*
X172916285Y-81872285D01*
X172916285Y-81786571D01*
X172880571Y-81729428D01*
X172630571Y-81986571D02*
X172666285Y-81929428D01*
X172666285Y-81815142D01*
X172630571Y-81758000D01*
X172594857Y-81729428D01*
X172523428Y-81700857D01*
X172309142Y-81700857D01*
X172237714Y-81729428D01*
X172202000Y-81758000D01*
X172166285Y-81815142D01*
X172166285Y-81929428D01*
X172202000Y-81986571D01*
X172666285Y-82272285D02*
X172166285Y-82272285D01*
X171916285Y-82272285D02*
X171952000Y-82243714D01*
X171987714Y-82272285D01*
X171952000Y-82300857D01*
X171916285Y-82272285D01*
X171987714Y-82272285D01*
X172166285Y-82472285D02*
X172166285Y-82700857D01*
X171916285Y-82558000D02*
X172559142Y-82558000D01*
X172630571Y-82586571D01*
X172666285Y-82643714D01*
X172666285Y-82700857D01*
X172666285Y-82900857D02*
X171916285Y-82900857D01*
X172666285Y-83158000D02*
X172273428Y-83158000D01*
X172202000Y-83129428D01*
X172166285Y-83072285D01*
X172166285Y-82986571D01*
X172202000Y-82929428D01*
X172237714Y-82900857D01*
X172166285Y-83700857D02*
X172666285Y-83700857D01*
X172166285Y-83443714D02*
X172559142Y-83443714D01*
X172630571Y-83472285D01*
X172666285Y-83529428D01*
X172666285Y-83615142D01*
X172630571Y-83672285D01*
X172594857Y-83700857D01*
X172666285Y-83986571D02*
X171916285Y-83986571D01*
X172202000Y-83986571D02*
X172166285Y-84043714D01*
X172166285Y-84158000D01*
X172202000Y-84215142D01*
X172237714Y-84243714D01*
X172309142Y-84272285D01*
X172523428Y-84272285D01*
X172594857Y-84243714D01*
X172630571Y-84215142D01*
X172666285Y-84158000D01*
X172666285Y-84043714D01*
X172630571Y-83986571D01*
X172594857Y-84529428D02*
X172630571Y-84558000D01*
X172666285Y-84529428D01*
X172630571Y-84500857D01*
X172594857Y-84529428D01*
X172666285Y-84529428D01*
X172630571Y-85072285D02*
X172666285Y-85015142D01*
X172666285Y-84900857D01*
X172630571Y-84843714D01*
X172594857Y-84815142D01*
X172523428Y-84786571D01*
X172309142Y-84786571D01*
X172237714Y-84815142D01*
X172202000Y-84843714D01*
X172166285Y-84900857D01*
X172166285Y-85015142D01*
X172202000Y-85072285D01*
X172666285Y-85415142D02*
X172630571Y-85358000D01*
X172594857Y-85329428D01*
X172523428Y-85300857D01*
X172309142Y-85300857D01*
X172237714Y-85329428D01*
X172202000Y-85358000D01*
X172166285Y-85415142D01*
X172166285Y-85500857D01*
X172202000Y-85558000D01*
X172237714Y-85586571D01*
X172309142Y-85615142D01*
X172523428Y-85615142D01*
X172594857Y-85586571D01*
X172630571Y-85558000D01*
X172666285Y-85500857D01*
X172666285Y-85415142D01*
X172666285Y-85872285D02*
X172166285Y-85872285D01*
X172237714Y-85872285D02*
X172202000Y-85900857D01*
X172166285Y-85958000D01*
X172166285Y-86043714D01*
X172202000Y-86100857D01*
X172273428Y-86129428D01*
X172666285Y-86129428D01*
X172273428Y-86129428D02*
X172202000Y-86158000D01*
X172166285Y-86215142D01*
X172166285Y-86300857D01*
X172202000Y-86358000D01*
X172273428Y-86386571D01*
X172666285Y-86386571D01*
X171880571Y-87100857D02*
X172844857Y-86586571D01*
X172666285Y-87300857D02*
X171916285Y-87300857D01*
X172666285Y-87558000D02*
X172273428Y-87558000D01*
X172202000Y-87529428D01*
X172166285Y-87472285D01*
X172166285Y-87386571D01*
X172202000Y-87329428D01*
X172237714Y-87300857D01*
X172666285Y-87929428D02*
X172630571Y-87872285D01*
X172594857Y-87843714D01*
X172523428Y-87815142D01*
X172309142Y-87815142D01*
X172237714Y-87843714D01*
X172202000Y-87872285D01*
X172166285Y-87929428D01*
X172166285Y-88015142D01*
X172202000Y-88072285D01*
X172237714Y-88100857D01*
X172309142Y-88129428D01*
X172523428Y-88129428D01*
X172594857Y-88100857D01*
X172630571Y-88072285D01*
X172666285Y-88015142D01*
X172666285Y-87929428D01*
X172666285Y-88472285D02*
X172630571Y-88415142D01*
X172559142Y-88386571D01*
X171916285Y-88386571D01*
X172666285Y-88700857D02*
X172166285Y-88700857D01*
X172237714Y-88700857D02*
X172202000Y-88729428D01*
X172166285Y-88786571D01*
X172166285Y-88872285D01*
X172202000Y-88929428D01*
X172273428Y-88958000D01*
X172666285Y-88958000D01*
X172273428Y-88958000D02*
X172202000Y-88986571D01*
X172166285Y-89043714D01*
X172166285Y-89129428D01*
X172202000Y-89186571D01*
X172273428Y-89215142D01*
X172666285Y-89215142D01*
X172630571Y-89729428D02*
X172666285Y-89672285D01*
X172666285Y-89558000D01*
X172630571Y-89500857D01*
X172559142Y-89472285D01*
X172273428Y-89472285D01*
X172202000Y-89500857D01*
X172166285Y-89558000D01*
X172166285Y-89672285D01*
X172202000Y-89729428D01*
X172273428Y-89758000D01*
X172344857Y-89758000D01*
X172416285Y-89472285D01*
X172630571Y-89986571D02*
X172666285Y-90043714D01*
X172666285Y-90158000D01*
X172630571Y-90215142D01*
X172559142Y-90243714D01*
X172523428Y-90243714D01*
X172452000Y-90215142D01*
X172416285Y-90158000D01*
X172416285Y-90072285D01*
X172380571Y-90015142D01*
X172309142Y-89986571D01*
X172273428Y-89986571D01*
X172202000Y-90015142D01*
X172166285Y-90072285D01*
X172166285Y-90158000D01*
X172202000Y-90215142D01*
X172666285Y-90500857D02*
X172166285Y-90500857D01*
X172309142Y-90500857D02*
X172237714Y-90529428D01*
X172202000Y-90558000D01*
X172166285Y-90615142D01*
X172166285Y-90672285D01*
X172666285Y-90872285D02*
X172166285Y-90872285D01*
X171916285Y-90872285D02*
X171952000Y-90843714D01*
X171987714Y-90872285D01*
X171952000Y-90900857D01*
X171916285Y-90872285D01*
X171987714Y-90872285D01*
X172630571Y-91415142D02*
X172666285Y-91358000D01*
X172666285Y-91243714D01*
X172630571Y-91186571D01*
X172594857Y-91158000D01*
X172523428Y-91129428D01*
X172309142Y-91129428D01*
X172237714Y-91158000D01*
X172202000Y-91186571D01*
X172166285Y-91243714D01*
X172166285Y-91358000D01*
X172202000Y-91415142D01*
X172666285Y-91672285D02*
X171916285Y-91672285D01*
X172666285Y-91929428D02*
X172273428Y-91929428D01*
X172202000Y-91900857D01*
X172166285Y-91843714D01*
X172166285Y-91758000D01*
X172202000Y-91700857D01*
X172237714Y-91672285D01*
X172666285Y-92472285D02*
X172273428Y-92472285D01*
X172202000Y-92443714D01*
X172166285Y-92386571D01*
X172166285Y-92272285D01*
X172202000Y-92215142D01*
X172630571Y-92472285D02*
X172666285Y-92415142D01*
X172666285Y-92272285D01*
X172630571Y-92215142D01*
X172559142Y-92186571D01*
X172487714Y-92186571D01*
X172416285Y-92215142D01*
X172380571Y-92272285D01*
X172380571Y-92415142D01*
X172344857Y-92472285D01*
X172666285Y-92758000D02*
X172166285Y-92758000D01*
X172309142Y-92758000D02*
X172237714Y-92786571D01*
X172202000Y-92815142D01*
X172166285Y-92872285D01*
X172166285Y-92929428D01*
X172666285Y-93386571D02*
X171916285Y-93386571D01*
X172630571Y-93386571D02*
X172666285Y-93329428D01*
X172666285Y-93215142D01*
X172630571Y-93158000D01*
X172594857Y-93129428D01*
X172523428Y-93100857D01*
X172309142Y-93100857D01*
X172237714Y-93129428D01*
X172202000Y-93158000D01*
X172166285Y-93215142D01*
X172166285Y-93329428D01*
X172202000Y-93386571D01*
X172630571Y-93643714D02*
X172666285Y-93700857D01*
X172666285Y-93815142D01*
X172630571Y-93872285D01*
X172559142Y-93900857D01*
X172523428Y-93900857D01*
X172452000Y-93872285D01*
X172416285Y-93815142D01*
X172416285Y-93729428D01*
X172380571Y-93672285D01*
X172309142Y-93643714D01*
X172273428Y-93643714D01*
X172202000Y-93672285D01*
X172166285Y-93729428D01*
X172166285Y-93815142D01*
X172202000Y-93872285D01*
X171880571Y-94586571D02*
X172844857Y-94072285D01*
X171916285Y-94729428D02*
X172666285Y-94872285D01*
X172130571Y-94986571D01*
X172666285Y-95100857D01*
X171916285Y-95243714D01*
X172666285Y-95729428D02*
X172273428Y-95729428D01*
X172202000Y-95700857D01*
X172166285Y-95643714D01*
X172166285Y-95529428D01*
X172202000Y-95472285D01*
X172630571Y-95729428D02*
X172666285Y-95672285D01*
X172666285Y-95529428D01*
X172630571Y-95472285D01*
X172559142Y-95443714D01*
X172487714Y-95443714D01*
X172416285Y-95472285D01*
X172380571Y-95529428D01*
X172380571Y-95672285D01*
X172344857Y-95729428D01*
X172166285Y-95958000D02*
X172666285Y-96100857D01*
X172166285Y-96243714D01*
X172630571Y-96700857D02*
X172666285Y-96643714D01*
X172666285Y-96529428D01*
X172630571Y-96472285D01*
X172559142Y-96443714D01*
X172273428Y-96443714D01*
X172202000Y-96472285D01*
X172166285Y-96529428D01*
X172166285Y-96643714D01*
X172202000Y-96700857D01*
X172273428Y-96729428D01*
X172344857Y-96729428D01*
X172416285Y-96443714D01*
X172630571Y-96958000D02*
X172666285Y-97043714D01*
X172666285Y-97186571D01*
X172630571Y-97243714D01*
X172594857Y-97272285D01*
X172523428Y-97300857D01*
X172452000Y-97300857D01*
X172380571Y-97272285D01*
X172344857Y-97243714D01*
X172309142Y-97186571D01*
X172273428Y-97072285D01*
X172237714Y-97015142D01*
X172202000Y-96986571D01*
X172130571Y-96958000D01*
X172059142Y-96958000D01*
X171987714Y-96986571D01*
X171952000Y-97015142D01*
X171916285Y-97072285D01*
X171916285Y-97215142D01*
X171952000Y-97300857D01*
X172666285Y-97558000D02*
X171916285Y-97558000D01*
X172666285Y-97815142D02*
X172273428Y-97815142D01*
X172202000Y-97786571D01*
X172166285Y-97729428D01*
X172166285Y-97643714D01*
X172202000Y-97586571D01*
X172237714Y-97558000D01*
X172666285Y-98358000D02*
X172273428Y-98358000D01*
X172202000Y-98329428D01*
X172166285Y-98272285D01*
X172166285Y-98158000D01*
X172202000Y-98100857D01*
X172630571Y-98358000D02*
X172666285Y-98300857D01*
X172666285Y-98158000D01*
X172630571Y-98100857D01*
X172559142Y-98072285D01*
X172487714Y-98072285D01*
X172416285Y-98100857D01*
X172380571Y-98158000D01*
X172380571Y-98300857D01*
X172344857Y-98358000D01*
X172166285Y-98643714D02*
X172916285Y-98643714D01*
X172202000Y-98643714D02*
X172166285Y-98700857D01*
X172166285Y-98815142D01*
X172202000Y-98872285D01*
X172237714Y-98900857D01*
X172309142Y-98929428D01*
X172523428Y-98929428D01*
X172594857Y-98900857D01*
X172630571Y-98872285D01*
X172666285Y-98815142D01*
X172666285Y-98700857D01*
X172630571Y-98643714D01*
X172630571Y-99415142D02*
X172666285Y-99358000D01*
X172666285Y-99243714D01*
X172630571Y-99186571D01*
X172559142Y-99158000D01*
X172273428Y-99158000D01*
X172202000Y-99186571D01*
X172166285Y-99243714D01*
X172166285Y-99358000D01*
X172202000Y-99415142D01*
X172273428Y-99443714D01*
X172344857Y-99443714D01*
X172416285Y-99158000D01*
X172666285Y-99700857D02*
X172166285Y-99700857D01*
X172309142Y-99700857D02*
X172237714Y-99729428D01*
X172202000Y-99758000D01*
X172166285Y-99815142D01*
X172166285Y-99872285D01*
D10*
X157656761Y-76429428D02*
X159656761Y-77029428D01*
X157656761Y-77629428D01*
X159656761Y-78486571D02*
X159561523Y-78315142D01*
X159466285Y-78229428D01*
X159275809Y-78143714D01*
X158704380Y-78143714D01*
X158513904Y-78229428D01*
X158418666Y-78315142D01*
X158323428Y-78486571D01*
X158323428Y-78743714D01*
X158418666Y-78915142D01*
X158513904Y-79000857D01*
X158704380Y-79086571D01*
X159275809Y-79086571D01*
X159466285Y-79000857D01*
X159561523Y-78915142D01*
X159656761Y-78743714D01*
X159656761Y-78486571D01*
X159656761Y-80115142D02*
X159561523Y-79943714D01*
X159371047Y-79858000D01*
X157656761Y-79858000D01*
X158323428Y-80543714D02*
X158323428Y-81229428D01*
X157656761Y-80800857D02*
X159371047Y-80800857D01*
X159561523Y-80886571D01*
X159656761Y-81058000D01*
X159656761Y-81229428D01*
X159656761Y-82600857D02*
X158609142Y-82600857D01*
X158418666Y-82515142D01*
X158323428Y-82343714D01*
X158323428Y-82000857D01*
X158418666Y-81829428D01*
X159561523Y-82600857D02*
X159656761Y-82429428D01*
X159656761Y-82000857D01*
X159561523Y-81829428D01*
X159371047Y-81743714D01*
X159180571Y-81743714D01*
X158990095Y-81829428D01*
X158894857Y-82000857D01*
X158894857Y-82429428D01*
X158799619Y-82600857D01*
X158323428Y-84229428D02*
X159942476Y-84229428D01*
X160132952Y-84143714D01*
X160228190Y-84058000D01*
X160323428Y-83886571D01*
X160323428Y-83629428D01*
X160228190Y-83458000D01*
X159561523Y-84229428D02*
X159656761Y-84058000D01*
X159656761Y-83715142D01*
X159561523Y-83543714D01*
X159466285Y-83458000D01*
X159275809Y-83372285D01*
X158704380Y-83372285D01*
X158513904Y-83458000D01*
X158418666Y-83543714D01*
X158323428Y-83715142D01*
X158323428Y-84058000D01*
X158418666Y-84229428D01*
X159561523Y-85772285D02*
X159656761Y-85600857D01*
X159656761Y-85258000D01*
X159561523Y-85086571D01*
X159371047Y-85000857D01*
X158609142Y-85000857D01*
X158418666Y-85086571D01*
X158323428Y-85258000D01*
X158323428Y-85600857D01*
X158418666Y-85772285D01*
X158609142Y-85858000D01*
X158799619Y-85858000D01*
X158990095Y-85000857D01*
X159466285Y-89029428D02*
X159561523Y-88943714D01*
X159656761Y-88686571D01*
X159656761Y-88515142D01*
X159561523Y-88258000D01*
X159371047Y-88086571D01*
X159180571Y-88000857D01*
X158799619Y-87915142D01*
X158513904Y-87915142D01*
X158132952Y-88000857D01*
X157942476Y-88086571D01*
X157752000Y-88258000D01*
X157656761Y-88515142D01*
X157656761Y-88686571D01*
X157752000Y-88943714D01*
X157847238Y-89029428D01*
X159656761Y-90058000D02*
X159561523Y-89886571D01*
X159466285Y-89800857D01*
X159275809Y-89715142D01*
X158704380Y-89715142D01*
X158513904Y-89800857D01*
X158418666Y-89886571D01*
X158323428Y-90058000D01*
X158323428Y-90315142D01*
X158418666Y-90486571D01*
X158513904Y-90572285D01*
X158704380Y-90658000D01*
X159275809Y-90658000D01*
X159466285Y-90572285D01*
X159561523Y-90486571D01*
X159656761Y-90315142D01*
X159656761Y-90058000D01*
X158323428Y-91429428D02*
X159656761Y-91429428D01*
X158513904Y-91429428D02*
X158418666Y-91515142D01*
X158323428Y-91686571D01*
X158323428Y-91943714D01*
X158418666Y-92115142D01*
X158609142Y-92200857D01*
X159656761Y-92200857D01*
X158323428Y-92800857D02*
X158323428Y-93486571D01*
X157656761Y-93058000D02*
X159371047Y-93058000D01*
X159561523Y-93143714D01*
X159656761Y-93315142D01*
X159656761Y-93486571D01*
X159656761Y-94086571D02*
X158323428Y-94086571D01*
X158704380Y-94086571D02*
X158513904Y-94172285D01*
X158418666Y-94258000D01*
X158323428Y-94429428D01*
X158323428Y-94600857D01*
X159656761Y-95458000D02*
X159561523Y-95286571D01*
X159466285Y-95200857D01*
X159275809Y-95115142D01*
X158704380Y-95115142D01*
X158513904Y-95200857D01*
X158418666Y-95286571D01*
X158323428Y-95458000D01*
X158323428Y-95715142D01*
X158418666Y-95886571D01*
X158513904Y-95972285D01*
X158704380Y-96058000D01*
X159275809Y-96058000D01*
X159466285Y-95972285D01*
X159561523Y-95886571D01*
X159656761Y-95715142D01*
X159656761Y-95458000D01*
X159656761Y-97086571D02*
X159561523Y-96915142D01*
X159371047Y-96829428D01*
X157656761Y-96829428D01*
X159656761Y-98029428D02*
X159561523Y-97858000D01*
X159371047Y-97772285D01*
X157656761Y-97772285D01*
X159561523Y-99400857D02*
X159656761Y-99229428D01*
X159656761Y-98886571D01*
X159561523Y-98715142D01*
X159371047Y-98629428D01*
X158609142Y-98629428D01*
X158418666Y-98715142D01*
X158323428Y-98886571D01*
X158323428Y-99229428D01*
X158418666Y-99400857D01*
X158609142Y-99486571D01*
X158799619Y-99486571D01*
X158990095Y-98629428D01*
X159656761Y-101029428D02*
X157656761Y-101029428D01*
X159561523Y-101029428D02*
X159656761Y-100858000D01*
X159656761Y-100515142D01*
X159561523Y-100343714D01*
X159466285Y-100258000D01*
X159275809Y-100172285D01*
X158704380Y-100172285D01*
X158513904Y-100258000D01*
X158418666Y-100343714D01*
X158323428Y-100515142D01*
X158323428Y-100858000D01*
X158418666Y-101029428D01*
X161473428Y-77329428D02*
X162806761Y-77329428D01*
X160711523Y-76900857D02*
X162140095Y-76472285D01*
X162140095Y-77586571D01*
X160806761Y-78615142D02*
X160806761Y-78786571D01*
X160902000Y-78958000D01*
X160997238Y-79043714D01*
X161187714Y-79129428D01*
X161568666Y-79215142D01*
X162044857Y-79215142D01*
X162425809Y-79129428D01*
X162616285Y-79043714D01*
X162711523Y-78958000D01*
X162806761Y-78786571D01*
X162806761Y-78615142D01*
X162711523Y-78443714D01*
X162616285Y-78358000D01*
X162425809Y-78272285D01*
X162044857Y-78186571D01*
X161568666Y-78186571D01*
X161187714Y-78272285D01*
X160997238Y-78358000D01*
X160902000Y-78443714D01*
X160806761Y-78615142D01*
X161473428Y-80758000D02*
X162806761Y-80758000D01*
X160711523Y-80329428D02*
X162140095Y-79900857D01*
X162140095Y-81015142D01*
X160806761Y-82472285D02*
X160806761Y-82129428D01*
X160902000Y-81958000D01*
X160997238Y-81872285D01*
X161282952Y-81700857D01*
X161663904Y-81615142D01*
X162425809Y-81615142D01*
X162616285Y-81700857D01*
X162711523Y-81786571D01*
X162806761Y-81958000D01*
X162806761Y-82300857D01*
X162711523Y-82472285D01*
X162616285Y-82558000D01*
X162425809Y-82643714D01*
X161949619Y-82643714D01*
X161759142Y-82558000D01*
X161663904Y-82472285D01*
X161568666Y-82300857D01*
X161568666Y-81958000D01*
X161663904Y-81786571D01*
X161759142Y-81700857D01*
X161949619Y-81615142D01*
X160806761Y-84615142D02*
X162806761Y-85043714D01*
X161378190Y-85386571D01*
X162806761Y-85729428D01*
X160806761Y-86158000D01*
X162806761Y-87615142D02*
X161759142Y-87615142D01*
X161568666Y-87529428D01*
X161473428Y-87358000D01*
X161473428Y-87015142D01*
X161568666Y-86843714D01*
X162711523Y-87615142D02*
X162806761Y-87443714D01*
X162806761Y-87015142D01*
X162711523Y-86843714D01*
X162521047Y-86758000D01*
X162330571Y-86758000D01*
X162140095Y-86843714D01*
X162044857Y-87015142D01*
X162044857Y-87443714D01*
X161949619Y-87615142D01*
X161473428Y-88300857D02*
X162806761Y-88729428D01*
X161473428Y-89158000D01*
X162711523Y-90529428D02*
X162806761Y-90358000D01*
X162806761Y-90015142D01*
X162711523Y-89843714D01*
X162521047Y-89758000D01*
X161759142Y-89758000D01*
X161568666Y-89843714D01*
X161473428Y-90015142D01*
X161473428Y-90358000D01*
X161568666Y-90529428D01*
X161759142Y-90615142D01*
X161949619Y-90615142D01*
X162140095Y-89758000D01*
X162711523Y-92672285D02*
X162806761Y-92929428D01*
X162806761Y-93358000D01*
X162711523Y-93529428D01*
X162616285Y-93615142D01*
X162425809Y-93700857D01*
X162235333Y-93700857D01*
X162044857Y-93615142D01*
X161949619Y-93529428D01*
X161854380Y-93358000D01*
X161759142Y-93015142D01*
X161663904Y-92843714D01*
X161568666Y-92758000D01*
X161378190Y-92672285D01*
X161187714Y-92672285D01*
X160997238Y-92758000D01*
X160902000Y-92843714D01*
X160806761Y-93015142D01*
X160806761Y-93443714D01*
X160902000Y-93700857D01*
X162806761Y-94472285D02*
X160806761Y-94472285D01*
X162806761Y-95243714D02*
X161759142Y-95243714D01*
X161568666Y-95158000D01*
X161473428Y-94986571D01*
X161473428Y-94729428D01*
X161568666Y-94558000D01*
X161663904Y-94472285D01*
X162806761Y-96872285D02*
X161759142Y-96872285D01*
X161568666Y-96786571D01*
X161473428Y-96615142D01*
X161473428Y-96272285D01*
X161568666Y-96100857D01*
X162711523Y-96872285D02*
X162806761Y-96700857D01*
X162806761Y-96272285D01*
X162711523Y-96100857D01*
X162521047Y-96015142D01*
X162330571Y-96015142D01*
X162140095Y-96100857D01*
X162044857Y-96272285D01*
X162044857Y-96700857D01*
X161949619Y-96872285D01*
X161473428Y-97729428D02*
X163473428Y-97729428D01*
X161568666Y-97729428D02*
X161473428Y-97900857D01*
X161473428Y-98243714D01*
X161568666Y-98415142D01*
X161663904Y-98500857D01*
X161854380Y-98586571D01*
X162425809Y-98586571D01*
X162616285Y-98500857D01*
X162711523Y-98415142D01*
X162806761Y-98243714D01*
X162806761Y-97900857D01*
X162711523Y-97729428D01*
X162711523Y-100043714D02*
X162806761Y-99872285D01*
X162806761Y-99529428D01*
X162711523Y-99358000D01*
X162521047Y-99272285D01*
X161759142Y-99272285D01*
X161568666Y-99358000D01*
X161473428Y-99529428D01*
X161473428Y-99872285D01*
X161568666Y-100043714D01*
X161759142Y-100129428D01*
X161949619Y-100129428D01*
X162140095Y-99272285D01*
X162806761Y-100900857D02*
X161473428Y-100900857D01*
X161854380Y-100900857D02*
X161663904Y-100986571D01*
X161568666Y-101072285D01*
X161473428Y-101243714D01*
X161473428Y-101415142D01*
D12*
X125952857Y-180758571D02*
X125381428Y-180758571D01*
X125667142Y-181044285D02*
X125667142Y-180472857D01*
X125095714Y-180294285D02*
X124631428Y-180294285D01*
X124881428Y-180580000D01*
X124774285Y-180580000D01*
X124702857Y-180615714D01*
X124667142Y-180651428D01*
X124631428Y-180722857D01*
X124631428Y-180901428D01*
X124667142Y-180972857D01*
X124702857Y-181008571D01*
X124774285Y-181044285D01*
X124988571Y-181044285D01*
X125060000Y-181008571D01*
X125095714Y-180972857D01*
X124091428Y-180758571D02*
X123520000Y-180758571D01*
X123805714Y-181044285D02*
X123805714Y-180472857D01*
X122770000Y-181044285D02*
X123198571Y-181044285D01*
X122984285Y-181044285D02*
X122984285Y-180294285D01*
X123055714Y-180401428D01*
X123127142Y-180472857D01*
X123198571Y-180508571D01*
X122484285Y-180365714D02*
X122448571Y-180330000D01*
X122377142Y-180294285D01*
X122198571Y-180294285D01*
X122127142Y-180330000D01*
X122091428Y-180365714D01*
X122055714Y-180437142D01*
X122055714Y-180508571D01*
X122091428Y-180615714D01*
X122520000Y-181044285D01*
X122055714Y-181044285D01*
X121841428Y-180294285D02*
X121591428Y-181044285D01*
X121341428Y-180294285D01*
X132965714Y-180294285D02*
X132894285Y-180294285D01*
X132822857Y-180330000D01*
X132787142Y-180365714D01*
X132751428Y-180437142D01*
X132715714Y-180580000D01*
X132715714Y-180758571D01*
X132751428Y-180901428D01*
X132787142Y-180972857D01*
X132822857Y-181008571D01*
X132894285Y-181044285D01*
X132965714Y-181044285D01*
X133037142Y-181008571D01*
X133072857Y-180972857D01*
X133108571Y-180901428D01*
X133144285Y-180758571D01*
X133144285Y-180580000D01*
X133108571Y-180437142D01*
X133072857Y-180365714D01*
X133037142Y-180330000D01*
X132965714Y-180294285D01*
X131032857Y-180758571D02*
X130461428Y-180758571D01*
X130747142Y-181044285D02*
X130747142Y-180472857D01*
X129711428Y-181044285D02*
X130140000Y-181044285D01*
X129925714Y-181044285D02*
X129925714Y-180294285D01*
X129997142Y-180401428D01*
X130068571Y-180472857D01*
X130140000Y-180508571D01*
X136112857Y-180758571D02*
X135541428Y-180758571D01*
X134791428Y-181044285D02*
X135220000Y-181044285D01*
X135005714Y-181044285D02*
X135005714Y-180294285D01*
X135077142Y-180401428D01*
X135148571Y-180472857D01*
X135220000Y-180508571D01*
X138652857Y-180758571D02*
X138081428Y-180758571D01*
X137760000Y-180365714D02*
X137724285Y-180330000D01*
X137652857Y-180294285D01*
X137474285Y-180294285D01*
X137402857Y-180330000D01*
X137367142Y-180365714D01*
X137331428Y-180437142D01*
X137331428Y-180508571D01*
X137367142Y-180615714D01*
X137795714Y-181044285D01*
X137331428Y-181044285D01*
X141192857Y-180758571D02*
X140621428Y-180758571D01*
X140335714Y-180294285D02*
X139871428Y-180294285D01*
X140121428Y-180580000D01*
X140014285Y-180580000D01*
X139942857Y-180615714D01*
X139907142Y-180651428D01*
X139871428Y-180722857D01*
X139871428Y-180901428D01*
X139907142Y-180972857D01*
X139942857Y-181008571D01*
X140014285Y-181044285D01*
X140228571Y-181044285D01*
X140300000Y-181008571D01*
X140335714Y-180972857D01*
X120166428Y-180330000D02*
X120237857Y-180294285D01*
X120345000Y-180294285D01*
X120452142Y-180330000D01*
X120523571Y-180401428D01*
X120559285Y-180472857D01*
X120595000Y-180615714D01*
X120595000Y-180722857D01*
X120559285Y-180865714D01*
X120523571Y-180937142D01*
X120452142Y-181008571D01*
X120345000Y-181044285D01*
X120273571Y-181044285D01*
X120166428Y-181008571D01*
X120130714Y-180972857D01*
X120130714Y-180722857D01*
X120273571Y-180722857D01*
X119809285Y-181044285D02*
X119809285Y-180294285D01*
X119380714Y-181044285D01*
X119380714Y-180294285D01*
X119023571Y-181044285D02*
X119023571Y-180294285D01*
X118845000Y-180294285D01*
X118737857Y-180330000D01*
X118666428Y-180401428D01*
X118630714Y-180472857D01*
X118595000Y-180615714D01*
X118595000Y-180722857D01*
X118630714Y-180865714D01*
X118666428Y-180937142D01*
X118737857Y-181008571D01*
X118845000Y-181044285D01*
X119023571Y-181044285D01*
X128492857Y-180758571D02*
X127921428Y-180758571D01*
X128207142Y-181044285D02*
X128207142Y-180472857D01*
X127600000Y-180365714D02*
X127564285Y-180330000D01*
X127492857Y-180294285D01*
X127314285Y-180294285D01*
X127242857Y-180330000D01*
X127207142Y-180365714D01*
X127171428Y-180437142D01*
X127171428Y-180508571D01*
X127207142Y-180615714D01*
X127635714Y-181044285D01*
X127171428Y-181044285D01*
D10*
X144436380Y-110452380D02*
X143436380Y-110452380D01*
X144150666Y-110785714D01*
X143436380Y-111119047D01*
X144436380Y-111119047D01*
X144436380Y-111595238D02*
X143436380Y-111595238D01*
X143436380Y-111976190D02*
X144436380Y-112642857D01*
X143436380Y-112642857D02*
X144436380Y-111976190D01*
X144436380Y-107321428D02*
X143960190Y-106988095D01*
X144436380Y-106750000D02*
X143436380Y-106750000D01*
X143436380Y-107130952D01*
X143484000Y-107226190D01*
X143531619Y-107273809D01*
X143626857Y-107321428D01*
X143769714Y-107321428D01*
X143864952Y-107273809D01*
X143912571Y-107226190D01*
X143960190Y-107130952D01*
X143960190Y-106750000D01*
X144436380Y-107750000D02*
X143436380Y-107750000D01*
X144436380Y-108226190D02*
X143436380Y-108226190D01*
X143436380Y-108607142D01*
X143484000Y-108702380D01*
X143531619Y-108750000D01*
X143626857Y-108797619D01*
X143769714Y-108797619D01*
X143864952Y-108750000D01*
X143912571Y-108702380D01*
X143960190Y-108607142D01*
X143960190Y-108226190D01*
X139357142Y-118343571D02*
X138785714Y-118343571D01*
X138464285Y-117950714D02*
X138428571Y-117915000D01*
X138357142Y-117879285D01*
X138178571Y-117879285D01*
X138107142Y-117915000D01*
X138071428Y-117950714D01*
X138035714Y-118022142D01*
X138035714Y-118093571D01*
X138071428Y-118200714D01*
X138500000Y-118629285D01*
X138035714Y-118629285D01*
X136571428Y-118343571D02*
X136000000Y-118343571D01*
X135250000Y-118629285D02*
X135678571Y-118629285D01*
X135464285Y-118629285D02*
X135464285Y-117879285D01*
X135535714Y-117986428D01*
X135607142Y-118057857D01*
X135678571Y-118093571D01*
X133785714Y-118343571D02*
X133214285Y-118343571D01*
X132928571Y-117879285D02*
X132464285Y-117879285D01*
X132714285Y-118165000D01*
X132607142Y-118165000D01*
X132535714Y-118200714D01*
X132500000Y-118236428D01*
X132464285Y-118307857D01*
X132464285Y-118486428D01*
X132500000Y-118557857D01*
X132535714Y-118593571D01*
X132607142Y-118629285D01*
X132821428Y-118629285D01*
X132892857Y-118593571D01*
X132928571Y-118557857D01*
X130285714Y-117879285D02*
X130214285Y-117879285D01*
X130142857Y-117915000D01*
X130107142Y-117950714D01*
X130071428Y-118022142D01*
X130035714Y-118165000D01*
X130035714Y-118343571D01*
X130071428Y-118486428D01*
X130107142Y-118557857D01*
X130142857Y-118593571D01*
X130214285Y-118629285D01*
X130285714Y-118629285D01*
X130357142Y-118593571D01*
X130392857Y-118557857D01*
X130428571Y-118486428D01*
X130464285Y-118343571D01*
X130464285Y-118165000D01*
X130428571Y-118022142D01*
X130392857Y-117950714D01*
X130357142Y-117915000D01*
X130285714Y-117879285D01*
X128571428Y-118343571D02*
X128000000Y-118343571D01*
X128285714Y-118629285D02*
X128285714Y-118057857D01*
X127250000Y-118629285D02*
X127678571Y-118629285D01*
X127464285Y-118629285D02*
X127464285Y-117879285D01*
X127535714Y-117986428D01*
X127607142Y-118057857D01*
X127678571Y-118093571D01*
X125785714Y-118343571D02*
X125214285Y-118343571D01*
X125500000Y-118629285D02*
X125500000Y-118057857D01*
X124892857Y-117950714D02*
X124857142Y-117915000D01*
X124785714Y-117879285D01*
X124607142Y-117879285D01*
X124535714Y-117915000D01*
X124500000Y-117950714D01*
X124464285Y-118022142D01*
X124464285Y-118093571D01*
X124500000Y-118200714D01*
X124928571Y-118629285D01*
X124464285Y-118629285D01*
X123000000Y-118343571D02*
X122428571Y-118343571D01*
X122714285Y-118629285D02*
X122714285Y-118057857D01*
X122142857Y-117879285D02*
X121678571Y-117879285D01*
X121928571Y-118165000D01*
X121821428Y-118165000D01*
X121750000Y-118200714D01*
X121714285Y-118236428D01*
X121678571Y-118307857D01*
X121678571Y-118486428D01*
X121714285Y-118557857D01*
X121750000Y-118593571D01*
X121821428Y-118629285D01*
X122035714Y-118629285D01*
X122107142Y-118593571D01*
X122142857Y-118557857D01*
X128674524Y-148392380D02*
X128674524Y-147392380D01*
X128674524Y-147868571D02*
X128103095Y-147868571D01*
X128103095Y-148392380D02*
X128103095Y-147392380D01*
X127626905Y-148392380D02*
X127626905Y-147392380D01*
X126626905Y-147440000D02*
X126722143Y-147392380D01*
X126865000Y-147392380D01*
X127007857Y-147440000D01*
X127103095Y-147535238D01*
X127150714Y-147630476D01*
X127198333Y-147820952D01*
X127198333Y-147963809D01*
X127150714Y-148154285D01*
X127103095Y-148249523D01*
X127007857Y-148344761D01*
X126865000Y-148392380D01*
X126769762Y-148392380D01*
X126626905Y-148344761D01*
X126579285Y-148297142D01*
X126579285Y-147963809D01*
X126769762Y-147963809D01*
X126150714Y-148392380D02*
X126150714Y-147392380D01*
X126150714Y-147868571D02*
X125579285Y-147868571D01*
X125579285Y-148392380D02*
X125579285Y-147392380D01*
X128960238Y-150844761D02*
X128817381Y-150892380D01*
X128579286Y-150892380D01*
X128484048Y-150844761D01*
X128436429Y-150797142D01*
X128388810Y-150701904D01*
X128388810Y-150606666D01*
X128436429Y-150511428D01*
X128484048Y-150463809D01*
X128579286Y-150416190D01*
X128769762Y-150368571D01*
X128865000Y-150320952D01*
X128912619Y-150273333D01*
X128960238Y-150178095D01*
X128960238Y-150082857D01*
X128912619Y-149987619D01*
X128865000Y-149940000D01*
X128769762Y-149892380D01*
X128531667Y-149892380D01*
X128388810Y-149940000D01*
X127484048Y-150892380D02*
X127960238Y-150892380D01*
X127960238Y-149892380D01*
X127150714Y-150368571D02*
X126817381Y-150368571D01*
X126674524Y-150892380D02*
X127150714Y-150892380D01*
X127150714Y-149892380D01*
X126674524Y-149892380D01*
X126341191Y-149892380D02*
X126103095Y-150892380D01*
X125912619Y-150178095D01*
X125722143Y-150892380D01*
X125484048Y-149892380D01*
X128150714Y-152892380D02*
X128150714Y-151892380D01*
X127817380Y-152606666D01*
X127484047Y-151892380D01*
X127484047Y-152892380D01*
X127007857Y-152368571D02*
X126674523Y-152368571D01*
X126531666Y-152892380D02*
X127007857Y-152892380D01*
X127007857Y-151892380D01*
X126531666Y-151892380D01*
X126103095Y-152892380D02*
X126103095Y-151892380D01*
X125865000Y-151892380D01*
X125722142Y-151940000D01*
X125626904Y-152035238D01*
X125579285Y-152130476D01*
X125531666Y-152320952D01*
X125531666Y-152463809D01*
X125579285Y-152654285D01*
X125626904Y-152749523D01*
X125722142Y-152844761D01*
X125865000Y-152892380D01*
X126103095Y-152892380D01*
X129722143Y-142392380D02*
X129484048Y-143392380D01*
X129293572Y-142678095D01*
X129103096Y-143392380D01*
X128865000Y-142392380D01*
X128484048Y-143392380D02*
X128484048Y-142392380D01*
X128007857Y-143392380D02*
X128007857Y-142392380D01*
X127626905Y-142392380D01*
X127531667Y-142440000D01*
X127484048Y-142487619D01*
X127436429Y-142582857D01*
X127436429Y-142725714D01*
X127484048Y-142820952D01*
X127531667Y-142868571D01*
X127626905Y-142916190D01*
X128007857Y-142916190D01*
X127007857Y-142868571D02*
X126674524Y-142868571D01*
X126531667Y-143392380D02*
X127007857Y-143392380D01*
X127007857Y-142392380D01*
X126531667Y-142392380D01*
X125531667Y-143392380D02*
X125865000Y-142916190D01*
X126103096Y-143392380D02*
X126103096Y-142392380D01*
X125722143Y-142392380D01*
X125626905Y-142440000D01*
X125579286Y-142487619D01*
X125531667Y-142582857D01*
X125531667Y-142725714D01*
X125579286Y-142820952D01*
X125626905Y-142868571D01*
X125722143Y-142916190D01*
X126103096Y-142916190D01*
X127674523Y-140297142D02*
X127722142Y-140344761D01*
X127864999Y-140392380D01*
X127960238Y-140392380D01*
X128103095Y-140344761D01*
X128198333Y-140249523D01*
X128245952Y-140154285D01*
X128293571Y-139963809D01*
X128293571Y-139820952D01*
X128245952Y-139630476D01*
X128198333Y-139535238D01*
X128103095Y-139440000D01*
X127960238Y-139392380D01*
X127864999Y-139392380D01*
X127722142Y-139440000D01*
X127674523Y-139487619D01*
X126674523Y-140297142D02*
X126722142Y-140344761D01*
X126864999Y-140392380D01*
X126960238Y-140392380D01*
X127103095Y-140344761D01*
X127198333Y-140249523D01*
X127245952Y-140154285D01*
X127293571Y-139963809D01*
X127293571Y-139820952D01*
X127245952Y-139630476D01*
X127198333Y-139535238D01*
X127103095Y-139440000D01*
X126960238Y-139392380D01*
X126864999Y-139392380D01*
X126722142Y-139440000D01*
X126674523Y-139487619D01*
X126341190Y-139392380D02*
X126103095Y-140392380D01*
X125912619Y-139678095D01*
X125722142Y-140392380D01*
X125484047Y-139392380D01*
X164304380Y-79524666D02*
X165304380Y-79858000D01*
X164304380Y-80191333D01*
X165209142Y-81096095D02*
X165256761Y-81048476D01*
X165304380Y-80905619D01*
X165304380Y-80810380D01*
X165256761Y-80667523D01*
X165161523Y-80572285D01*
X165066285Y-80524666D01*
X164875809Y-80477047D01*
X164732952Y-80477047D01*
X164542476Y-80524666D01*
X164447238Y-80572285D01*
X164352000Y-80667523D01*
X164304380Y-80810380D01*
X164304380Y-80905619D01*
X164352000Y-81048476D01*
X164399619Y-81096095D01*
X165018666Y-81477047D02*
X165018666Y-81953238D01*
X165304380Y-81381809D02*
X164304380Y-81715142D01*
X165304380Y-82048476D01*
X164256761Y-83096095D02*
X165542476Y-82238952D01*
X164637714Y-83429428D02*
X165637714Y-83429428D01*
X164685333Y-83429428D02*
X164637714Y-83524666D01*
X164637714Y-83715142D01*
X164685333Y-83810380D01*
X164732952Y-83858000D01*
X164828190Y-83905619D01*
X165113904Y-83905619D01*
X165209142Y-83858000D01*
X165256761Y-83810380D01*
X165304380Y-83715142D01*
X165304380Y-83524666D01*
X165256761Y-83429428D01*
X165304380Y-84477047D02*
X165256761Y-84381809D01*
X165209142Y-84334190D01*
X165113904Y-84286571D01*
X164828190Y-84286571D01*
X164732952Y-84334190D01*
X164685333Y-84381809D01*
X164637714Y-84477047D01*
X164637714Y-84619904D01*
X164685333Y-84715142D01*
X164732952Y-84762761D01*
X164828190Y-84810380D01*
X165113904Y-84810380D01*
X165209142Y-84762761D01*
X165256761Y-84715142D01*
X165304380Y-84619904D01*
X165304380Y-84477047D01*
X164637714Y-85096095D02*
X164637714Y-85477047D01*
X164304380Y-85238952D02*
X165161523Y-85238952D01*
X165256761Y-85286571D01*
X165304380Y-85381809D01*
X165304380Y-85477047D01*
X164256761Y-86524666D02*
X165542476Y-85667523D01*
X165256761Y-86810380D02*
X165304380Y-86905619D01*
X165304380Y-87096095D01*
X165256761Y-87191333D01*
X165161523Y-87238952D01*
X165113904Y-87238952D01*
X165018666Y-87191333D01*
X164971047Y-87096095D01*
X164971047Y-86953238D01*
X164923428Y-86858000D01*
X164828190Y-86810380D01*
X164780571Y-86810380D01*
X164685333Y-86858000D01*
X164637714Y-86953238D01*
X164637714Y-87096095D01*
X164685333Y-87191333D01*
X164637714Y-87572285D02*
X165304380Y-87762761D01*
X164828190Y-87953238D01*
X165304380Y-88143714D01*
X164637714Y-88334190D01*
X165304380Y-88715142D02*
X164637714Y-88715142D01*
X164304380Y-88715142D02*
X164352000Y-88667523D01*
X164399619Y-88715142D01*
X164352000Y-88762761D01*
X164304380Y-88715142D01*
X164399619Y-88715142D01*
X164637714Y-89048476D02*
X164637714Y-89429428D01*
X164304380Y-89191333D02*
X165161523Y-89191333D01*
X165256761Y-89238952D01*
X165304380Y-89334190D01*
X165304380Y-89429428D01*
X165256761Y-90191333D02*
X165304380Y-90096095D01*
X165304380Y-89905619D01*
X165256761Y-89810380D01*
X165209142Y-89762761D01*
X165113904Y-89715142D01*
X164828190Y-89715142D01*
X164732952Y-89762761D01*
X164685333Y-89810380D01*
X164637714Y-89905619D01*
X164637714Y-90096095D01*
X164685333Y-90191333D01*
X165304380Y-90619904D02*
X164304380Y-90619904D01*
X165304380Y-91048476D02*
X164780571Y-91048476D01*
X164685333Y-91000857D01*
X164637714Y-90905619D01*
X164637714Y-90762761D01*
X164685333Y-90667523D01*
X164732952Y-90619904D01*
X165304380Y-92286571D02*
X164304380Y-92286571D01*
X164685333Y-92286571D02*
X164637714Y-92381809D01*
X164637714Y-92572285D01*
X164685333Y-92667523D01*
X164732952Y-92715142D01*
X164828190Y-92762761D01*
X165113904Y-92762761D01*
X165209142Y-92715142D01*
X165256761Y-92667523D01*
X165304380Y-92572285D01*
X165304380Y-92381809D01*
X165256761Y-92286571D01*
X165304380Y-93334190D02*
X165256761Y-93238952D01*
X165209142Y-93191333D01*
X165113904Y-93143714D01*
X164828190Y-93143714D01*
X164732952Y-93191333D01*
X164685333Y-93238952D01*
X164637714Y-93334190D01*
X164637714Y-93477047D01*
X164685333Y-93572285D01*
X164732952Y-93619904D01*
X164828190Y-93667523D01*
X165113904Y-93667523D01*
X165209142Y-93619904D01*
X165256761Y-93572285D01*
X165304380Y-93477047D01*
X165304380Y-93334190D01*
X165304380Y-94524666D02*
X164780571Y-94524666D01*
X164685333Y-94477047D01*
X164637714Y-94381809D01*
X164637714Y-94191333D01*
X164685333Y-94096095D01*
X165256761Y-94524666D02*
X165304380Y-94429428D01*
X165304380Y-94191333D01*
X165256761Y-94096095D01*
X165161523Y-94048476D01*
X165066285Y-94048476D01*
X164971047Y-94096095D01*
X164923428Y-94191333D01*
X164923428Y-94429428D01*
X164875809Y-94524666D01*
X165304380Y-95000857D02*
X164637714Y-95000857D01*
X164828190Y-95000857D02*
X164732952Y-95048476D01*
X164685333Y-95096095D01*
X164637714Y-95191333D01*
X164637714Y-95286571D01*
X165304380Y-96048476D02*
X164304380Y-96048476D01*
X165256761Y-96048476D02*
X165304380Y-95953238D01*
X165304380Y-95762761D01*
X165256761Y-95667523D01*
X165209142Y-95619904D01*
X165113904Y-95572285D01*
X164828190Y-95572285D01*
X164732952Y-95619904D01*
X164685333Y-95667523D01*
X164637714Y-95762761D01*
X164637714Y-95953238D01*
X164685333Y-96048476D01*
X166954380Y-83929428D02*
X166478190Y-83596095D01*
X166954380Y-83358000D02*
X165954380Y-83358000D01*
X165954380Y-83738952D01*
X166002000Y-83834190D01*
X166049619Y-83881809D01*
X166144857Y-83929428D01*
X166287714Y-83929428D01*
X166382952Y-83881809D01*
X166430571Y-83834190D01*
X166478190Y-83738952D01*
X166478190Y-83358000D01*
X166954380Y-84358000D02*
X166287714Y-84358000D01*
X165954380Y-84358000D02*
X166002000Y-84310380D01*
X166049619Y-84358000D01*
X166002000Y-84405619D01*
X165954380Y-84358000D01*
X166049619Y-84358000D01*
X166906761Y-85262761D02*
X166954380Y-85167523D01*
X166954380Y-84977047D01*
X166906761Y-84881809D01*
X166859142Y-84834190D01*
X166763904Y-84786571D01*
X166478190Y-84786571D01*
X166382952Y-84834190D01*
X166335333Y-84881809D01*
X166287714Y-84977047D01*
X166287714Y-85167523D01*
X166335333Y-85262761D01*
X166954380Y-85691333D02*
X165954380Y-85691333D01*
X166954380Y-86119904D02*
X166430571Y-86119904D01*
X166335333Y-86072285D01*
X166287714Y-85977047D01*
X166287714Y-85834190D01*
X166335333Y-85738952D01*
X166382952Y-85691333D01*
X166954380Y-87358000D02*
X165954380Y-87358000D01*
X166430571Y-87358000D02*
X166430571Y-87929428D01*
X166954380Y-87929428D02*
X165954380Y-87929428D01*
X166954380Y-88548476D02*
X166906761Y-88453238D01*
X166859142Y-88405619D01*
X166763904Y-88358000D01*
X166478190Y-88358000D01*
X166382952Y-88405619D01*
X166335333Y-88453238D01*
X166287714Y-88548476D01*
X166287714Y-88691333D01*
X166335333Y-88786571D01*
X166382952Y-88834190D01*
X166478190Y-88881809D01*
X166763904Y-88881809D01*
X166859142Y-88834190D01*
X166906761Y-88786571D01*
X166954380Y-88691333D01*
X166954380Y-88548476D01*
X166954380Y-89453238D02*
X166906761Y-89358000D01*
X166811523Y-89310380D01*
X165954380Y-89310380D01*
X166954380Y-89834190D02*
X166287714Y-89834190D01*
X166382952Y-89834190D02*
X166335333Y-89881809D01*
X166287714Y-89977047D01*
X166287714Y-90119904D01*
X166335333Y-90215142D01*
X166430571Y-90262761D01*
X166954380Y-90262761D01*
X166430571Y-90262761D02*
X166335333Y-90310380D01*
X166287714Y-90405619D01*
X166287714Y-90548476D01*
X166335333Y-90643714D01*
X166430571Y-90691333D01*
X166954380Y-90691333D01*
X166906761Y-91548476D02*
X166954380Y-91453238D01*
X166954380Y-91262761D01*
X166906761Y-91167523D01*
X166811523Y-91119904D01*
X166430571Y-91119904D01*
X166335333Y-91167523D01*
X166287714Y-91262761D01*
X166287714Y-91453238D01*
X166335333Y-91548476D01*
X166430571Y-91596095D01*
X166525809Y-91596095D01*
X166621047Y-91119904D01*
X166906761Y-91977047D02*
X166954380Y-92072285D01*
X166954380Y-92262761D01*
X166906761Y-92358000D01*
X166811523Y-92405619D01*
X166763904Y-92405619D01*
X166668666Y-92358000D01*
X166621047Y-92262761D01*
X166621047Y-92119904D01*
X166573428Y-92024666D01*
X166478190Y-91977047D01*
X166430571Y-91977047D01*
X166335333Y-92024666D01*
X166287714Y-92119904D01*
X166287714Y-92262761D01*
X166335333Y-92358000D01*
X168556761Y-84405619D02*
X168604380Y-84548476D01*
X168604380Y-84786571D01*
X168556761Y-84881809D01*
X168509142Y-84929428D01*
X168413904Y-84977047D01*
X168318666Y-84977047D01*
X168223428Y-84929428D01*
X168175809Y-84881809D01*
X168128190Y-84786571D01*
X168080571Y-84596095D01*
X168032952Y-84500857D01*
X167985333Y-84453238D01*
X167890095Y-84405619D01*
X167794857Y-84405619D01*
X167699619Y-84453238D01*
X167652000Y-84500857D01*
X167604380Y-84596095D01*
X167604380Y-84834190D01*
X167652000Y-84977047D01*
X168556761Y-85786571D02*
X168604380Y-85691333D01*
X168604380Y-85500857D01*
X168556761Y-85405619D01*
X168461523Y-85358000D01*
X168080571Y-85358000D01*
X167985333Y-85405619D01*
X167937714Y-85500857D01*
X167937714Y-85691333D01*
X167985333Y-85786571D01*
X168080571Y-85834190D01*
X168175809Y-85834190D01*
X168271047Y-85358000D01*
X167937714Y-86262761D02*
X168937714Y-86262761D01*
X167985333Y-86262761D02*
X167937714Y-86358000D01*
X167937714Y-86548476D01*
X167985333Y-86643714D01*
X168032952Y-86691333D01*
X168128190Y-86738952D01*
X168413904Y-86738952D01*
X168509142Y-86691333D01*
X168556761Y-86643714D01*
X168604380Y-86548476D01*
X168604380Y-86358000D01*
X168556761Y-86262761D01*
X167699619Y-87881809D02*
X167652000Y-87929428D01*
X167604380Y-88024666D01*
X167604380Y-88262761D01*
X167652000Y-88358000D01*
X167699619Y-88405619D01*
X167794857Y-88453238D01*
X167890095Y-88453238D01*
X168032952Y-88405619D01*
X168604380Y-87834190D01*
X168604380Y-88453238D01*
X167604380Y-89072285D02*
X167604380Y-89167523D01*
X167652000Y-89262761D01*
X167699619Y-89310380D01*
X167794857Y-89358000D01*
X167985333Y-89405619D01*
X168223428Y-89405619D01*
X168413904Y-89358000D01*
X168509142Y-89310380D01*
X168556761Y-89262761D01*
X168604380Y-89167523D01*
X168604380Y-89072285D01*
X168556761Y-88977047D01*
X168509142Y-88929428D01*
X168413904Y-88881809D01*
X168223428Y-88834190D01*
X167985333Y-88834190D01*
X167794857Y-88881809D01*
X167699619Y-88929428D01*
X167652000Y-88977047D01*
X167604380Y-89072285D01*
X167699619Y-89786571D02*
X167652000Y-89834190D01*
X167604380Y-89929428D01*
X167604380Y-90167523D01*
X167652000Y-90262761D01*
X167699619Y-90310380D01*
X167794857Y-90358000D01*
X167890095Y-90358000D01*
X168032952Y-90310380D01*
X168604380Y-89738952D01*
X168604380Y-90358000D01*
X168604380Y-91310380D02*
X168604380Y-90738952D01*
X168604380Y-91024666D02*
X167604380Y-91024666D01*
X167747238Y-90929428D01*
X167842476Y-90834190D01*
X167890095Y-90738952D01*
X170159142Y-87191333D02*
X170206761Y-87143714D01*
X170254380Y-87000857D01*
X170254380Y-86905619D01*
X170206761Y-86762761D01*
X170111523Y-86667523D01*
X170016285Y-86619904D01*
X169825809Y-86572285D01*
X169682952Y-86572285D01*
X169492476Y-86619904D01*
X169397238Y-86667523D01*
X169302000Y-86762761D01*
X169254380Y-86905619D01*
X169254380Y-87000857D01*
X169302000Y-87143714D01*
X169349619Y-87191333D01*
X170159142Y-88191333D02*
X170206761Y-88143714D01*
X170254380Y-88000857D01*
X170254380Y-87905619D01*
X170206761Y-87762761D01*
X170111523Y-87667523D01*
X170016285Y-87619904D01*
X169825809Y-87572285D01*
X169682952Y-87572285D01*
X169492476Y-87619904D01*
X169397238Y-87667523D01*
X169302000Y-87762761D01*
X169254380Y-87905619D01*
X169254380Y-88000857D01*
X169302000Y-88143714D01*
X169349619Y-88191333D01*
X169254380Y-88810380D02*
X169254380Y-88905619D01*
X169302000Y-89000857D01*
X169349619Y-89048476D01*
X169444857Y-89096095D01*
X169635333Y-89143714D01*
X169873428Y-89143714D01*
X170063904Y-89096095D01*
X170159142Y-89048476D01*
X170206761Y-89000857D01*
X170254380Y-88905619D01*
X170254380Y-88810380D01*
X170206761Y-88715142D01*
X170159142Y-88667523D01*
X170063904Y-88619904D01*
X169873428Y-88572285D01*
X169635333Y-88572285D01*
X169444857Y-88619904D01*
X169349619Y-88667523D01*
X169302000Y-88715142D01*
X169254380Y-88810380D01*
D11*
X156327000Y-101800000D02*
X173327000Y-101800000D01*
X173327000Y-75765000D02*
X156327000Y-75765000D01*
X156327000Y-75765000D02*
X156327000Y-101800000D01*
X173327000Y-101800000D02*
X173327000Y-75765000D01*
%TO.C,R15*%
X173440000Y-153330000D02*
X170700000Y-153330000D01*
X170700000Y-153330000D02*
X170700000Y-146790000D01*
X170700000Y-146790000D02*
X173440000Y-146790000D01*
X173440000Y-146790000D02*
X173440000Y-153330000D01*
X172070000Y-154100000D02*
X172070000Y-153330000D01*
X172070000Y-146020000D02*
X172070000Y-146790000D01*
%TO.C,R14*%
X121370000Y-131740000D02*
X118630000Y-131740000D01*
X118630000Y-131740000D02*
X118630000Y-125200000D01*
X118630000Y-125200000D02*
X121370000Y-125200000D01*
X121370000Y-125200000D02*
X121370000Y-131740000D01*
X120000000Y-132510000D02*
X120000000Y-131740000D01*
X120000000Y-124430000D02*
X120000000Y-125200000D01*
%TO.C,R13*%
X173440000Y-112690000D02*
X170700000Y-112690000D01*
X170700000Y-112690000D02*
X170700000Y-106150000D01*
X170700000Y-106150000D02*
X173440000Y-106150000D01*
X173440000Y-106150000D02*
X173440000Y-112690000D01*
X172070000Y-113460000D02*
X172070000Y-112690000D01*
X172070000Y-105380000D02*
X172070000Y-106150000D01*
%TO.C,R12*%
X121370000Y-92370000D02*
X118630000Y-92370000D01*
X118630000Y-92370000D02*
X118630000Y-85830000D01*
X118630000Y-85830000D02*
X121370000Y-85830000D01*
X121370000Y-85830000D02*
X121370000Y-92370000D01*
X120000000Y-93140000D02*
X120000000Y-92370000D01*
X120000000Y-85060000D02*
X120000000Y-85830000D01*
%TO.C,R11*%
X173440000Y-72050000D02*
X170700000Y-72050000D01*
X170700000Y-72050000D02*
X170700000Y-65510000D01*
X170700000Y-65510000D02*
X173440000Y-65510000D01*
X173440000Y-65510000D02*
X173440000Y-72050000D01*
X172070000Y-72820000D02*
X172070000Y-72050000D01*
X172070000Y-64740000D02*
X172070000Y-65510000D01*
%TO.C,R10*%
X121370000Y-51730000D02*
X118630000Y-51730000D01*
X118630000Y-51730000D02*
X118630000Y-45190000D01*
X118630000Y-45190000D02*
X121370000Y-45190000D01*
X121370000Y-45190000D02*
X121370000Y-51730000D01*
X120000000Y-52500000D02*
X120000000Y-51730000D01*
X120000000Y-44420000D02*
X120000000Y-45190000D01*
%TO.C,R9*%
X173440000Y-31410000D02*
X170700000Y-31410000D01*
X170700000Y-31410000D02*
X170700000Y-24870000D01*
X170700000Y-24870000D02*
X173440000Y-24870000D01*
X173440000Y-24870000D02*
X173440000Y-31410000D01*
X172070000Y-32180000D02*
X172070000Y-31410000D01*
X172070000Y-24100000D02*
X172070000Y-24870000D01*
%TO.C,D9*%
X174410000Y-148120000D02*
X177350000Y-148120000D01*
X174410000Y-148360000D02*
X177350000Y-148360000D01*
X174410000Y-148240000D02*
X177350000Y-148240000D01*
X175880000Y-153800000D02*
X175880000Y-152780000D01*
X175880000Y-146320000D02*
X175880000Y-147340000D01*
X174410000Y-152780000D02*
X174410000Y-147340000D01*
X177350000Y-152780000D02*
X174410000Y-152780000D01*
X177350000Y-147340000D02*
X177350000Y-152780000D01*
X174410000Y-147340000D02*
X177350000Y-147340000D01*
%TO.C,D8*%
X114720000Y-126530000D02*
X117660000Y-126530000D01*
X114720000Y-126770000D02*
X117660000Y-126770000D01*
X114720000Y-126650000D02*
X117660000Y-126650000D01*
X116190000Y-132210000D02*
X116190000Y-131190000D01*
X116190000Y-124730000D02*
X116190000Y-125750000D01*
X114720000Y-131190000D02*
X114720000Y-125750000D01*
X117660000Y-131190000D02*
X114720000Y-131190000D01*
X117660000Y-125750000D02*
X117660000Y-131190000D01*
X114720000Y-125750000D02*
X117660000Y-125750000D01*
%TO.C,D7*%
X174410000Y-107480000D02*
X177350000Y-107480000D01*
X174410000Y-107720000D02*
X177350000Y-107720000D01*
X174410000Y-107600000D02*
X177350000Y-107600000D01*
X175880000Y-113160000D02*
X175880000Y-112140000D01*
X175880000Y-105680000D02*
X175880000Y-106700000D01*
X174410000Y-112140000D02*
X174410000Y-106700000D01*
X177350000Y-112140000D02*
X174410000Y-112140000D01*
X177350000Y-106700000D02*
X177350000Y-112140000D01*
X174410000Y-106700000D02*
X177350000Y-106700000D01*
%TO.C,D6*%
X114720000Y-87160000D02*
X117660000Y-87160000D01*
X114720000Y-87400000D02*
X117660000Y-87400000D01*
X114720000Y-87280000D02*
X117660000Y-87280000D01*
X116190000Y-92840000D02*
X116190000Y-91820000D01*
X116190000Y-85360000D02*
X116190000Y-86380000D01*
X114720000Y-91820000D02*
X114720000Y-86380000D01*
X117660000Y-91820000D02*
X114720000Y-91820000D01*
X117660000Y-86380000D02*
X117660000Y-91820000D01*
X114720000Y-86380000D02*
X117660000Y-86380000D01*
%TO.C,D5*%
X174410000Y-66840000D02*
X177350000Y-66840000D01*
X174410000Y-67080000D02*
X177350000Y-67080000D01*
X174410000Y-66960000D02*
X177350000Y-66960000D01*
X175880000Y-72520000D02*
X175880000Y-71500000D01*
X175880000Y-65040000D02*
X175880000Y-66060000D01*
X174410000Y-71500000D02*
X174410000Y-66060000D01*
X177350000Y-71500000D02*
X174410000Y-71500000D01*
X177350000Y-66060000D02*
X177350000Y-71500000D01*
X174410000Y-66060000D02*
X177350000Y-66060000D01*
%TO.C,D4*%
X114720000Y-46520000D02*
X117660000Y-46520000D01*
X114720000Y-46760000D02*
X117660000Y-46760000D01*
X114720000Y-46640000D02*
X117660000Y-46640000D01*
X116190000Y-52200000D02*
X116190000Y-51180000D01*
X116190000Y-44720000D02*
X116190000Y-45740000D01*
X114720000Y-51180000D02*
X114720000Y-45740000D01*
X117660000Y-51180000D02*
X114720000Y-51180000D01*
X117660000Y-45740000D02*
X117660000Y-51180000D01*
X114720000Y-45740000D02*
X117660000Y-45740000D01*
%TO.C,D3*%
X174410000Y-26200000D02*
X177350000Y-26200000D01*
X174410000Y-26440000D02*
X177350000Y-26440000D01*
X174410000Y-26320000D02*
X177350000Y-26320000D01*
X175880000Y-31880000D02*
X175880000Y-30860000D01*
X175880000Y-24400000D02*
X175880000Y-25420000D01*
X174410000Y-30860000D02*
X174410000Y-25420000D01*
X177350000Y-30860000D02*
X174410000Y-30860000D01*
X177350000Y-25420000D02*
X177350000Y-30860000D01*
X174410000Y-25420000D02*
X177350000Y-25420000D01*
%TO.C,U5*%
X119784184Y-172772795D02*
G75*
G02*
X119260000Y-173500000I-2324184J1122795D01*
G01*
X119816400Y-170551193D02*
G75*
G03*
X117460000Y-169050000I-2356400J-1098807D01*
G01*
X115103600Y-170551193D02*
G75*
G02*
X117460000Y-169050000I2356400J-1098807D01*
G01*
X115135816Y-172772795D02*
G75*
G03*
X115660000Y-173500000I2324184J1122795D01*
G01*
X119260000Y-173500000D02*
X115660000Y-173500000D01*
%TO.C,R8*%
X120000000Y-165530000D02*
X120000000Y-164760000D01*
X120000000Y-157450000D02*
X120000000Y-158220000D01*
X118630000Y-164760000D02*
X118630000Y-158220000D01*
X121370000Y-164760000D02*
X118630000Y-164760000D01*
X121370000Y-158220000D02*
X121370000Y-164760000D01*
X118630000Y-158220000D02*
X121370000Y-158220000D01*
%TO.C,D2*%
X133790000Y-25800000D02*
X133790000Y-22860000D01*
X133790000Y-22860000D02*
X139230000Y-22860000D01*
X139230000Y-22860000D02*
X139230000Y-25800000D01*
X139230000Y-25800000D02*
X133790000Y-25800000D01*
X132770000Y-24330000D02*
X133790000Y-24330000D01*
X140250000Y-24330000D02*
X139230000Y-24330000D01*
X134690000Y-25800000D02*
X134690000Y-22860000D01*
X134810000Y-25800000D02*
X134810000Y-22860000D01*
X134570000Y-25800000D02*
X134570000Y-22860000D01*
%TO.C,D1*%
X139230000Y-29210000D02*
X139230000Y-32150000D01*
X139230000Y-32150000D02*
X133790000Y-32150000D01*
X133790000Y-32150000D02*
X133790000Y-29210000D01*
X133790000Y-29210000D02*
X139230000Y-29210000D01*
X140250000Y-30680000D02*
X139230000Y-30680000D01*
X132770000Y-30680000D02*
X133790000Y-30680000D01*
X138330000Y-29210000D02*
X138330000Y-32150000D01*
X138210000Y-29210000D02*
X138210000Y-32150000D01*
X138450000Y-29210000D02*
X138450000Y-32150000D01*
%TO.C,R1*%
X150480000Y-105840000D02*
X150480000Y-105070000D01*
X150480000Y-97760000D02*
X150480000Y-98530000D01*
X149110000Y-105070000D02*
X149110000Y-98530000D01*
X151850000Y-105070000D02*
X149110000Y-105070000D01*
X151850000Y-98530000D02*
X151850000Y-105070000D01*
X149110000Y-98530000D02*
X151850000Y-98530000D01*
%TO.C,R2*%
X140320000Y-72360000D02*
X140320000Y-73130000D01*
X140320000Y-80440000D02*
X140320000Y-79670000D01*
X141690000Y-73130000D02*
X141690000Y-79670000D01*
X138950000Y-73130000D02*
X141690000Y-73130000D01*
X138950000Y-79670000D02*
X138950000Y-73130000D01*
X141690000Y-79670000D02*
X138950000Y-79670000D01*
%TO.C,R5*%
X146670000Y-105840000D02*
X146670000Y-105070000D01*
X146670000Y-97760000D02*
X146670000Y-98530000D01*
X145300000Y-105070000D02*
X145300000Y-98530000D01*
X148040000Y-105070000D02*
X145300000Y-105070000D01*
X148040000Y-98530000D02*
X148040000Y-105070000D01*
X145300000Y-98530000D02*
X148040000Y-98530000D01*
%TO.C,R4*%
X147940000Y-146480000D02*
X147940000Y-145710000D01*
X147940000Y-138400000D02*
X147940000Y-139170000D01*
X146570000Y-145710000D02*
X146570000Y-139170000D01*
X149310000Y-145710000D02*
X146570000Y-145710000D01*
X149310000Y-139170000D02*
X149310000Y-145710000D01*
X146570000Y-139170000D02*
X149310000Y-139170000D01*
%TO.C,R3*%
X150480000Y-113000000D02*
X150480000Y-113770000D01*
X150480000Y-121080000D02*
X150480000Y-120310000D01*
X151850000Y-113770000D02*
X151850000Y-120310000D01*
X149110000Y-113770000D02*
X151850000Y-113770000D01*
X149110000Y-120310000D02*
X149110000Y-113770000D01*
X151850000Y-120310000D02*
X149110000Y-120310000D01*
%TO.C,R6*%
X144130000Y-72360000D02*
X144130000Y-73130000D01*
X144130000Y-80440000D02*
X144130000Y-79670000D01*
X145500000Y-73130000D02*
X145500000Y-79670000D01*
X142760000Y-73130000D02*
X145500000Y-73130000D01*
X142760000Y-79670000D02*
X142760000Y-73130000D01*
X145500000Y-79670000D02*
X142760000Y-79670000D01*
%TO.C,R7*%
X146670000Y-113000000D02*
X146670000Y-113770000D01*
X146670000Y-121080000D02*
X146670000Y-120310000D01*
X148040000Y-113770000D02*
X148040000Y-120310000D01*
X145300000Y-113770000D02*
X148040000Y-113770000D01*
X145300000Y-120310000D02*
X145300000Y-113770000D01*
X148040000Y-120310000D02*
X145300000Y-120310000D01*
%TO.C,J11*%
X123030000Y-143820000D02*
X117010000Y-143820000D01*
X117010000Y-143820000D02*
X117010000Y-138520000D01*
X117010000Y-138520000D02*
X123030000Y-138520000D01*
X123030000Y-138520000D02*
X123030000Y-143820000D01*
X122000000Y-144110000D02*
X118000000Y-144110000D01*
X117010000Y-142440000D02*
X118010000Y-142440000D01*
X118010000Y-142440000D02*
X118010000Y-139900000D01*
X118010000Y-139900000D02*
X117010000Y-139900000D01*
X118010000Y-142440000D02*
X118540000Y-142190000D01*
X118540000Y-142190000D02*
X118540000Y-140150000D01*
X118540000Y-140150000D02*
X118010000Y-139900000D01*
X117010000Y-142190000D02*
X118010000Y-142190000D01*
X117010000Y-140150000D02*
X118010000Y-140150000D01*
X123030000Y-143240000D02*
X122430000Y-143240000D01*
X122430000Y-143240000D02*
X122430000Y-141640000D01*
X122430000Y-141640000D02*
X123030000Y-141640000D01*
X123030000Y-140700000D02*
X122430000Y-140700000D01*
X122430000Y-140700000D02*
X122430000Y-139100000D01*
X122430000Y-139100000D02*
X123030000Y-139100000D01*
%TO.C,J13*%
X123030000Y-153980000D02*
X117010000Y-153980000D01*
X117010000Y-153980000D02*
X117010000Y-146140000D01*
X117010000Y-146140000D02*
X123030000Y-146140000D01*
X123030000Y-146140000D02*
X123030000Y-153980000D01*
X122000000Y-154270000D02*
X118000000Y-154270000D01*
X117010000Y-152600000D02*
X118010000Y-152600000D01*
X118010000Y-152600000D02*
X118010000Y-147520000D01*
X118010000Y-147520000D02*
X117010000Y-147520000D01*
X118010000Y-152600000D02*
X118540000Y-152350000D01*
X118540000Y-152350000D02*
X118540000Y-147770000D01*
X118540000Y-147770000D02*
X118010000Y-147520000D01*
X117010000Y-152350000D02*
X118010000Y-152350000D01*
X117010000Y-147770000D02*
X118010000Y-147770000D01*
X123030000Y-153400000D02*
X122430000Y-153400000D01*
X122430000Y-153400000D02*
X122430000Y-151800000D01*
X122430000Y-151800000D02*
X123030000Y-151800000D01*
X123030000Y-150860000D02*
X122430000Y-150860000D01*
X122430000Y-150860000D02*
X122430000Y-149260000D01*
X122430000Y-149260000D02*
X123030000Y-149260000D01*
X123030000Y-148320000D02*
X122430000Y-148320000D01*
X122430000Y-148320000D02*
X122430000Y-146720000D01*
X122430000Y-146720000D02*
X123030000Y-146720000D01*
%TO.C,J9*%
X118670000Y-178000000D02*
X118670000Y-179330000D01*
X118670000Y-179330000D02*
X120000000Y-179330000D01*
X121270000Y-179330000D02*
X141650000Y-179330000D01*
X141650000Y-176670000D02*
X141650000Y-179330000D01*
X121270000Y-176670000D02*
X141650000Y-176670000D01*
X121270000Y-176670000D02*
X121270000Y-179330000D01*
%TO.C,J6*%
X119940000Y-32930000D02*
X119940000Y-40310000D01*
X119440000Y-32930000D02*
X119920000Y-32930000D01*
X119940000Y-28430000D02*
X119430000Y-28430000D01*
X119940000Y-21060000D02*
X119940000Y-28410000D01*
X119940000Y-21060000D02*
X119440000Y-20560000D01*
X127690000Y-21060000D02*
X119940000Y-21060000D01*
X127690000Y-21060000D02*
X128240000Y-20510000D01*
X127690000Y-40310000D02*
X127690000Y-21060000D01*
X127690000Y-40310000D02*
X128240000Y-40860000D01*
X119940000Y-40310000D02*
X127690000Y-40310000D01*
X119390000Y-40860000D02*
X119940000Y-40310000D01*
X119390000Y-20510000D02*
X119390000Y-40860000D01*
X128240000Y-20510000D02*
X119390000Y-20510000D01*
X128240000Y-40860000D02*
X128240000Y-20510000D01*
X119390000Y-40860000D02*
X128240000Y-40860000D01*
X119135000Y-41110000D02*
X128485000Y-41110000D01*
X119135000Y-20250000D02*
X119135000Y-41110000D01*
X128485000Y-20250000D02*
X119135000Y-20250000D01*
X128485000Y-41110000D02*
X128485000Y-20250000D01*
%TO.C,U2*%
X136450000Y-128740000D02*
X136450000Y-127490000D01*
X136450000Y-127490000D02*
X154350000Y-127490000D01*
X154350000Y-127490000D02*
X154350000Y-131990000D01*
X154350000Y-131990000D02*
X136450000Y-131990000D01*
X136450000Y-131990000D02*
X136450000Y-130740000D01*
X136390000Y-124490000D02*
X154410000Y-124490000D01*
X154410000Y-124490000D02*
X154410000Y-134990000D01*
X154410000Y-134990000D02*
X136390000Y-134990000D01*
X136390000Y-134990000D02*
X136390000Y-124490000D01*
X136450000Y-130740000D02*
G75*
G03*
X136450000Y-128740000I0J1000000D01*
G01*
%TO.C,C4*%
X152764775Y-21335000D02*
X152764775Y-21835000D01*
X153014775Y-21585000D02*
X152514775Y-21585000D01*
X147609000Y-22776000D02*
X147609000Y-23344000D01*
X147649000Y-22542000D02*
X147649000Y-23578000D01*
X147689000Y-22383000D02*
X147689000Y-23737000D01*
X147729000Y-22255000D02*
X147729000Y-23865000D01*
X147769000Y-22145000D02*
X147769000Y-23975000D01*
X147809000Y-22049000D02*
X147809000Y-24071000D01*
X147849000Y-21962000D02*
X147849000Y-24158000D01*
X147889000Y-21882000D02*
X147889000Y-24238000D01*
X147929000Y-21809000D02*
X147929000Y-24311000D01*
X147969000Y-21741000D02*
X147969000Y-24379000D01*
X148009000Y-21677000D02*
X148009000Y-24443000D01*
X148049000Y-21617000D02*
X148049000Y-24503000D01*
X148089000Y-21560000D02*
X148089000Y-24560000D01*
X148129000Y-21506000D02*
X148129000Y-24614000D01*
X148169000Y-21455000D02*
X148169000Y-24665000D01*
X148209000Y-24100000D02*
X148209000Y-24713000D01*
X148209000Y-21407000D02*
X148209000Y-22020000D01*
X148249000Y-24100000D02*
X148249000Y-24759000D01*
X148249000Y-21361000D02*
X148249000Y-22020000D01*
X148289000Y-24100000D02*
X148289000Y-24803000D01*
X148289000Y-21317000D02*
X148289000Y-22020000D01*
X148329000Y-24100000D02*
X148329000Y-24845000D01*
X148329000Y-21275000D02*
X148329000Y-22020000D01*
X148369000Y-24100000D02*
X148369000Y-24886000D01*
X148369000Y-21234000D02*
X148369000Y-22020000D01*
X148409000Y-24100000D02*
X148409000Y-24924000D01*
X148409000Y-21196000D02*
X148409000Y-22020000D01*
X148449000Y-24100000D02*
X148449000Y-24961000D01*
X148449000Y-21159000D02*
X148449000Y-22020000D01*
X148489000Y-24100000D02*
X148489000Y-24997000D01*
X148489000Y-21123000D02*
X148489000Y-22020000D01*
X148529000Y-24100000D02*
X148529000Y-25031000D01*
X148529000Y-21089000D02*
X148529000Y-22020000D01*
X148569000Y-24100000D02*
X148569000Y-25064000D01*
X148569000Y-21056000D02*
X148569000Y-22020000D01*
X148609000Y-24100000D02*
X148609000Y-25095000D01*
X148609000Y-21025000D02*
X148609000Y-22020000D01*
X148649000Y-24100000D02*
X148649000Y-25125000D01*
X148649000Y-20995000D02*
X148649000Y-22020000D01*
X148689000Y-24100000D02*
X148689000Y-25155000D01*
X148689000Y-20965000D02*
X148689000Y-22020000D01*
X148729000Y-24100000D02*
X148729000Y-25182000D01*
X148729000Y-20938000D02*
X148729000Y-22020000D01*
X148769000Y-24100000D02*
X148769000Y-25209000D01*
X148769000Y-20911000D02*
X148769000Y-22020000D01*
X148809000Y-24100000D02*
X148809000Y-25235000D01*
X148809000Y-20885000D02*
X148809000Y-22020000D01*
X148849000Y-24100000D02*
X148849000Y-25260000D01*
X148849000Y-20860000D02*
X148849000Y-22020000D01*
X148889000Y-24100000D02*
X148889000Y-25284000D01*
X148889000Y-20836000D02*
X148889000Y-22020000D01*
X148929000Y-24100000D02*
X148929000Y-25307000D01*
X148929000Y-20813000D02*
X148929000Y-22020000D01*
X148969000Y-24100000D02*
X148969000Y-25328000D01*
X148969000Y-20792000D02*
X148969000Y-22020000D01*
X149009000Y-24100000D02*
X149009000Y-25350000D01*
X149009000Y-20770000D02*
X149009000Y-22020000D01*
X149049000Y-24100000D02*
X149049000Y-25370000D01*
X149049000Y-20750000D02*
X149049000Y-22020000D01*
X149089000Y-24100000D02*
X149089000Y-25389000D01*
X149089000Y-20731000D02*
X149089000Y-22020000D01*
X149129000Y-24100000D02*
X149129000Y-25408000D01*
X149129000Y-20712000D02*
X149129000Y-22020000D01*
X149169000Y-24100000D02*
X149169000Y-25425000D01*
X149169000Y-20695000D02*
X149169000Y-22020000D01*
X149209000Y-24100000D02*
X149209000Y-25442000D01*
X149209000Y-20678000D02*
X149209000Y-22020000D01*
X149249000Y-24100000D02*
X149249000Y-25458000D01*
X149249000Y-20662000D02*
X149249000Y-22020000D01*
X149289000Y-24100000D02*
X149289000Y-25474000D01*
X149289000Y-20646000D02*
X149289000Y-22020000D01*
X149329000Y-24100000D02*
X149329000Y-25488000D01*
X149329000Y-20632000D02*
X149329000Y-22020000D01*
X149369000Y-24100000D02*
X149369000Y-25502000D01*
X149369000Y-20618000D02*
X149369000Y-22020000D01*
X149409000Y-24100000D02*
X149409000Y-25515000D01*
X149409000Y-20605000D02*
X149409000Y-22020000D01*
X149449000Y-24100000D02*
X149449000Y-25528000D01*
X149449000Y-20592000D02*
X149449000Y-22020000D01*
X149489000Y-24100000D02*
X149489000Y-25540000D01*
X149489000Y-20580000D02*
X149489000Y-22020000D01*
X149530000Y-24100000D02*
X149530000Y-25551000D01*
X149530000Y-20569000D02*
X149530000Y-22020000D01*
X149570000Y-24100000D02*
X149570000Y-25561000D01*
X149570000Y-20559000D02*
X149570000Y-22020000D01*
X149610000Y-24100000D02*
X149610000Y-25571000D01*
X149610000Y-20549000D02*
X149610000Y-22020000D01*
X149650000Y-24100000D02*
X149650000Y-25580000D01*
X149650000Y-20540000D02*
X149650000Y-22020000D01*
X149690000Y-24100000D02*
X149690000Y-25588000D01*
X149690000Y-20532000D02*
X149690000Y-22020000D01*
X149730000Y-24100000D02*
X149730000Y-25596000D01*
X149730000Y-20524000D02*
X149730000Y-22020000D01*
X149770000Y-24100000D02*
X149770000Y-25603000D01*
X149770000Y-20517000D02*
X149770000Y-22020000D01*
X149810000Y-24100000D02*
X149810000Y-25610000D01*
X149810000Y-20510000D02*
X149810000Y-22020000D01*
X149850000Y-24100000D02*
X149850000Y-25616000D01*
X149850000Y-20504000D02*
X149850000Y-22020000D01*
X149890000Y-24100000D02*
X149890000Y-25621000D01*
X149890000Y-20499000D02*
X149890000Y-22020000D01*
X149930000Y-24100000D02*
X149930000Y-25625000D01*
X149930000Y-20495000D02*
X149930000Y-22020000D01*
X149970000Y-24100000D02*
X149970000Y-25629000D01*
X149970000Y-20491000D02*
X149970000Y-22020000D01*
X150010000Y-24100000D02*
X150010000Y-25633000D01*
X150010000Y-20487000D02*
X150010000Y-22020000D01*
X150050000Y-24100000D02*
X150050000Y-25636000D01*
X150050000Y-20484000D02*
X150050000Y-22020000D01*
X150090000Y-24100000D02*
X150090000Y-25638000D01*
X150090000Y-20482000D02*
X150090000Y-22020000D01*
X150130000Y-24100000D02*
X150130000Y-25639000D01*
X150130000Y-20481000D02*
X150130000Y-22020000D01*
X150170000Y-20480000D02*
X150170000Y-22020000D01*
X150170000Y-24100000D02*
X150170000Y-25640000D01*
X150210000Y-20480000D02*
X150210000Y-22020000D01*
X150210000Y-24100000D02*
X150210000Y-25640000D01*
X152830000Y-23060000D02*
G75*
G03*
X152830000Y-23060000I-2620000J0D01*
G01*
%TO.C,J1*%
X123130000Y-106320000D02*
X122630000Y-107320000D01*
X122130000Y-106320000D02*
X123130000Y-106320000D01*
X122630000Y-107320000D02*
X122130000Y-106320000D01*
X132300000Y-109020000D02*
X132300000Y-107710000D01*
X132300000Y-109020000D02*
X132300000Y-109020000D01*
X141780000Y-109020000D02*
X132300000Y-109020000D01*
X141780000Y-115520000D02*
X141780000Y-109020000D01*
X118720000Y-115520000D02*
X141780000Y-115520000D01*
X118720000Y-109020000D02*
X118720000Y-115520000D01*
X128200000Y-109020000D02*
X118720000Y-109020000D01*
X128200000Y-107710000D02*
X128200000Y-109020000D01*
X143080000Y-107710000D02*
X117420000Y-107710000D01*
X143080000Y-116830000D02*
X143080000Y-107710000D01*
X117420000Y-116830000D02*
X143080000Y-116830000D01*
X117420000Y-107710000D02*
X117420000Y-116830000D01*
%TO.C,J14*%
X172460000Y-43670000D02*
X171130000Y-43670000D01*
X171130000Y-43670000D02*
X171130000Y-45000000D01*
X173730000Y-43670000D02*
X173730000Y-46270000D01*
X173730000Y-46270000D02*
X171130000Y-46270000D01*
X171130000Y-46270000D02*
X171130000Y-56490000D01*
X176330000Y-56490000D02*
X171130000Y-56490000D01*
X176330000Y-43670000D02*
X176330000Y-56490000D01*
X176330000Y-43670000D02*
X173730000Y-43670000D01*
%TO.C,C3*%
X147655225Y-32405000D02*
X147655225Y-31905000D01*
X147405225Y-32155000D02*
X147905225Y-32155000D01*
X152811000Y-30964000D02*
X152811000Y-30396000D01*
X152771000Y-31198000D02*
X152771000Y-30162000D01*
X152731000Y-31357000D02*
X152731000Y-30003000D01*
X152691000Y-31485000D02*
X152691000Y-29875000D01*
X152651000Y-31595000D02*
X152651000Y-29765000D01*
X152611000Y-31691000D02*
X152611000Y-29669000D01*
X152571000Y-31778000D02*
X152571000Y-29582000D01*
X152531000Y-31858000D02*
X152531000Y-29502000D01*
X152491000Y-31931000D02*
X152491000Y-29429000D01*
X152451000Y-31999000D02*
X152451000Y-29361000D01*
X152411000Y-32063000D02*
X152411000Y-29297000D01*
X152371000Y-32123000D02*
X152371000Y-29237000D01*
X152331000Y-32180000D02*
X152331000Y-29180000D01*
X152291000Y-32234000D02*
X152291000Y-29126000D01*
X152251000Y-32285000D02*
X152251000Y-29075000D01*
X152211000Y-29640000D02*
X152211000Y-29027000D01*
X152211000Y-32333000D02*
X152211000Y-31720000D01*
X152171000Y-29640000D02*
X152171000Y-28981000D01*
X152171000Y-32379000D02*
X152171000Y-31720000D01*
X152131000Y-29640000D02*
X152131000Y-28937000D01*
X152131000Y-32423000D02*
X152131000Y-31720000D01*
X152091000Y-29640000D02*
X152091000Y-28895000D01*
X152091000Y-32465000D02*
X152091000Y-31720000D01*
X152051000Y-29640000D02*
X152051000Y-28854000D01*
X152051000Y-32506000D02*
X152051000Y-31720000D01*
X152011000Y-29640000D02*
X152011000Y-28816000D01*
X152011000Y-32544000D02*
X152011000Y-31720000D01*
X151971000Y-29640000D02*
X151971000Y-28779000D01*
X151971000Y-32581000D02*
X151971000Y-31720000D01*
X151931000Y-29640000D02*
X151931000Y-28743000D01*
X151931000Y-32617000D02*
X151931000Y-31720000D01*
X151891000Y-29640000D02*
X151891000Y-28709000D01*
X151891000Y-32651000D02*
X151891000Y-31720000D01*
X151851000Y-29640000D02*
X151851000Y-28676000D01*
X151851000Y-32684000D02*
X151851000Y-31720000D01*
X151811000Y-29640000D02*
X151811000Y-28645000D01*
X151811000Y-32715000D02*
X151811000Y-31720000D01*
X151771000Y-29640000D02*
X151771000Y-28615000D01*
X151771000Y-32745000D02*
X151771000Y-31720000D01*
X151731000Y-29640000D02*
X151731000Y-28585000D01*
X151731000Y-32775000D02*
X151731000Y-31720000D01*
X151691000Y-29640000D02*
X151691000Y-28558000D01*
X151691000Y-32802000D02*
X151691000Y-31720000D01*
X151651000Y-29640000D02*
X151651000Y-28531000D01*
X151651000Y-32829000D02*
X151651000Y-31720000D01*
X151611000Y-29640000D02*
X151611000Y-28505000D01*
X151611000Y-32855000D02*
X151611000Y-31720000D01*
X151571000Y-29640000D02*
X151571000Y-28480000D01*
X151571000Y-32880000D02*
X151571000Y-31720000D01*
X151531000Y-29640000D02*
X151531000Y-28456000D01*
X151531000Y-32904000D02*
X151531000Y-31720000D01*
X151491000Y-29640000D02*
X151491000Y-28433000D01*
X151491000Y-32927000D02*
X151491000Y-31720000D01*
X151451000Y-29640000D02*
X151451000Y-28412000D01*
X151451000Y-32948000D02*
X151451000Y-31720000D01*
X151411000Y-29640000D02*
X151411000Y-28390000D01*
X151411000Y-32970000D02*
X151411000Y-31720000D01*
X151371000Y-29640000D02*
X151371000Y-28370000D01*
X151371000Y-32990000D02*
X151371000Y-31720000D01*
X151331000Y-29640000D02*
X151331000Y-28351000D01*
X151331000Y-33009000D02*
X151331000Y-31720000D01*
X151291000Y-29640000D02*
X151291000Y-28332000D01*
X151291000Y-33028000D02*
X151291000Y-31720000D01*
X151251000Y-29640000D02*
X151251000Y-28315000D01*
X151251000Y-33045000D02*
X151251000Y-31720000D01*
X151211000Y-29640000D02*
X151211000Y-28298000D01*
X151211000Y-33062000D02*
X151211000Y-31720000D01*
X151171000Y-29640000D02*
X151171000Y-28282000D01*
X151171000Y-33078000D02*
X151171000Y-31720000D01*
X151131000Y-29640000D02*
X151131000Y-28266000D01*
X151131000Y-33094000D02*
X151131000Y-31720000D01*
X151091000Y-29640000D02*
X151091000Y-28252000D01*
X151091000Y-33108000D02*
X151091000Y-31720000D01*
X151051000Y-29640000D02*
X151051000Y-28238000D01*
X151051000Y-33122000D02*
X151051000Y-31720000D01*
X151011000Y-29640000D02*
X151011000Y-28225000D01*
X151011000Y-33135000D02*
X151011000Y-31720000D01*
X150971000Y-29640000D02*
X150971000Y-28212000D01*
X150971000Y-33148000D02*
X150971000Y-31720000D01*
X150931000Y-29640000D02*
X150931000Y-28200000D01*
X150931000Y-33160000D02*
X150931000Y-31720000D01*
X150890000Y-29640000D02*
X150890000Y-28189000D01*
X150890000Y-33171000D02*
X150890000Y-31720000D01*
X150850000Y-29640000D02*
X150850000Y-28179000D01*
X150850000Y-33181000D02*
X150850000Y-31720000D01*
X150810000Y-29640000D02*
X150810000Y-28169000D01*
X150810000Y-33191000D02*
X150810000Y-31720000D01*
X150770000Y-29640000D02*
X150770000Y-28160000D01*
X150770000Y-33200000D02*
X150770000Y-31720000D01*
X150730000Y-29640000D02*
X150730000Y-28152000D01*
X150730000Y-33208000D02*
X150730000Y-31720000D01*
X150690000Y-29640000D02*
X150690000Y-28144000D01*
X150690000Y-33216000D02*
X150690000Y-31720000D01*
X150650000Y-29640000D02*
X150650000Y-28137000D01*
X150650000Y-33223000D02*
X150650000Y-31720000D01*
X150610000Y-29640000D02*
X150610000Y-28130000D01*
X150610000Y-33230000D02*
X150610000Y-31720000D01*
X150570000Y-29640000D02*
X150570000Y-28124000D01*
X150570000Y-33236000D02*
X150570000Y-31720000D01*
X150530000Y-29640000D02*
X150530000Y-28119000D01*
X150530000Y-33241000D02*
X150530000Y-31720000D01*
X150490000Y-29640000D02*
X150490000Y-28115000D01*
X150490000Y-33245000D02*
X150490000Y-31720000D01*
X150450000Y-29640000D02*
X150450000Y-28111000D01*
X150450000Y-33249000D02*
X150450000Y-31720000D01*
X150410000Y-29640000D02*
X150410000Y-28107000D01*
X150410000Y-33253000D02*
X150410000Y-31720000D01*
X150370000Y-29640000D02*
X150370000Y-28104000D01*
X150370000Y-33256000D02*
X150370000Y-31720000D01*
X150330000Y-29640000D02*
X150330000Y-28102000D01*
X150330000Y-33258000D02*
X150330000Y-31720000D01*
X150290000Y-29640000D02*
X150290000Y-28101000D01*
X150290000Y-33259000D02*
X150290000Y-31720000D01*
X150250000Y-33260000D02*
X150250000Y-31720000D01*
X150250000Y-29640000D02*
X150250000Y-28100000D01*
X150210000Y-33260000D02*
X150210000Y-31720000D01*
X150210000Y-29640000D02*
X150210000Y-28100000D01*
X152830000Y-30680000D02*
G75*
G03*
X152830000Y-30680000I-2620000J0D01*
G01*
%TO.C,U1*%
X136450000Y-88100000D02*
X136450000Y-86850000D01*
X136450000Y-86850000D02*
X154350000Y-86850000D01*
X154350000Y-86850000D02*
X154350000Y-91350000D01*
X154350000Y-91350000D02*
X136450000Y-91350000D01*
X136450000Y-91350000D02*
X136450000Y-90100000D01*
X136390000Y-83850000D02*
X154410000Y-83850000D01*
X154410000Y-83850000D02*
X154410000Y-94350000D01*
X154410000Y-94350000D02*
X136390000Y-94350000D01*
X136390000Y-94350000D02*
X136390000Y-83850000D01*
X136450000Y-90100000D02*
G75*
G03*
X136450000Y-88100000I0J1000000D01*
G01*
%TO.C,C6*%
X138700000Y-137981000D02*
X138700000Y-139239000D01*
X136860000Y-137981000D02*
X136860000Y-139239000D01*
%TO.C,C5*%
X139920000Y-97621000D02*
X139920000Y-98879000D01*
X138080000Y-97621000D02*
X138080000Y-98879000D01*
D13*
%TO.C,GRAF1*%
G36*
X167398295Y-94739238D02*
G01*
X167455725Y-94965725D01*
X167545861Y-95178958D01*
X167666823Y-95375364D01*
X167816729Y-95551372D01*
X167993696Y-95703411D01*
X168195844Y-95827911D01*
X168221541Y-95840751D01*
X168332295Y-95891288D01*
X168433132Y-95928049D01*
X168534067Y-95953001D01*
X168645114Y-95968108D01*
X168776287Y-95975335D01*
X168914538Y-95976743D01*
X169034418Y-95975859D01*
X169124550Y-95973214D01*
X169194255Y-95967726D01*
X169252855Y-95958315D01*
X169309672Y-95943899D01*
X169373692Y-95923512D01*
X169584619Y-95832680D01*
X169780212Y-95708908D01*
X169956404Y-95556655D01*
X170109128Y-95380383D01*
X170234317Y-95184550D01*
X170327904Y-94973618D01*
X170369692Y-94831249D01*
X170391312Y-94708667D01*
X170404844Y-94567339D01*
X170409540Y-94423196D01*
X170404650Y-94292169D01*
X170397835Y-94232964D01*
X170346615Y-94019853D01*
X170260903Y-93810040D01*
X170144928Y-93612068D01*
X170002922Y-93434481D01*
X170001935Y-93433425D01*
X169820473Y-93266139D01*
X169621943Y-93132599D01*
X169409250Y-93033806D01*
X169185302Y-92970761D01*
X168953003Y-92944465D01*
X168881371Y-92947916D01*
X168881371Y-93222399D01*
X169014780Y-93224611D01*
X169133052Y-93236388D01*
X169197846Y-93250005D01*
X169395843Y-93324620D01*
X169580299Y-93431573D01*
X169745554Y-93566164D01*
X169885947Y-93723693D01*
X169995816Y-93899461D01*
X170006586Y-93921360D01*
X170044895Y-94008881D01*
X170078320Y-94098392D01*
X170100990Y-94173804D01*
X170104527Y-94189769D01*
X170117939Y-94257178D01*
X170129585Y-94313696D01*
X170134505Y-94336308D01*
X170139004Y-94385826D01*
X170138264Y-94461767D01*
X170133131Y-94551955D01*
X170124448Y-94644213D01*
X170113062Y-94726363D01*
X170104472Y-94769148D01*
X170047534Y-94939148D01*
X169962240Y-95108014D01*
X169855299Y-95265358D01*
X169733415Y-95400798D01*
X169651457Y-95470593D01*
X169501814Y-95572741D01*
X169360157Y-95645017D01*
X169215154Y-95691161D01*
X169055468Y-95714915D01*
X168895000Y-95720276D01*
X168785885Y-95718236D01*
X168702322Y-95712195D01*
X168630844Y-95700239D01*
X168557980Y-95680453D01*
X168514187Y-95666134D01*
X168305739Y-95575682D01*
X168120634Y-95454523D01*
X167961010Y-95304776D01*
X167829010Y-95128561D01*
X167726773Y-94927995D01*
X167701696Y-94861886D01*
X167673184Y-94750156D01*
X167654903Y-94614264D01*
X167647684Y-94467975D01*
X167652356Y-94325056D01*
X167663657Y-94231331D01*
X167714565Y-94043351D01*
X167800315Y-93863373D01*
X167916826Y-93695962D01*
X168060015Y-93545685D01*
X168225800Y-93417108D01*
X168410098Y-93314797D01*
X168523769Y-93269324D01*
X168622521Y-93245138D01*
X168746170Y-93229369D01*
X168881371Y-93222399D01*
X168881371Y-92947916D01*
X168715259Y-92955920D01*
X168646252Y-92966352D01*
X168413286Y-93024459D01*
X168199919Y-93114941D01*
X168002891Y-93239561D01*
X167818940Y-93400087D01*
X167789885Y-93429868D01*
X167638935Y-93610751D01*
X167524231Y-93801163D01*
X167443158Y-94006522D01*
X167393104Y-94232248D01*
X167389081Y-94260781D01*
X167375453Y-94503066D01*
X167398295Y-94739238D01*
G37*
X167398295Y-94739238D02*
X167455725Y-94965725D01*
X167545861Y-95178958D01*
X167666823Y-95375364D01*
X167816729Y-95551372D01*
X167993696Y-95703411D01*
X168195844Y-95827911D01*
X168221541Y-95840751D01*
X168332295Y-95891288D01*
X168433132Y-95928049D01*
X168534067Y-95953001D01*
X168645114Y-95968108D01*
X168776287Y-95975335D01*
X168914538Y-95976743D01*
X169034418Y-95975859D01*
X169124550Y-95973214D01*
X169194255Y-95967726D01*
X169252855Y-95958315D01*
X169309672Y-95943899D01*
X169373692Y-95923512D01*
X169584619Y-95832680D01*
X169780212Y-95708908D01*
X169956404Y-95556655D01*
X170109128Y-95380383D01*
X170234317Y-95184550D01*
X170327904Y-94973618D01*
X170369692Y-94831249D01*
X170391312Y-94708667D01*
X170404844Y-94567339D01*
X170409540Y-94423196D01*
X170404650Y-94292169D01*
X170397835Y-94232964D01*
X170346615Y-94019853D01*
X170260903Y-93810040D01*
X170144928Y-93612068D01*
X170002922Y-93434481D01*
X170001935Y-93433425D01*
X169820473Y-93266139D01*
X169621943Y-93132599D01*
X169409250Y-93033806D01*
X169185302Y-92970761D01*
X168953003Y-92944465D01*
X168881371Y-92947916D01*
X168881371Y-93222399D01*
X169014780Y-93224611D01*
X169133052Y-93236388D01*
X169197846Y-93250005D01*
X169395843Y-93324620D01*
X169580299Y-93431573D01*
X169745554Y-93566164D01*
X169885947Y-93723693D01*
X169995816Y-93899461D01*
X170006586Y-93921360D01*
X170044895Y-94008881D01*
X170078320Y-94098392D01*
X170100990Y-94173804D01*
X170104527Y-94189769D01*
X170117939Y-94257178D01*
X170129585Y-94313696D01*
X170134505Y-94336308D01*
X170139004Y-94385826D01*
X170138264Y-94461767D01*
X170133131Y-94551955D01*
X170124448Y-94644213D01*
X170113062Y-94726363D01*
X170104472Y-94769148D01*
X170047534Y-94939148D01*
X169962240Y-95108014D01*
X169855299Y-95265358D01*
X169733415Y-95400798D01*
X169651457Y-95470593D01*
X169501814Y-95572741D01*
X169360157Y-95645017D01*
X169215154Y-95691161D01*
X169055468Y-95714915D01*
X168895000Y-95720276D01*
X168785885Y-95718236D01*
X168702322Y-95712195D01*
X168630844Y-95700239D01*
X168557980Y-95680453D01*
X168514187Y-95666134D01*
X168305739Y-95575682D01*
X168120634Y-95454523D01*
X167961010Y-95304776D01*
X167829010Y-95128561D01*
X167726773Y-94927995D01*
X167701696Y-94861886D01*
X167673184Y-94750156D01*
X167654903Y-94614264D01*
X167647684Y-94467975D01*
X167652356Y-94325056D01*
X167663657Y-94231331D01*
X167714565Y-94043351D01*
X167800315Y-93863373D01*
X167916826Y-93695962D01*
X168060015Y-93545685D01*
X168225800Y-93417108D01*
X168410098Y-93314797D01*
X168523769Y-93269324D01*
X168622521Y-93245138D01*
X168746170Y-93229369D01*
X168881371Y-93222399D01*
X168881371Y-92947916D01*
X168715259Y-92955920D01*
X168646252Y-92966352D01*
X168413286Y-93024459D01*
X168199919Y-93114941D01*
X168002891Y-93239561D01*
X167818940Y-93400087D01*
X167789885Y-93429868D01*
X167638935Y-93610751D01*
X167524231Y-93801163D01*
X167443158Y-94006522D01*
X167393104Y-94232248D01*
X167389081Y-94260781D01*
X167375453Y-94503066D01*
X167398295Y-94739238D01*
G36*
X167406587Y-98022449D02*
G01*
X167467319Y-98250128D01*
X167558945Y-98462239D01*
X167598708Y-98532398D01*
X167675779Y-98640932D01*
X167776493Y-98756208D01*
X167890134Y-98867641D01*
X168005982Y-98964647D01*
X168103692Y-99031112D01*
X168309999Y-99130923D01*
X168530241Y-99199150D01*
X168758459Y-99235694D01*
X168988698Y-99240457D01*
X169215000Y-99213340D01*
X169431409Y-99154247D01*
X169631967Y-99063077D01*
X169643509Y-99056503D01*
X169822855Y-98931940D01*
X169986903Y-98776596D01*
X170130367Y-98597465D01*
X170247963Y-98401538D01*
X170334403Y-98195807D01*
X170360024Y-98108637D01*
X170385687Y-97978912D01*
X170402309Y-97833397D01*
X170408928Y-97687282D01*
X170404587Y-97555755D01*
X170398333Y-97502299D01*
X170341757Y-97262964D01*
X170248934Y-97036186D01*
X170121800Y-96826335D01*
X170067122Y-96754682D01*
X169904450Y-96583435D01*
X169721151Y-96443040D01*
X169521239Y-96334021D01*
X169308730Y-96256902D01*
X169087639Y-96212209D01*
X168929606Y-96203984D01*
X168929606Y-96465802D01*
X169140751Y-96490936D01*
X169345690Y-96552321D01*
X169518249Y-96636733D01*
X169608441Y-96699924D01*
X169708314Y-96786005D01*
X169807322Y-96884428D01*
X169894920Y-96984650D01*
X169960561Y-97076124D01*
X169964958Y-97083443D01*
X170059254Y-97281064D01*
X170116992Y-97489843D01*
X170137623Y-97705757D01*
X170120598Y-97924786D01*
X170095863Y-98041747D01*
X170035458Y-98212697D01*
X169946041Y-98382418D01*
X169834843Y-98539712D01*
X169709097Y-98673382D01*
X169662478Y-98712915D01*
X169484023Y-98830701D01*
X169293686Y-98913533D01*
X169095620Y-98962095D01*
X168893975Y-98977068D01*
X168692904Y-98959137D01*
X168496558Y-98908983D01*
X168309089Y-98827290D01*
X168134647Y-98714741D01*
X167977385Y-98572017D01*
X167851741Y-98415082D01*
X167751346Y-98234405D01*
X167683856Y-98037948D01*
X167649622Y-97831545D01*
X167648993Y-97621028D01*
X167682319Y-97412231D01*
X167749950Y-97210987D01*
X167776134Y-97154661D01*
X167865458Y-97010853D01*
X167985242Y-96871385D01*
X168126978Y-96743542D01*
X168282160Y-96634610D01*
X168442282Y-96551877D01*
X168509411Y-96526544D01*
X168717433Y-96477483D01*
X168929606Y-96465802D01*
X168929606Y-96203984D01*
X168861982Y-96200464D01*
X168635772Y-96222192D01*
X168413025Y-96277918D01*
X168197756Y-96368167D01*
X168005151Y-96485416D01*
X167852078Y-96613616D01*
X167711554Y-96767877D01*
X167589696Y-96939449D01*
X167492626Y-97119582D01*
X167426460Y-97299524D01*
X167420788Y-97321086D01*
X167382219Y-97550421D01*
X167377853Y-97786711D01*
X167406587Y-98022449D01*
G37*
X167406587Y-98022449D02*
X167467319Y-98250128D01*
X167558945Y-98462239D01*
X167598708Y-98532398D01*
X167675779Y-98640932D01*
X167776493Y-98756208D01*
X167890134Y-98867641D01*
X168005982Y-98964647D01*
X168103692Y-99031112D01*
X168309999Y-99130923D01*
X168530241Y-99199150D01*
X168758459Y-99235694D01*
X168988698Y-99240457D01*
X169215000Y-99213340D01*
X169431409Y-99154247D01*
X169631967Y-99063077D01*
X169643509Y-99056503D01*
X169822855Y-98931940D01*
X169986903Y-98776596D01*
X170130367Y-98597465D01*
X170247963Y-98401538D01*
X170334403Y-98195807D01*
X170360024Y-98108637D01*
X170385687Y-97978912D01*
X170402309Y-97833397D01*
X170408928Y-97687282D01*
X170404587Y-97555755D01*
X170398333Y-97502299D01*
X170341757Y-97262964D01*
X170248934Y-97036186D01*
X170121800Y-96826335D01*
X170067122Y-96754682D01*
X169904450Y-96583435D01*
X169721151Y-96443040D01*
X169521239Y-96334021D01*
X169308730Y-96256902D01*
X169087639Y-96212209D01*
X168929606Y-96203984D01*
X168929606Y-96465802D01*
X169140751Y-96490936D01*
X169345690Y-96552321D01*
X169518249Y-96636733D01*
X169608441Y-96699924D01*
X169708314Y-96786005D01*
X169807322Y-96884428D01*
X169894920Y-96984650D01*
X169960561Y-97076124D01*
X169964958Y-97083443D01*
X170059254Y-97281064D01*
X170116992Y-97489843D01*
X170137623Y-97705757D01*
X170120598Y-97924786D01*
X170095863Y-98041747D01*
X170035458Y-98212697D01*
X169946041Y-98382418D01*
X169834843Y-98539712D01*
X169709097Y-98673382D01*
X169662478Y-98712915D01*
X169484023Y-98830701D01*
X169293686Y-98913533D01*
X169095620Y-98962095D01*
X168893975Y-98977068D01*
X168692904Y-98959137D01*
X168496558Y-98908983D01*
X168309089Y-98827290D01*
X168134647Y-98714741D01*
X167977385Y-98572017D01*
X167851741Y-98415082D01*
X167751346Y-98234405D01*
X167683856Y-98037948D01*
X167649622Y-97831545D01*
X167648993Y-97621028D01*
X167682319Y-97412231D01*
X167749950Y-97210987D01*
X167776134Y-97154661D01*
X167865458Y-97010853D01*
X167985242Y-96871385D01*
X168126978Y-96743542D01*
X168282160Y-96634610D01*
X168442282Y-96551877D01*
X168509411Y-96526544D01*
X168717433Y-96477483D01*
X168929606Y-96465802D01*
X168929606Y-96203984D01*
X168861982Y-96200464D01*
X168635772Y-96222192D01*
X168413025Y-96277918D01*
X168197756Y-96368167D01*
X168005151Y-96485416D01*
X167852078Y-96613616D01*
X167711554Y-96767877D01*
X167589696Y-96939449D01*
X167492626Y-97119582D01*
X167426460Y-97299524D01*
X167420788Y-97321086D01*
X167382219Y-97550421D01*
X167377853Y-97786711D01*
X167406587Y-98022449D01*
G36*
X168447643Y-94199538D02*
G01*
X168478771Y-94277040D01*
X168525000Y-94350827D01*
X168576844Y-94407036D01*
X168601135Y-94423809D01*
X168625461Y-94430595D01*
X168647581Y-94416743D01*
X168675299Y-94375936D01*
X168688211Y-94353321D01*
X168738585Y-94263191D01*
X168680023Y-94196493D01*
X168633519Y-94124263D01*
X168624439Y-94052111D01*
X168649847Y-93976628D01*
X168694575Y-93922662D01*
X168763778Y-93890590D01*
X168861390Y-93879051D01*
X168926687Y-93880840D01*
X168999710Y-93887412D01*
X169047001Y-93899023D01*
X169081901Y-93920769D01*
X169112499Y-93951821D01*
X169159544Y-94027067D01*
X169167549Y-94103596D01*
X169136518Y-94181096D01*
X169108928Y-94217225D01*
X169049317Y-94285117D01*
X169089786Y-94364443D01*
X169117496Y-94411904D01*
X169140796Y-94440245D01*
X169147736Y-94443769D01*
X169169078Y-94430166D01*
X169206448Y-94394919D01*
X169241592Y-94357002D01*
X169318137Y-94243086D01*
X169357801Y-94119559D01*
X169359942Y-93990756D01*
X169323916Y-93861012D01*
X169317334Y-93846305D01*
X169249034Y-93739973D01*
X169157318Y-93664536D01*
X169041736Y-93619758D01*
X168901835Y-93605403D01*
X168859501Y-93606731D01*
X168769717Y-93616089D01*
X168699936Y-93635749D01*
X168631398Y-93671069D01*
X168628898Y-93672589D01*
X168534869Y-93751720D01*
X168469047Y-93854019D01*
X168433433Y-93973668D01*
X168430030Y-94104849D01*
X168447643Y-94199538D01*
G37*
X168447643Y-94199538D02*
X168478771Y-94277040D01*
X168525000Y-94350827D01*
X168576844Y-94407036D01*
X168601135Y-94423809D01*
X168625461Y-94430595D01*
X168647581Y-94416743D01*
X168675299Y-94375936D01*
X168688211Y-94353321D01*
X168738585Y-94263191D01*
X168680023Y-94196493D01*
X168633519Y-94124263D01*
X168624439Y-94052111D01*
X168649847Y-93976628D01*
X168694575Y-93922662D01*
X168763778Y-93890590D01*
X168861390Y-93879051D01*
X168926687Y-93880840D01*
X168999710Y-93887412D01*
X169047001Y-93899023D01*
X169081901Y-93920769D01*
X169112499Y-93951821D01*
X169159544Y-94027067D01*
X169167549Y-94103596D01*
X169136518Y-94181096D01*
X169108928Y-94217225D01*
X169049317Y-94285117D01*
X169089786Y-94364443D01*
X169117496Y-94411904D01*
X169140796Y-94440245D01*
X169147736Y-94443769D01*
X169169078Y-94430166D01*
X169206448Y-94394919D01*
X169241592Y-94357002D01*
X169318137Y-94243086D01*
X169357801Y-94119559D01*
X169359942Y-93990756D01*
X169323916Y-93861012D01*
X169317334Y-93846305D01*
X169249034Y-93739973D01*
X169157318Y-93664536D01*
X169041736Y-93619758D01*
X168901835Y-93605403D01*
X168859501Y-93606731D01*
X168769717Y-93616089D01*
X168699936Y-93635749D01*
X168631398Y-93671069D01*
X168628898Y-93672589D01*
X168534869Y-93751720D01*
X168469047Y-93854019D01*
X168433433Y-93973668D01*
X168430030Y-94104849D01*
X168447643Y-94199538D01*
G36*
X168446947Y-95074760D02*
G01*
X168486970Y-95176622D01*
X168545711Y-95259047D01*
X168605874Y-95305443D01*
X168629377Y-95309773D01*
X168653572Y-95291314D01*
X168685489Y-95244141D01*
X168692323Y-95232612D01*
X168722060Y-95178242D01*
X168731991Y-95146235D01*
X168724280Y-95126639D01*
X168716783Y-95120078D01*
X168670036Y-95071322D01*
X168634854Y-95011087D01*
X168621461Y-94958110D01*
X168638534Y-94876755D01*
X168687865Y-94814690D01*
X168766618Y-94774014D01*
X168871958Y-94756823D01*
X168894038Y-94756384D01*
X168999520Y-94769435D01*
X169082197Y-94805303D01*
X169138996Y-94859063D01*
X169166845Y-94925787D01*
X169162673Y-95000549D01*
X169123406Y-95078422D01*
X169107275Y-95098337D01*
X169046013Y-95168112D01*
X169080935Y-95245556D01*
X169107301Y-95292910D01*
X169132249Y-95320294D01*
X169139709Y-95323000D01*
X169171272Y-95307635D01*
X169214399Y-95267905D01*
X169261241Y-95213361D01*
X169303947Y-95153552D01*
X169334670Y-95098027D01*
X169342792Y-95075930D01*
X169363493Y-94936581D01*
X169345937Y-94804648D01*
X169313395Y-94721277D01*
X169241141Y-94617786D01*
X169143191Y-94542119D01*
X169023345Y-94496464D01*
X168899694Y-94482846D01*
X168768486Y-94499876D01*
X168649228Y-94548095D01*
X168549078Y-94623200D01*
X168475196Y-94720883D01*
X168462928Y-94745525D01*
X168432553Y-94849913D01*
X168428017Y-94962758D01*
X168446947Y-95074760D01*
G37*
X168446947Y-95074760D02*
X168486970Y-95176622D01*
X168545711Y-95259047D01*
X168605874Y-95305443D01*
X168629377Y-95309773D01*
X168653572Y-95291314D01*
X168685489Y-95244141D01*
X168692323Y-95232612D01*
X168722060Y-95178242D01*
X168731991Y-95146235D01*
X168724280Y-95126639D01*
X168716783Y-95120078D01*
X168670036Y-95071322D01*
X168634854Y-95011087D01*
X168621461Y-94958110D01*
X168638534Y-94876755D01*
X168687865Y-94814690D01*
X168766618Y-94774014D01*
X168871958Y-94756823D01*
X168894038Y-94756384D01*
X168999520Y-94769435D01*
X169082197Y-94805303D01*
X169138996Y-94859063D01*
X169166845Y-94925787D01*
X169162673Y-95000549D01*
X169123406Y-95078422D01*
X169107275Y-95098337D01*
X169046013Y-95168112D01*
X169080935Y-95245556D01*
X169107301Y-95292910D01*
X169132249Y-95320294D01*
X169139709Y-95323000D01*
X169171272Y-95307635D01*
X169214399Y-95267905D01*
X169261241Y-95213361D01*
X169303947Y-95153552D01*
X169334670Y-95098027D01*
X169342792Y-95075930D01*
X169363493Y-94936581D01*
X169345937Y-94804648D01*
X169313395Y-94721277D01*
X169241141Y-94617786D01*
X169143191Y-94542119D01*
X169023345Y-94496464D01*
X168899694Y-94482846D01*
X168768486Y-94499876D01*
X168649228Y-94548095D01*
X168549078Y-94623200D01*
X168475196Y-94720883D01*
X168462928Y-94745525D01*
X168432553Y-94849913D01*
X168428017Y-94962758D01*
X168446947Y-95074760D01*
G36*
X168028741Y-97803811D02*
G01*
X168036437Y-97868433D01*
X168054197Y-97926500D01*
X168080884Y-97985438D01*
X168156996Y-98100396D01*
X168261970Y-98192653D01*
X168397151Y-98262998D01*
X168563883Y-98312221D01*
X168668464Y-98330430D01*
X168822178Y-98346732D01*
X168958482Y-98348518D01*
X169096356Y-98335516D01*
X169172732Y-98323221D01*
X169346964Y-98278400D01*
X169493191Y-98211711D01*
X169609342Y-98124491D01*
X169693346Y-98018076D01*
X169716706Y-97972208D01*
X169745276Y-97879059D01*
X169761619Y-97766724D01*
X169763967Y-97653671D01*
X169754705Y-97575717D01*
X169734781Y-97500400D01*
X169706095Y-97438805D01*
X169660485Y-97375906D01*
X169622434Y-97332215D01*
X169517255Y-97242059D01*
X169384080Y-97174193D01*
X169346694Y-97163610D01*
X169346694Y-97569923D01*
X169393731Y-97586634D01*
X169425658Y-97630315D01*
X169440931Y-97691292D01*
X169438004Y-97759889D01*
X169415334Y-97826429D01*
X169392962Y-97859755D01*
X169343793Y-97901901D01*
X169277909Y-97939205D01*
X169251308Y-97949849D01*
X169172223Y-97969110D01*
X169068359Y-97983750D01*
X168953843Y-97992803D01*
X168842802Y-97995303D01*
X168749362Y-97990284D01*
X168720889Y-97986108D01*
X168634702Y-97969973D01*
X168978738Y-97769948D01*
X169084104Y-97709344D01*
X169178798Y-97656119D01*
X169257368Y-97613240D01*
X169314360Y-97583669D01*
X169344321Y-97570371D01*
X169346694Y-97569923D01*
X169346694Y-97163610D01*
X169221483Y-97128164D01*
X169028041Y-97103520D01*
X168929984Y-97100195D01*
X168929984Y-97446854D01*
X168990716Y-97448815D01*
X169036666Y-97450833D01*
X169069212Y-97453582D01*
X169085645Y-97459422D01*
X169083254Y-97470712D01*
X169059330Y-97489811D01*
X169011164Y-97519079D01*
X168936045Y-97560876D01*
X168831263Y-97617562D01*
X168741196Y-97666079D01*
X168630619Y-97725141D01*
X168548656Y-97767165D01*
X168489906Y-97794345D01*
X168448967Y-97808875D01*
X168420434Y-97812947D01*
X168398908Y-97808754D01*
X168394389Y-97806855D01*
X168358197Y-97770920D01*
X168347645Y-97712827D01*
X168363352Y-97640436D01*
X168378617Y-97606317D01*
X168429136Y-97549215D01*
X168513397Y-97503724D01*
X168627535Y-97470837D01*
X168767686Y-97451549D01*
X168929984Y-97446854D01*
X168929984Y-97100195D01*
X168887731Y-97098762D01*
X168674678Y-97109688D01*
X168492138Y-97144279D01*
X168339339Y-97202786D01*
X168215506Y-97285462D01*
X168166396Y-97333508D01*
X168099584Y-97418991D01*
X168057242Y-97505481D01*
X168034819Y-97605566D01*
X168027925Y-97716461D01*
X168028741Y-97803811D01*
G37*
X168028741Y-97803811D02*
X168036437Y-97868433D01*
X168054197Y-97926500D01*
X168080884Y-97985438D01*
X168156996Y-98100396D01*
X168261970Y-98192653D01*
X168397151Y-98262998D01*
X168563883Y-98312221D01*
X168668464Y-98330430D01*
X168822178Y-98346732D01*
X168958482Y-98348518D01*
X169096356Y-98335516D01*
X169172732Y-98323221D01*
X169346964Y-98278400D01*
X169493191Y-98211711D01*
X169609342Y-98124491D01*
X169693346Y-98018076D01*
X169716706Y-97972208D01*
X169745276Y-97879059D01*
X169761619Y-97766724D01*
X169763967Y-97653671D01*
X169754705Y-97575717D01*
X169734781Y-97500400D01*
X169706095Y-97438805D01*
X169660485Y-97375906D01*
X169622434Y-97332215D01*
X169517255Y-97242059D01*
X169384080Y-97174193D01*
X169346694Y-97163610D01*
X169346694Y-97569923D01*
X169393731Y-97586634D01*
X169425658Y-97630315D01*
X169440931Y-97691292D01*
X169438004Y-97759889D01*
X169415334Y-97826429D01*
X169392962Y-97859755D01*
X169343793Y-97901901D01*
X169277909Y-97939205D01*
X169251308Y-97949849D01*
X169172223Y-97969110D01*
X169068359Y-97983750D01*
X168953843Y-97992803D01*
X168842802Y-97995303D01*
X168749362Y-97990284D01*
X168720889Y-97986108D01*
X168634702Y-97969973D01*
X168978738Y-97769948D01*
X169084104Y-97709344D01*
X169178798Y-97656119D01*
X169257368Y-97613240D01*
X169314360Y-97583669D01*
X169344321Y-97570371D01*
X169346694Y-97569923D01*
X169346694Y-97163610D01*
X169221483Y-97128164D01*
X169028041Y-97103520D01*
X168929984Y-97100195D01*
X168929984Y-97446854D01*
X168990716Y-97448815D01*
X169036666Y-97450833D01*
X169069212Y-97453582D01*
X169085645Y-97459422D01*
X169083254Y-97470712D01*
X169059330Y-97489811D01*
X169011164Y-97519079D01*
X168936045Y-97560876D01*
X168831263Y-97617562D01*
X168741196Y-97666079D01*
X168630619Y-97725141D01*
X168548656Y-97767165D01*
X168489906Y-97794345D01*
X168448967Y-97808875D01*
X168420434Y-97812947D01*
X168398908Y-97808754D01*
X168394389Y-97806855D01*
X168358197Y-97770920D01*
X168347645Y-97712827D01*
X168363352Y-97640436D01*
X168378617Y-97606317D01*
X168429136Y-97549215D01*
X168513397Y-97503724D01*
X168627535Y-97470837D01*
X168767686Y-97451549D01*
X168929984Y-97446854D01*
X168929984Y-97100195D01*
X168887731Y-97098762D01*
X168674678Y-97109688D01*
X168492138Y-97144279D01*
X168339339Y-97202786D01*
X168215506Y-97285462D01*
X168166396Y-97333508D01*
X168099584Y-97418991D01*
X168057242Y-97505481D01*
X168034819Y-97605566D01*
X168027925Y-97716461D01*
X168028741Y-97803811D01*
%TO.C,R15*%
D10*
X172379285Y-157057857D02*
X172022142Y-156807857D01*
X172379285Y-156629285D02*
X171629285Y-156629285D01*
X171629285Y-156915000D01*
X171665000Y-156986428D01*
X171700714Y-157022142D01*
X171772142Y-157057857D01*
X171879285Y-157057857D01*
X171950714Y-157022142D01*
X171986428Y-156986428D01*
X172022142Y-156915000D01*
X172022142Y-156629285D01*
X172379285Y-157772142D02*
X172379285Y-157343571D01*
X172379285Y-157557857D02*
X171629285Y-157557857D01*
X171736428Y-157486428D01*
X171807857Y-157415000D01*
X171843571Y-157343571D01*
X171629285Y-158450714D02*
X171629285Y-158093571D01*
X171986428Y-158057857D01*
X171950714Y-158093571D01*
X171915000Y-158165000D01*
X171915000Y-158343571D01*
X171950714Y-158415000D01*
X171986428Y-158450714D01*
X172057857Y-158486428D01*
X172236428Y-158486428D01*
X172307857Y-158450714D01*
X172343571Y-158415000D01*
X172379285Y-158343571D01*
X172379285Y-158165000D01*
X172343571Y-158093571D01*
X172307857Y-158057857D01*
X172409285Y-149970714D02*
X172409285Y-149542142D01*
X172409285Y-149756428D02*
X171659285Y-149756428D01*
X171766428Y-149685000D01*
X171837857Y-149613571D01*
X171873571Y-149542142D01*
X172409285Y-150292142D02*
X171659285Y-150292142D01*
X172123571Y-150363571D02*
X172409285Y-150577857D01*
X171909285Y-150577857D02*
X172195000Y-150292142D01*
%TO.C,R14*%
X122709285Y-127987857D02*
X122352142Y-127737857D01*
X122709285Y-127559285D02*
X121959285Y-127559285D01*
X121959285Y-127845000D01*
X121995000Y-127916428D01*
X122030714Y-127952142D01*
X122102142Y-127987857D01*
X122209285Y-127987857D01*
X122280714Y-127952142D01*
X122316428Y-127916428D01*
X122352142Y-127845000D01*
X122352142Y-127559285D01*
X122709285Y-128702142D02*
X122709285Y-128273571D01*
X122709285Y-128487857D02*
X121959285Y-128487857D01*
X122066428Y-128416428D01*
X122137857Y-128345000D01*
X122173571Y-128273571D01*
X122209285Y-129345000D02*
X122709285Y-129345000D01*
X121923571Y-129166428D02*
X122459285Y-128987857D01*
X122459285Y-129452142D01*
X120339285Y-128380714D02*
X120339285Y-127952142D01*
X120339285Y-128166428D02*
X119589285Y-128166428D01*
X119696428Y-128095000D01*
X119767857Y-128023571D01*
X119803571Y-127952142D01*
X120339285Y-128702142D02*
X119589285Y-128702142D01*
X120053571Y-128773571D02*
X120339285Y-128987857D01*
X119839285Y-128987857D02*
X120125000Y-128702142D01*
%TO.C,R13*%
X172379285Y-116417857D02*
X172022142Y-116167857D01*
X172379285Y-115989285D02*
X171629285Y-115989285D01*
X171629285Y-116275000D01*
X171665000Y-116346428D01*
X171700714Y-116382142D01*
X171772142Y-116417857D01*
X171879285Y-116417857D01*
X171950714Y-116382142D01*
X171986428Y-116346428D01*
X172022142Y-116275000D01*
X172022142Y-115989285D01*
X172379285Y-117132142D02*
X172379285Y-116703571D01*
X172379285Y-116917857D02*
X171629285Y-116917857D01*
X171736428Y-116846428D01*
X171807857Y-116775000D01*
X171843571Y-116703571D01*
X171629285Y-117382142D02*
X171629285Y-117846428D01*
X171915000Y-117596428D01*
X171915000Y-117703571D01*
X171950714Y-117775000D01*
X171986428Y-117810714D01*
X172057857Y-117846428D01*
X172236428Y-117846428D01*
X172307857Y-117810714D01*
X172343571Y-117775000D01*
X172379285Y-117703571D01*
X172379285Y-117489285D01*
X172343571Y-117417857D01*
X172307857Y-117382142D01*
X172409285Y-109330714D02*
X172409285Y-108902142D01*
X172409285Y-109116428D02*
X171659285Y-109116428D01*
X171766428Y-109045000D01*
X171837857Y-108973571D01*
X171873571Y-108902142D01*
X172409285Y-109652142D02*
X171659285Y-109652142D01*
X172123571Y-109723571D02*
X172409285Y-109937857D01*
X171909285Y-109937857D02*
X172195000Y-109652142D01*
%TO.C,R12*%
X122709285Y-88617857D02*
X122352142Y-88367857D01*
X122709285Y-88189285D02*
X121959285Y-88189285D01*
X121959285Y-88475000D01*
X121995000Y-88546428D01*
X122030714Y-88582142D01*
X122102142Y-88617857D01*
X122209285Y-88617857D01*
X122280714Y-88582142D01*
X122316428Y-88546428D01*
X122352142Y-88475000D01*
X122352142Y-88189285D01*
X122709285Y-89332142D02*
X122709285Y-88903571D01*
X122709285Y-89117857D02*
X121959285Y-89117857D01*
X122066428Y-89046428D01*
X122137857Y-88975000D01*
X122173571Y-88903571D01*
X122030714Y-89617857D02*
X121995000Y-89653571D01*
X121959285Y-89725000D01*
X121959285Y-89903571D01*
X121995000Y-89975000D01*
X122030714Y-90010714D01*
X122102142Y-90046428D01*
X122173571Y-90046428D01*
X122280714Y-90010714D01*
X122709285Y-89582142D01*
X122709285Y-90046428D01*
X120339285Y-89010714D02*
X120339285Y-88582142D01*
X120339285Y-88796428D02*
X119589285Y-88796428D01*
X119696428Y-88725000D01*
X119767857Y-88653571D01*
X119803571Y-88582142D01*
X120339285Y-89332142D02*
X119589285Y-89332142D01*
X120053571Y-89403571D02*
X120339285Y-89617857D01*
X119839285Y-89617857D02*
X120125000Y-89332142D01*
%TO.C,R11*%
X174439285Y-76037857D02*
X174082142Y-75787857D01*
X174439285Y-75609285D02*
X173689285Y-75609285D01*
X173689285Y-75895000D01*
X173725000Y-75966428D01*
X173760714Y-76002142D01*
X173832142Y-76037857D01*
X173939285Y-76037857D01*
X174010714Y-76002142D01*
X174046428Y-75966428D01*
X174082142Y-75895000D01*
X174082142Y-75609285D01*
X174439285Y-76752142D02*
X174439285Y-76323571D01*
X174439285Y-76537857D02*
X173689285Y-76537857D01*
X173796428Y-76466428D01*
X173867857Y-76395000D01*
X173903571Y-76323571D01*
X174439285Y-77466428D02*
X174439285Y-77037857D01*
X174439285Y-77252142D02*
X173689285Y-77252142D01*
X173796428Y-77180714D01*
X173867857Y-77109285D01*
X173903571Y-77037857D01*
X172409285Y-68690714D02*
X172409285Y-68262142D01*
X172409285Y-68476428D02*
X171659285Y-68476428D01*
X171766428Y-68405000D01*
X171837857Y-68333571D01*
X171873571Y-68262142D01*
X172409285Y-69012142D02*
X171659285Y-69012142D01*
X172123571Y-69083571D02*
X172409285Y-69297857D01*
X171909285Y-69297857D02*
X172195000Y-69012142D01*
%TO.C,R10*%
X122709285Y-47977857D02*
X122352142Y-47727857D01*
X122709285Y-47549285D02*
X121959285Y-47549285D01*
X121959285Y-47835000D01*
X121995000Y-47906428D01*
X122030714Y-47942142D01*
X122102142Y-47977857D01*
X122209285Y-47977857D01*
X122280714Y-47942142D01*
X122316428Y-47906428D01*
X122352142Y-47835000D01*
X122352142Y-47549285D01*
X122709285Y-48692142D02*
X122709285Y-48263571D01*
X122709285Y-48477857D02*
X121959285Y-48477857D01*
X122066428Y-48406428D01*
X122137857Y-48335000D01*
X122173571Y-48263571D01*
X121959285Y-49156428D02*
X121959285Y-49227857D01*
X121995000Y-49299285D01*
X122030714Y-49335000D01*
X122102142Y-49370714D01*
X122245000Y-49406428D01*
X122423571Y-49406428D01*
X122566428Y-49370714D01*
X122637857Y-49335000D01*
X122673571Y-49299285D01*
X122709285Y-49227857D01*
X122709285Y-49156428D01*
X122673571Y-49085000D01*
X122637857Y-49049285D01*
X122566428Y-49013571D01*
X122423571Y-48977857D01*
X122245000Y-48977857D01*
X122102142Y-49013571D01*
X122030714Y-49049285D01*
X121995000Y-49085000D01*
X121959285Y-49156428D01*
X120339285Y-48370714D02*
X120339285Y-47942142D01*
X120339285Y-48156428D02*
X119589285Y-48156428D01*
X119696428Y-48085000D01*
X119767857Y-48013571D01*
X119803571Y-47942142D01*
X120339285Y-48692142D02*
X119589285Y-48692142D01*
X120053571Y-48763571D02*
X120339285Y-48977857D01*
X119839285Y-48977857D02*
X120125000Y-48692142D01*
%TO.C,R9*%
X172379285Y-35495000D02*
X172022142Y-35245000D01*
X172379285Y-35066428D02*
X171629285Y-35066428D01*
X171629285Y-35352142D01*
X171665000Y-35423571D01*
X171700714Y-35459285D01*
X171772142Y-35495000D01*
X171879285Y-35495000D01*
X171950714Y-35459285D01*
X171986428Y-35423571D01*
X172022142Y-35352142D01*
X172022142Y-35066428D01*
X172379285Y-35852142D02*
X172379285Y-35995000D01*
X172343571Y-36066428D01*
X172307857Y-36102142D01*
X172200714Y-36173571D01*
X172057857Y-36209285D01*
X171772142Y-36209285D01*
X171700714Y-36173571D01*
X171665000Y-36137857D01*
X171629285Y-36066428D01*
X171629285Y-35923571D01*
X171665000Y-35852142D01*
X171700714Y-35816428D01*
X171772142Y-35780714D01*
X171950714Y-35780714D01*
X172022142Y-35816428D01*
X172057857Y-35852142D01*
X172093571Y-35923571D01*
X172093571Y-36066428D01*
X172057857Y-36137857D01*
X172022142Y-36173571D01*
X171950714Y-36209285D01*
X172409285Y-28050714D02*
X172409285Y-27622142D01*
X172409285Y-27836428D02*
X171659285Y-27836428D01*
X171766428Y-27765000D01*
X171837857Y-27693571D01*
X171873571Y-27622142D01*
X172409285Y-28372142D02*
X171659285Y-28372142D01*
X172123571Y-28443571D02*
X172409285Y-28657857D01*
X171909285Y-28657857D02*
X172195000Y-28372142D01*
%TO.C,D9*%
X176199285Y-156966428D02*
X175449285Y-156966428D01*
X175449285Y-157145000D01*
X175485000Y-157252142D01*
X175556428Y-157323571D01*
X175627857Y-157359285D01*
X175770714Y-157395000D01*
X175877857Y-157395000D01*
X176020714Y-157359285D01*
X176092142Y-157323571D01*
X176163571Y-157252142D01*
X176199285Y-157145000D01*
X176199285Y-156966428D01*
X176199285Y-157752142D02*
X176199285Y-157895000D01*
X176163571Y-157966428D01*
X176127857Y-158002142D01*
X176020714Y-158073571D01*
X175877857Y-158109285D01*
X175592142Y-158109285D01*
X175520714Y-158073571D01*
X175485000Y-158037857D01*
X175449285Y-157966428D01*
X175449285Y-157823571D01*
X175485000Y-157752142D01*
X175520714Y-157716428D01*
X175592142Y-157680714D01*
X175770714Y-157680714D01*
X175842142Y-157716428D01*
X175877857Y-157752142D01*
X175913571Y-157823571D01*
X175913571Y-157966428D01*
X175877857Y-158037857D01*
X175842142Y-158073571D01*
X175770714Y-158109285D01*
X176249285Y-142933571D02*
X175499285Y-142933571D01*
X176249285Y-143362142D02*
X175820714Y-143040714D01*
X175499285Y-143362142D02*
X175927857Y-142933571D01*
X176119285Y-148372857D02*
X176119285Y-147944285D01*
X176119285Y-148158571D02*
X175369285Y-148158571D01*
X175476428Y-148087142D01*
X175547857Y-148015714D01*
X175583571Y-147944285D01*
X176119285Y-148694285D02*
X175369285Y-148694285D01*
X176119285Y-149122857D01*
X175369285Y-149122857D01*
X175369285Y-149837142D02*
X175369285Y-149480000D01*
X175726428Y-149444285D01*
X175690714Y-149480000D01*
X175655000Y-149551428D01*
X175655000Y-149730000D01*
X175690714Y-149801428D01*
X175726428Y-149837142D01*
X175797857Y-149872857D01*
X175976428Y-149872857D01*
X176047857Y-149837142D01*
X176083571Y-149801428D01*
X176119285Y-149730000D01*
X176119285Y-149551428D01*
X176083571Y-149480000D01*
X176047857Y-149444285D01*
X175690714Y-150301428D02*
X175655000Y-150230000D01*
X175619285Y-150194285D01*
X175547857Y-150158571D01*
X175512142Y-150158571D01*
X175440714Y-150194285D01*
X175405000Y-150230000D01*
X175369285Y-150301428D01*
X175369285Y-150444285D01*
X175405000Y-150515714D01*
X175440714Y-150551428D01*
X175512142Y-150587142D01*
X175547857Y-150587142D01*
X175619285Y-150551428D01*
X175655000Y-150515714D01*
X175690714Y-150444285D01*
X175690714Y-150301428D01*
X175726428Y-150230000D01*
X175762142Y-150194285D01*
X175833571Y-150158571D01*
X175976428Y-150158571D01*
X176047857Y-150194285D01*
X176083571Y-150230000D01*
X176119285Y-150301428D01*
X176119285Y-150444285D01*
X176083571Y-150515714D01*
X176047857Y-150551428D01*
X175976428Y-150587142D01*
X175833571Y-150587142D01*
X175762142Y-150551428D01*
X175726428Y-150515714D01*
X175690714Y-150444285D01*
X176119285Y-151301428D02*
X176119285Y-150872857D01*
X176119285Y-151087142D02*
X175369285Y-151087142D01*
X175476428Y-151015714D01*
X175547857Y-150944285D01*
X175583571Y-150872857D01*
X175369285Y-151551428D02*
X175369285Y-152051428D01*
X176119285Y-151730000D01*
%TO.C,D8*%
X114059285Y-127916428D02*
X113309285Y-127916428D01*
X113309285Y-128095000D01*
X113345000Y-128202142D01*
X113416428Y-128273571D01*
X113487857Y-128309285D01*
X113630714Y-128345000D01*
X113737857Y-128345000D01*
X113880714Y-128309285D01*
X113952142Y-128273571D01*
X114023571Y-128202142D01*
X114059285Y-128095000D01*
X114059285Y-127916428D01*
X113630714Y-128773571D02*
X113595000Y-128702142D01*
X113559285Y-128666428D01*
X113487857Y-128630714D01*
X113452142Y-128630714D01*
X113380714Y-128666428D01*
X113345000Y-128702142D01*
X113309285Y-128773571D01*
X113309285Y-128916428D01*
X113345000Y-128987857D01*
X113380714Y-129023571D01*
X113452142Y-129059285D01*
X113487857Y-129059285D01*
X113559285Y-129023571D01*
X113595000Y-128987857D01*
X113630714Y-128916428D01*
X113630714Y-128773571D01*
X113666428Y-128702142D01*
X113702142Y-128666428D01*
X113773571Y-128630714D01*
X113916428Y-128630714D01*
X113987857Y-128666428D01*
X114023571Y-128702142D01*
X114059285Y-128773571D01*
X114059285Y-128916428D01*
X114023571Y-128987857D01*
X113987857Y-129023571D01*
X113916428Y-129059285D01*
X113773571Y-129059285D01*
X113702142Y-129023571D01*
X113666428Y-128987857D01*
X113630714Y-128916428D01*
X114429285Y-123193571D02*
X113679285Y-123193571D01*
X114429285Y-123622142D02*
X114000714Y-123300714D01*
X113679285Y-123622142D02*
X114107857Y-123193571D01*
X116429285Y-126782857D02*
X116429285Y-126354285D01*
X116429285Y-126568571D02*
X115679285Y-126568571D01*
X115786428Y-126497142D01*
X115857857Y-126425714D01*
X115893571Y-126354285D01*
X116429285Y-127104285D02*
X115679285Y-127104285D01*
X116429285Y-127532857D01*
X115679285Y-127532857D01*
X115679285Y-128247142D02*
X115679285Y-127890000D01*
X116036428Y-127854285D01*
X116000714Y-127890000D01*
X115965000Y-127961428D01*
X115965000Y-128140000D01*
X116000714Y-128211428D01*
X116036428Y-128247142D01*
X116107857Y-128282857D01*
X116286428Y-128282857D01*
X116357857Y-128247142D01*
X116393571Y-128211428D01*
X116429285Y-128140000D01*
X116429285Y-127961428D01*
X116393571Y-127890000D01*
X116357857Y-127854285D01*
X116000714Y-128711428D02*
X115965000Y-128640000D01*
X115929285Y-128604285D01*
X115857857Y-128568571D01*
X115822142Y-128568571D01*
X115750714Y-128604285D01*
X115715000Y-128640000D01*
X115679285Y-128711428D01*
X115679285Y-128854285D01*
X115715000Y-128925714D01*
X115750714Y-128961428D01*
X115822142Y-128997142D01*
X115857857Y-128997142D01*
X115929285Y-128961428D01*
X115965000Y-128925714D01*
X116000714Y-128854285D01*
X116000714Y-128711428D01*
X116036428Y-128640000D01*
X116072142Y-128604285D01*
X116143571Y-128568571D01*
X116286428Y-128568571D01*
X116357857Y-128604285D01*
X116393571Y-128640000D01*
X116429285Y-128711428D01*
X116429285Y-128854285D01*
X116393571Y-128925714D01*
X116357857Y-128961428D01*
X116286428Y-128997142D01*
X116143571Y-128997142D01*
X116072142Y-128961428D01*
X116036428Y-128925714D01*
X116000714Y-128854285D01*
X116429285Y-129711428D02*
X116429285Y-129282857D01*
X116429285Y-129497142D02*
X115679285Y-129497142D01*
X115786428Y-129425714D01*
X115857857Y-129354285D01*
X115893571Y-129282857D01*
X115679285Y-129961428D02*
X115679285Y-130461428D01*
X116429285Y-130140000D01*
%TO.C,D7*%
X176199285Y-116326428D02*
X175449285Y-116326428D01*
X175449285Y-116505000D01*
X175485000Y-116612142D01*
X175556428Y-116683571D01*
X175627857Y-116719285D01*
X175770714Y-116755000D01*
X175877857Y-116755000D01*
X176020714Y-116719285D01*
X176092142Y-116683571D01*
X176163571Y-116612142D01*
X176199285Y-116505000D01*
X176199285Y-116326428D01*
X175449285Y-117005000D02*
X175449285Y-117505000D01*
X176199285Y-117183571D01*
X176249285Y-102293571D02*
X175499285Y-102293571D01*
X176249285Y-102722142D02*
X175820714Y-102400714D01*
X175499285Y-102722142D02*
X175927857Y-102293571D01*
X176119285Y-107732857D02*
X176119285Y-107304285D01*
X176119285Y-107518571D02*
X175369285Y-107518571D01*
X175476428Y-107447142D01*
X175547857Y-107375714D01*
X175583571Y-107304285D01*
X176119285Y-108054285D02*
X175369285Y-108054285D01*
X176119285Y-108482857D01*
X175369285Y-108482857D01*
X175369285Y-109197142D02*
X175369285Y-108840000D01*
X175726428Y-108804285D01*
X175690714Y-108840000D01*
X175655000Y-108911428D01*
X175655000Y-109090000D01*
X175690714Y-109161428D01*
X175726428Y-109197142D01*
X175797857Y-109232857D01*
X175976428Y-109232857D01*
X176047857Y-109197142D01*
X176083571Y-109161428D01*
X176119285Y-109090000D01*
X176119285Y-108911428D01*
X176083571Y-108840000D01*
X176047857Y-108804285D01*
X175690714Y-109661428D02*
X175655000Y-109590000D01*
X175619285Y-109554285D01*
X175547857Y-109518571D01*
X175512142Y-109518571D01*
X175440714Y-109554285D01*
X175405000Y-109590000D01*
X175369285Y-109661428D01*
X175369285Y-109804285D01*
X175405000Y-109875714D01*
X175440714Y-109911428D01*
X175512142Y-109947142D01*
X175547857Y-109947142D01*
X175619285Y-109911428D01*
X175655000Y-109875714D01*
X175690714Y-109804285D01*
X175690714Y-109661428D01*
X175726428Y-109590000D01*
X175762142Y-109554285D01*
X175833571Y-109518571D01*
X175976428Y-109518571D01*
X176047857Y-109554285D01*
X176083571Y-109590000D01*
X176119285Y-109661428D01*
X176119285Y-109804285D01*
X176083571Y-109875714D01*
X176047857Y-109911428D01*
X175976428Y-109947142D01*
X175833571Y-109947142D01*
X175762142Y-109911428D01*
X175726428Y-109875714D01*
X175690714Y-109804285D01*
X176119285Y-110661428D02*
X176119285Y-110232857D01*
X176119285Y-110447142D02*
X175369285Y-110447142D01*
X175476428Y-110375714D01*
X175547857Y-110304285D01*
X175583571Y-110232857D01*
X175369285Y-110911428D02*
X175369285Y-111411428D01*
X176119285Y-111090000D01*
%TO.C,D6*%
X114059285Y-88546428D02*
X113309285Y-88546428D01*
X113309285Y-88725000D01*
X113345000Y-88832142D01*
X113416428Y-88903571D01*
X113487857Y-88939285D01*
X113630714Y-88975000D01*
X113737857Y-88975000D01*
X113880714Y-88939285D01*
X113952142Y-88903571D01*
X114023571Y-88832142D01*
X114059285Y-88725000D01*
X114059285Y-88546428D01*
X113309285Y-89617857D02*
X113309285Y-89475000D01*
X113345000Y-89403571D01*
X113380714Y-89367857D01*
X113487857Y-89296428D01*
X113630714Y-89260714D01*
X113916428Y-89260714D01*
X113987857Y-89296428D01*
X114023571Y-89332142D01*
X114059285Y-89403571D01*
X114059285Y-89546428D01*
X114023571Y-89617857D01*
X113987857Y-89653571D01*
X113916428Y-89689285D01*
X113737857Y-89689285D01*
X113666428Y-89653571D01*
X113630714Y-89617857D01*
X113595000Y-89546428D01*
X113595000Y-89403571D01*
X113630714Y-89332142D01*
X113666428Y-89296428D01*
X113737857Y-89260714D01*
X114429285Y-83823571D02*
X113679285Y-83823571D01*
X114429285Y-84252142D02*
X114000714Y-83930714D01*
X113679285Y-84252142D02*
X114107857Y-83823571D01*
X116429285Y-87412857D02*
X116429285Y-86984285D01*
X116429285Y-87198571D02*
X115679285Y-87198571D01*
X115786428Y-87127142D01*
X115857857Y-87055714D01*
X115893571Y-86984285D01*
X116429285Y-87734285D02*
X115679285Y-87734285D01*
X116429285Y-88162857D01*
X115679285Y-88162857D01*
X115679285Y-88877142D02*
X115679285Y-88520000D01*
X116036428Y-88484285D01*
X116000714Y-88520000D01*
X115965000Y-88591428D01*
X115965000Y-88770000D01*
X116000714Y-88841428D01*
X116036428Y-88877142D01*
X116107857Y-88912857D01*
X116286428Y-88912857D01*
X116357857Y-88877142D01*
X116393571Y-88841428D01*
X116429285Y-88770000D01*
X116429285Y-88591428D01*
X116393571Y-88520000D01*
X116357857Y-88484285D01*
X116000714Y-89341428D02*
X115965000Y-89270000D01*
X115929285Y-89234285D01*
X115857857Y-89198571D01*
X115822142Y-89198571D01*
X115750714Y-89234285D01*
X115715000Y-89270000D01*
X115679285Y-89341428D01*
X115679285Y-89484285D01*
X115715000Y-89555714D01*
X115750714Y-89591428D01*
X115822142Y-89627142D01*
X115857857Y-89627142D01*
X115929285Y-89591428D01*
X115965000Y-89555714D01*
X116000714Y-89484285D01*
X116000714Y-89341428D01*
X116036428Y-89270000D01*
X116072142Y-89234285D01*
X116143571Y-89198571D01*
X116286428Y-89198571D01*
X116357857Y-89234285D01*
X116393571Y-89270000D01*
X116429285Y-89341428D01*
X116429285Y-89484285D01*
X116393571Y-89555714D01*
X116357857Y-89591428D01*
X116286428Y-89627142D01*
X116143571Y-89627142D01*
X116072142Y-89591428D01*
X116036428Y-89555714D01*
X116000714Y-89484285D01*
X116429285Y-90341428D02*
X116429285Y-89912857D01*
X116429285Y-90127142D02*
X115679285Y-90127142D01*
X115786428Y-90055714D01*
X115857857Y-89984285D01*
X115893571Y-89912857D01*
X115679285Y-90591428D02*
X115679285Y-91091428D01*
X116429285Y-90770000D01*
%TO.C,D5*%
X176199285Y-75686428D02*
X175449285Y-75686428D01*
X175449285Y-75865000D01*
X175485000Y-75972142D01*
X175556428Y-76043571D01*
X175627857Y-76079285D01*
X175770714Y-76115000D01*
X175877857Y-76115000D01*
X176020714Y-76079285D01*
X176092142Y-76043571D01*
X176163571Y-75972142D01*
X176199285Y-75865000D01*
X176199285Y-75686428D01*
X175449285Y-76793571D02*
X175449285Y-76436428D01*
X175806428Y-76400714D01*
X175770714Y-76436428D01*
X175735000Y-76507857D01*
X175735000Y-76686428D01*
X175770714Y-76757857D01*
X175806428Y-76793571D01*
X175877857Y-76829285D01*
X176056428Y-76829285D01*
X176127857Y-76793571D01*
X176163571Y-76757857D01*
X176199285Y-76686428D01*
X176199285Y-76507857D01*
X176163571Y-76436428D01*
X176127857Y-76400714D01*
X176249285Y-61653571D02*
X175499285Y-61653571D01*
X176249285Y-62082142D02*
X175820714Y-61760714D01*
X175499285Y-62082142D02*
X175927857Y-61653571D01*
X176119285Y-67092857D02*
X176119285Y-66664285D01*
X176119285Y-66878571D02*
X175369285Y-66878571D01*
X175476428Y-66807142D01*
X175547857Y-66735714D01*
X175583571Y-66664285D01*
X176119285Y-67414285D02*
X175369285Y-67414285D01*
X176119285Y-67842857D01*
X175369285Y-67842857D01*
X175369285Y-68557142D02*
X175369285Y-68200000D01*
X175726428Y-68164285D01*
X175690714Y-68200000D01*
X175655000Y-68271428D01*
X175655000Y-68450000D01*
X175690714Y-68521428D01*
X175726428Y-68557142D01*
X175797857Y-68592857D01*
X175976428Y-68592857D01*
X176047857Y-68557142D01*
X176083571Y-68521428D01*
X176119285Y-68450000D01*
X176119285Y-68271428D01*
X176083571Y-68200000D01*
X176047857Y-68164285D01*
X175690714Y-69021428D02*
X175655000Y-68950000D01*
X175619285Y-68914285D01*
X175547857Y-68878571D01*
X175512142Y-68878571D01*
X175440714Y-68914285D01*
X175405000Y-68950000D01*
X175369285Y-69021428D01*
X175369285Y-69164285D01*
X175405000Y-69235714D01*
X175440714Y-69271428D01*
X175512142Y-69307142D01*
X175547857Y-69307142D01*
X175619285Y-69271428D01*
X175655000Y-69235714D01*
X175690714Y-69164285D01*
X175690714Y-69021428D01*
X175726428Y-68950000D01*
X175762142Y-68914285D01*
X175833571Y-68878571D01*
X175976428Y-68878571D01*
X176047857Y-68914285D01*
X176083571Y-68950000D01*
X176119285Y-69021428D01*
X176119285Y-69164285D01*
X176083571Y-69235714D01*
X176047857Y-69271428D01*
X175976428Y-69307142D01*
X175833571Y-69307142D01*
X175762142Y-69271428D01*
X175726428Y-69235714D01*
X175690714Y-69164285D01*
X176119285Y-70021428D02*
X176119285Y-69592857D01*
X176119285Y-69807142D02*
X175369285Y-69807142D01*
X175476428Y-69735714D01*
X175547857Y-69664285D01*
X175583571Y-69592857D01*
X175369285Y-70271428D02*
X175369285Y-70771428D01*
X176119285Y-70450000D01*
%TO.C,D4*%
X114059285Y-47906428D02*
X113309285Y-47906428D01*
X113309285Y-48085000D01*
X113345000Y-48192142D01*
X113416428Y-48263571D01*
X113487857Y-48299285D01*
X113630714Y-48335000D01*
X113737857Y-48335000D01*
X113880714Y-48299285D01*
X113952142Y-48263571D01*
X114023571Y-48192142D01*
X114059285Y-48085000D01*
X114059285Y-47906428D01*
X113559285Y-48977857D02*
X114059285Y-48977857D01*
X113273571Y-48799285D02*
X113809285Y-48620714D01*
X113809285Y-49085000D01*
X114429285Y-43183571D02*
X113679285Y-43183571D01*
X114429285Y-43612142D02*
X114000714Y-43290714D01*
X113679285Y-43612142D02*
X114107857Y-43183571D01*
X116429285Y-46772857D02*
X116429285Y-46344285D01*
X116429285Y-46558571D02*
X115679285Y-46558571D01*
X115786428Y-46487142D01*
X115857857Y-46415714D01*
X115893571Y-46344285D01*
X116429285Y-47094285D02*
X115679285Y-47094285D01*
X116429285Y-47522857D01*
X115679285Y-47522857D01*
X115679285Y-48237142D02*
X115679285Y-47880000D01*
X116036428Y-47844285D01*
X116000714Y-47880000D01*
X115965000Y-47951428D01*
X115965000Y-48130000D01*
X116000714Y-48201428D01*
X116036428Y-48237142D01*
X116107857Y-48272857D01*
X116286428Y-48272857D01*
X116357857Y-48237142D01*
X116393571Y-48201428D01*
X116429285Y-48130000D01*
X116429285Y-47951428D01*
X116393571Y-47880000D01*
X116357857Y-47844285D01*
X116000714Y-48701428D02*
X115965000Y-48630000D01*
X115929285Y-48594285D01*
X115857857Y-48558571D01*
X115822142Y-48558571D01*
X115750714Y-48594285D01*
X115715000Y-48630000D01*
X115679285Y-48701428D01*
X115679285Y-48844285D01*
X115715000Y-48915714D01*
X115750714Y-48951428D01*
X115822142Y-48987142D01*
X115857857Y-48987142D01*
X115929285Y-48951428D01*
X115965000Y-48915714D01*
X116000714Y-48844285D01*
X116000714Y-48701428D01*
X116036428Y-48630000D01*
X116072142Y-48594285D01*
X116143571Y-48558571D01*
X116286428Y-48558571D01*
X116357857Y-48594285D01*
X116393571Y-48630000D01*
X116429285Y-48701428D01*
X116429285Y-48844285D01*
X116393571Y-48915714D01*
X116357857Y-48951428D01*
X116286428Y-48987142D01*
X116143571Y-48987142D01*
X116072142Y-48951428D01*
X116036428Y-48915714D01*
X116000714Y-48844285D01*
X116429285Y-49701428D02*
X116429285Y-49272857D01*
X116429285Y-49487142D02*
X115679285Y-49487142D01*
X115786428Y-49415714D01*
X115857857Y-49344285D01*
X115893571Y-49272857D01*
X115679285Y-49951428D02*
X115679285Y-50451428D01*
X116429285Y-50130000D01*
%TO.C,D3*%
X176199285Y-35046428D02*
X175449285Y-35046428D01*
X175449285Y-35225000D01*
X175485000Y-35332142D01*
X175556428Y-35403571D01*
X175627857Y-35439285D01*
X175770714Y-35475000D01*
X175877857Y-35475000D01*
X176020714Y-35439285D01*
X176092142Y-35403571D01*
X176163571Y-35332142D01*
X176199285Y-35225000D01*
X176199285Y-35046428D01*
X175449285Y-35725000D02*
X175449285Y-36189285D01*
X175735000Y-35939285D01*
X175735000Y-36046428D01*
X175770714Y-36117857D01*
X175806428Y-36153571D01*
X175877857Y-36189285D01*
X176056428Y-36189285D01*
X176127857Y-36153571D01*
X176163571Y-36117857D01*
X176199285Y-36046428D01*
X176199285Y-35832142D01*
X176163571Y-35760714D01*
X176127857Y-35725000D01*
X176249285Y-21013571D02*
X175499285Y-21013571D01*
X176249285Y-21442142D02*
X175820714Y-21120714D01*
X175499285Y-21442142D02*
X175927857Y-21013571D01*
X176119285Y-26452857D02*
X176119285Y-26024285D01*
X176119285Y-26238571D02*
X175369285Y-26238571D01*
X175476428Y-26167142D01*
X175547857Y-26095714D01*
X175583571Y-26024285D01*
X176119285Y-26774285D02*
X175369285Y-26774285D01*
X176119285Y-27202857D01*
X175369285Y-27202857D01*
X175369285Y-27917142D02*
X175369285Y-27560000D01*
X175726428Y-27524285D01*
X175690714Y-27560000D01*
X175655000Y-27631428D01*
X175655000Y-27810000D01*
X175690714Y-27881428D01*
X175726428Y-27917142D01*
X175797857Y-27952857D01*
X175976428Y-27952857D01*
X176047857Y-27917142D01*
X176083571Y-27881428D01*
X176119285Y-27810000D01*
X176119285Y-27631428D01*
X176083571Y-27560000D01*
X176047857Y-27524285D01*
X175690714Y-28381428D02*
X175655000Y-28310000D01*
X175619285Y-28274285D01*
X175547857Y-28238571D01*
X175512142Y-28238571D01*
X175440714Y-28274285D01*
X175405000Y-28310000D01*
X175369285Y-28381428D01*
X175369285Y-28524285D01*
X175405000Y-28595714D01*
X175440714Y-28631428D01*
X175512142Y-28667142D01*
X175547857Y-28667142D01*
X175619285Y-28631428D01*
X175655000Y-28595714D01*
X175690714Y-28524285D01*
X175690714Y-28381428D01*
X175726428Y-28310000D01*
X175762142Y-28274285D01*
X175833571Y-28238571D01*
X175976428Y-28238571D01*
X176047857Y-28274285D01*
X176083571Y-28310000D01*
X176119285Y-28381428D01*
X176119285Y-28524285D01*
X176083571Y-28595714D01*
X176047857Y-28631428D01*
X175976428Y-28667142D01*
X175833571Y-28667142D01*
X175762142Y-28631428D01*
X175726428Y-28595714D01*
X175690714Y-28524285D01*
X176119285Y-29381428D02*
X176119285Y-28952857D01*
X176119285Y-29167142D02*
X175369285Y-29167142D01*
X175476428Y-29095714D01*
X175547857Y-29024285D01*
X175583571Y-28952857D01*
X175369285Y-29631428D02*
X175369285Y-30131428D01*
X176119285Y-29810000D01*
%TO.C,U5*%
X118031428Y-167679285D02*
X118031428Y-168286428D01*
X117995714Y-168357857D01*
X117960000Y-168393571D01*
X117888571Y-168429285D01*
X117745714Y-168429285D01*
X117674285Y-168393571D01*
X117638571Y-168357857D01*
X117602857Y-168286428D01*
X117602857Y-167679285D01*
X116888571Y-167679285D02*
X117245714Y-167679285D01*
X117281428Y-168036428D01*
X117245714Y-168000714D01*
X117174285Y-167965000D01*
X116995714Y-167965000D01*
X116924285Y-168000714D01*
X116888571Y-168036428D01*
X116852857Y-168107857D01*
X116852857Y-168286428D01*
X116888571Y-168357857D01*
X116924285Y-168393571D01*
X116995714Y-168429285D01*
X117174285Y-168429285D01*
X117245714Y-168393571D01*
X117281428Y-168357857D01*
X121174285Y-173259285D02*
X121531428Y-173259285D01*
X121531428Y-172509285D01*
X120924285Y-173259285D02*
X120924285Y-172509285D01*
X120674285Y-173045000D01*
X120424285Y-172509285D01*
X120424285Y-173259285D01*
X119745714Y-172759285D02*
X119745714Y-173259285D01*
X119924285Y-172473571D02*
X120102857Y-173009285D01*
X119638571Y-173009285D01*
X119210000Y-172509285D02*
X119138571Y-172509285D01*
X119067142Y-172545000D01*
X119031428Y-172580714D01*
X118995714Y-172652142D01*
X118960000Y-172795000D01*
X118960000Y-172973571D01*
X118995714Y-173116428D01*
X119031428Y-173187857D01*
X119067142Y-173223571D01*
X119138571Y-173259285D01*
X119210000Y-173259285D01*
X119281428Y-173223571D01*
X119317142Y-173187857D01*
X119352857Y-173116428D01*
X119388571Y-172973571D01*
X119388571Y-172795000D01*
X119352857Y-172652142D01*
X119317142Y-172580714D01*
X119281428Y-172545000D01*
X119210000Y-172509285D01*
X118317142Y-172759285D02*
X118317142Y-173259285D01*
X118495714Y-172473571D02*
X118674285Y-173009285D01*
X118210000Y-173009285D01*
X117781428Y-172509285D02*
X117710000Y-172509285D01*
X117638571Y-172545000D01*
X117602857Y-172580714D01*
X117567142Y-172652142D01*
X117531428Y-172795000D01*
X117531428Y-172973571D01*
X117567142Y-173116428D01*
X117602857Y-173187857D01*
X117638571Y-173223571D01*
X117710000Y-173259285D01*
X117781428Y-173259285D01*
X117852857Y-173223571D01*
X117888571Y-173187857D01*
X117924285Y-173116428D01*
X117960000Y-172973571D01*
X117960000Y-172795000D01*
X117924285Y-172652142D01*
X117888571Y-172580714D01*
X117852857Y-172545000D01*
X117781428Y-172509285D01*
X117210000Y-173259285D02*
X117210000Y-172509285D01*
X117031428Y-172509285D01*
X116924285Y-172545000D01*
X116852857Y-172616428D01*
X116817142Y-172687857D01*
X116781428Y-172830714D01*
X116781428Y-172937857D01*
X116817142Y-173080714D01*
X116852857Y-173152142D01*
X116924285Y-173223571D01*
X117031428Y-173259285D01*
X117210000Y-173259285D01*
X116460000Y-173259285D02*
X116460000Y-172509285D01*
X116174285Y-172509285D02*
X115674285Y-172509285D01*
X116174285Y-173259285D01*
X115674285Y-173259285D01*
X115388571Y-172973571D02*
X114817142Y-172973571D01*
X114067142Y-173259285D02*
X114495714Y-173259285D01*
X114281428Y-173259285D02*
X114281428Y-172509285D01*
X114352857Y-172616428D01*
X114424285Y-172687857D01*
X114495714Y-172723571D01*
X113602857Y-172509285D02*
X113531428Y-172509285D01*
X113460000Y-172545000D01*
X113424285Y-172580714D01*
X113388571Y-172652142D01*
X113352857Y-172795000D01*
X113352857Y-172973571D01*
X113388571Y-173116428D01*
X113424285Y-173187857D01*
X113460000Y-173223571D01*
X113531428Y-173259285D01*
X113602857Y-173259285D01*
X113674285Y-173223571D01*
X113710000Y-173187857D01*
X113745714Y-173116428D01*
X113781428Y-172973571D01*
X113781428Y-172795000D01*
X113745714Y-172652142D01*
X113710000Y-172580714D01*
X113674285Y-172545000D01*
X113602857Y-172509285D01*
%TO.C,R8*%
X117969285Y-161365000D02*
X117612142Y-161115000D01*
X117969285Y-160936428D02*
X117219285Y-160936428D01*
X117219285Y-161222142D01*
X117255000Y-161293571D01*
X117290714Y-161329285D01*
X117362142Y-161365000D01*
X117469285Y-161365000D01*
X117540714Y-161329285D01*
X117576428Y-161293571D01*
X117612142Y-161222142D01*
X117612142Y-160936428D01*
X117540714Y-161793571D02*
X117505000Y-161722142D01*
X117469285Y-161686428D01*
X117397857Y-161650714D01*
X117362142Y-161650714D01*
X117290714Y-161686428D01*
X117255000Y-161722142D01*
X117219285Y-161793571D01*
X117219285Y-161936428D01*
X117255000Y-162007857D01*
X117290714Y-162043571D01*
X117362142Y-162079285D01*
X117397857Y-162079285D01*
X117469285Y-162043571D01*
X117505000Y-162007857D01*
X117540714Y-161936428D01*
X117540714Y-161793571D01*
X117576428Y-161722142D01*
X117612142Y-161686428D01*
X117683571Y-161650714D01*
X117826428Y-161650714D01*
X117897857Y-161686428D01*
X117933571Y-161722142D01*
X117969285Y-161793571D01*
X117969285Y-161936428D01*
X117933571Y-162007857D01*
X117897857Y-162043571D01*
X117826428Y-162079285D01*
X117683571Y-162079285D01*
X117612142Y-162043571D01*
X117576428Y-162007857D01*
X117540714Y-161936428D01*
X120339285Y-161400714D02*
X120339285Y-160972142D01*
X120339285Y-161186428D02*
X119589285Y-161186428D01*
X119696428Y-161115000D01*
X119767857Y-161043571D01*
X119803571Y-160972142D01*
X120339285Y-161722142D02*
X119589285Y-161722142D01*
X120053571Y-161793571D02*
X120339285Y-162007857D01*
X119839285Y-162007857D02*
X120125000Y-161722142D01*
%TO.C,D2*%
X137063571Y-27139285D02*
X137063571Y-26389285D01*
X136885000Y-26389285D01*
X136777857Y-26425000D01*
X136706428Y-26496428D01*
X136670714Y-26567857D01*
X136635000Y-26710714D01*
X136635000Y-26817857D01*
X136670714Y-26960714D01*
X136706428Y-27032142D01*
X136777857Y-27103571D01*
X136885000Y-27139285D01*
X137063571Y-27139285D01*
X136349285Y-26460714D02*
X136313571Y-26425000D01*
X136242142Y-26389285D01*
X136063571Y-26389285D01*
X135992142Y-26425000D01*
X135956428Y-26460714D01*
X135920714Y-26532142D01*
X135920714Y-26603571D01*
X135956428Y-26710714D01*
X136385000Y-27139285D01*
X135920714Y-27139285D01*
X131626428Y-26769285D02*
X131626428Y-26019285D01*
X131197857Y-26769285D02*
X131519285Y-26340714D01*
X131197857Y-26019285D02*
X131626428Y-26447857D01*
X138037142Y-24769285D02*
X138465714Y-24769285D01*
X138251428Y-24769285D02*
X138251428Y-24019285D01*
X138322857Y-24126428D01*
X138394285Y-24197857D01*
X138465714Y-24233571D01*
X137715714Y-24769285D02*
X137715714Y-24019285D01*
X137287142Y-24769285D01*
X137287142Y-24019285D01*
X136572857Y-24019285D02*
X136930000Y-24019285D01*
X136965714Y-24376428D01*
X136930000Y-24340714D01*
X136858571Y-24305000D01*
X136680000Y-24305000D01*
X136608571Y-24340714D01*
X136572857Y-24376428D01*
X136537142Y-24447857D01*
X136537142Y-24626428D01*
X136572857Y-24697857D01*
X136608571Y-24733571D01*
X136680000Y-24769285D01*
X136858571Y-24769285D01*
X136930000Y-24733571D01*
X136965714Y-24697857D01*
X136108571Y-24340714D02*
X136180000Y-24305000D01*
X136215714Y-24269285D01*
X136251428Y-24197857D01*
X136251428Y-24162142D01*
X136215714Y-24090714D01*
X136180000Y-24055000D01*
X136108571Y-24019285D01*
X135965714Y-24019285D01*
X135894285Y-24055000D01*
X135858571Y-24090714D01*
X135822857Y-24162142D01*
X135822857Y-24197857D01*
X135858571Y-24269285D01*
X135894285Y-24305000D01*
X135965714Y-24340714D01*
X136108571Y-24340714D01*
X136180000Y-24376428D01*
X136215714Y-24412142D01*
X136251428Y-24483571D01*
X136251428Y-24626428D01*
X136215714Y-24697857D01*
X136180000Y-24733571D01*
X136108571Y-24769285D01*
X135965714Y-24769285D01*
X135894285Y-24733571D01*
X135858571Y-24697857D01*
X135822857Y-24626428D01*
X135822857Y-24483571D01*
X135858571Y-24412142D01*
X135894285Y-24376428D01*
X135965714Y-24340714D01*
X135108571Y-24769285D02*
X135537142Y-24769285D01*
X135322857Y-24769285D02*
X135322857Y-24019285D01*
X135394285Y-24126428D01*
X135465714Y-24197857D01*
X135537142Y-24233571D01*
X134858571Y-24019285D02*
X134358571Y-24019285D01*
X134680000Y-24769285D01*
%TO.C,D1*%
X137063571Y-28549285D02*
X137063571Y-27799285D01*
X136885000Y-27799285D01*
X136777857Y-27835000D01*
X136706428Y-27906428D01*
X136670714Y-27977857D01*
X136635000Y-28120714D01*
X136635000Y-28227857D01*
X136670714Y-28370714D01*
X136706428Y-28442142D01*
X136777857Y-28513571D01*
X136885000Y-28549285D01*
X137063571Y-28549285D01*
X135920714Y-28549285D02*
X136349285Y-28549285D01*
X136135000Y-28549285D02*
X136135000Y-27799285D01*
X136206428Y-27906428D01*
X136277857Y-27977857D01*
X136349285Y-28013571D01*
X141786428Y-28919285D02*
X141786428Y-28169285D01*
X141357857Y-28919285D02*
X141679285Y-28490714D01*
X141357857Y-28169285D02*
X141786428Y-28597857D01*
X138197142Y-30919285D02*
X138625714Y-30919285D01*
X138411428Y-30919285D02*
X138411428Y-30169285D01*
X138482857Y-30276428D01*
X138554285Y-30347857D01*
X138625714Y-30383571D01*
X137875714Y-30919285D02*
X137875714Y-30169285D01*
X137447142Y-30919285D01*
X137447142Y-30169285D01*
X136732857Y-30169285D02*
X137090000Y-30169285D01*
X137125714Y-30526428D01*
X137090000Y-30490714D01*
X137018571Y-30455000D01*
X136840000Y-30455000D01*
X136768571Y-30490714D01*
X136732857Y-30526428D01*
X136697142Y-30597857D01*
X136697142Y-30776428D01*
X136732857Y-30847857D01*
X136768571Y-30883571D01*
X136840000Y-30919285D01*
X137018571Y-30919285D01*
X137090000Y-30883571D01*
X137125714Y-30847857D01*
X136268571Y-30490714D02*
X136340000Y-30455000D01*
X136375714Y-30419285D01*
X136411428Y-30347857D01*
X136411428Y-30312142D01*
X136375714Y-30240714D01*
X136340000Y-30205000D01*
X136268571Y-30169285D01*
X136125714Y-30169285D01*
X136054285Y-30205000D01*
X136018571Y-30240714D01*
X135982857Y-30312142D01*
X135982857Y-30347857D01*
X136018571Y-30419285D01*
X136054285Y-30455000D01*
X136125714Y-30490714D01*
X136268571Y-30490714D01*
X136340000Y-30526428D01*
X136375714Y-30562142D01*
X136411428Y-30633571D01*
X136411428Y-30776428D01*
X136375714Y-30847857D01*
X136340000Y-30883571D01*
X136268571Y-30919285D01*
X136125714Y-30919285D01*
X136054285Y-30883571D01*
X136018571Y-30847857D01*
X135982857Y-30776428D01*
X135982857Y-30633571D01*
X136018571Y-30562142D01*
X136054285Y-30526428D01*
X136125714Y-30490714D01*
X135268571Y-30919285D02*
X135697142Y-30919285D01*
X135482857Y-30919285D02*
X135482857Y-30169285D01*
X135554285Y-30276428D01*
X135625714Y-30347857D01*
X135697142Y-30383571D01*
X135018571Y-30169285D02*
X134518571Y-30169285D01*
X134840000Y-30919285D01*
%TO.C,R1*%
X149973285Y-108787000D02*
X149616142Y-108537000D01*
X149973285Y-108358428D02*
X149223285Y-108358428D01*
X149223285Y-108644142D01*
X149259000Y-108715571D01*
X149294714Y-108751285D01*
X149366142Y-108787000D01*
X149473285Y-108787000D01*
X149544714Y-108751285D01*
X149580428Y-108715571D01*
X149616142Y-108644142D01*
X149616142Y-108358428D01*
X149973285Y-109501285D02*
X149973285Y-109072714D01*
X149973285Y-109287000D02*
X149223285Y-109287000D01*
X149330428Y-109215571D01*
X149401857Y-109144142D01*
X149437571Y-109072714D01*
X150819285Y-101585714D02*
X150819285Y-101157142D01*
X150819285Y-101371428D02*
X150069285Y-101371428D01*
X150176428Y-101300000D01*
X150247857Y-101228571D01*
X150283571Y-101157142D01*
X150819285Y-101907142D02*
X150069285Y-101907142D01*
X150605000Y-102157142D01*
X150069285Y-102407142D01*
X150819285Y-102407142D01*
%TO.C,R2*%
X140615285Y-68723000D02*
X140258142Y-68473000D01*
X140615285Y-68294428D02*
X139865285Y-68294428D01*
X139865285Y-68580142D01*
X139901000Y-68651571D01*
X139936714Y-68687285D01*
X140008142Y-68723000D01*
X140115285Y-68723000D01*
X140186714Y-68687285D01*
X140222428Y-68651571D01*
X140258142Y-68580142D01*
X140258142Y-68294428D01*
X139936714Y-69008714D02*
X139901000Y-69044428D01*
X139865285Y-69115857D01*
X139865285Y-69294428D01*
X139901000Y-69365857D01*
X139936714Y-69401571D01*
X140008142Y-69437285D01*
X140079571Y-69437285D01*
X140186714Y-69401571D01*
X140615285Y-68973000D01*
X140615285Y-69437285D01*
X140659285Y-76185714D02*
X140659285Y-75757142D01*
X140659285Y-75971428D02*
X139909285Y-75971428D01*
X140016428Y-75900000D01*
X140087857Y-75828571D01*
X140123571Y-75757142D01*
X140659285Y-76507142D02*
X139909285Y-76507142D01*
X140445000Y-76757142D01*
X139909285Y-77007142D01*
X140659285Y-77007142D01*
%TO.C,R5*%
X146163285Y-108787000D02*
X145806142Y-108537000D01*
X146163285Y-108358428D02*
X145413285Y-108358428D01*
X145413285Y-108644142D01*
X145449000Y-108715571D01*
X145484714Y-108751285D01*
X145556142Y-108787000D01*
X145663285Y-108787000D01*
X145734714Y-108751285D01*
X145770428Y-108715571D01*
X145806142Y-108644142D01*
X145806142Y-108358428D01*
X145413285Y-109465571D02*
X145413285Y-109108428D01*
X145770428Y-109072714D01*
X145734714Y-109108428D01*
X145699000Y-109179857D01*
X145699000Y-109358428D01*
X145734714Y-109429857D01*
X145770428Y-109465571D01*
X145841857Y-109501285D01*
X146020428Y-109501285D01*
X146091857Y-109465571D01*
X146127571Y-109429857D01*
X146163285Y-109358428D01*
X146163285Y-109179857D01*
X146127571Y-109108428D01*
X146091857Y-109072714D01*
X147009285Y-101585714D02*
X147009285Y-101157142D01*
X147009285Y-101371428D02*
X146259285Y-101371428D01*
X146366428Y-101300000D01*
X146437857Y-101228571D01*
X146473571Y-101157142D01*
X147009285Y-101907142D02*
X146259285Y-101907142D01*
X146795000Y-102157142D01*
X146259285Y-102407142D01*
X147009285Y-102407142D01*
%TO.C,R4*%
X145909285Y-142315000D02*
X145552142Y-142065000D01*
X145909285Y-141886428D02*
X145159285Y-141886428D01*
X145159285Y-142172142D01*
X145195000Y-142243571D01*
X145230714Y-142279285D01*
X145302142Y-142315000D01*
X145409285Y-142315000D01*
X145480714Y-142279285D01*
X145516428Y-142243571D01*
X145552142Y-142172142D01*
X145552142Y-141886428D01*
X145409285Y-142957857D02*
X145909285Y-142957857D01*
X145123571Y-142779285D02*
X145659285Y-142600714D01*
X145659285Y-143065000D01*
X148279285Y-142225714D02*
X148279285Y-141797142D01*
X148279285Y-142011428D02*
X147529285Y-142011428D01*
X147636428Y-141940000D01*
X147707857Y-141868571D01*
X147743571Y-141797142D01*
X148279285Y-142547142D02*
X147529285Y-142547142D01*
X148065000Y-142797142D01*
X147529285Y-143047142D01*
X148279285Y-143047142D01*
%TO.C,R3*%
X152173285Y-109803000D02*
X151816142Y-109553000D01*
X152173285Y-109374428D02*
X151423285Y-109374428D01*
X151423285Y-109660142D01*
X151459000Y-109731571D01*
X151494714Y-109767285D01*
X151566142Y-109803000D01*
X151673285Y-109803000D01*
X151744714Y-109767285D01*
X151780428Y-109731571D01*
X151816142Y-109660142D01*
X151816142Y-109374428D01*
X151423285Y-110053000D02*
X151423285Y-110517285D01*
X151709000Y-110267285D01*
X151709000Y-110374428D01*
X151744714Y-110445857D01*
X151780428Y-110481571D01*
X151851857Y-110517285D01*
X152030428Y-110517285D01*
X152101857Y-110481571D01*
X152137571Y-110445857D01*
X152173285Y-110374428D01*
X152173285Y-110160142D01*
X152137571Y-110088714D01*
X152101857Y-110053000D01*
X150819285Y-116825714D02*
X150819285Y-116397142D01*
X150819285Y-116611428D02*
X150069285Y-116611428D01*
X150176428Y-116540000D01*
X150247857Y-116468571D01*
X150283571Y-116397142D01*
X150819285Y-117147142D02*
X150069285Y-117147142D01*
X150605000Y-117397142D01*
X150069285Y-117647142D01*
X150819285Y-117647142D01*
%TO.C,R6*%
X144481285Y-68723000D02*
X144124142Y-68473000D01*
X144481285Y-68294428D02*
X143731285Y-68294428D01*
X143731285Y-68580142D01*
X143767000Y-68651571D01*
X143802714Y-68687285D01*
X143874142Y-68723000D01*
X143981285Y-68723000D01*
X144052714Y-68687285D01*
X144088428Y-68651571D01*
X144124142Y-68580142D01*
X144124142Y-68294428D01*
X143731285Y-69365857D02*
X143731285Y-69223000D01*
X143767000Y-69151571D01*
X143802714Y-69115857D01*
X143909857Y-69044428D01*
X144052714Y-69008714D01*
X144338428Y-69008714D01*
X144409857Y-69044428D01*
X144445571Y-69080142D01*
X144481285Y-69151571D01*
X144481285Y-69294428D01*
X144445571Y-69365857D01*
X144409857Y-69401571D01*
X144338428Y-69437285D01*
X144159857Y-69437285D01*
X144088428Y-69401571D01*
X144052714Y-69365857D01*
X144017000Y-69294428D01*
X144017000Y-69151571D01*
X144052714Y-69080142D01*
X144088428Y-69044428D01*
X144159857Y-69008714D01*
X144469285Y-76185714D02*
X144469285Y-75757142D01*
X144469285Y-75971428D02*
X143719285Y-75971428D01*
X143826428Y-75900000D01*
X143897857Y-75828571D01*
X143933571Y-75757142D01*
X144469285Y-76507142D02*
X143719285Y-76507142D01*
X144255000Y-76757142D01*
X143719285Y-77007142D01*
X144469285Y-77007142D01*
%TO.C,R7*%
X148363285Y-109803000D02*
X148006142Y-109553000D01*
X148363285Y-109374428D02*
X147613285Y-109374428D01*
X147613285Y-109660142D01*
X147649000Y-109731571D01*
X147684714Y-109767285D01*
X147756142Y-109803000D01*
X147863285Y-109803000D01*
X147934714Y-109767285D01*
X147970428Y-109731571D01*
X148006142Y-109660142D01*
X148006142Y-109374428D01*
X147613285Y-110053000D02*
X147613285Y-110553000D01*
X148363285Y-110231571D01*
X147009285Y-116825714D02*
X147009285Y-116397142D01*
X147009285Y-116611428D02*
X146259285Y-116611428D01*
X146366428Y-116540000D01*
X146437857Y-116468571D01*
X146473571Y-116397142D01*
X147009285Y-117147142D02*
X146259285Y-117147142D01*
X146795000Y-117397142D01*
X146259285Y-117647142D01*
X147009285Y-117647142D01*
%TO.C,J11*%
X123709285Y-140562857D02*
X124245000Y-140562857D01*
X124352142Y-140527142D01*
X124423571Y-140455714D01*
X124459285Y-140348571D01*
X124459285Y-140277142D01*
X124459285Y-141312857D02*
X124459285Y-140884285D01*
X124459285Y-141098571D02*
X123709285Y-141098571D01*
X123816428Y-141027142D01*
X123887857Y-140955714D01*
X123923571Y-140884285D01*
X124459285Y-142027142D02*
X124459285Y-141598571D01*
X124459285Y-141812857D02*
X123709285Y-141812857D01*
X123816428Y-141741428D01*
X123887857Y-141670000D01*
X123923571Y-141598571D01*
%TO.C,J13*%
X123709285Y-149452857D02*
X124245000Y-149452857D01*
X124352142Y-149417142D01*
X124423571Y-149345714D01*
X124459285Y-149238571D01*
X124459285Y-149167142D01*
X124459285Y-150202857D02*
X124459285Y-149774285D01*
X124459285Y-149988571D02*
X123709285Y-149988571D01*
X123816428Y-149917142D01*
X123887857Y-149845714D01*
X123923571Y-149774285D01*
X123709285Y-150452857D02*
X123709285Y-150917142D01*
X123995000Y-150667142D01*
X123995000Y-150774285D01*
X124030714Y-150845714D01*
X124066428Y-150881428D01*
X124137857Y-150917142D01*
X124316428Y-150917142D01*
X124387857Y-150881428D01*
X124423571Y-150845714D01*
X124459285Y-150774285D01*
X124459285Y-150560000D01*
X124423571Y-150488571D01*
X124387857Y-150452857D01*
%TO.C,J9*%
X116682380Y-177666666D02*
X117396666Y-177666666D01*
X117539523Y-177619047D01*
X117634761Y-177523809D01*
X117682380Y-177380952D01*
X117682380Y-177285714D01*
X117682380Y-178190476D02*
X117682380Y-178380952D01*
X117634761Y-178476190D01*
X117587142Y-178523809D01*
X117444285Y-178619047D01*
X117253809Y-178666666D01*
X116872857Y-178666666D01*
X116777619Y-178619047D01*
X116730000Y-178571428D01*
X116682380Y-178476190D01*
X116682380Y-178285714D01*
X116730000Y-178190476D01*
X116777619Y-178142857D01*
X116872857Y-178095238D01*
X117110952Y-178095238D01*
X117206190Y-178142857D01*
X117253809Y-178190476D01*
X117301428Y-178285714D01*
X117301428Y-178476190D01*
X117253809Y-178571428D01*
X117206190Y-178619047D01*
X117110952Y-178666666D01*
%TO.C,J6*%
X116940000Y-29679285D02*
X116940000Y-30215000D01*
X116975714Y-30322142D01*
X117047142Y-30393571D01*
X117154285Y-30429285D01*
X117225714Y-30429285D01*
X116261428Y-29679285D02*
X116404285Y-29679285D01*
X116475714Y-29715000D01*
X116511428Y-29750714D01*
X116582857Y-29857857D01*
X116618571Y-30000714D01*
X116618571Y-30286428D01*
X116582857Y-30357857D01*
X116547142Y-30393571D01*
X116475714Y-30429285D01*
X116332857Y-30429285D01*
X116261428Y-30393571D01*
X116225714Y-30357857D01*
X116190000Y-30286428D01*
X116190000Y-30107857D01*
X116225714Y-30036428D01*
X116261428Y-30000714D01*
X116332857Y-29965000D01*
X116475714Y-29965000D01*
X116547142Y-30000714D01*
X116582857Y-30036428D01*
X116618571Y-30107857D01*
X137111428Y-40712380D02*
X137444761Y-40236190D01*
X137682857Y-40712380D02*
X137682857Y-39712380D01*
X137301904Y-39712380D01*
X137206666Y-39760000D01*
X137159047Y-39807619D01*
X137111428Y-39902857D01*
X137111428Y-40045714D01*
X137159047Y-40140952D01*
X137206666Y-40188571D01*
X137301904Y-40236190D01*
X137682857Y-40236190D01*
X136682857Y-40188571D02*
X136349523Y-40188571D01*
X136206666Y-40712380D02*
X136682857Y-40712380D01*
X136682857Y-39712380D01*
X136206666Y-39712380D01*
X135778095Y-40712380D02*
X135778095Y-39712380D01*
X135540000Y-39712380D01*
X135397142Y-39760000D01*
X135301904Y-39855238D01*
X135254285Y-39950476D01*
X135206666Y-40140952D01*
X135206666Y-40283809D01*
X135254285Y-40474285D01*
X135301904Y-40569523D01*
X135397142Y-40664761D01*
X135540000Y-40712380D01*
X135778095Y-40712380D01*
X134063809Y-40664761D02*
X133920952Y-40712380D01*
X133682857Y-40712380D01*
X133587619Y-40664761D01*
X133539999Y-40617142D01*
X133492380Y-40521904D01*
X133492380Y-40426666D01*
X133539999Y-40331428D01*
X133587619Y-40283809D01*
X133682857Y-40236190D01*
X133873333Y-40188571D01*
X133968571Y-40140952D01*
X134016190Y-40093333D01*
X134063809Y-39998095D01*
X134063809Y-39902857D01*
X134016190Y-39807619D01*
X133968571Y-39760000D01*
X133873333Y-39712380D01*
X133635238Y-39712380D01*
X133492380Y-39760000D01*
X133206666Y-39712380D02*
X132635238Y-39712380D01*
X132920952Y-40712380D02*
X132920952Y-39712380D01*
X131730476Y-40712380D02*
X132063809Y-40236190D01*
X132301904Y-40712380D02*
X132301904Y-39712380D01*
X131920952Y-39712380D01*
X131825714Y-39760000D01*
X131778095Y-39807619D01*
X131730476Y-39902857D01*
X131730476Y-40045714D01*
X131778095Y-40140952D01*
X131825714Y-40188571D01*
X131920952Y-40236190D01*
X132301904Y-40236190D01*
X131301904Y-40712380D02*
X131301904Y-39712380D01*
X130825714Y-40712380D02*
X130825714Y-39712380D01*
X130444761Y-39712380D01*
X130349523Y-39760000D01*
X130301904Y-39807619D01*
X130254285Y-39902857D01*
X130254285Y-40045714D01*
X130301904Y-40140952D01*
X130349523Y-40188571D01*
X130444761Y-40236190D01*
X130825714Y-40236190D01*
X129825714Y-40188571D02*
X129492380Y-40188571D01*
X129349523Y-40712380D02*
X129825714Y-40712380D01*
X129825714Y-39712380D01*
X129349523Y-39712380D01*
X118551904Y-40581428D02*
X117790000Y-40581428D01*
X116790000Y-40962380D02*
X117361428Y-40962380D01*
X117075714Y-40962380D02*
X117075714Y-39962380D01*
X117170952Y-40105238D01*
X117266190Y-40200476D01*
X117361428Y-40248095D01*
X116409047Y-40057619D02*
X116361428Y-40010000D01*
X116266190Y-39962380D01*
X116028095Y-39962380D01*
X115932857Y-40010000D01*
X115885238Y-40057619D01*
X115837619Y-40152857D01*
X115837619Y-40248095D01*
X115885238Y-40390952D01*
X116456666Y-40962380D01*
X115837619Y-40962380D01*
X115551904Y-39962380D02*
X115218571Y-40962380D01*
X114885238Y-39962380D01*
X118801904Y-21331428D02*
X118040000Y-21331428D01*
X118420952Y-21712380D02*
X118420952Y-20950476D01*
X117040000Y-21712380D02*
X117611428Y-21712380D01*
X117325714Y-21712380D02*
X117325714Y-20712380D01*
X117420952Y-20855238D01*
X117516190Y-20950476D01*
X117611428Y-20998095D01*
X116659047Y-20807619D02*
X116611428Y-20760000D01*
X116516190Y-20712380D01*
X116278095Y-20712380D01*
X116182857Y-20760000D01*
X116135238Y-20807619D01*
X116087619Y-20902857D01*
X116087619Y-20998095D01*
X116135238Y-21140952D01*
X116706666Y-21712380D01*
X116087619Y-21712380D01*
X115801904Y-20712380D02*
X115468571Y-21712380D01*
X115135238Y-20712380D01*
%TO.C,U2*%
X135039285Y-129168571D02*
X135646428Y-129168571D01*
X135717857Y-129204285D01*
X135753571Y-129240000D01*
X135789285Y-129311428D01*
X135789285Y-129454285D01*
X135753571Y-129525714D01*
X135717857Y-129561428D01*
X135646428Y-129597142D01*
X135039285Y-129597142D01*
X135110714Y-129918571D02*
X135075000Y-129954285D01*
X135039285Y-130025714D01*
X135039285Y-130204285D01*
X135075000Y-130275714D01*
X135110714Y-130311428D01*
X135182142Y-130347142D01*
X135253571Y-130347142D01*
X135360714Y-130311428D01*
X135789285Y-129882857D01*
X135789285Y-130347142D01*
X155119285Y-129001428D02*
X155619285Y-129001428D01*
X154833571Y-128822857D02*
X155369285Y-128644285D01*
X155369285Y-129108571D01*
X154869285Y-129537142D02*
X154869285Y-129608571D01*
X154905000Y-129680000D01*
X154940714Y-129715714D01*
X155012142Y-129751428D01*
X155155000Y-129787142D01*
X155333571Y-129787142D01*
X155476428Y-129751428D01*
X155547857Y-129715714D01*
X155583571Y-129680000D01*
X155619285Y-129608571D01*
X155619285Y-129537142D01*
X155583571Y-129465714D01*
X155547857Y-129430000D01*
X155476428Y-129394285D01*
X155333571Y-129358571D01*
X155155000Y-129358571D01*
X155012142Y-129394285D01*
X154940714Y-129430000D01*
X154905000Y-129465714D01*
X154869285Y-129537142D01*
X154869285Y-130430000D02*
X154869285Y-130287142D01*
X154905000Y-130215714D01*
X154940714Y-130180000D01*
X155047857Y-130108571D01*
X155190714Y-130072857D01*
X155476428Y-130072857D01*
X155547857Y-130108571D01*
X155583571Y-130144285D01*
X155619285Y-130215714D01*
X155619285Y-130358571D01*
X155583571Y-130430000D01*
X155547857Y-130465714D01*
X155476428Y-130501428D01*
X155297857Y-130501428D01*
X155226428Y-130465714D01*
X155190714Y-130430000D01*
X155155000Y-130358571D01*
X155155000Y-130215714D01*
X155190714Y-130144285D01*
X155226428Y-130108571D01*
X155297857Y-130072857D01*
X154869285Y-131144285D02*
X154869285Y-131001428D01*
X154905000Y-130930000D01*
X154940714Y-130894285D01*
X155047857Y-130822857D01*
X155190714Y-130787142D01*
X155476428Y-130787142D01*
X155547857Y-130822857D01*
X155583571Y-130858571D01*
X155619285Y-130930000D01*
X155619285Y-131072857D01*
X155583571Y-131144285D01*
X155547857Y-131180000D01*
X155476428Y-131215714D01*
X155297857Y-131215714D01*
X155226428Y-131180000D01*
X155190714Y-131144285D01*
X155155000Y-131072857D01*
X155155000Y-130930000D01*
X155190714Y-130858571D01*
X155226428Y-130822857D01*
X155297857Y-130787142D01*
%TO.C,C4*%
X152791000Y-19883857D02*
X152826714Y-19919571D01*
X152933857Y-19955285D01*
X153005285Y-19955285D01*
X153112428Y-19919571D01*
X153183857Y-19848142D01*
X153219571Y-19776714D01*
X153255285Y-19633857D01*
X153255285Y-19526714D01*
X153219571Y-19383857D01*
X153183857Y-19312428D01*
X153112428Y-19241000D01*
X153005285Y-19205285D01*
X152933857Y-19205285D01*
X152826714Y-19241000D01*
X152791000Y-19276714D01*
X152148142Y-19455285D02*
X152148142Y-19955285D01*
X152326714Y-19169571D02*
X152505285Y-19705285D01*
X152041000Y-19705285D01*
X148389571Y-19899285D02*
X148818142Y-19899285D01*
X148603857Y-19899285D02*
X148603857Y-19149285D01*
X148675285Y-19256428D01*
X148746714Y-19327857D01*
X148818142Y-19363571D01*
X147925285Y-19149285D02*
X147853857Y-19149285D01*
X147782428Y-19185000D01*
X147746714Y-19220714D01*
X147711000Y-19292142D01*
X147675285Y-19435000D01*
X147675285Y-19613571D01*
X147711000Y-19756428D01*
X147746714Y-19827857D01*
X147782428Y-19863571D01*
X147853857Y-19899285D01*
X147925285Y-19899285D01*
X147996714Y-19863571D01*
X148032428Y-19827857D01*
X148068142Y-19756428D01*
X148103857Y-19613571D01*
X148103857Y-19435000D01*
X148068142Y-19292142D01*
X148032428Y-19220714D01*
X147996714Y-19185000D01*
X147925285Y-19149285D01*
X147032428Y-19399285D02*
X147032428Y-19899285D01*
X147353857Y-19399285D02*
X147353857Y-19792142D01*
X147318142Y-19863571D01*
X147246714Y-19899285D01*
X147139571Y-19899285D01*
X147068142Y-19863571D01*
X147032428Y-19827857D01*
X146425285Y-19506428D02*
X146675285Y-19506428D01*
X146675285Y-19899285D02*
X146675285Y-19149285D01*
X146318142Y-19149285D01*
%TO.C,J1*%
X115982380Y-111936666D02*
X116696666Y-111936666D01*
X116839523Y-111889047D01*
X116934761Y-111793809D01*
X116982380Y-111650952D01*
X116982380Y-111555714D01*
X116982380Y-112936666D02*
X116982380Y-112365238D01*
X116982380Y-112650952D02*
X115982380Y-112650952D01*
X116125238Y-112555714D01*
X116220476Y-112460476D01*
X116268095Y-112365238D01*
%TO.C,J14*%
X174539523Y-41682380D02*
X174539523Y-42396666D01*
X174587142Y-42539523D01*
X174682380Y-42634761D01*
X174825238Y-42682380D01*
X174920476Y-42682380D01*
X173539523Y-42682380D02*
X174110952Y-42682380D01*
X173825238Y-42682380D02*
X173825238Y-41682380D01*
X173920476Y-41825238D01*
X174015714Y-41920476D01*
X174110952Y-41968095D01*
X172682380Y-42015714D02*
X172682380Y-42682380D01*
X172920476Y-41634761D02*
X173158571Y-42349047D01*
X172539523Y-42349047D01*
%TO.C,C3*%
X152919000Y-28063857D02*
X152954714Y-28099571D01*
X153061857Y-28135285D01*
X153133285Y-28135285D01*
X153240428Y-28099571D01*
X153311857Y-28028142D01*
X153347571Y-27956714D01*
X153383285Y-27813857D01*
X153383285Y-27706714D01*
X153347571Y-27563857D01*
X153311857Y-27492428D01*
X153240428Y-27421000D01*
X153133285Y-27385285D01*
X153061857Y-27385285D01*
X152954714Y-27421000D01*
X152919000Y-27456714D01*
X152669000Y-27385285D02*
X152204714Y-27385285D01*
X152454714Y-27671000D01*
X152347571Y-27671000D01*
X152276142Y-27706714D01*
X152240428Y-27742428D01*
X152204714Y-27813857D01*
X152204714Y-27992428D01*
X152240428Y-28063857D01*
X152276142Y-28099571D01*
X152347571Y-28135285D01*
X152561857Y-28135285D01*
X152633285Y-28099571D01*
X152669000Y-28063857D01*
X148009571Y-28135285D02*
X148438142Y-28135285D01*
X148223857Y-28135285D02*
X148223857Y-27385285D01*
X148295285Y-27492428D01*
X148366714Y-27563857D01*
X148438142Y-27599571D01*
X147545285Y-27385285D02*
X147473857Y-27385285D01*
X147402428Y-27421000D01*
X147366714Y-27456714D01*
X147331000Y-27528142D01*
X147295285Y-27671000D01*
X147295285Y-27849571D01*
X147331000Y-27992428D01*
X147366714Y-28063857D01*
X147402428Y-28099571D01*
X147473857Y-28135285D01*
X147545285Y-28135285D01*
X147616714Y-28099571D01*
X147652428Y-28063857D01*
X147688142Y-27992428D01*
X147723857Y-27849571D01*
X147723857Y-27671000D01*
X147688142Y-27528142D01*
X147652428Y-27456714D01*
X147616714Y-27421000D01*
X147545285Y-27385285D01*
X146652428Y-27635285D02*
X146652428Y-28135285D01*
X146973857Y-27635285D02*
X146973857Y-28028142D01*
X146938142Y-28099571D01*
X146866714Y-28135285D01*
X146759571Y-28135285D01*
X146688142Y-28099571D01*
X146652428Y-28063857D01*
X146045285Y-27742428D02*
X146295285Y-27742428D01*
X146295285Y-28135285D02*
X146295285Y-27385285D01*
X145938142Y-27385285D01*
%TO.C,U1*%
X135039285Y-88528571D02*
X135646428Y-88528571D01*
X135717857Y-88564285D01*
X135753571Y-88600000D01*
X135789285Y-88671428D01*
X135789285Y-88814285D01*
X135753571Y-88885714D01*
X135717857Y-88921428D01*
X135646428Y-88957142D01*
X135039285Y-88957142D01*
X135789285Y-89707142D02*
X135789285Y-89278571D01*
X135789285Y-89492857D02*
X135039285Y-89492857D01*
X135146428Y-89421428D01*
X135217857Y-89350000D01*
X135253571Y-89278571D01*
X155119285Y-88361428D02*
X155619285Y-88361428D01*
X154833571Y-88182857D02*
X155369285Y-88004285D01*
X155369285Y-88468571D01*
X154869285Y-88897142D02*
X154869285Y-88968571D01*
X154905000Y-89040000D01*
X154940714Y-89075714D01*
X155012142Y-89111428D01*
X155155000Y-89147142D01*
X155333571Y-89147142D01*
X155476428Y-89111428D01*
X155547857Y-89075714D01*
X155583571Y-89040000D01*
X155619285Y-88968571D01*
X155619285Y-88897142D01*
X155583571Y-88825714D01*
X155547857Y-88790000D01*
X155476428Y-88754285D01*
X155333571Y-88718571D01*
X155155000Y-88718571D01*
X155012142Y-88754285D01*
X154940714Y-88790000D01*
X154905000Y-88825714D01*
X154869285Y-88897142D01*
X154869285Y-89790000D02*
X154869285Y-89647142D01*
X154905000Y-89575714D01*
X154940714Y-89540000D01*
X155047857Y-89468571D01*
X155190714Y-89432857D01*
X155476428Y-89432857D01*
X155547857Y-89468571D01*
X155583571Y-89504285D01*
X155619285Y-89575714D01*
X155619285Y-89718571D01*
X155583571Y-89790000D01*
X155547857Y-89825714D01*
X155476428Y-89861428D01*
X155297857Y-89861428D01*
X155226428Y-89825714D01*
X155190714Y-89790000D01*
X155155000Y-89718571D01*
X155155000Y-89575714D01*
X155190714Y-89504285D01*
X155226428Y-89468571D01*
X155297857Y-89432857D01*
X154869285Y-90504285D02*
X154869285Y-90361428D01*
X154905000Y-90290000D01*
X154940714Y-90254285D01*
X155047857Y-90182857D01*
X155190714Y-90147142D01*
X155476428Y-90147142D01*
X155547857Y-90182857D01*
X155583571Y-90218571D01*
X155619285Y-90290000D01*
X155619285Y-90432857D01*
X155583571Y-90504285D01*
X155547857Y-90540000D01*
X155476428Y-90575714D01*
X155297857Y-90575714D01*
X155226428Y-90540000D01*
X155190714Y-90504285D01*
X155155000Y-90432857D01*
X155155000Y-90290000D01*
X155190714Y-90218571D01*
X155226428Y-90182857D01*
X155297857Y-90147142D01*
%TO.C,C6*%
X136047857Y-136735000D02*
X136083571Y-136699285D01*
X136119285Y-136592142D01*
X136119285Y-136520714D01*
X136083571Y-136413571D01*
X136012142Y-136342142D01*
X135940714Y-136306428D01*
X135797857Y-136270714D01*
X135690714Y-136270714D01*
X135547857Y-136306428D01*
X135476428Y-136342142D01*
X135405000Y-136413571D01*
X135369285Y-136520714D01*
X135369285Y-136592142D01*
X135405000Y-136699285D01*
X135440714Y-136735000D01*
X135369285Y-137377857D02*
X135369285Y-137235000D01*
X135405000Y-137163571D01*
X135440714Y-137127857D01*
X135547857Y-137056428D01*
X135690714Y-137020714D01*
X135976428Y-137020714D01*
X136047857Y-137056428D01*
X136083571Y-137092142D01*
X136119285Y-137163571D01*
X136119285Y-137306428D01*
X136083571Y-137377857D01*
X136047857Y-137413571D01*
X135976428Y-137449285D01*
X135797857Y-137449285D01*
X135726428Y-137413571D01*
X135690714Y-137377857D01*
X135655000Y-137306428D01*
X135655000Y-137163571D01*
X135690714Y-137092142D01*
X135726428Y-137056428D01*
X135797857Y-137020714D01*
X136119285Y-139199285D02*
X136119285Y-138770714D01*
X136119285Y-138985000D02*
X135369285Y-138985000D01*
X135476428Y-138913571D01*
X135547857Y-138842142D01*
X135583571Y-138770714D01*
X135369285Y-139663571D02*
X135369285Y-139735000D01*
X135405000Y-139806428D01*
X135440714Y-139842142D01*
X135512142Y-139877857D01*
X135655000Y-139913571D01*
X135833571Y-139913571D01*
X135976428Y-139877857D01*
X136047857Y-139842142D01*
X136083571Y-139806428D01*
X136119285Y-139735000D01*
X136119285Y-139663571D01*
X136083571Y-139592142D01*
X136047857Y-139556428D01*
X135976428Y-139520714D01*
X135833571Y-139485000D01*
X135655000Y-139485000D01*
X135512142Y-139520714D01*
X135440714Y-139556428D01*
X135405000Y-139592142D01*
X135369285Y-139663571D01*
X135369285Y-140377857D02*
X135369285Y-140449285D01*
X135405000Y-140520714D01*
X135440714Y-140556428D01*
X135512142Y-140592142D01*
X135655000Y-140627857D01*
X135833571Y-140627857D01*
X135976428Y-140592142D01*
X136047857Y-140556428D01*
X136083571Y-140520714D01*
X136119285Y-140449285D01*
X136119285Y-140377857D01*
X136083571Y-140306428D01*
X136047857Y-140270714D01*
X135976428Y-140235000D01*
X135833571Y-140199285D01*
X135655000Y-140199285D01*
X135512142Y-140235000D01*
X135440714Y-140270714D01*
X135405000Y-140306428D01*
X135369285Y-140377857D01*
X135619285Y-140949285D02*
X136119285Y-140949285D01*
X135690714Y-140949285D02*
X135655000Y-140985000D01*
X135619285Y-141056428D01*
X135619285Y-141163571D01*
X135655000Y-141235000D01*
X135726428Y-141270714D01*
X136119285Y-141270714D01*
X135726428Y-141877857D02*
X135726428Y-141627857D01*
X136119285Y-141627857D02*
X135369285Y-141627857D01*
X135369285Y-141985000D01*
%TO.C,C5*%
X137267857Y-96375000D02*
X137303571Y-96339285D01*
X137339285Y-96232142D01*
X137339285Y-96160714D01*
X137303571Y-96053571D01*
X137232142Y-95982142D01*
X137160714Y-95946428D01*
X137017857Y-95910714D01*
X136910714Y-95910714D01*
X136767857Y-95946428D01*
X136696428Y-95982142D01*
X136625000Y-96053571D01*
X136589285Y-96160714D01*
X136589285Y-96232142D01*
X136625000Y-96339285D01*
X136660714Y-96375000D01*
X136589285Y-97053571D02*
X136589285Y-96696428D01*
X136946428Y-96660714D01*
X136910714Y-96696428D01*
X136875000Y-96767857D01*
X136875000Y-96946428D01*
X136910714Y-97017857D01*
X136946428Y-97053571D01*
X137017857Y-97089285D01*
X137196428Y-97089285D01*
X137267857Y-97053571D01*
X137303571Y-97017857D01*
X137339285Y-96946428D01*
X137339285Y-96767857D01*
X137303571Y-96696428D01*
X137267857Y-96660714D01*
X137339285Y-98839285D02*
X137339285Y-98410714D01*
X137339285Y-98625000D02*
X136589285Y-98625000D01*
X136696428Y-98553571D01*
X136767857Y-98482142D01*
X136803571Y-98410714D01*
X136589285Y-99303571D02*
X136589285Y-99375000D01*
X136625000Y-99446428D01*
X136660714Y-99482142D01*
X136732142Y-99517857D01*
X136875000Y-99553571D01*
X137053571Y-99553571D01*
X137196428Y-99517857D01*
X137267857Y-99482142D01*
X137303571Y-99446428D01*
X137339285Y-99375000D01*
X137339285Y-99303571D01*
X137303571Y-99232142D01*
X137267857Y-99196428D01*
X137196428Y-99160714D01*
X137053571Y-99125000D01*
X136875000Y-99125000D01*
X136732142Y-99160714D01*
X136660714Y-99196428D01*
X136625000Y-99232142D01*
X136589285Y-99303571D01*
X136589285Y-100017857D02*
X136589285Y-100089285D01*
X136625000Y-100160714D01*
X136660714Y-100196428D01*
X136732142Y-100232142D01*
X136875000Y-100267857D01*
X137053571Y-100267857D01*
X137196428Y-100232142D01*
X137267857Y-100196428D01*
X137303571Y-100160714D01*
X137339285Y-100089285D01*
X137339285Y-100017857D01*
X137303571Y-99946428D01*
X137267857Y-99910714D01*
X137196428Y-99875000D01*
X137053571Y-99839285D01*
X136875000Y-99839285D01*
X136732142Y-99875000D01*
X136660714Y-99910714D01*
X136625000Y-99946428D01*
X136589285Y-100017857D01*
X136839285Y-100589285D02*
X137339285Y-100589285D01*
X136910714Y-100589285D02*
X136875000Y-100625000D01*
X136839285Y-100696428D01*
X136839285Y-100803571D01*
X136875000Y-100875000D01*
X136946428Y-100910714D01*
X137339285Y-100910714D01*
X136946428Y-101517857D02*
X136946428Y-101267857D01*
X137339285Y-101267857D02*
X136589285Y-101267857D01*
X136589285Y-101625000D01*
%TD*%
M02*
