%TF.GenerationSoftware,KiCad,Pcbnew,5.1.10-88a1d61d58~90~ubuntu20.04.1*%
%TF.CreationDate,2021-09-21T22:42:19-04:00*%
%TF.ProjectId,waveshaper,77617665-7368-4617-9065-722e6b696361,rev?*%
%TF.SameCoordinates,Original*%
%TF.FileFunction,Legend,Top*%
%TF.FilePolarity,Positive*%
%FSLAX46Y46*%
G04 Gerber Fmt 4.6, Leading zero omitted, Abs format (unit mm)*
G04 Created by KiCad (PCBNEW 5.1.10-88a1d61d58~90~ubuntu20.04.1) date 2021-09-21 22:42:19*
%MOMM*%
%LPD*%
G01*
G04 APERTURE LIST*
%ADD10C,0.120000*%
%ADD11C,0.150000*%
G04 APERTURE END LIST*
D10*
%TO.C,RV8*%
X156030000Y-144170000D02*
X156030000Y-153910000D01*
X167620000Y-144170000D02*
X167620000Y-145660000D01*
X159090000Y-144170000D02*
X156030000Y-144170000D01*
X167620000Y-153920000D02*
X162900000Y-153920000D01*
X159090000Y-153910000D02*
X156030000Y-153910000D01*
X167620000Y-144170000D02*
X162900000Y-144170000D01*
X167620000Y-152730000D02*
X167620000Y-153910000D01*
X167620000Y-149830000D02*
X167620000Y-150360000D01*
X167620000Y-147380000D02*
X167620000Y-148210000D01*
%TO.C,RV7*%
X135970000Y-133830000D02*
X135970000Y-124090000D01*
X124380000Y-133830000D02*
X124380000Y-132340000D01*
X132910000Y-133830000D02*
X135970000Y-133830000D01*
X124380000Y-124080000D02*
X129100000Y-124080000D01*
X132910000Y-124090000D02*
X135970000Y-124090000D01*
X124380000Y-133830000D02*
X129100000Y-133830000D01*
X124380000Y-125270000D02*
X124380000Y-124090000D01*
X124380000Y-128170000D02*
X124380000Y-127640000D01*
X124380000Y-130620000D02*
X124380000Y-129790000D01*
%TO.C,RV6*%
X156030000Y-104170000D02*
X156030000Y-113910000D01*
X167620000Y-104170000D02*
X167620000Y-105660000D01*
X159090000Y-104170000D02*
X156030000Y-104170000D01*
X167620000Y-113920000D02*
X162900000Y-113920000D01*
X159090000Y-113910000D02*
X156030000Y-113910000D01*
X167620000Y-104170000D02*
X162900000Y-104170000D01*
X167620000Y-112730000D02*
X167620000Y-113910000D01*
X167620000Y-109830000D02*
X167620000Y-110360000D01*
X167620000Y-107380000D02*
X167620000Y-108210000D01*
%TO.C,RV5*%
X135970000Y-93830000D02*
X135970000Y-84090000D01*
X124380000Y-93830000D02*
X124380000Y-92340000D01*
X132910000Y-93830000D02*
X135970000Y-93830000D01*
X124380000Y-84080000D02*
X129100000Y-84080000D01*
X132910000Y-84090000D02*
X135970000Y-84090000D01*
X124380000Y-93830000D02*
X129100000Y-93830000D01*
X124380000Y-85270000D02*
X124380000Y-84090000D01*
X124380000Y-88170000D02*
X124380000Y-87640000D01*
X124380000Y-90620000D02*
X124380000Y-89790000D01*
%TO.C,RV4*%
X156030000Y-64170000D02*
X156030000Y-73910000D01*
X167620000Y-64170000D02*
X167620000Y-65660000D01*
X159090000Y-64170000D02*
X156030000Y-64170000D01*
X167620000Y-73920000D02*
X162900000Y-73920000D01*
X159090000Y-73910000D02*
X156030000Y-73910000D01*
X167620000Y-64170000D02*
X162900000Y-64170000D01*
X167620000Y-72730000D02*
X167620000Y-73910000D01*
X167620000Y-69830000D02*
X167620000Y-70360000D01*
X167620000Y-67380000D02*
X167620000Y-68210000D01*
%TO.C,RV3*%
X135970000Y-170830000D02*
X135970000Y-161090000D01*
X124380000Y-170830000D02*
X124380000Y-169340000D01*
X132910000Y-170830000D02*
X135970000Y-170830000D01*
X124380000Y-161080000D02*
X129100000Y-161080000D01*
X132910000Y-161090000D02*
X135970000Y-161090000D01*
X124380000Y-170830000D02*
X129100000Y-170830000D01*
X124380000Y-162270000D02*
X124380000Y-161090000D01*
X124380000Y-165170000D02*
X124380000Y-164640000D01*
X124380000Y-167620000D02*
X124380000Y-166790000D01*
%TO.C,RV2*%
X135970000Y-53830000D02*
X135970000Y-44090000D01*
X124380000Y-53830000D02*
X124380000Y-52340000D01*
X132910000Y-53830000D02*
X135970000Y-53830000D01*
X124380000Y-44080000D02*
X129100000Y-44080000D01*
X132910000Y-44090000D02*
X135970000Y-44090000D01*
X124380000Y-53830000D02*
X129100000Y-53830000D01*
X124380000Y-45270000D02*
X124380000Y-44090000D01*
X124380000Y-48170000D02*
X124380000Y-47640000D01*
X124380000Y-50620000D02*
X124380000Y-49790000D01*
%TO.C,RV1*%
X156030000Y-24170000D02*
X156030000Y-33910000D01*
X167620000Y-24170000D02*
X167620000Y-25660000D01*
X159090000Y-24170000D02*
X156030000Y-24170000D01*
X167620000Y-33920000D02*
X162900000Y-33920000D01*
X159090000Y-33910000D02*
X156030000Y-33910000D01*
X167620000Y-24170000D02*
X162900000Y-24170000D01*
X167620000Y-32730000D02*
X167620000Y-33910000D01*
X167620000Y-29830000D02*
X167620000Y-30360000D01*
X167620000Y-27380000D02*
X167620000Y-28210000D01*
%TO.C,SW1*%
X94650000Y-162580000D02*
X94660000Y-162580000D01*
X94650000Y-169430000D02*
X94650000Y-162580000D01*
X107340000Y-169430000D02*
X94650000Y-169430000D01*
X107350000Y-162570000D02*
X107350000Y-169430000D01*
X94650000Y-162570000D02*
X107350000Y-162570000D01*
%TO.C,RV8*%
D11*
X167545571Y-156959285D02*
X167295571Y-156602142D01*
X167117000Y-156959285D02*
X167117000Y-156209285D01*
X167402714Y-156209285D01*
X167474142Y-156245000D01*
X167509857Y-156280714D01*
X167545571Y-156352142D01*
X167545571Y-156459285D01*
X167509857Y-156530714D01*
X167474142Y-156566428D01*
X167402714Y-156602142D01*
X167117000Y-156602142D01*
X167759857Y-156209285D02*
X168009857Y-156959285D01*
X168259857Y-156209285D01*
X168617000Y-156530714D02*
X168545571Y-156495000D01*
X168509857Y-156459285D01*
X168474142Y-156387857D01*
X168474142Y-156352142D01*
X168509857Y-156280714D01*
X168545571Y-156245000D01*
X168617000Y-156209285D01*
X168759857Y-156209285D01*
X168831285Y-156245000D01*
X168867000Y-156280714D01*
X168902714Y-156352142D01*
X168902714Y-156387857D01*
X168867000Y-156459285D01*
X168831285Y-156495000D01*
X168759857Y-156530714D01*
X168617000Y-156530714D01*
X168545571Y-156566428D01*
X168509857Y-156602142D01*
X168474142Y-156673571D01*
X168474142Y-156816428D01*
X168509857Y-156887857D01*
X168545571Y-156923571D01*
X168617000Y-156959285D01*
X168759857Y-156959285D01*
X168831285Y-156923571D01*
X168867000Y-156887857D01*
X168902714Y-156816428D01*
X168902714Y-156673571D01*
X168867000Y-156602142D01*
X168831285Y-156566428D01*
X168759857Y-156530714D01*
X155494571Y-156566428D02*
X155601714Y-156602142D01*
X155637428Y-156637857D01*
X155673142Y-156709285D01*
X155673142Y-156816428D01*
X155637428Y-156887857D01*
X155601714Y-156923571D01*
X155530285Y-156959285D01*
X155244571Y-156959285D01*
X155244571Y-156209285D01*
X155494571Y-156209285D01*
X155566000Y-156245000D01*
X155601714Y-156280714D01*
X155637428Y-156352142D01*
X155637428Y-156423571D01*
X155601714Y-156495000D01*
X155566000Y-156530714D01*
X155494571Y-156566428D01*
X155244571Y-156566428D01*
X156387428Y-156959285D02*
X155958857Y-156959285D01*
X156173142Y-156959285D02*
X156173142Y-156209285D01*
X156101714Y-156316428D01*
X156030285Y-156387857D01*
X155958857Y-156423571D01*
X156851714Y-156209285D02*
X156923142Y-156209285D01*
X156994571Y-156245000D01*
X157030285Y-156280714D01*
X157066000Y-156352142D01*
X157101714Y-156495000D01*
X157101714Y-156673571D01*
X157066000Y-156816428D01*
X157030285Y-156887857D01*
X156994571Y-156923571D01*
X156923142Y-156959285D01*
X156851714Y-156959285D01*
X156780285Y-156923571D01*
X156744571Y-156887857D01*
X156708857Y-156816428D01*
X156673142Y-156673571D01*
X156673142Y-156495000D01*
X156708857Y-156352142D01*
X156744571Y-156280714D01*
X156780285Y-156245000D01*
X156851714Y-156209285D01*
X157566000Y-156209285D02*
X157637428Y-156209285D01*
X157708857Y-156245000D01*
X157744571Y-156280714D01*
X157780285Y-156352142D01*
X157816000Y-156495000D01*
X157816000Y-156673571D01*
X157780285Y-156816428D01*
X157744571Y-156887857D01*
X157708857Y-156923571D01*
X157637428Y-156959285D01*
X157566000Y-156959285D01*
X157494571Y-156923571D01*
X157458857Y-156887857D01*
X157423142Y-156816428D01*
X157387428Y-156673571D01*
X157387428Y-156495000D01*
X157423142Y-156352142D01*
X157458857Y-156280714D01*
X157494571Y-156245000D01*
X157566000Y-156209285D01*
X158137428Y-156959285D02*
X158137428Y-156209285D01*
X158208857Y-156673571D02*
X158423142Y-156959285D01*
X158423142Y-156459285D02*
X158137428Y-156745000D01*
%TO.C,RV7*%
X123561571Y-121719285D02*
X123311571Y-121362142D01*
X123133000Y-121719285D02*
X123133000Y-120969285D01*
X123418714Y-120969285D01*
X123490142Y-121005000D01*
X123525857Y-121040714D01*
X123561571Y-121112142D01*
X123561571Y-121219285D01*
X123525857Y-121290714D01*
X123490142Y-121326428D01*
X123418714Y-121362142D01*
X123133000Y-121362142D01*
X123775857Y-120969285D02*
X124025857Y-121719285D01*
X124275857Y-120969285D01*
X124454428Y-120969285D02*
X124954428Y-120969285D01*
X124633000Y-121719285D01*
X133862571Y-121326428D02*
X133969714Y-121362142D01*
X134005428Y-121397857D01*
X134041142Y-121469285D01*
X134041142Y-121576428D01*
X134005428Y-121647857D01*
X133969714Y-121683571D01*
X133898285Y-121719285D01*
X133612571Y-121719285D01*
X133612571Y-120969285D01*
X133862571Y-120969285D01*
X133934000Y-121005000D01*
X133969714Y-121040714D01*
X134005428Y-121112142D01*
X134005428Y-121183571D01*
X133969714Y-121255000D01*
X133934000Y-121290714D01*
X133862571Y-121326428D01*
X133612571Y-121326428D01*
X134755428Y-121719285D02*
X134326857Y-121719285D01*
X134541142Y-121719285D02*
X134541142Y-120969285D01*
X134469714Y-121076428D01*
X134398285Y-121147857D01*
X134326857Y-121183571D01*
X135219714Y-120969285D02*
X135291142Y-120969285D01*
X135362571Y-121005000D01*
X135398285Y-121040714D01*
X135434000Y-121112142D01*
X135469714Y-121255000D01*
X135469714Y-121433571D01*
X135434000Y-121576428D01*
X135398285Y-121647857D01*
X135362571Y-121683571D01*
X135291142Y-121719285D01*
X135219714Y-121719285D01*
X135148285Y-121683571D01*
X135112571Y-121647857D01*
X135076857Y-121576428D01*
X135041142Y-121433571D01*
X135041142Y-121255000D01*
X135076857Y-121112142D01*
X135112571Y-121040714D01*
X135148285Y-121005000D01*
X135219714Y-120969285D01*
X135934000Y-120969285D02*
X136005428Y-120969285D01*
X136076857Y-121005000D01*
X136112571Y-121040714D01*
X136148285Y-121112142D01*
X136184000Y-121255000D01*
X136184000Y-121433571D01*
X136148285Y-121576428D01*
X136112571Y-121647857D01*
X136076857Y-121683571D01*
X136005428Y-121719285D01*
X135934000Y-121719285D01*
X135862571Y-121683571D01*
X135826857Y-121647857D01*
X135791142Y-121576428D01*
X135755428Y-121433571D01*
X135755428Y-121255000D01*
X135791142Y-121112142D01*
X135826857Y-121040714D01*
X135862571Y-121005000D01*
X135934000Y-120969285D01*
X136505428Y-121719285D02*
X136505428Y-120969285D01*
X136576857Y-121433571D02*
X136791142Y-121719285D01*
X136791142Y-121219285D02*
X136505428Y-121505000D01*
%TO.C,RV6*%
X167545571Y-116959285D02*
X167295571Y-116602142D01*
X167117000Y-116959285D02*
X167117000Y-116209285D01*
X167402714Y-116209285D01*
X167474142Y-116245000D01*
X167509857Y-116280714D01*
X167545571Y-116352142D01*
X167545571Y-116459285D01*
X167509857Y-116530714D01*
X167474142Y-116566428D01*
X167402714Y-116602142D01*
X167117000Y-116602142D01*
X167759857Y-116209285D02*
X168009857Y-116959285D01*
X168259857Y-116209285D01*
X168831285Y-116209285D02*
X168688428Y-116209285D01*
X168617000Y-116245000D01*
X168581285Y-116280714D01*
X168509857Y-116387857D01*
X168474142Y-116530714D01*
X168474142Y-116816428D01*
X168509857Y-116887857D01*
X168545571Y-116923571D01*
X168617000Y-116959285D01*
X168759857Y-116959285D01*
X168831285Y-116923571D01*
X168867000Y-116887857D01*
X168902714Y-116816428D01*
X168902714Y-116637857D01*
X168867000Y-116566428D01*
X168831285Y-116530714D01*
X168759857Y-116495000D01*
X168617000Y-116495000D01*
X168545571Y-116530714D01*
X168509857Y-116566428D01*
X168474142Y-116637857D01*
X155494571Y-116566428D02*
X155601714Y-116602142D01*
X155637428Y-116637857D01*
X155673142Y-116709285D01*
X155673142Y-116816428D01*
X155637428Y-116887857D01*
X155601714Y-116923571D01*
X155530285Y-116959285D01*
X155244571Y-116959285D01*
X155244571Y-116209285D01*
X155494571Y-116209285D01*
X155566000Y-116245000D01*
X155601714Y-116280714D01*
X155637428Y-116352142D01*
X155637428Y-116423571D01*
X155601714Y-116495000D01*
X155566000Y-116530714D01*
X155494571Y-116566428D01*
X155244571Y-116566428D01*
X156387428Y-116959285D02*
X155958857Y-116959285D01*
X156173142Y-116959285D02*
X156173142Y-116209285D01*
X156101714Y-116316428D01*
X156030285Y-116387857D01*
X155958857Y-116423571D01*
X156851714Y-116209285D02*
X156923142Y-116209285D01*
X156994571Y-116245000D01*
X157030285Y-116280714D01*
X157066000Y-116352142D01*
X157101714Y-116495000D01*
X157101714Y-116673571D01*
X157066000Y-116816428D01*
X157030285Y-116887857D01*
X156994571Y-116923571D01*
X156923142Y-116959285D01*
X156851714Y-116959285D01*
X156780285Y-116923571D01*
X156744571Y-116887857D01*
X156708857Y-116816428D01*
X156673142Y-116673571D01*
X156673142Y-116495000D01*
X156708857Y-116352142D01*
X156744571Y-116280714D01*
X156780285Y-116245000D01*
X156851714Y-116209285D01*
X157566000Y-116209285D02*
X157637428Y-116209285D01*
X157708857Y-116245000D01*
X157744571Y-116280714D01*
X157780285Y-116352142D01*
X157816000Y-116495000D01*
X157816000Y-116673571D01*
X157780285Y-116816428D01*
X157744571Y-116887857D01*
X157708857Y-116923571D01*
X157637428Y-116959285D01*
X157566000Y-116959285D01*
X157494571Y-116923571D01*
X157458857Y-116887857D01*
X157423142Y-116816428D01*
X157387428Y-116673571D01*
X157387428Y-116495000D01*
X157423142Y-116352142D01*
X157458857Y-116280714D01*
X157494571Y-116245000D01*
X157566000Y-116209285D01*
X158137428Y-116959285D02*
X158137428Y-116209285D01*
X158208857Y-116673571D02*
X158423142Y-116959285D01*
X158423142Y-116459285D02*
X158137428Y-116745000D01*
%TO.C,RV5*%
X123561571Y-81719285D02*
X123311571Y-81362142D01*
X123133000Y-81719285D02*
X123133000Y-80969285D01*
X123418714Y-80969285D01*
X123490142Y-81005000D01*
X123525857Y-81040714D01*
X123561571Y-81112142D01*
X123561571Y-81219285D01*
X123525857Y-81290714D01*
X123490142Y-81326428D01*
X123418714Y-81362142D01*
X123133000Y-81362142D01*
X123775857Y-80969285D02*
X124025857Y-81719285D01*
X124275857Y-80969285D01*
X124883000Y-80969285D02*
X124525857Y-80969285D01*
X124490142Y-81326428D01*
X124525857Y-81290714D01*
X124597285Y-81255000D01*
X124775857Y-81255000D01*
X124847285Y-81290714D01*
X124883000Y-81326428D01*
X124918714Y-81397857D01*
X124918714Y-81576428D01*
X124883000Y-81647857D01*
X124847285Y-81683571D01*
X124775857Y-81719285D01*
X124597285Y-81719285D01*
X124525857Y-81683571D01*
X124490142Y-81647857D01*
X133862571Y-81326428D02*
X133969714Y-81362142D01*
X134005428Y-81397857D01*
X134041142Y-81469285D01*
X134041142Y-81576428D01*
X134005428Y-81647857D01*
X133969714Y-81683571D01*
X133898285Y-81719285D01*
X133612571Y-81719285D01*
X133612571Y-80969285D01*
X133862571Y-80969285D01*
X133934000Y-81005000D01*
X133969714Y-81040714D01*
X134005428Y-81112142D01*
X134005428Y-81183571D01*
X133969714Y-81255000D01*
X133934000Y-81290714D01*
X133862571Y-81326428D01*
X133612571Y-81326428D01*
X134755428Y-81719285D02*
X134326857Y-81719285D01*
X134541142Y-81719285D02*
X134541142Y-80969285D01*
X134469714Y-81076428D01*
X134398285Y-81147857D01*
X134326857Y-81183571D01*
X135219714Y-80969285D02*
X135291142Y-80969285D01*
X135362571Y-81005000D01*
X135398285Y-81040714D01*
X135434000Y-81112142D01*
X135469714Y-81255000D01*
X135469714Y-81433571D01*
X135434000Y-81576428D01*
X135398285Y-81647857D01*
X135362571Y-81683571D01*
X135291142Y-81719285D01*
X135219714Y-81719285D01*
X135148285Y-81683571D01*
X135112571Y-81647857D01*
X135076857Y-81576428D01*
X135041142Y-81433571D01*
X135041142Y-81255000D01*
X135076857Y-81112142D01*
X135112571Y-81040714D01*
X135148285Y-81005000D01*
X135219714Y-80969285D01*
X135934000Y-80969285D02*
X136005428Y-80969285D01*
X136076857Y-81005000D01*
X136112571Y-81040714D01*
X136148285Y-81112142D01*
X136184000Y-81255000D01*
X136184000Y-81433571D01*
X136148285Y-81576428D01*
X136112571Y-81647857D01*
X136076857Y-81683571D01*
X136005428Y-81719285D01*
X135934000Y-81719285D01*
X135862571Y-81683571D01*
X135826857Y-81647857D01*
X135791142Y-81576428D01*
X135755428Y-81433571D01*
X135755428Y-81255000D01*
X135791142Y-81112142D01*
X135826857Y-81040714D01*
X135862571Y-81005000D01*
X135934000Y-80969285D01*
X136505428Y-81719285D02*
X136505428Y-80969285D01*
X136576857Y-81433571D02*
X136791142Y-81719285D01*
X136791142Y-81219285D02*
X136505428Y-81505000D01*
%TO.C,RV4*%
X167545571Y-76959285D02*
X167295571Y-76602142D01*
X167117000Y-76959285D02*
X167117000Y-76209285D01*
X167402714Y-76209285D01*
X167474142Y-76245000D01*
X167509857Y-76280714D01*
X167545571Y-76352142D01*
X167545571Y-76459285D01*
X167509857Y-76530714D01*
X167474142Y-76566428D01*
X167402714Y-76602142D01*
X167117000Y-76602142D01*
X167759857Y-76209285D02*
X168009857Y-76959285D01*
X168259857Y-76209285D01*
X168831285Y-76459285D02*
X168831285Y-76959285D01*
X168652714Y-76173571D02*
X168474142Y-76709285D01*
X168938428Y-76709285D01*
X155494571Y-76566428D02*
X155601714Y-76602142D01*
X155637428Y-76637857D01*
X155673142Y-76709285D01*
X155673142Y-76816428D01*
X155637428Y-76887857D01*
X155601714Y-76923571D01*
X155530285Y-76959285D01*
X155244571Y-76959285D01*
X155244571Y-76209285D01*
X155494571Y-76209285D01*
X155566000Y-76245000D01*
X155601714Y-76280714D01*
X155637428Y-76352142D01*
X155637428Y-76423571D01*
X155601714Y-76495000D01*
X155566000Y-76530714D01*
X155494571Y-76566428D01*
X155244571Y-76566428D01*
X156387428Y-76959285D02*
X155958857Y-76959285D01*
X156173142Y-76959285D02*
X156173142Y-76209285D01*
X156101714Y-76316428D01*
X156030285Y-76387857D01*
X155958857Y-76423571D01*
X156851714Y-76209285D02*
X156923142Y-76209285D01*
X156994571Y-76245000D01*
X157030285Y-76280714D01*
X157066000Y-76352142D01*
X157101714Y-76495000D01*
X157101714Y-76673571D01*
X157066000Y-76816428D01*
X157030285Y-76887857D01*
X156994571Y-76923571D01*
X156923142Y-76959285D01*
X156851714Y-76959285D01*
X156780285Y-76923571D01*
X156744571Y-76887857D01*
X156708857Y-76816428D01*
X156673142Y-76673571D01*
X156673142Y-76495000D01*
X156708857Y-76352142D01*
X156744571Y-76280714D01*
X156780285Y-76245000D01*
X156851714Y-76209285D01*
X157566000Y-76209285D02*
X157637428Y-76209285D01*
X157708857Y-76245000D01*
X157744571Y-76280714D01*
X157780285Y-76352142D01*
X157816000Y-76495000D01*
X157816000Y-76673571D01*
X157780285Y-76816428D01*
X157744571Y-76887857D01*
X157708857Y-76923571D01*
X157637428Y-76959285D01*
X157566000Y-76959285D01*
X157494571Y-76923571D01*
X157458857Y-76887857D01*
X157423142Y-76816428D01*
X157387428Y-76673571D01*
X157387428Y-76495000D01*
X157423142Y-76352142D01*
X157458857Y-76280714D01*
X157494571Y-76245000D01*
X157566000Y-76209285D01*
X158137428Y-76959285D02*
X158137428Y-76209285D01*
X158208857Y-76673571D02*
X158423142Y-76959285D01*
X158423142Y-76459285D02*
X158137428Y-76745000D01*
%TO.C,RV3*%
X123561571Y-158719285D02*
X123311571Y-158362142D01*
X123133000Y-158719285D02*
X123133000Y-157969285D01*
X123418714Y-157969285D01*
X123490142Y-158005000D01*
X123525857Y-158040714D01*
X123561571Y-158112142D01*
X123561571Y-158219285D01*
X123525857Y-158290714D01*
X123490142Y-158326428D01*
X123418714Y-158362142D01*
X123133000Y-158362142D01*
X123775857Y-157969285D02*
X124025857Y-158719285D01*
X124275857Y-157969285D01*
X124454428Y-157969285D02*
X124918714Y-157969285D01*
X124668714Y-158255000D01*
X124775857Y-158255000D01*
X124847285Y-158290714D01*
X124883000Y-158326428D01*
X124918714Y-158397857D01*
X124918714Y-158576428D01*
X124883000Y-158647857D01*
X124847285Y-158683571D01*
X124775857Y-158719285D01*
X124561571Y-158719285D01*
X124490142Y-158683571D01*
X124454428Y-158647857D01*
X133630428Y-158505000D02*
X133987571Y-158505000D01*
X133559000Y-158719285D02*
X133809000Y-157969285D01*
X134059000Y-158719285D01*
X134701857Y-158719285D02*
X134273285Y-158719285D01*
X134487571Y-158719285D02*
X134487571Y-157969285D01*
X134416142Y-158076428D01*
X134344714Y-158147857D01*
X134273285Y-158183571D01*
X135166142Y-157969285D02*
X135237571Y-157969285D01*
X135309000Y-158005000D01*
X135344714Y-158040714D01*
X135380428Y-158112142D01*
X135416142Y-158255000D01*
X135416142Y-158433571D01*
X135380428Y-158576428D01*
X135344714Y-158647857D01*
X135309000Y-158683571D01*
X135237571Y-158719285D01*
X135166142Y-158719285D01*
X135094714Y-158683571D01*
X135059000Y-158647857D01*
X135023285Y-158576428D01*
X134987571Y-158433571D01*
X134987571Y-158255000D01*
X135023285Y-158112142D01*
X135059000Y-158040714D01*
X135094714Y-158005000D01*
X135166142Y-157969285D01*
X135880428Y-157969285D02*
X135951857Y-157969285D01*
X136023285Y-158005000D01*
X136059000Y-158040714D01*
X136094714Y-158112142D01*
X136130428Y-158255000D01*
X136130428Y-158433571D01*
X136094714Y-158576428D01*
X136059000Y-158647857D01*
X136023285Y-158683571D01*
X135951857Y-158719285D01*
X135880428Y-158719285D01*
X135809000Y-158683571D01*
X135773285Y-158647857D01*
X135737571Y-158576428D01*
X135701857Y-158433571D01*
X135701857Y-158255000D01*
X135737571Y-158112142D01*
X135773285Y-158040714D01*
X135809000Y-158005000D01*
X135880428Y-157969285D01*
X136451857Y-158719285D02*
X136451857Y-157969285D01*
X136523285Y-158433571D02*
X136737571Y-158719285D01*
X136737571Y-158219285D02*
X136451857Y-158505000D01*
%TO.C,RV2*%
X123561571Y-41719285D02*
X123311571Y-41362142D01*
X123133000Y-41719285D02*
X123133000Y-40969285D01*
X123418714Y-40969285D01*
X123490142Y-41005000D01*
X123525857Y-41040714D01*
X123561571Y-41112142D01*
X123561571Y-41219285D01*
X123525857Y-41290714D01*
X123490142Y-41326428D01*
X123418714Y-41362142D01*
X123133000Y-41362142D01*
X123775857Y-40969285D02*
X124025857Y-41719285D01*
X124275857Y-40969285D01*
X124490142Y-41040714D02*
X124525857Y-41005000D01*
X124597285Y-40969285D01*
X124775857Y-40969285D01*
X124847285Y-41005000D01*
X124883000Y-41040714D01*
X124918714Y-41112142D01*
X124918714Y-41183571D01*
X124883000Y-41290714D01*
X124454428Y-41719285D01*
X124918714Y-41719285D01*
X133862571Y-41326428D02*
X133969714Y-41362142D01*
X134005428Y-41397857D01*
X134041142Y-41469285D01*
X134041142Y-41576428D01*
X134005428Y-41647857D01*
X133969714Y-41683571D01*
X133898285Y-41719285D01*
X133612571Y-41719285D01*
X133612571Y-40969285D01*
X133862571Y-40969285D01*
X133934000Y-41005000D01*
X133969714Y-41040714D01*
X134005428Y-41112142D01*
X134005428Y-41183571D01*
X133969714Y-41255000D01*
X133934000Y-41290714D01*
X133862571Y-41326428D01*
X133612571Y-41326428D01*
X134755428Y-41719285D02*
X134326857Y-41719285D01*
X134541142Y-41719285D02*
X134541142Y-40969285D01*
X134469714Y-41076428D01*
X134398285Y-41147857D01*
X134326857Y-41183571D01*
X135219714Y-40969285D02*
X135291142Y-40969285D01*
X135362571Y-41005000D01*
X135398285Y-41040714D01*
X135434000Y-41112142D01*
X135469714Y-41255000D01*
X135469714Y-41433571D01*
X135434000Y-41576428D01*
X135398285Y-41647857D01*
X135362571Y-41683571D01*
X135291142Y-41719285D01*
X135219714Y-41719285D01*
X135148285Y-41683571D01*
X135112571Y-41647857D01*
X135076857Y-41576428D01*
X135041142Y-41433571D01*
X135041142Y-41255000D01*
X135076857Y-41112142D01*
X135112571Y-41040714D01*
X135148285Y-41005000D01*
X135219714Y-40969285D01*
X135934000Y-40969285D02*
X136005428Y-40969285D01*
X136076857Y-41005000D01*
X136112571Y-41040714D01*
X136148285Y-41112142D01*
X136184000Y-41255000D01*
X136184000Y-41433571D01*
X136148285Y-41576428D01*
X136112571Y-41647857D01*
X136076857Y-41683571D01*
X136005428Y-41719285D01*
X135934000Y-41719285D01*
X135862571Y-41683571D01*
X135826857Y-41647857D01*
X135791142Y-41576428D01*
X135755428Y-41433571D01*
X135755428Y-41255000D01*
X135791142Y-41112142D01*
X135826857Y-41040714D01*
X135862571Y-41005000D01*
X135934000Y-40969285D01*
X136505428Y-41719285D02*
X136505428Y-40969285D01*
X136576857Y-41433571D02*
X136791142Y-41719285D01*
X136791142Y-41219285D02*
X136505428Y-41505000D01*
%TO.C,RV1*%
X167545571Y-36959285D02*
X167295571Y-36602142D01*
X167117000Y-36959285D02*
X167117000Y-36209285D01*
X167402714Y-36209285D01*
X167474142Y-36245000D01*
X167509857Y-36280714D01*
X167545571Y-36352142D01*
X167545571Y-36459285D01*
X167509857Y-36530714D01*
X167474142Y-36566428D01*
X167402714Y-36602142D01*
X167117000Y-36602142D01*
X167759857Y-36209285D02*
X168009857Y-36959285D01*
X168259857Y-36209285D01*
X168902714Y-36959285D02*
X168474142Y-36959285D01*
X168688428Y-36959285D02*
X168688428Y-36209285D01*
X168617000Y-36316428D01*
X168545571Y-36387857D01*
X168474142Y-36423571D01*
X155494571Y-36566428D02*
X155601714Y-36602142D01*
X155637428Y-36637857D01*
X155673142Y-36709285D01*
X155673142Y-36816428D01*
X155637428Y-36887857D01*
X155601714Y-36923571D01*
X155530285Y-36959285D01*
X155244571Y-36959285D01*
X155244571Y-36209285D01*
X155494571Y-36209285D01*
X155566000Y-36245000D01*
X155601714Y-36280714D01*
X155637428Y-36352142D01*
X155637428Y-36423571D01*
X155601714Y-36495000D01*
X155566000Y-36530714D01*
X155494571Y-36566428D01*
X155244571Y-36566428D01*
X156387428Y-36959285D02*
X155958857Y-36959285D01*
X156173142Y-36959285D02*
X156173142Y-36209285D01*
X156101714Y-36316428D01*
X156030285Y-36387857D01*
X155958857Y-36423571D01*
X156851714Y-36209285D02*
X156923142Y-36209285D01*
X156994571Y-36245000D01*
X157030285Y-36280714D01*
X157066000Y-36352142D01*
X157101714Y-36495000D01*
X157101714Y-36673571D01*
X157066000Y-36816428D01*
X157030285Y-36887857D01*
X156994571Y-36923571D01*
X156923142Y-36959285D01*
X156851714Y-36959285D01*
X156780285Y-36923571D01*
X156744571Y-36887857D01*
X156708857Y-36816428D01*
X156673142Y-36673571D01*
X156673142Y-36495000D01*
X156708857Y-36352142D01*
X156744571Y-36280714D01*
X156780285Y-36245000D01*
X156851714Y-36209285D01*
X157566000Y-36209285D02*
X157637428Y-36209285D01*
X157708857Y-36245000D01*
X157744571Y-36280714D01*
X157780285Y-36352142D01*
X157816000Y-36495000D01*
X157816000Y-36673571D01*
X157780285Y-36816428D01*
X157744571Y-36887857D01*
X157708857Y-36923571D01*
X157637428Y-36959285D01*
X157566000Y-36959285D01*
X157494571Y-36923571D01*
X157458857Y-36887857D01*
X157423142Y-36816428D01*
X157387428Y-36673571D01*
X157387428Y-36495000D01*
X157423142Y-36352142D01*
X157458857Y-36280714D01*
X157494571Y-36245000D01*
X157566000Y-36209285D01*
X158137428Y-36959285D02*
X158137428Y-36209285D01*
X158208857Y-36673571D02*
X158423142Y-36959285D01*
X158423142Y-36459285D02*
X158137428Y-36745000D01*
%TO.C,SW1*%
X93404761Y-167333333D02*
X93452380Y-167190476D01*
X93452380Y-166952380D01*
X93404761Y-166857142D01*
X93357142Y-166809523D01*
X93261904Y-166761904D01*
X93166666Y-166761904D01*
X93071428Y-166809523D01*
X93023809Y-166857142D01*
X92976190Y-166952380D01*
X92928571Y-167142857D01*
X92880952Y-167238095D01*
X92833333Y-167285714D01*
X92738095Y-167333333D01*
X92642857Y-167333333D01*
X92547619Y-167285714D01*
X92500000Y-167238095D01*
X92452380Y-167142857D01*
X92452380Y-166904761D01*
X92500000Y-166761904D01*
X92452380Y-166428571D02*
X93452380Y-166190476D01*
X92738095Y-166000000D01*
X93452380Y-165809523D01*
X92452380Y-165571428D01*
X93452380Y-164666666D02*
X93452380Y-165238095D01*
X93452380Y-164952380D02*
X92452380Y-164952380D01*
X92595238Y-165047619D01*
X92690476Y-165142857D01*
X92738095Y-165238095D01*
%TD*%
M02*
