%TF.GenerationSoftware,KiCad,Pcbnew,5.1.10-88a1d61d58~90~ubuntu20.04.1*%
%TF.CreationDate,2021-09-21T22:53:09-04:00*%
%TF.ProjectId,waveshaper,77617665-7368-4617-9065-722e6b696361,rev?*%
%TF.SameCoordinates,Original*%
%TF.FileFunction,Soldermask,Top*%
%TF.FilePolarity,Negative*%
%FSLAX46Y46*%
G04 Gerber Fmt 4.6, Leading zero omitted, Abs format (unit mm)*
G04 Created by KiCad (PCBNEW 5.1.10-88a1d61d58~90~ubuntu20.04.1) date 2021-09-21 22:53:09*
%MOMM*%
%LPD*%
G01*
G04 APERTURE LIST*
%ADD10C,3.100000*%
%ADD11O,3.240000X2.720000*%
%ADD12C,1.800000*%
%ADD13R,1.800000X1.800000*%
%ADD14C,1.600000*%
%ADD15O,1.600000X1.600000*%
%ADD16O,2.200000X2.200000*%
%ADD17R,2.200000X2.200000*%
%ADD18C,1.500000*%
%ADD19R,1.500000X1.500000*%
%ADD20C,3.200000*%
%ADD21O,2.200000X1.740000*%
%ADD22O,1.700000X1.700000*%
%ADD23R,1.700000X1.700000*%
%ADD24O,1.727200X1.727200*%
%ADD25R,1.727200X1.727200*%
%ADD26O,1.600000X2.400000*%
%ADD27R,1.600000X2.400000*%
%ADD28R,1.600000X1.600000*%
%ADD29C,1.700000*%
G04 APERTURE END LIST*
D10*
%TO.C,SW1*%
X105700000Y-166000000D03*
X96300000Y-166000000D03*
X101000000Y-166000000D03*
%TD*%
D11*
%TO.C,RV8*%
X161000000Y-153800000D03*
X161000000Y-144200000D03*
D12*
X168500000Y-146500000D03*
X168500000Y-149000000D03*
D13*
X168500000Y-151500000D03*
%TD*%
D11*
%TO.C,RV7*%
X131000000Y-124200000D03*
X131000000Y-133800000D03*
D12*
X123500000Y-131500000D03*
X123500000Y-129000000D03*
D13*
X123500000Y-126500000D03*
%TD*%
D11*
%TO.C,RV6*%
X161000000Y-113800000D03*
X161000000Y-104200000D03*
D12*
X168500000Y-106500000D03*
X168500000Y-109000000D03*
D13*
X168500000Y-111500000D03*
%TD*%
D11*
%TO.C,RV5*%
X131000000Y-84200000D03*
X131000000Y-93800000D03*
D12*
X123500000Y-91500000D03*
X123500000Y-89000000D03*
D13*
X123500000Y-86500000D03*
%TD*%
D11*
%TO.C,RV4*%
X161000000Y-73800000D03*
X161000000Y-64200000D03*
D12*
X168500000Y-66500000D03*
X168500000Y-69000000D03*
D13*
X168500000Y-71500000D03*
%TD*%
D11*
%TO.C,RV3*%
X131000000Y-161200000D03*
X131000000Y-170800000D03*
D12*
X123500000Y-168500000D03*
X123500000Y-166000000D03*
D13*
X123500000Y-163500000D03*
%TD*%
D11*
%TO.C,RV2*%
X131000000Y-44200000D03*
X131000000Y-53800000D03*
D12*
X123500000Y-51500000D03*
X123500000Y-49000000D03*
D13*
X123500000Y-46500000D03*
%TD*%
D11*
%TO.C,RV1*%
X161000000Y-33800000D03*
X161000000Y-24200000D03*
D12*
X168500000Y-26500000D03*
X168500000Y-29000000D03*
D13*
X168500000Y-31500000D03*
%TD*%
D14*
%TO.C,R15*%
X172070000Y-155140000D03*
D15*
X172070000Y-144980000D03*
%TD*%
D14*
%TO.C,R14*%
X120000000Y-133550000D03*
D15*
X120000000Y-123390000D03*
%TD*%
D14*
%TO.C,R13*%
X172070000Y-114500000D03*
D15*
X172070000Y-104340000D03*
%TD*%
D14*
%TO.C,R12*%
X120000000Y-94180000D03*
D15*
X120000000Y-84020000D03*
%TD*%
D14*
%TO.C,R11*%
X172070000Y-73860000D03*
D15*
X172070000Y-63700000D03*
%TD*%
D14*
%TO.C,R10*%
X120000000Y-53540000D03*
D15*
X120000000Y-43380000D03*
%TD*%
D14*
%TO.C,R9*%
X172070000Y-33220000D03*
D15*
X172070000Y-23060000D03*
%TD*%
D16*
%TO.C,D9*%
X175880000Y-155140000D03*
D17*
X175880000Y-144980000D03*
%TD*%
D16*
%TO.C,D8*%
X116190000Y-133550000D03*
D17*
X116190000Y-123390000D03*
%TD*%
D16*
%TO.C,D7*%
X175880000Y-114500000D03*
D17*
X175880000Y-104340000D03*
%TD*%
D16*
%TO.C,D6*%
X116190000Y-94180000D03*
D17*
X116190000Y-84020000D03*
%TD*%
D16*
%TO.C,D5*%
X175880000Y-73860000D03*
D17*
X175880000Y-63700000D03*
%TD*%
D16*
%TO.C,D4*%
X116190000Y-53540000D03*
D17*
X116190000Y-43380000D03*
%TD*%
D16*
%TO.C,D3*%
X175880000Y-33220000D03*
D17*
X175880000Y-23060000D03*
%TD*%
D18*
%TO.C,U5*%
X117460000Y-171650000D03*
X114920000Y-171650000D03*
D19*
X120000000Y-171650000D03*
%TD*%
D14*
%TO.C,R8*%
X120000000Y-156410000D03*
D15*
X120000000Y-166570000D03*
%TD*%
D16*
%TO.C,D2*%
X141590000Y-24330000D03*
D17*
X131430000Y-24330000D03*
%TD*%
D16*
%TO.C,D1*%
X131430000Y-30680000D03*
D17*
X141590000Y-30680000D03*
%TD*%
D14*
%TO.C,R1*%
X150480000Y-96720000D03*
D15*
X150480000Y-106880000D03*
%TD*%
D14*
%TO.C,R2*%
X140320000Y-81480000D03*
D15*
X140320000Y-71320000D03*
%TD*%
D14*
%TO.C,R5*%
X146670000Y-96720000D03*
D15*
X146670000Y-106880000D03*
%TD*%
D14*
%TO.C,R4*%
X147940000Y-137360000D03*
D15*
X147940000Y-147520000D03*
%TD*%
D14*
%TO.C,R3*%
X150480000Y-122120000D03*
D15*
X150480000Y-111960000D03*
%TD*%
D14*
%TO.C,R6*%
X144130000Y-81480000D03*
D15*
X144130000Y-71320000D03*
%TD*%
D14*
%TO.C,R7*%
X146670000Y-122120000D03*
D15*
X146670000Y-111960000D03*
%TD*%
D20*
%TO.C,H1*%
X162300000Y-124952000D03*
%TD*%
D21*
%TO.C,J11*%
X120000000Y-139900000D03*
G36*
G01*
X120850001Y-143310000D02*
X119149999Y-143310000D01*
G75*
G02*
X118900000Y-143060001I0J249999D01*
G01*
X118900000Y-141819999D01*
G75*
G02*
X119149999Y-141570000I249999J0D01*
G01*
X120850001Y-141570000D01*
G75*
G02*
X121100000Y-141819999I0J-249999D01*
G01*
X121100000Y-143060001D01*
G75*
G02*
X120850001Y-143310000I-249999J0D01*
G01*
G37*
%TD*%
%TO.C,J13*%
X120000000Y-147520000D03*
X120000000Y-150060000D03*
G36*
G01*
X120850001Y-153470000D02*
X119149999Y-153470000D01*
G75*
G02*
X118900000Y-153220001I0J249999D01*
G01*
X118900000Y-151979999D01*
G75*
G02*
X119149999Y-151730000I249999J0D01*
G01*
X120850001Y-151730000D01*
G75*
G02*
X121100000Y-151979999I0J-249999D01*
G01*
X121100000Y-153220001D01*
G75*
G02*
X120850001Y-153470000I-249999J0D01*
G01*
G37*
%TD*%
D22*
%TO.C,J9*%
X140320000Y-178000000D03*
X137780000Y-178000000D03*
X135240000Y-178000000D03*
X132700000Y-178000000D03*
X130160000Y-178000000D03*
X127620000Y-178000000D03*
X125080000Y-178000000D03*
X122540000Y-178000000D03*
D23*
X120000000Y-178000000D03*
%TD*%
D24*
%TO.C,J6*%
X125080000Y-25600000D03*
X122540000Y-25600000D03*
X125080000Y-28140000D03*
X122540000Y-28140000D03*
X125080000Y-30680000D03*
X122540000Y-30680000D03*
X125080000Y-33220000D03*
X122540000Y-33220000D03*
X125080000Y-35760000D03*
D25*
X122540000Y-35760000D03*
%TD*%
D26*
%TO.C,U2*%
X137780000Y-133550000D03*
X153020000Y-125930000D03*
X140320000Y-133550000D03*
X150480000Y-125930000D03*
X142860000Y-133550000D03*
X147940000Y-125930000D03*
X145400000Y-133550000D03*
X145400000Y-125930000D03*
X147940000Y-133550000D03*
X142860000Y-125930000D03*
X150480000Y-133550000D03*
X140320000Y-125930000D03*
X153020000Y-133550000D03*
D27*
X137780000Y-125930000D03*
%TD*%
D14*
%TO.C,C4*%
X149210000Y-23060000D03*
D28*
X151210000Y-23060000D03*
%TD*%
D29*
%TO.C,J1*%
X137870000Y-113540000D03*
X135330000Y-113540000D03*
X132790000Y-113540000D03*
X130250000Y-113540000D03*
X127710000Y-113540000D03*
X125170000Y-113540000D03*
X122630000Y-113540000D03*
X137870000Y-111000000D03*
X135330000Y-111000000D03*
X132790000Y-111000000D03*
X130250000Y-111000000D03*
X127710000Y-111000000D03*
X125170000Y-111000000D03*
G36*
G01*
X122030000Y-110150000D02*
X123230000Y-110150000D01*
G75*
G02*
X123480000Y-110400000I0J-250000D01*
G01*
X123480000Y-111600000D01*
G75*
G02*
X123230000Y-111850000I-250000J0D01*
G01*
X122030000Y-111850000D01*
G75*
G02*
X121780000Y-111600000I0J250000D01*
G01*
X121780000Y-110400000D01*
G75*
G02*
X122030000Y-110150000I250000J0D01*
G01*
G37*
%TD*%
D22*
%TO.C,J14*%
X175000000Y-55160000D03*
X172460000Y-55160000D03*
X175000000Y-52620000D03*
X172460000Y-52620000D03*
X175000000Y-50080000D03*
X172460000Y-50080000D03*
X175000000Y-47540000D03*
X172460000Y-47540000D03*
X175000000Y-45000000D03*
D23*
X172460000Y-45000000D03*
%TD*%
D14*
%TO.C,C3*%
X151210000Y-30680000D03*
D28*
X149210000Y-30680000D03*
%TD*%
D26*
%TO.C,U1*%
X137780000Y-92910000D03*
X153020000Y-85290000D03*
X140320000Y-92910000D03*
X150480000Y-85290000D03*
X142860000Y-92910000D03*
X147940000Y-85290000D03*
X145400000Y-92910000D03*
X145400000Y-85290000D03*
X147940000Y-92910000D03*
X142860000Y-85290000D03*
X150480000Y-92910000D03*
X140320000Y-85290000D03*
X153020000Y-92910000D03*
D27*
X137780000Y-85290000D03*
%TD*%
D14*
%TO.C,C6*%
X137780000Y-139860000D03*
X137780000Y-137360000D03*
%TD*%
%TO.C,C5*%
X139000000Y-99500000D03*
X139000000Y-97000000D03*
%TD*%
M02*
