M48
; DRILL file {KiCad 5.1.10-88a1d61d58~90~ubuntu20.04.1} date Tue Sep 21 22:42:24 2021
; FORMAT={-:-/ absolute / inch / decimal}
; #@! TF.CreationDate,2021-09-21T22:42:24-04:00
; #@! TF.GenerationSoftware,Kicad,Pcbnew,5.1.10-88a1d61d58~90~ubuntu20.04.1
; #@! TF.FileFunction,Plated,1,2,PTH
FMAT,2
INCH
T1C0.0157
T2C0.0315
T3C0.0394
T4C0.0400
T5C0.0433
T6C0.0472
T7C0.0827
%
G90
G05
T1
X5.2869Y-4.4225
X5.317Y-4.0205
X5.4044Y-4.8329
X5.8044Y-5.1079
T2
X4.5244Y-6.7579
X4.6244Y-6.7579
X4.7244Y-1.7079
X4.7244Y-2.1079
X4.7244Y-3.3079
X4.7244Y-3.7079
X4.7244Y-4.8579
X4.7244Y-5.2579
X4.7244Y-6.1579
X4.7244Y-6.5579
X4.7244Y-6.7579
X5.4244Y-3.3579
X5.4244Y-3.6579
X5.4244Y-4.9579
X5.4244Y-5.2579
X5.4244Y-5.4079
X5.4244Y-5.5063
X5.4724Y-3.8189
X5.4724Y-3.9173
X5.5244Y-2.8079
X5.5244Y-3.2079
X5.5244Y-3.3579
X5.5244Y-3.6579
X5.5244Y-4.9579
X5.5244Y-5.2579
X5.6244Y-3.3579
X5.6244Y-3.6579
X5.6244Y-4.9579
X5.6244Y-5.2579
X5.6744Y-2.8079
X5.6744Y-3.2079
X5.7244Y-3.3579
X5.7244Y-3.6579
X5.7244Y-4.9579
X5.7244Y-5.2579
X5.7744Y-3.8079
X5.7744Y-4.2079
X5.7744Y-4.4079
X5.7744Y-4.8079
X5.8244Y-3.3579
X5.8244Y-3.6579
X5.8244Y-4.9579
X5.8244Y-5.2579
X5.8244Y-5.4079
X5.8244Y-5.8079
X5.8744Y-0.9079
X5.8744Y-1.2079
X5.9244Y-3.3579
X5.9244Y-3.6579
X5.9244Y-3.8079
X5.9244Y-4.2079
X5.9244Y-4.4079
X5.9244Y-4.8079
X5.9244Y-4.9579
X5.9244Y-5.2579
X5.9531Y-0.9079
X5.9531Y-1.2079
X6.0244Y-3.3579
X6.0244Y-3.6579
X6.0244Y-4.9579
X6.0244Y-5.2579
X6.7744Y-0.9079
X6.7744Y-1.3079
X6.7744Y-2.5079
X6.7744Y-2.9079
X6.7744Y-4.1079
X6.7744Y-4.5079
X6.7744Y-5.7079
X6.7744Y-6.1079
T3
X4.7244Y-7.0079
X4.8244Y-7.0079
X4.828Y-4.3701
X4.828Y-4.4701
X4.8622Y-1.8291
X4.8622Y-1.9276
X4.8622Y-2.026
X4.8622Y-3.4039
X4.8622Y-3.5024
X4.8622Y-3.6008
X4.8622Y-4.9787
X4.8622Y-5.0772
X4.8622Y-5.1756
X4.8622Y-6.4354
X4.8622Y-6.5339
X4.8622Y-6.6323
X4.9244Y-7.0079
X4.928Y-4.3701
X4.928Y-4.4701
X5.0244Y-7.0079
X5.028Y-4.3701
X5.028Y-4.4701
X5.1244Y-7.0079
X5.128Y-4.3701
X5.128Y-4.4701
X5.2244Y-7.0079
X5.228Y-4.3701
X5.228Y-4.4701
X5.3244Y-7.0079
X5.328Y-4.3701
X5.328Y-4.4701
X5.4244Y-7.0079
X5.428Y-4.3701
X5.428Y-4.4701
X5.5244Y-7.0079
X6.6339Y-1.0449
X6.6339Y-1.1433
X6.6339Y-1.2417
X6.6339Y-2.6197
X6.6339Y-2.7181
X6.6339Y-2.8165
X6.6339Y-4.1945
X6.6339Y-4.2929
X6.6339Y-4.3913
X6.6339Y-5.7693
X6.6339Y-5.8677
X6.6339Y-5.9661
X6.7898Y-1.7717
X6.7898Y-1.8717
X6.7898Y-1.9717
X6.7898Y-2.0717
X6.7898Y-2.1717
X6.8898Y-1.7717
X6.8898Y-1.8717
X6.8898Y-1.9717
X6.8898Y-2.0717
X6.8898Y-2.1717
T4
X4.8244Y-1.0079
X4.8244Y-1.1079
X4.8244Y-1.2079
X4.8244Y-1.3079
X4.8244Y-1.4079
X4.9244Y-1.0079
X4.9244Y-1.1079
X4.9244Y-1.2079
X4.9244Y-1.3079
X4.9244Y-1.4079
T5
X4.5744Y-1.7079
X4.5744Y-2.1079
X4.5744Y-3.3079
X4.5744Y-3.7079
X4.5744Y-4.8579
X4.5744Y-5.2579
X5.1744Y-0.9579
X5.1744Y-1.2079
X5.5744Y-0.9579
X5.5744Y-1.2079
X6.9244Y-0.9079
X6.9244Y-1.3079
X6.9244Y-2.5079
X6.9244Y-2.9079
X6.9244Y-4.1079
X6.9244Y-4.5079
X6.9244Y-5.7079
X6.9244Y-6.1079
T6
X4.7244Y-5.5079
X4.7244Y-5.6079
X4.7244Y-5.8079
X4.7244Y-5.9079
X4.7244Y-6.0079
T7
X3.7913Y-6.5354
X3.9764Y-6.5354
X4.1614Y-6.5354
T5
G00X5.1437Y-1.7386
M15
G01X5.1713Y-1.7386
M16
G05
G00X5.1437Y-2.1165
M15
G01X5.1713Y-2.1165
M16
G05
G00X5.1437Y-3.3134
M15
G01X5.1713Y-3.3134
M16
G05
G00X5.1437Y-3.6913
M15
G01X5.1713Y-3.6913
M16
G05
G00X5.1437Y-4.8882
M15
G01X5.1713Y-4.8882
M16
G05
G00X5.1437Y-5.2661
M15
G01X5.1713Y-5.2661
M16
G05
G00X5.1437Y-6.3449
M15
G01X5.1713Y-6.3449
M16
G05
G00X5.1437Y-6.7228
M15
G01X5.1713Y-6.7228
M16
G05
G00X6.3524Y-0.9543
M15
G01X6.3248Y-0.9543
M16
G05
G00X6.3524Y-1.3323
M15
G01X6.3248Y-1.3323
M16
G05
G00X6.3524Y-2.5291
M15
G01X6.3248Y-2.5291
M16
G05
G00X6.3524Y-2.9071
M15
G01X6.3248Y-2.9071
M16
G05
G00X6.3524Y-4.1039
M15
G01X6.3248Y-4.1039
M16
G05
G00X6.3524Y-4.4819
M15
G01X6.3248Y-4.4819
M16
G05
G00X6.3524Y-5.6787
M15
G01X6.3248Y-5.6787
M16
G05
G00X6.3524Y-6.0567
M15
G01X6.3248Y-6.0567
M16
G05
T0
M30
