%TF.GenerationSoftware,KiCad,Pcbnew,5.1.10-88a1d61d58~90~ubuntu20.04.1*%
%TF.CreationDate,2021-08-12T10:43:50-04:00*%
%TF.ProjectId,waveshaper,77617665-7368-4617-9065-722e6b696361,rev?*%
%TF.SameCoordinates,Original*%
%TF.FileFunction,Legend,Top*%
%TF.FilePolarity,Positive*%
%FSLAX46Y46*%
G04 Gerber Fmt 4.6, Leading zero omitted, Abs format (unit mm)*
G04 Created by KiCad (PCBNEW 5.1.10-88a1d61d58~90~ubuntu20.04.1) date 2021-08-12 10:43:50*
%MOMM*%
%LPD*%
G01*
G04 APERTURE LIST*
%ADD10C,0.100000*%
%ADD11C,0.120000*%
%ADD12C,0.150000*%
G04 APERTURE END LIST*
D10*
X249762142Y-180758571D02*
X250333571Y-180758571D01*
X250619285Y-180294285D02*
X251083571Y-180294285D01*
X250833571Y-180580000D01*
X250940714Y-180580000D01*
X251012142Y-180615714D01*
X251047857Y-180651428D01*
X251083571Y-180722857D01*
X251083571Y-180901428D01*
X251047857Y-180972857D01*
X251012142Y-181008571D01*
X250940714Y-181044285D01*
X250726428Y-181044285D01*
X250655000Y-181008571D01*
X250619285Y-180972857D01*
X247222142Y-180758571D02*
X247793571Y-180758571D01*
X248115000Y-180365714D02*
X248150714Y-180330000D01*
X248222142Y-180294285D01*
X248400714Y-180294285D01*
X248472142Y-180330000D01*
X248507857Y-180365714D01*
X248543571Y-180437142D01*
X248543571Y-180508571D01*
X248507857Y-180615714D01*
X248079285Y-181044285D01*
X248543571Y-181044285D01*
X244682142Y-180758571D02*
X245253571Y-180758571D01*
X246003571Y-181044285D02*
X245575000Y-181044285D01*
X245789285Y-181044285D02*
X245789285Y-180294285D01*
X245717857Y-180401428D01*
X245646428Y-180472857D01*
X245575000Y-180508571D01*
X242749285Y-180294285D02*
X242820714Y-180294285D01*
X242892142Y-180330000D01*
X242927857Y-180365714D01*
X242963571Y-180437142D01*
X242999285Y-180580000D01*
X242999285Y-180758571D01*
X242963571Y-180901428D01*
X242927857Y-180972857D01*
X242892142Y-181008571D01*
X242820714Y-181044285D01*
X242749285Y-181044285D01*
X242677857Y-181008571D01*
X242642142Y-180972857D01*
X242606428Y-180901428D01*
X242570714Y-180758571D01*
X242570714Y-180580000D01*
X242606428Y-180437142D01*
X242642142Y-180365714D01*
X242677857Y-180330000D01*
X242749285Y-180294285D01*
X239602142Y-180758571D02*
X240173571Y-180758571D01*
X239887857Y-181044285D02*
X239887857Y-180472857D01*
X240923571Y-181044285D02*
X240495000Y-181044285D01*
X240709285Y-181044285D02*
X240709285Y-180294285D01*
X240637857Y-180401428D01*
X240566428Y-180472857D01*
X240495000Y-180508571D01*
X237062142Y-180758571D02*
X237633571Y-180758571D01*
X237347857Y-181044285D02*
X237347857Y-180472857D01*
X237955000Y-180365714D02*
X237990714Y-180330000D01*
X238062142Y-180294285D01*
X238240714Y-180294285D01*
X238312142Y-180330000D01*
X238347857Y-180365714D01*
X238383571Y-180437142D01*
X238383571Y-180508571D01*
X238347857Y-180615714D01*
X237919285Y-181044285D01*
X238383571Y-181044285D01*
X234522142Y-180758571D02*
X235093571Y-180758571D01*
X234807857Y-181044285D02*
X234807857Y-180472857D01*
X235379285Y-180294285D02*
X235843571Y-180294285D01*
X235593571Y-180580000D01*
X235700714Y-180580000D01*
X235772142Y-180615714D01*
X235807857Y-180651428D01*
X235843571Y-180722857D01*
X235843571Y-180901428D01*
X235807857Y-180972857D01*
X235772142Y-181008571D01*
X235700714Y-181044285D01*
X235486428Y-181044285D01*
X235415000Y-181008571D01*
X235379285Y-180972857D01*
X231303571Y-180758571D02*
X231875000Y-180758571D01*
X231589285Y-181044285D02*
X231589285Y-180472857D01*
X232625000Y-181044285D02*
X232196428Y-181044285D01*
X232410714Y-181044285D02*
X232410714Y-180294285D01*
X232339285Y-180401428D01*
X232267857Y-180472857D01*
X232196428Y-180508571D01*
X233089285Y-180294285D02*
X233160714Y-180294285D01*
X233232142Y-180330000D01*
X233267857Y-180365714D01*
X233303571Y-180437142D01*
X233339285Y-180580000D01*
X233339285Y-180758571D01*
X233303571Y-180901428D01*
X233267857Y-180972857D01*
X233232142Y-181008571D01*
X233160714Y-181044285D01*
X233089285Y-181044285D01*
X233017857Y-181008571D01*
X232982142Y-180972857D01*
X232946428Y-180901428D01*
X232910714Y-180758571D01*
X232910714Y-180580000D01*
X232946428Y-180437142D01*
X232982142Y-180365714D01*
X233017857Y-180330000D01*
X233089285Y-180294285D01*
X233553571Y-180294285D02*
X233803571Y-181044285D01*
X234053571Y-180294285D01*
X228878571Y-180330000D02*
X228807142Y-180294285D01*
X228700000Y-180294285D01*
X228592857Y-180330000D01*
X228521428Y-180401428D01*
X228485714Y-180472857D01*
X228450000Y-180615714D01*
X228450000Y-180722857D01*
X228485714Y-180865714D01*
X228521428Y-180937142D01*
X228592857Y-181008571D01*
X228700000Y-181044285D01*
X228771428Y-181044285D01*
X228878571Y-181008571D01*
X228914285Y-180972857D01*
X228914285Y-180722857D01*
X228771428Y-180722857D01*
X229235714Y-181044285D02*
X229235714Y-180294285D01*
X229664285Y-181044285D01*
X229664285Y-180294285D01*
X230021428Y-181044285D02*
X230021428Y-180294285D01*
X230200000Y-180294285D01*
X230307142Y-180330000D01*
X230378571Y-180401428D01*
X230414285Y-180472857D01*
X230450000Y-180615714D01*
X230450000Y-180722857D01*
X230414285Y-180865714D01*
X230378571Y-180937142D01*
X230307142Y-181008571D01*
X230200000Y-181044285D01*
X230021428Y-181044285D01*
D11*
%TO.C,J15*%
X203150000Y-114350000D02*
X203150000Y-101100000D01*
X218900000Y-116850000D02*
X205200000Y-116850000D01*
X205200000Y-116850000D02*
X205150000Y-116850000D01*
X218900000Y-101100000D02*
X218900000Y-116850000D01*
X203150000Y-101100000D02*
X218900000Y-101100000D01*
X205150000Y-116850000D02*
X203150000Y-114350000D01*
%TO.C,J7*%
X228670000Y-179330000D02*
X228670000Y-178000000D01*
X230000000Y-179330000D02*
X228670000Y-179330000D01*
X231270000Y-179330000D02*
X231270000Y-176670000D01*
X231270000Y-176670000D02*
X251650000Y-176670000D01*
X231270000Y-179330000D02*
X251650000Y-179330000D01*
X251650000Y-179330000D02*
X251650000Y-176670000D01*
%TO.C,J12*%
X203150000Y-74350000D02*
X203150000Y-61100000D01*
X218900000Y-76850000D02*
X205200000Y-76850000D01*
X205200000Y-76850000D02*
X205150000Y-76850000D01*
X218900000Y-61100000D02*
X218900000Y-76850000D01*
X203150000Y-61100000D02*
X218900000Y-61100000D01*
X205150000Y-76850000D02*
X203150000Y-74350000D01*
%TO.C,J10*%
X203150000Y-54350000D02*
X203150000Y-41100000D01*
X218900000Y-56850000D02*
X205200000Y-56850000D01*
X205200000Y-56850000D02*
X205150000Y-56850000D01*
X218900000Y-41100000D02*
X218900000Y-56850000D01*
X203150000Y-41100000D02*
X218900000Y-41100000D01*
X205150000Y-56850000D02*
X203150000Y-54350000D01*
%TO.C,J6*%
X203150000Y-34350000D02*
X203150000Y-21100000D01*
X218900000Y-36850000D02*
X205200000Y-36850000D01*
X205200000Y-36850000D02*
X205150000Y-36850000D01*
X218900000Y-21100000D02*
X218900000Y-36850000D01*
X203150000Y-21100000D02*
X218900000Y-21100000D01*
X205150000Y-36850000D02*
X203150000Y-34350000D01*
%TO.C,J3*%
X263150000Y-186350000D02*
X263150000Y-173100000D01*
X278900000Y-188850000D02*
X265200000Y-188850000D01*
X265200000Y-188850000D02*
X265150000Y-188850000D01*
X278900000Y-173100000D02*
X278900000Y-188850000D01*
X263150000Y-173100000D02*
X278900000Y-173100000D01*
X265150000Y-188850000D02*
X263150000Y-186350000D01*
%TO.C,J2*%
X203150000Y-186350000D02*
X203150000Y-173100000D01*
X218900000Y-188850000D02*
X205200000Y-188850000D01*
X205200000Y-188850000D02*
X205150000Y-188850000D01*
X218900000Y-173100000D02*
X218900000Y-188850000D01*
X203150000Y-173100000D02*
X218900000Y-173100000D01*
X205150000Y-188850000D02*
X203150000Y-186350000D01*
%TO.C,J16*%
X203150000Y-134350000D02*
X203150000Y-121100000D01*
X218900000Y-136850000D02*
X205200000Y-136850000D01*
X205200000Y-136850000D02*
X205150000Y-136850000D01*
X218900000Y-121100000D02*
X218900000Y-136850000D01*
X203150000Y-121100000D02*
X218900000Y-121100000D01*
X205150000Y-136850000D02*
X203150000Y-134350000D01*
%TO.C,J17*%
X203150000Y-154350000D02*
X203150000Y-141100000D01*
X218900000Y-156850000D02*
X205200000Y-156850000D01*
X205200000Y-156850000D02*
X205150000Y-156850000D01*
X218900000Y-141100000D02*
X218900000Y-156850000D01*
X203150000Y-141100000D02*
X218900000Y-141100000D01*
X205150000Y-156850000D02*
X203150000Y-154350000D01*
%TO.C,J14*%
X203150000Y-94350000D02*
X203150000Y-81100000D01*
X218900000Y-96850000D02*
X205200000Y-96850000D01*
X205200000Y-96850000D02*
X205150000Y-96850000D01*
X218900000Y-81100000D02*
X218900000Y-96850000D01*
X203150000Y-81100000D02*
X218900000Y-81100000D01*
X205150000Y-96850000D02*
X203150000Y-94350000D01*
%TO.C,J15*%
D12*
X220952380Y-109809523D02*
X221666666Y-109809523D01*
X221809523Y-109857142D01*
X221904761Y-109952380D01*
X221952380Y-110095238D01*
X221952380Y-110190476D01*
X221952380Y-108809523D02*
X221952380Y-109380952D01*
X221952380Y-109095238D02*
X220952380Y-109095238D01*
X221095238Y-109190476D01*
X221190476Y-109285714D01*
X221238095Y-109380952D01*
X220952380Y-107904761D02*
X220952380Y-108380952D01*
X221428571Y-108428571D01*
X221380952Y-108380952D01*
X221333333Y-108285714D01*
X221333333Y-108047619D01*
X221380952Y-107952380D01*
X221428571Y-107904761D01*
X221523809Y-107857142D01*
X221761904Y-107857142D01*
X221857142Y-107904761D01*
X221904761Y-107952380D01*
X221952380Y-108047619D01*
X221952380Y-108285714D01*
X221904761Y-108380952D01*
X221857142Y-108428571D01*
%TO.C,J7*%
X227122380Y-178333333D02*
X227836666Y-178333333D01*
X227979523Y-178380952D01*
X228074761Y-178476190D01*
X228122380Y-178619047D01*
X228122380Y-178714285D01*
X227122380Y-177952380D02*
X227122380Y-177285714D01*
X228122380Y-177714285D01*
%TO.C,J12*%
X220952380Y-69809523D02*
X221666666Y-69809523D01*
X221809523Y-69857142D01*
X221904761Y-69952380D01*
X221952380Y-70095238D01*
X221952380Y-70190476D01*
X221952380Y-68809523D02*
X221952380Y-69380952D01*
X221952380Y-69095238D02*
X220952380Y-69095238D01*
X221095238Y-69190476D01*
X221190476Y-69285714D01*
X221238095Y-69380952D01*
X221047619Y-68428571D02*
X221000000Y-68380952D01*
X220952380Y-68285714D01*
X220952380Y-68047619D01*
X221000000Y-67952380D01*
X221047619Y-67904761D01*
X221142857Y-67857142D01*
X221238095Y-67857142D01*
X221380952Y-67904761D01*
X221952380Y-68476190D01*
X221952380Y-67857142D01*
%TO.C,J10*%
X220952380Y-49809523D02*
X221666666Y-49809523D01*
X221809523Y-49857142D01*
X221904761Y-49952380D01*
X221952380Y-50095238D01*
X221952380Y-50190476D01*
X221952380Y-48809523D02*
X221952380Y-49380952D01*
X221952380Y-49095238D02*
X220952380Y-49095238D01*
X221095238Y-49190476D01*
X221190476Y-49285714D01*
X221238095Y-49380952D01*
X220952380Y-48190476D02*
X220952380Y-48095238D01*
X221000000Y-48000000D01*
X221047619Y-47952380D01*
X221142857Y-47904761D01*
X221333333Y-47857142D01*
X221571428Y-47857142D01*
X221761904Y-47904761D01*
X221857142Y-47952380D01*
X221904761Y-48000000D01*
X221952380Y-48095238D01*
X221952380Y-48190476D01*
X221904761Y-48285714D01*
X221857142Y-48333333D01*
X221761904Y-48380952D01*
X221571428Y-48428571D01*
X221333333Y-48428571D01*
X221142857Y-48380952D01*
X221047619Y-48333333D01*
X221000000Y-48285714D01*
X220952380Y-48190476D01*
%TO.C,J6*%
X220952380Y-29333333D02*
X221666666Y-29333333D01*
X221809523Y-29380952D01*
X221904761Y-29476190D01*
X221952380Y-29619047D01*
X221952380Y-29714285D01*
X220952380Y-28428571D02*
X220952380Y-28619047D01*
X221000000Y-28714285D01*
X221047619Y-28761904D01*
X221190476Y-28857142D01*
X221380952Y-28904761D01*
X221761904Y-28904761D01*
X221857142Y-28857142D01*
X221904761Y-28809523D01*
X221952380Y-28714285D01*
X221952380Y-28523809D01*
X221904761Y-28428571D01*
X221857142Y-28380952D01*
X221761904Y-28333333D01*
X221523809Y-28333333D01*
X221428571Y-28380952D01*
X221380952Y-28428571D01*
X221333333Y-28523809D01*
X221333333Y-28714285D01*
X221380952Y-28809523D01*
X221428571Y-28857142D01*
X221523809Y-28904761D01*
%TO.C,J3*%
X280952380Y-181333333D02*
X281666666Y-181333333D01*
X281809523Y-181380952D01*
X281904761Y-181476190D01*
X281952380Y-181619047D01*
X281952380Y-181714285D01*
X280952380Y-180952380D02*
X280952380Y-180333333D01*
X281333333Y-180666666D01*
X281333333Y-180523809D01*
X281380952Y-180428571D01*
X281428571Y-180380952D01*
X281523809Y-180333333D01*
X281761904Y-180333333D01*
X281857142Y-180380952D01*
X281904761Y-180428571D01*
X281952380Y-180523809D01*
X281952380Y-180809523D01*
X281904761Y-180904761D01*
X281857142Y-180952380D01*
%TO.C,J2*%
X220952380Y-181333333D02*
X221666666Y-181333333D01*
X221809523Y-181380952D01*
X221904761Y-181476190D01*
X221952380Y-181619047D01*
X221952380Y-181714285D01*
X221047619Y-180904761D02*
X221000000Y-180857142D01*
X220952380Y-180761904D01*
X220952380Y-180523809D01*
X221000000Y-180428571D01*
X221047619Y-180380952D01*
X221142857Y-180333333D01*
X221238095Y-180333333D01*
X221380952Y-180380952D01*
X221952380Y-180952380D01*
X221952380Y-180333333D01*
%TO.C,J16*%
X220952380Y-129809523D02*
X221666666Y-129809523D01*
X221809523Y-129857142D01*
X221904761Y-129952380D01*
X221952380Y-130095238D01*
X221952380Y-130190476D01*
X221952380Y-128809523D02*
X221952380Y-129380952D01*
X221952380Y-129095238D02*
X220952380Y-129095238D01*
X221095238Y-129190476D01*
X221190476Y-129285714D01*
X221238095Y-129380952D01*
X220952380Y-127952380D02*
X220952380Y-128142857D01*
X221000000Y-128238095D01*
X221047619Y-128285714D01*
X221190476Y-128380952D01*
X221380952Y-128428571D01*
X221761904Y-128428571D01*
X221857142Y-128380952D01*
X221904761Y-128333333D01*
X221952380Y-128238095D01*
X221952380Y-128047619D01*
X221904761Y-127952380D01*
X221857142Y-127904761D01*
X221761904Y-127857142D01*
X221523809Y-127857142D01*
X221428571Y-127904761D01*
X221380952Y-127952380D01*
X221333333Y-128047619D01*
X221333333Y-128238095D01*
X221380952Y-128333333D01*
X221428571Y-128380952D01*
X221523809Y-128428571D01*
%TO.C,J17*%
X220952380Y-149809523D02*
X221666666Y-149809523D01*
X221809523Y-149857142D01*
X221904761Y-149952380D01*
X221952380Y-150095238D01*
X221952380Y-150190476D01*
X221952380Y-148809523D02*
X221952380Y-149380952D01*
X221952380Y-149095238D02*
X220952380Y-149095238D01*
X221095238Y-149190476D01*
X221190476Y-149285714D01*
X221238095Y-149380952D01*
X220952380Y-148476190D02*
X220952380Y-147809523D01*
X221952380Y-148238095D01*
%TO.C,J14*%
X220952380Y-89809523D02*
X221666666Y-89809523D01*
X221809523Y-89857142D01*
X221904761Y-89952380D01*
X221952380Y-90095238D01*
X221952380Y-90190476D01*
X221952380Y-88809523D02*
X221952380Y-89380952D01*
X221952380Y-89095238D02*
X220952380Y-89095238D01*
X221095238Y-89190476D01*
X221190476Y-89285714D01*
X221238095Y-89380952D01*
X221285714Y-87952380D02*
X221952380Y-87952380D01*
X220904761Y-88190476D02*
X221619047Y-88428571D01*
X221619047Y-87809523D01*
%TD*%
M02*
