%TF.GenerationSoftware,KiCad,Pcbnew,5.1.10-88a1d61d58~90~ubuntu20.04.1*%
%TF.CreationDate,2021-08-07T13:54:16-04:00*%
%TF.ProjectId,waveshaper,77617665-7368-4617-9065-722e6b696361,rev?*%
%TF.SameCoordinates,Original*%
%TF.FileFunction,Soldermask,Top*%
%TF.FilePolarity,Negative*%
%FSLAX46Y46*%
G04 Gerber Fmt 4.6, Leading zero omitted, Abs format (unit mm)*
G04 Created by KiCad (PCBNEW 5.1.10-88a1d61d58~90~ubuntu20.04.1) date 2021-08-07 13:54:16*
%MOMM*%
%LPD*%
G01*
G04 APERTURE LIST*
%ADD10C,4.500001*%
%ADD11C,4.500000*%
%ADD12R,4.500001X4.500001*%
%ADD13O,1.700000X1.700000*%
%ADD14R,1.700000X1.700000*%
%ADD15O,1.740000X2.200000*%
G04 APERTURE END LIST*
D10*
%TO.C,J17*%
X213500000Y-155400000D03*
D11*
X204600000Y-146500000D03*
D10*
X217400000Y-149500000D03*
D12*
X206260000Y-153740000D03*
D11*
X210500000Y-142600000D03*
%TD*%
D10*
%TO.C,J14*%
X213500000Y-95400000D03*
D11*
X204600000Y-86500000D03*
D10*
X217400000Y-89500000D03*
D12*
X206260000Y-93740000D03*
D11*
X210500000Y-82600000D03*
%TD*%
D10*
%TO.C,J15*%
X213500000Y-115400000D03*
D11*
X204600000Y-106500000D03*
D10*
X217400000Y-109500000D03*
D12*
X206260000Y-113740000D03*
D11*
X210500000Y-102600000D03*
%TD*%
D13*
%TO.C,J7*%
X250320000Y-178000000D03*
X247780000Y-178000000D03*
X245240000Y-178000000D03*
X242700000Y-178000000D03*
X240160000Y-178000000D03*
X237620000Y-178000000D03*
X235080000Y-178000000D03*
X232540000Y-178000000D03*
D14*
X230000000Y-178000000D03*
%TD*%
D15*
%TO.C,J4*%
X238960000Y-186250000D03*
G36*
G01*
X242370000Y-185399999D02*
X242370000Y-187100001D01*
G75*
G02*
X242120001Y-187350000I-249999J0D01*
G01*
X240879999Y-187350000D01*
G75*
G02*
X240630000Y-187100001I0J249999D01*
G01*
X240630000Y-185399999D01*
G75*
G02*
X240879999Y-185150000I249999J0D01*
G01*
X242120001Y-185150000D01*
G75*
G02*
X242370000Y-185399999I0J-249999D01*
G01*
G37*
%TD*%
D10*
%TO.C,J12*%
X213500000Y-75400000D03*
D11*
X204600000Y-66500000D03*
D10*
X217400000Y-69500000D03*
D12*
X206260000Y-73740000D03*
D11*
X210500000Y-62600000D03*
%TD*%
D10*
%TO.C,J10*%
X213500000Y-55400000D03*
D11*
X204600000Y-46500000D03*
D10*
X217400000Y-49500000D03*
D12*
X206260000Y-53740000D03*
D11*
X210500000Y-42600000D03*
%TD*%
D10*
%TO.C,J6*%
X213500000Y-35400000D03*
D11*
X204600000Y-26500000D03*
D10*
X217400000Y-29500000D03*
D12*
X206260000Y-33740000D03*
D11*
X210500000Y-22600000D03*
%TD*%
D10*
%TO.C,J3*%
X273500000Y-187400000D03*
D11*
X264600000Y-178500000D03*
D10*
X277400000Y-181500000D03*
D12*
X266260000Y-185740000D03*
D11*
X270500000Y-174600000D03*
%TD*%
D10*
%TO.C,J2*%
X213500000Y-187400000D03*
D11*
X204600000Y-178500000D03*
D10*
X217400000Y-181500000D03*
D12*
X206260000Y-185740000D03*
D11*
X210500000Y-174600000D03*
%TD*%
D10*
%TO.C,J16*%
X213500000Y-135400000D03*
D11*
X204600000Y-126500000D03*
D10*
X217400000Y-129500000D03*
D12*
X206260000Y-133740000D03*
D11*
X210500000Y-122600000D03*
%TD*%
M02*
